<svg width="449" height="618" viewBox="0 0 449 618" fill="none" xmlns="http://www.w3.org/2000/svg">
<path d="M262.481 432.512C260.198 442.472 255.387 451.867 248.708 459.603C235.269 475.163 215.271 483.838 194.665 481.215C181.061 479.491 168.479 473.538 158.616 464.442C157.492 467.038 155.781 469.278 152.94 470.468C151.426 471.098 149.762 471.327 148.176 471.121C133.321 500.255 100.477 518.073 68.213 518.173C30.955 518.306 -3.47062 497.175 -27.8956 470.319C-57.1553 438.154 -72.0204 398.061 -79.6554 355.861C-83.3722 335.339 -88.0284 313.908 -87.2598 292.946C-86.5253 273.329 -79.0233 254.314 -65.8702 239.692C-51.3011 223.48 -31.1487 215.568 -11.5161 207.26C7.04625 199.411 25.8149 190.582 45.5005 185.895C62.1847 181.923 79.9476 182.24 94.4848 192.313C108.289 201.891 117.594 219.435 133.669 225.499C154.976 233.553 168.888 210.176 177.952 195.141C188.385 177.812 201.858 164.524 220.956 157.13C258.546 142.571 298.777 154.044 332.837 172.369C367.404 190.975 400.185 219.457 402.293 261.335C403.976 294.433 385.866 324.41 357.687 339.64C354.539 360.104 339.708 378.342 320.072 385.292C310.667 388.626 301.14 388.51 291.288 388.683C281.127 388.87 269.3 390.085 265.692 401.322C262.503 411.26 264.798 422.319 262.481 432.512ZM134.74 202.229C135.738 207.315 140.989 210.053 145.87 209.256C149.557 208.658 152.175 206.456 154.224 203.691C156.272 201.866 157.659 199.323 157.973 196.738C157.998 196.565 158.038 196.392 158.034 196.225C158.244 193.07 156.799 189.928 152.93 188.057C144.356 183.9 132.901 192.892 134.74 202.229ZM311.313 402.106C311.348 400.271 310.472 398.369 308.504 397.932C304.794 397.118 300.747 396.408 297.431 398.823C293.413 398.039 288.288 399.593 285.335 401.762C278.508 406.795 282.087 415.793 290.172 416.262C294.605 416.513 298.99 414.985 302.767 412.484C306.381 411.967 308.904 409.244 310.904 406.293C311.902 404.836 311.897 403.337 311.313 402.106ZM373.927 345.403C369.758 341.612 363.363 347.659 367.565 351.482C371.737 355.277 378.142 349.238 373.927 345.403ZM163.403 486.055C159.214 482.244 153.062 488.552 157.273 492.383C161.463 496.194 167.614 489.885 163.403 486.055Z" fill="#2A1D1B"/>
<path d="M163.841 436.127C163.47 436.568 163.108 437.009 162.746 437.442C161.851 438.263 160.818 438.809 159.64 439.06C159.072 439.111 158.496 439.155 157.931 439.202C157.055 439.198 156.242 438.98 155.497 438.551C154.684 438.255 153.989 437.771 153.403 437.106C152.754 436.46 152.306 435.695 152.078 434.834C151.706 434.028 151.564 433.192 151.64 432.288L151.597 431.479C151.661 430.331 151.994 429.264 152.599 428.282C152.97 427.849 153.331 427.4 153.69 426.971C154.584 426.151 155.622 425.601 156.8 425.349C157.364 425.302 157.94 425.259 158.508 425.208C159.38 425.215 160.193 425.433 160.939 425.863C161.76 426.158 162.451 426.639 163.036 427.304C163.682 427.953 164.13 428.719 164.358 429.58C164.734 430.381 164.876 431.226 164.8 432.122L164.839 432.935C164.778 434.078 164.446 435.145 163.841 436.127ZM264.306 349.814C272.403 341.128 282.115 335.934 293.237 332.132C297.403 330.709 301.495 329.256 305.324 327.441C311.334 324.598 317.477 321.985 323.853 320.083C337.906 315.881 351.146 309.563 361.145 298.358C376.56 281.095 377.85 258.32 367.828 237.929C363.23 228.563 356.893 220.45 349.392 213.719C348.721 198.085 332.05 187.946 317.674 195.65C299.441 189.802 279.308 189.772 261.014 196.737C241.078 204.325 224.118 219.164 214.408 238.194C205.032 256.593 199.597 286.756 175.598 291.224C152.205 295.574 132.084 276.5 114.537 264.211C95.9364 251.172 75.1485 241.086 53.4079 234.458C51.1152 228.194 46.3373 222.969 39.5971 220.79C31.5287 218.181 22.3966 220.736 16.5745 226.683C4.03428 225.406 -8.60634 225.796 -20.6904 229.081C-42.0029 234.864 -62.4967 251.063 -66.5192 273.781C-70.041 293.647 -60.6616 314.496 -41.6614 322.451C-36.428 324.644 -30.329 325.757 -25.5625 328.934C-21.0139 331.982 -20.1677 336.175 -20.7052 341.351C-21.7522 351.346 -24.9087 360.931 -25.5426 371.046C-26.8473 391.614 -22.5551 412.068 -13.33 429.742C-18.6249 444.595 -14.5439 461.877 -2.56767 472.336C9.36719 482.78 27.4047 484.249 41.216 476.824C78.5216 488.64 122.368 471.975 137.837 434.562C141.194 426.45 144.196 411.628 156.097 416.782C165.63 420.902 170.168 431.053 175.794 439.041C182.279 448.232 190.72 455.863 202.441 456.543C212.108 457.113 221.856 452.753 228.842 446.27C246.8 429.6 244.919 403.535 249.07 381.472C251.286 369.653 256.047 358.68 264.306 349.814ZM295.509 339.505C284.325 344.145 274.9 351.896 268.481 362.178C264.011 369.332 274.497 377.384 279.016 370.159C284.304 361.711 291.358 355.531 300.58 351.704C308.437 348.456 303.374 336.265 295.509 339.505ZM-29.961 399.176C-36.2281 393.475 -45.6422 402.729 -39.3282 408.473C-33.0689 414.182 -23.6555 404.912 -29.961 399.176ZM47.4823 207.896C47.5095 208.816 47.7694 209.659 48.2411 210.415C48.5692 211.235 49.0905 211.919 49.7853 212.481C50.2559 212.785 50.7313 213.101 51.2016 213.396C52.2479 213.897 53.3501 214.113 54.5163 214.046C55.0936 213.933 55.674 213.8 56.2513 213.687C57.3695 213.296 58.3206 212.644 59.0968 211.739L59.8675 210.892C60.4523 210.249 60.8536 209.517 61.0541 208.672C61.3912 207.874 61.5231 207.045 61.4324 206.161C61.4052 205.241 61.1453 204.398 60.6736 203.642C60.3455 202.822 59.8242 202.138 59.1294 201.576C58.6587 201.272 58.1834 200.957 57.7131 200.661C56.6625 200.157 55.5646 199.944 54.3984 200.011C53.8211 200.124 53.2407 200.258 52.6591 200.367C51.5452 200.761 50.5941 201.414 49.8179 202.318L49.0472 203.165C48.4624 203.808 48.061 204.54 47.8606 205.385C47.5073 206.184 47.3916 207.012 47.4823 207.896ZM117.417 245.332C117.193 246.186 117.183 247.01 117.39 247.851C117.451 248.716 117.725 249.51 118.212 250.249C118.666 251.051 119.278 251.686 120.05 252.146C120.717 252.722 121.496 253.088 122.375 253.251C122.94 253.305 123.493 253.365 124.062 253.415C125.225 253.376 126.298 253.053 127.297 252.46C127.752 252.088 128.211 251.72 128.67 251.343C129.476 250.474 130.027 249.458 130.294 248.3L130.701 247.083C130.926 246.229 130.931 245.402 130.729 244.564C130.667 243.699 130.393 242.905 129.906 242.158C129.453 241.365 128.84 240.73 128.069 240.269C127.402 239.694 126.618 239.323 125.739 239.161C125.178 239.11 124.621 239.047 124.056 239C122.889 239.035 121.824 239.359 120.822 239.956C120.362 240.324 119.907 240.696 119.449 241.072C118.642 241.941 118.091 242.958 117.824 244.115L117.417 245.332ZM136.116 265.26C146.019 278.151 163.827 282.524 177.862 273.349C192.22 263.963 193.104 245.448 204.193 233.617C210.015 227.413 200.116 218.649 194.301 224.844C185.73 233.993 183.413 246.342 176.449 256.401C169.447 266.527 155.097 268.334 147.204 258.057C142.038 251.351 130.927 258.501 136.116 265.26ZM-32.5089 385.965C-34.0903 371.914 -33.2937 358.003 -29.9466 344.265C-29.4077 342.048 -30.0953 339.399 -31.8703 337.878C-34.8092 335.352 -37.7516 332.839 -40.6948 330.31C-47.1281 324.8 -56.1831 334.412 -49.6987 339.968C-47.6941 341.69 -45.6895 343.413 -43.6726 345.139C-46.5163 358.665 -47.2668 372.517 -45.7202 386.264C-44.7732 394.658 -31.5592 394.415 -32.5089 385.965ZM219.007 186.309C221.347 192.889 228.328 195.761 234.739 193.392C237.121 192.509 239.32 191.102 241.396 189.41C245.996 187.612 250.335 184.595 252.585 181.421C256.609 175.714 255.378 167.856 248.724 164.837C236.299 159.183 213.524 170.911 219.007 186.309ZM337.577 344.837C338.354 342.588 336.531 340.034 334.366 339.497C331.884 338.873 329.815 340.437 329.025 342.699C328.038 345.521 325.802 347.338 323.139 348.486C320.954 349.425 320.517 352.676 321.631 354.522C322.998 356.792 325.484 356.984 327.676 356.037C332.547 353.916 335.854 349.759 337.577 344.837ZM112.182 479.82C107.985 476.001 102.046 482.503 106.257 486.334C110.451 490.149 116.393 483.65 112.182 479.82ZM48.3571 487.047C48.3405 486.783 48.3313 486.503 48.3147 486.239C48.3026 485.636 48.1335 485.078 47.8166 484.579C47.6038 484.044 47.261 483.599 46.8077 483.234C46.3812 482.83 45.8876 482.56 45.3271 482.424C44.7859 482.18 44.2152 482.089 43.6078 482.167C43.2244 482.246 42.8372 482.33 42.4497 482.405C41.7206 482.668 41.1048 483.088 40.5951 483.682C40.3817 483.994 40.1803 484.301 39.9669 484.613C39.6174 485.322 39.4697 486.074 39.5236 486.87L39.5617 487.675C39.5743 488.286 39.7514 488.844 40.0641 489.338C40.2769 489.874 40.6155 490.314 41.0691 490.688C41.4914 491.088 41.9892 491.362 42.5498 491.498C43.0948 491.737 43.6655 491.828 44.2691 491.755C44.6563 491.672 45.0396 491.592 45.4268 491.509C46.152 491.25 46.7759 490.83 47.2817 490.24C47.4951 489.928 47.6965 489.621 47.9057 489.306C48.2551 488.596 48.4068 487.84 48.3571 487.047Z" fill="#372724"/>
<path d="M226.74 438.787C217.307 446.343 203.295 440.32 197.423 430.558C194.444 433.995 189.316 434.979 185.297 431.759C181.998 429.1 181.501 424.54 183.464 421.167C182.787 420.637 182.113 420.086 181.465 419.481C173.309 411.751 171.15 400.216 169.71 389.569C169.321 386.609 168.877 382.649 168.027 378.623C164.19 382.182 159.19 384.489 153.87 384.691C147.542 384.934 141.611 382.301 137.276 378C136.76 379.483 136.338 380.913 135.989 382.229C139.86 389.812 148.141 392.692 156.018 389.353C161.246 387.138 164.546 395.314 159.338 397.524C149.935 401.505 140.008 399.392 133.221 392.953C127.91 413.161 121.776 432.674 105.808 447.722C90.0572 462.564 67.4224 470.28 46.5092 462.196C36.4825 458.327 27.7048 450.886 22.7177 441.323C20.1636 436.425 18.8803 431.172 18.2265 425.707C17.5936 420.509 17.6592 415.006 15.7548 410.06C11.6771 399.48 -0.667173 394.421 -5.85657 384.285C-10.6792 374.841 -9.00741 363.928 -3.83205 354.988C2.38301 344.256 12.4882 337.467 20.6103 328.376C26.287 322.024 33.8461 308.18 24.5603 301.282C16.82 295.532 4.58684 301.436 -3.38674 303.675C-13.074 306.378 -23.73 307.897 -32.7112 302.271C-41.4578 296.781 -44.956 286.223 -43.7266 276.292C-42.3766 265.383 -34.998 256.681 -25.5237 251.629C-4.95753 240.662 20.9443 244.99 41.8076 252.796C47.5938 254.963 53.1782 257.514 58.6356 260.307C72.8828 258.998 85.6881 266.741 91.4442 279.812C97.5779 283.726 103.715 287.629 109.965 291.322C116.462 295.162 123.254 298.875 130.275 302.087C132.157 296.897 138.452 294.742 143.341 297.758C146.946 299.987 147.979 304.676 146.545 308.383C156.588 311.481 166.985 313.112 177.571 312.346C189.728 311.454 201.179 307.119 210.016 299.774C207.508 298.1 205.836 295.303 205.489 292.28C205.009 288.077 207.256 284.068 211.044 282.23C212.7 281.418 214.674 281.105 216.569 281.297C217.5 281.249 218.435 281.384 219.3 281.758C220.523 282.271 221.572 282.999 222.443 283.855C223.821 280.945 224.929 277.845 225.715 274.545C228.518 262.755 230.589 251.326 236.991 240.826C243.137 230.707 251.716 221.97 261.957 215.981C281.122 204.782 304.41 203.371 324.987 211.671C342.998 218.952 360.424 235.488 361.354 256.012C362.488 281.117 338.131 292.993 317.216 298.126C306.849 300.67 296.22 301.996 285.587 302.095C283.111 305.912 279.531 309.129 275.557 311.419C270.254 314.477 264.321 316.013 258.826 318.632C253.065 321.382 248.785 325.744 245.858 331.399C240.221 342.275 240.006 354.888 239.57 366.854C239.058 381.086 237.296 397.854 229.511 410.107C234.644 419.655 235.643 431.651 226.74 438.787ZM19.2842 315.07C19.4069 314.217 19.3185 313.382 19.0144 312.553C18.7529 312.019 18.4917 311.494 18.2302 310.96C17.568 309.969 16.689 309.216 15.6171 308.692C15.079 308.514 14.5487 308.327 14.0191 308.157C12.8801 307.937 11.7589 308.007 10.6515 308.369C10.3595 308.485 10.0594 308.601 9.75082 308.709C8.87499 308.97 8.11831 309.426 7.49322 310.079C6.78417 310.593 6.25819 311.274 5.88972 312.098C5.48644 312.875 5.28448 313.687 5.30859 314.542C5.18209 315.399 5.27049 316.234 5.57455 317.063C5.8361 317.597 6.10113 318.118 6.35882 318.656C7.02482 319.643 7.89996 320.4 8.97183 320.924C9.50993 321.102 10.0403 321.289 10.5699 321.46C11.7088 321.679 12.8301 321.609 13.9375 321.247C14.2333 321.127 14.5295 321.016 14.8381 320.907C15.714 320.646 16.4706 320.19 17.0958 319.537C17.8048 319.023 18.3308 318.342 18.6993 317.518C19.094 316.733 19.3002 315.925 19.2842 315.07ZM9.78838 415.712C9.76456 415.123 9.71634 414.534 9.68827 413.941C9.46331 412.802 8.97116 411.787 8.22073 410.909C7.80349 410.53 7.39051 410.154 6.97327 409.775C5.98816 409.104 4.90615 408.711 3.72416 408.616C3.31764 408.636 2.91536 408.659 2.50885 408.678C1.61143 408.57 0.749571 408.696 -0.0732726 409.045C-0.915037 409.251 -1.65 409.649 -2.29441 410.238C-2.98568 410.784 -3.49152 411.459 -3.81623 412.261C-4.29811 413.013 -4.54808 413.844 -4.57857 414.75C-4.5505 415.343 -4.51041 415.932 -4.47846 416.522C-4.25312 417.668 -3.76524 418.68 -3.01092 419.553C-2.59368 419.932 -2.17644 420.312 -1.76346 420.688C-0.782204 421.362 0.30792 421.755 1.48563 421.846C1.89216 421.827 2.29483 421.812 2.70136 421.792C3.60263 421.896 4.45636 421.771 5.28306 421.418C6.12522 421.219 6.86405 420.817 7.50422 420.225C8.19549 419.679 8.69745 419.007 9.03029 418.205C9.50016 417.458 9.74627 416.631 9.78838 415.712ZM288.445 319.362C294.729 325.078 303.856 315.532 297.551 309.796C291.262 304.076 282.139 313.626 288.445 319.362Z" fill="#291D1B"/>
<path d="M150.297 329.917C151.564 328.105 153.841 327.321 155.949 327.947L156.527 328.115L161.911 329.706C165.99 330.919 166.901 336.299 163.436 338.773L162.435 339.48C161.974 339.808 161.573 340.214 161.248 340.665L156.364 347.48C155.714 348.391 154.795 349.033 153.796 349.354C152.648 349.726 151.371 349.692 150.19 349.186L145.715 347.254C142.737 345.977 141.687 342.299 143.534 339.645L150.297 329.917ZM-30.5743 280.087L-30.5454 279.148C-30.5305 278.773 -30.3426 278.438 -30.0348 278.228L-29.3242 277.746C-28.6457 277.274 -28.6524 276.272 -29.322 275.81L-33.6178 272.852C-33.8113 272.723 -33.9631 272.53 -34.0551 272.306L-34.1917 271.917C-34.4621 271.197 -35.3467 270.929 -35.9736 271.37L-37.6841 272.592C-37.9757 272.801 -38.1636 273.136 -38.1792 273.495L-38.3003 276.793C-38.3127 277.046 -38.2358 277.295 -38.0949 277.517L-36.6797 279.528L-34.3287 282.888C-33.874 283.543 -32.9034 283.562 -32.4371 282.913L-30.8083 280.737C-30.6627 280.543 -30.5922 280.312 -30.5743 280.087ZM214.253 414.511C213.559 413.88 212.584 413.678 211.713 413.959C211.585 414.006 211.452 414.049 211.333 414.12L209.972 414.795C208.348 415.614 208.049 417.808 209.403 419.039L212.221 421.603C212.515 421.871 212.883 422.073 213.263 422.177L217.425 423.35L219.944 424.062C220.89 424.331 221.915 424.042 222.574 423.318L222.709 423.169C224.344 421.372 222.827 418.506 220.419 418.844C219.654 418.95 218.881 418.721 218.31 418.202L214.253 414.511ZM268.148 228.95C268.849 227.914 269.631 226.96 270.491 226.109C275.168 221.361 282.023 219.256 288.697 220.713L298.313 222.809C299.532 223.077 300.815 222.813 301.824 222.097L306.179 218.978C307.815 217.812 310.031 217.899 311.571 219.175L323.524 229.146L345.705 248.265C349.901 251.888 351.888 257.461 350.904 262.915L349.882 268.537C349.415 271.146 346.732 272.752 344.2 271.935L303.281 258.84C303.013 258.759 302.754 258.641 302.512 258.513L288.073 250.6C286.784 249.886 285.199 249.876 283.899 250.553L283.835 250.596L278.154 253.583C276.381 254.514 274.184 254.133 272.842 252.648L269.181 248.633C268.179 247.527 266.696 247.011 265.224 247.235C263.825 247.464 262.512 247.009 261.558 246.141C260.613 245.282 260.036 244.017 260.132 242.603L260.177 241.835C260.234 241.054 260.475 240.293 260.92 239.64L268.148 228.95ZM339.338 258.898C338.99 259.282 338.967 259.931 339.406 260.329L340.351 261.189C340.538 261.36 340.795 261.453 341.06 261.445L343.9 261.368C344.01 261.358 344.1 261.37 344.215 261.398L344.443 261.472C345.121 261.677 345.791 261.119 345.717 260.414L345.689 260C345.653 259.749 345.545 259.526 345.357 259.355L342.824 257.051C342.415 256.679 341.785 256.705 341.409 257.118L340.317 258.318C340.193 258.455 340.023 258.556 339.833 258.602C339.632 258.66 339.466 258.758 339.338 258.898ZM299.587 238.626L299.252 240.85C299.052 242.217 300 243.476 301.373 243.659L311.86 245.013C312.36 245.079 312.83 245.289 313.196 245.622L314.874 247.148C315.874 248.058 317.436 248.001 318.346 247C319.086 246.187 319.188 244.988 318.623 244.053L311.877 232.976C311.113 231.721 309.432 231.405 308.264 232.312L303.568 235.969C303.219 236.242 302.803 236.417 302.365 236.462L301.714 236.554C300.62 236.695 299.747 237.535 299.587 238.626ZM290.853 230.292C290.644 230.522 290.569 230.835 290.636 231.137L291.686 236.449C291.741 236.748 291.653 237.058 291.444 237.288L289.729 239.174C289.152 239.808 289.611 240.826 290.466 240.802L292.952 240.737C293.331 240.731 293.686 240.486 293.815 240.113L296.639 232.801C296.724 232.614 296.87 232.435 297.052 232.313L299.751 230.722C299.826 230.674 299.909 230.617 299.967 230.553C300.207 230.289 300.271 229.92 300.173 229.574C299.982 229.049 299.39 228.776 298.87 228.988L298.271 229.244C297.912 229.408 297.497 229.326 297.215 229.046L295.185 227.051C294.784 226.655 294.149 226.669 293.777 227.077L290.853 230.292ZM241.397 247.665L240.755 248.747C240.28 249.56 240.251 250.576 240.686 251.423L244.393 258.63C244.881 259.565 245.85 260.151 246.904 260.137L247.12 260.131L248.28 260.113C249.795 260.09 251.004 258.872 251.01 257.36C251.018 256.488 251.447 255.657 252.152 255.138L252.688 254.746C253.57 254.11 253.991 253.006 253.769 251.941L251.792 242.704C251.349 240.651 248.881 239.815 247.283 241.178L243.48 244.426C243.253 244.624 243.057 244.857 242.906 245.125L241.397 247.665ZM-29.9216 265.718L-27.1022 270.454C-26.7029 271.144 -25.7412 271.233 -25.216 270.621L-23.4348 268.569C-23.2799 268.399 -23.1765 268.174 -23.1512 267.932L-23.0487 266.998C-23.0006 266.637 -22.796 266.31 -22.475 266.12L-21.7416 265.69C-21.0198 265.273 -20.9525 264.283 -21.5919 263.772L-24.62 261.344L-25.6534 260.513C-25.8361 260.354 -25.9801 260.153 -26.0435 259.932L-26.1688 259.523C-26.3784 258.795 -27.2378 258.457 -27.8876 258.846L-29.6894 259.946C-30.0066 260.132 -30.2115 260.451 -30.2433 260.811L-30.618 264.089C-30.651 264.339 -30.5938 264.601 -30.4575 264.81L-29.9216 265.718ZM263.385 286.412L260.718 282.476C260.569 282.255 260.471 282.002 260.431 281.756L260.339 281.182C260.121 279.856 258.58 279.224 257.493 280.025L256.568 280.716C256.163 281.017 255.655 281.13 255.149 281.028L254.631 280.93L250.493 280.107C249.535 279.92 248.586 280.536 248.383 281.495L247.907 283.754C247.802 284.28 247.917 284.821 248.251 285.241L249.113 286.337C249.612 286.969 249.629 287.849 249.159 288.502C248.55 289.334 248.764 290.501 249.63 291.063L251.35 292.184C251.581 292.332 251.834 292.43 252.112 292.457C252.293 292.49 252.484 292.485 252.674 292.447L260.672 290.9C261.052 290.833 261.397 290.641 261.665 290.347L263.233 288.623C263.791 288.01 263.857 287.09 263.385 286.412ZM16.6246 347.734L11.8582 353.692C10.7575 355.056 11.6117 357.093 13.3604 357.284L16.7968 357.663C16.9396 357.668 17.0716 357.703 17.2122 357.745L29.5348 361.485L33.6437 362.733C33.7185 362.762 33.797 362.787 33.8721 362.824L62.5834 375.124C63.7807 375.629 65.1495 375.022 65.5603 373.801C65.7324 373.304 65.7229 372.759 65.5244 372.267L64.1259 368.715C64.0056 368.411 63.95 368.096 63.9714 367.773L64.2163 363.475C64.3751 360.717 62.3944 358.293 59.6503 357.905L38.7471 354.942C38.5663 354.91 38.3894 354.873 38.2191 354.804L26.1713 349.898L19.2006 347.066C18.2827 346.698 17.2446 346.975 16.6246 347.734ZM68.9844 297C68.9767 297.009 68.9767 297.009 68.9767 297.009L63.865 304.364C62.4148 306.438 63.2431 309.307 65.5515 310.302L70.3013 312.351C72.0232 313.093 74.0215 312.53 75.1192 311.015L75.4934 310.484L79.6096 304.736C79.8738 304.377 80.1852 304.069 80.5395 303.808L82.2306 302.607C84.9344 300.679 84.2354 296.495 81.0489 295.541L74.6602 293.643C73.0071 293.151 71.2318 293.777 70.2553 295.184L68.9844 297ZM336.665 285.341L337.799 284.42C340.403 282.284 339.874 278.145 336.824 276.725C336.408 276.541 335.982 276.402 335.534 276.337L329.587 275.494C329.062 275.421 328.544 275.246 328.072 274.995L296.045 257.89C295.732 257.73 295.416 257.606 295.078 257.517L284.905 254.767C284.166 254.569 283.399 254.557 282.662 254.734L276.239 256.244C274.986 256.544 273.658 256.285 272.584 255.549L266.148 251.095C266.085 251.053 266.009 251.008 265.942 250.962L265.274 250.549L265.266 250.542C262.875 249.082 259.743 250.069 258.651 252.647L258.115 253.887C257.444 255.479 257.722 257.303 258.82 258.629L264.114 264.954C265.297 266.357 267.194 266.923 268.95 266.404L276.607 264.102C277.623 263.79 278.713 263.848 279.686 264.258L291.876 274.063C293.253 275.184 294.78 276.114 296.406 276.815C297.396 277.241 298.428 277.604 299.483 277.863L332 286.039C333.567 286.686 335.356 286.422 336.665 285.341ZM231.258 334.807L232.353 336.682C232.934 337.669 234.249 337.909 235.133 337.211L238.452 334.613C238.554 334.527 238.661 334.461 238.769 334.411L243.187 332.205C244.365 331.612 244.584 330.029 243.609 329.142L240.258 326.094C239.964 325.827 239.759 325.462 239.68 325.078C239.68 325.078 239.686 325.037 239.7 324.971C239.802 324.209 240.401 319.47 239.43 318.587C238.383 317.635 235.05 319.023 235.05 319.023C234.705 319.051 234.382 319.185 234.102 319.389L232.227 320.827C231.896 321.079 231.664 321.428 231.561 321.824L230.958 324.061C230.951 324.102 230.937 324.143 230.922 324.176L229.582 330.987C229.485 331.436 229.561 331.909 229.799 332.305L231.258 334.807ZM212.058 366.118L213.765 367.671C215.332 369.096 216.098 371.179 215.835 373.273L215.471 376.094C215.159 378.618 216.343 381.096 218.508 382.412L220.603 383.71C222.092 384.614 223.823 384.866 225.419 384.489C226.668 384.21 227.836 383.568 228.758 382.555L230.059 381.124C232.058 378.927 232.297 375.636 230.623 373.156L223.914 363.263C223.471 362.604 223.147 361.866 222.979 361.083L222.703 359.898C221.787 355.945 217.501 353.796 213.793 355.434C213.47 355.576 213.176 355.737 212.899 355.921C209.415 358.151 208.852 363.202 212.058 366.118ZM259.664 313.784L256.646 313.022L255.804 312.801C255.503 312.722 255.232 312.584 254.993 312.367L250.561 308.335C249.625 307.483 248.151 307.761 247.597 308.891L245.062 314.039C244.768 314.635 244.196 315.025 243.543 315.084C242.216 315.216 241.428 316.639 242.03 317.825L244.833 323.339C244.883 323.431 244.94 323.522 245.013 323.604C245.262 323.963 245.649 324.213 246.09 324.319L251.9 325.706C252.127 325.765 252.36 325.868 252.558 326.009L254.334 327.282C255.435 328.073 256.98 327.487 257.284 326.169L257.673 324.484C257.735 324.167 257.893 323.883 258.114 323.64L261.507 319.91C263.4 317.828 262.382 314.474 259.664 313.784ZM209.798 332.567L210.334 334.501L212.021 340.618C212.128 340.996 212.114 341.388 211.98 341.741L211.762 342.374C211.352 343.535 212.152 344.768 213.379 344.873L216.745 345.133C217.322 345.184 217.894 344.965 218.289 344.531L221.837 340.631C222.108 340.333 222.276 339.934 222.31 339.537L223.237 329.058C223.257 328.805 223.234 328.574 223.167 328.349C222.892 327.445 221.929 326.826 220.938 327.069L216.691 328.068C216.329 328.159 215.988 328.354 215.736 328.631L214.729 329.738C214.33 330.176 213.75 330.404 213.161 330.35L211.781 330.207C210.476 330.094 209.441 331.308 209.798 332.567ZM167.847 341.828C166.457 341.91 165.627 343.395 166.308 344.614L171.8 354.52C172.246 355.322 173.208 355.692 174.069 355.378L177.46 354.175L182.412 352.417C183.093 352.173 183.566 351.568 183.646 350.847L184.429 343.631C184.44 343.524 184.439 343.406 184.437 343.28L183.771 334.714L183.611 332.701C183.523 331.548 182.418 330.753 181.303 331.03L174.032 332.787C173.383 332.944 172.868 333.425 172.678 334.062L170.703 340.458C170.466 341.207 169.794 341.732 169.009 341.773L167.847 341.828ZM265.854 295.271L260.049 296.58C259.762 296.63 259.466 296.665 259.171 296.63C258.966 296.607 258.765 296.572 258.554 296.504L253.001 294.705C250.99 294.051 249.001 295.758 249.343 297.836L249.905 301.265C249.921 301.35 249.929 301.435 249.934 301.532L250.062 303.384C250.138 304.558 250.931 305.559 252.051 305.894L256.069 307.121L257.335 307.518C258.46 307.872 259.689 307.488 260.406 306.546L263.704 302.27C264.083 301.768 264.629 301.416 265.232 301.257L267.177 300.762C268.493 300.426 269.377 299.207 269.297 297.858C269.19 296.119 267.547 294.881 265.854 295.271ZM252.549 275.675C254.395 275.347 255.391 273.304 254.518 271.646L252.074 267.011C251.694 266.299 251.025 265.777 250.227 265.603L244.761 264.35L244.613 264.316C244.538 264.295 244.468 264.278 244.398 264.253L244.158 264.191C241.85 263.453 239.79 265.819 240.819 268.008L242.394 271.331C242.633 271.813 242.711 272.343 242.642 272.88L242.578 273.327C242.384 274.831 243.444 276.224 244.958 276.441L246.344 276.637C246.471 276.643 246.594 276.653 246.716 276.647C246.883 276.66 247.045 276.644 247.211 276.616L252.549 275.675ZM77.0468 324.805C76.667 325.907 75.8246 326.79 74.732 327.205L51.6895 335.95C49.7325 336.699 48.6934 338.85 49.3502 340.848L50.7937 345.266C51.3758 347.064 53.1525 348.19 55.0237 347.955L65.7974 346.598L80.3906 344.762C81.6295 344.598 82.8238 345.038 83.6621 345.879C84.0979 346.306 84.4365 346.832 84.6284 347.443L88.3783 358.93C88.8656 360.447 90.2242 361.52 91.8146 361.636L98.742 362.172L99.4249 362.225C101.629 362.386 103.545 360.69 103.648 358.481L104.816 332.598C104.926 330.099 107.332 328.344 109.741 328.979L119.466 331.547C121.348 332.052 122.586 333.848 122.368 335.789C122.153 337.71 123.371 339.503 125.233 340.022L127.285 340.589C129.147 341.108 131.12 340.179 131.908 338.414L136.935 327.278C137.703 325.595 137.189 323.611 135.699 322.512L110.67 303.821C109.961 303.292 109.088 303.02 108.209 303.037L103.985 303.147L87.0687 303.593C85.4244 303.63 83.995 304.679 83.4614 306.232L77.0468 324.805ZM203.992 341.687C204.088 341.401 204.123 341.09 204.072 340.795L203.441 336.681L203.101 334.403C202.948 333.408 202.027 332.702 201.018 332.827L199.074 333.066C198.543 333.127 198.055 333.415 197.759 333.861L197.179 334.687C197.129 334.759 197.079 334.83 197.017 334.899C196.514 335.452 195.716 335.645 194.995 335.377C193.788 334.933 192.504 335.788 192.455 337.066L192.452 337.188L192.28 342.253C192.266 342.714 192.409 343.155 192.702 343.508L196.101 347.658C196.632 348.289 197.499 348.517 198.27 348.207L201.535 346.859C202.031 346.656 202.415 346.251 202.595 345.746L203.992 341.687ZM193.878 394.545L195.237 393.051C195.307 392.974 195.374 392.918 195.465 392.869C195.674 392.733 195.928 392.668 196.179 392.717L197.949 393.004C200.354 393.371 202.481 391.408 202.29 388.993L201.151 374.225C201.137 374.111 201.148 373.996 201.176 373.889L202.964 366.817C203.029 366.549 202.983 366.266 202.845 366.024L199.664 360.54C199.305 359.917 198.457 359.831 197.977 360.359C197.594 360.78 196.923 360.816 196.493 360.425L194.505 358.616C194.16 358.303 193.67 358.269 193.3 358.469C193.117 358.568 192.949 358.718 192.853 358.927L190.686 363.319C190.522 363.661 190.542 364.068 190.76 364.383L193.266 368.078C193.375 368.24 193.429 368.421 193.446 368.616L194.308 382.962C194.323 383.364 194.117 383.745 193.768 383.949L192.358 384.729C189.06 386.584 188.537 391.119 191.339 393.667L192.382 394.616C192.816 395.011 193.483 394.979 193.878 394.545ZM199.911 397.03L198.361 397.246C198.191 397.271 198.03 397.311 197.879 397.383L193.984 399.209C193.718 399.34 193.422 399.383 193.148 399.359C192.788 399.327 192.439 399.189 192.163 398.937L191.779 398.588C190.638 397.55 188.821 398.488 189.007 400.011L189.05 400.408C189.066 400.493 189.067 400.587 189.067 400.672L189.784 402.142L195.033 402.248L196.554 402.278C197.061 402.311 197.544 402.105 197.885 401.73L198.555 400.994C198.803 400.721 199.144 400.542 199.496 400.481L200.418 400.323C201.29 400.159 201.891 399.353 201.784 398.47C201.664 397.559 200.822 396.91 199.911 397.03ZM139.148 404.818C139.761 403.229 139.432 401.427 138.281 400.178L135.499 397.111C134.807 396.349 134.403 395.382 134.338 394.359L132.448 363.36C132.38 362.256 132.708 361.177 133.392 360.305L134.642 358.734C135.625 357.474 135.876 355.795 135.28 354.304L134.498 352.332C133.8 350.593 132.101 349.467 130.232 349.502L126.129 349.582L122.221 349.653C120.687 349.689 119.279 350.501 118.473 351.807L115.752 356.295C115.351 356.958 115.126 357.718 115.098 358.502L114.932 363.867C114.925 364.234 114.959 364.607 115.041 364.962L122.139 397.181C122.467 398.685 121.995 400.264 120.893 401.346L119.04 403.154C117.766 404.391 117.349 406.261 117.961 407.915C118.747 410.061 121.032 411.261 123.252 410.72L126.401 409.944C127.504 409.663 128.669 409.82 129.665 410.384L131.176 411.221C131.552 411.432 131.934 411.585 132.33 411.672C134.444 412.187 136.71 411.082 137.546 408.94L139.148 404.818ZM115.948 406.278C116.17 404.768 115.332 403.321 113.924 402.756L111.498 401.787C109.626 401.048 107.535 402.149 107.103 404.122L106.913 404.945C106.668 406.037 105.903 406.928 104.861 407.304L69.6916 420.4L61.0394 423.625C59.2497 424.292 58.4101 426.352 59.2257 428.09C59.483 428.62 59.5846 429.218 59.5236 429.824L58.9612 435.335C58.814 436.788 59.6499 438.179 61.0075 438.713L67.1487 441.149C68.1908 441.56 69.3616 441.419 70.2562 440.778L76.2593 436.505L91.3161 425.778C91.572 425.591 91.8504 425.447 92.1513 425.347L112.367 418.434C113.518 418.034 114.354 417.028 114.534 415.822L115.948 406.278ZM50.608 431.012L50.873 428.172C50.9503 427.394 50.4274 426.677 49.6613 426.501L43.5326 425.105C43.1125 425.01 42.7456 424.747 42.5238 424.366L39.3447 418.828C39.2077 418.603 39.0188 418.4 38.7881 418.26L38.5202 418.11L30.7827 413.537C30.0035 413.085 28.9944 413.373 28.5927 414.183L27.9302 415.51C27.6803 415.998 27.7076 416.576 28.0064 417.034L30.5607 421.163C30.7554 421.488 30.8304 421.867 30.7745 422.237L28.8562 434.053C28.7934 434.448 28.5819 434.8 28.2713 435.039L22.273 439.674L17.4532 443.381C17.1786 443.606 16.973 443.909 16.8919 444.263L15.4299 450.566C15.1318 451.929 16.6201 452.987 17.7985 452.231L20.4565 450.54C20.654 450.409 20.8209 450.234 20.946 450.036L24.3049 444.556C24.4524 444.317 24.6589 444.116 24.9137 443.99C26.2457 443.295 27.6886 444.686 27.0478 446.04L26.6891 446.811C26.6038 446.99 26.5515 447.176 26.5363 447.372L25.9349 456.535C25.9116 456.818 25.8182 457.083 25.6663 457.318C25.6663 457.318 24.446 459.515 25.6283 459.96C26.811 460.414 30.649 453.953 30.649 453.953C30.7784 453.845 30.8791 453.735 30.9581 453.597L38.2283 442.346C38.4565 442.001 38.8116 441.756 39.2104 441.659L48.7244 439.6C49.3939 439.454 49.8811 438.902 49.9507 438.218L50.608 431.012ZM211.846 407.381L217.193 412.246C217.721 412.726 218.38 413.045 219.091 413.17L221.786 413.63C222.734 413.793 223.661 413.578 224.409 413.098C225.354 412.503 226.023 411.486 226.138 410.282L226.253 409.112C226.369 407.933 225.915 406.781 225.034 405.979L222.164 403.369C221.662 402.912 221.291 402.318 221.089 401.659L217.135 388.36C217.019 387.975 216.847 387.608 216.616 387.281L213.929 383.452C213.767 383.219 213.582 383.02 213.378 382.834C212.561 382.09 211.457 381.755 210.388 381.896C209.934 381.95 209.5 382.084 209.071 382.308C207.386 383.211 206.66 385.258 207.387 387.025L209.081 391.141C209.216 391.481 209.31 391.839 209.343 392.196L210.633 404.986C210.729 405.906 211.16 406.758 211.846 407.381ZM213.224 426.445C213.637 425.35 212.916 424.158 211.76 424.009C210.932 423.901 210.148 424.37 209.85 425.142L209.099 427.08C208.945 427.462 208.667 427.785 208.311 427.998L206.466 429.059C206.224 429.196 205.947 429.271 205.666 429.28L205.182 429.307L201.375 429.515L205.265 431.063L205.984 431.343C206.39 431.503 206.843 431.51 207.256 431.364L211.196 429.984C211.692 429.797 212.089 429.412 212.282 428.918L213.224 426.445ZM218.867 431.01L219.089 428.372C219.201 427.205 218.178 426.252 217.021 426.428C216.208 426.553 215.567 427.222 215.488 428.045L215.301 430.116C215.255 430.525 215.082 430.912 214.798 431.207L213.535 432.501L213.314 432.728C213.112 432.933 212.87 433.087 212.61 433.177L208.54 434.571L213.473 435.059C213.911 435.099 214.341 434.985 214.693 434.744L214.74 434.71L218.102 432.322C218.54 432.02 218.819 431.534 218.867 431.01ZM208.374 421.068C207.89 420.386 207.014 420.126 206.25 420.427L205.134 420.867L204.305 421.187C203.929 421.335 203.502 421.352 203.109 421.228L201.074 420.582C200.806 420.501 200.563 420.358 200.357 420.156L197.278 417.16L199.073 421.781C199.223 422.19 199.532 422.525 199.905 422.732L201.355 423.498L203.611 424.687C204.083 424.938 204.635 424.965 205.123 424.771L207.569 423.783C208.661 423.353 209.05 422.01 208.374 421.068ZM48.4499 289.081L48.8244 288.558C49.0421 288.251 49.3031 287.998 49.6025 287.78C51.8687 286.161 51.2867 282.644 48.6129 281.846L45.9641 281.062C45.3316 280.868 44.668 280.879 44.069 281.05C43.3662 281.267 42.7152 281.717 42.2686 282.353L38.6284 287.57C37.4191 289.31 38.1118 291.721 40.0496 292.551L42.0882 293.44C43.5352 294.056 45.216 293.586 46.1259 292.32L48.4499 289.081ZM54.7667 413.413L54.0409 413.142C53.3193 412.875 52.7473 412.323 52.4455 411.629L49.3482 404.376L48.6007 402.615C47.7813 400.71 45.2575 400.328 43.9178 401.895L42.3926 403.674C41.7365 404.447 41.5499 405.499 41.9008 406.456L43.6481 411.181C43.8257 411.662 44.1267 412.083 44.5247 412.398L46.9043 414.299L47.1455 414.487C47.4547 414.737 47.7136 415.043 47.8936 415.401L49.7926 419.112C50.6953 420.883 53.1285 421.159 54.4089 419.632L55.9284 417.816C57.1666 416.343 56.5753 414.094 54.7667 413.413ZM6.80907 259.348L5.71328 258.491C5.40866 258.253 5.02113 258.157 4.64557 258.228L3.94669 258.355C3.33687 258.469 2.74346 258.155 2.48501 257.601C2.11166 256.771 1.02186 256.558 0.362325 257.172L-0.909876 258.356L-2.33391 259.691C-2.57595 259.914 -2.72046 260.219 -2.76238 260.538L-3.12868 264.337C-3.18655 264.922 -2.85881 265.477 -2.3184 265.704L0.00465933 266.666C0.36197 266.812 0.756875 266.805 1.10345 266.638L3.0233 265.708L3.85157 265.302C4.03859 265.208 4.21519 265.065 4.33758 264.896L7.06749 261.194C7.49239 260.616 7.38464 259.802 6.80907 259.348ZM22.483 266.495C22.9997 265.79 22.8599 264.815 22.1705 264.281L20.8503 263.243C20.4949 262.967 20.0292 262.854 19.5723 262.929L18.7321 263.083C18.0135 263.223 17.2951 262.849 16.9821 262.175C16.6961 261.557 16.0814 261.224 15.4631 261.245C15.0969 261.254 14.7329 261.398 14.4323 261.677L11.1974 264.694C10.9124 264.956 10.7338 265.315 10.6872 265.708L10.2471 270.272C10.1741 270.968 10.5761 271.629 11.2164 271.901L14.0098 273.072C14.4337 273.248 14.9134 273.225 15.3359 273.026L18.6253 271.42C18.8526 271.315 19.0563 271.143 19.2097 270.94L20.1556 269.661L22.483 266.495ZM-32.6358 294.216L-33.6987 292.075L-32.5735 292.001C-32.2243 291.976 -31.9284 291.771 -31.7762 291.458L-31.419 290.655C-31.1241 289.997 -31.6601 289.261 -32.3772 289.347L-36.6938 289.825C-37.4027 289.911 -37.7599 290.714 -37.3494 291.298L-36.2491 292.851C-36.1752 292.95 -36.1129 293.061 -36.0948 293.186L-35.5218 295.653C-35.3648 296.301 -34.6138 296.587 -34.0697 296.203L-32.9304 295.395C-32.5521 295.125 -32.4288 294.63 -32.6358 294.216ZM37.4268 274.829L36.3079 273.57C36.0068 273.234 35.5737 273.034 35.1133 273.036L34.2496 273.036C33.5163 273.038 32.878 272.551 32.6932 271.83C32.4271 270.771 31.1942 270.287 30.2725 270.873L26.5438 273.27C26.2197 273.481 25.978 273.798 25.8737 274.178L25.3625 275.946L24.6194 278.584C24.4229 279.254 24.7018 279.982 25.2863 280.366L27.8206 282.002C28.2038 282.265 28.6835 282.328 29.1218 282.205L31.9367 281.42L32.6526 281.223C32.8977 281.151 33.132 281.021 33.3109 280.842L37.3328 277.062C37.9645 276.462 38.0031 275.47 37.4268 274.829ZM23.5456 391.035C23.5058 390.882 23.4497 390.73 23.3743 390.599L16.8473 378.888C16.6426 378.523 16.5862 378.106 16.7017 377.705L19.3343 368.328C19.5111 367.672 19.2542 366.979 18.6825 366.607L13.2997 363.064L10.2511 361.061C9.59149 360.64 8.72111 360.758 8.20289 361.345L4.10093 366.103C3.81897 366.43 3.40891 366.632 2.97335 366.641L-3.40485 366.861C-3.68168 366.866 -3.94304 366.939 -4.17656 367.085L-12.084 371.928C-12.8561 372.401 -13.0686 373.421 -12.5442 374.171L-11.6724 375.376C-11.3662 375.818 -10.8413 376.062 -10.3051 376.029L-5.45539 375.71C-5.07364 375.683 -4.71013 375.789 -4.40551 376.027L5.13307 383.272C5.44581 383.51 5.66212 383.862 5.72163 384.259L6.01339 385.948L8.02871 397.717C8.09015 398.069 8.26892 398.403 8.54489 398.638L13.423 402.881C14.4808 403.797 16.1168 402.982 16.0057 401.581L15.7512 398.44C15.7316 398.196 15.6519 397.976 15.5443 397.769L12.2668 392.22C12.1329 391.974 12.0548 391.7 12.0576 391.415C12.0643 389.92 13.974 389.291 14.866 390.492L15.3795 391.185C15.4929 391.342 15.6377 391.474 15.8099 391.584L23.6132 396.426C23.8563 396.569 24.0537 396.78 24.1837 397.031C24.1837 397.031 25.5462 399.134 26.4927 398.298C27.4512 397.459 23.5456 391.035 23.5456 391.035ZM47.8899 396.374L52.4497 399.572C52.6135 399.675 52.7342 399.816 52.8321 399.99L55.3216 404.729C55.5487 405.138 55.98 405.382 56.486 405.399L62.6263 405.492C64.645 405.531 66.6927 404.46 67.9027 402.737L69.5028 400.473L73.6431 394.63C73.8034 394.402 74.0102 394.209 74.2523 394.072L102.746 377.991C103.15 377.752 103.455 377.391 103.598 376.969L106.183 368.909C106.526 367.805 105.579 366.913 104.426 367.265C103.113 367.665 101.569 368.105 100.507 368.4C99.7992 368.588 99.1229 368.331 98.8556 367.761C98.5519 367.111 98.0724 366.364 97.439 366.239C96.789 366.107 94.4841 365.27 92.6507 364.583C91.5769 364.19 90.2854 365.139 90.335 366.273C90.363 366.867 90.0287 367.465 89.4498 367.802L60.6979 384.792C60.1627 385.106 59.5243 385.132 59.0548 384.853C58.0147 384.226 57.043 383.669 55.7744 383.549C55.1317 383.486 54.4007 383.537 53.5346 383.745C50.9852 384.375 50.519 384.853 47.8138 387.613C45.0923 390.374 45.1293 394.43 47.8899 396.374ZM52.801 301.995L55.7291 303.258C57.1683 303.883 58.8453 303.416 59.771 302.142L61.3529 299.924L62.9623 297.684C63.18 297.377 63.441 297.124 63.7403 296.906L64.3905 296.439C66.6649 294.82 66.0705 291.299 63.397 290.509L59.496 289.349C58.1325 288.949 56.6611 289.455 55.8353 290.602L55.7966 290.645L51.3631 297.007C50.1577 298.742 50.8503 301.154 52.801 301.995ZM-11.7865 263.308L-11.341 262.476C-11.1686 262.158 -10.8452 261.931 -10.4813 261.873L-9.62717 261.755C-8.81796 261.636 -8.38405 260.731 -8.79267 260.017L-11.3539 255.485C-11.4738 255.275 -11.526 255.033 -11.5085 254.8L-11.4681 254.447L-11.4627 254.39C-11.3889 253.625 -12.0666 252.993 -12.8224 253.122L-14.8962 253.469C-15.2601 253.527 -15.5715 253.749 -15.7396 254.071L-17.2973 256.972C-17.4174 257.19 -17.4581 257.448 -17.4257 257.703L-17.2696 258.678L-16.3894 264.194C-16.2669 264.974 -15.4025 265.418 -14.6946 265.051L-12.2768 263.796C-12.07 263.688 -11.8988 263.517 -11.7865 263.308Z" fill="#F2E6D3"/>
<path d="M-34.2686 276.321C-34.357 276.778 -34.5651 277.203 -34.8749 277.544L-36.6797 279.528L-38.095 277.517C-38.2358 277.295 -38.3128 277.046 -38.3003 276.793L-38.1792 273.495C-38.1636 273.136 -37.9758 272.801 -37.6841 272.592L-35.9737 271.37C-35.3467 270.929 -34.4621 271.197 -34.1917 271.917L-34.0552 272.306C-33.9631 272.53 -33.8114 272.722 -33.6179 272.852C-33.6248 272.877 -33.631 272.918 -33.638 272.942L-34.2686 276.321ZM-29.9217 265.718L-26.447 263.806C-26.0424 263.575 -25.7155 263.25 -25.4858 262.852L-24.62 261.344L-25.6535 260.513C-25.8362 260.354 -25.9801 260.153 -26.0435 259.932L-26.1688 259.523C-26.3785 258.795 -27.2379 258.457 -27.8876 258.846L-29.6895 259.946C-30.0066 260.132 -30.2115 260.451 -30.2434 260.811L-30.618 264.089C-30.651 264.339 -30.5938 264.601 -30.4576 264.81L-29.9217 265.718ZM143.533 339.645C141.687 342.299 142.737 345.977 145.715 347.254L150.19 349.186C151.371 349.692 152.648 349.726 153.796 349.353C153.975 348.404 154.107 347.583 154.188 347.049C154.255 346.651 154.113 346.234 153.81 345.959L148.565 341.187C148.046 340.715 148.027 339.897 148.538 339.412L153.445 334.788C153.625 334.625 153.753 334.407 153.803 334.172L154.691 329.954C154.747 329.678 154.898 329.427 155.111 329.262L156.527 328.115L155.949 327.947C153.841 327.321 151.564 328.105 150.297 329.917L143.533 339.645ZM65.5514 310.302L70.3013 312.351C72.0232 313.093 74.0215 312.53 75.1192 311.015L75.4934 310.484L70.1015 307.524C69.4996 307.202 69.1397 306.572 69.1322 305.896L69.1077 303.827L68.8506 297.789C68.8379 297.52 68.8786 297.262 68.9767 297.009L63.8649 304.364C62.4147 306.438 63.247 309.303 65.5514 310.302ZM-11.4682 254.447L-11.4627 254.39C-11.3889 253.625 -12.0667 252.993 -12.8224 253.122L-14.8962 253.469C-15.2601 253.527 -15.5715 253.749 -15.7396 254.071L-17.2973 256.972C-17.4174 257.19 -17.4582 257.448 -17.4219 257.699L-17.2696 258.678L-15.3263 258.329C-14.7165 258.215 -14.1736 257.892 -13.7975 257.401L-11.6626 254.644C-11.6006 254.576 -11.5348 254.503 -11.4682 254.447ZM52.8009 301.995L55.729 303.258C57.1683 303.882 58.8453 303.416 59.771 302.142L61.3529 299.924C60.2627 299.702 59.2023 299.423 58.4381 299.202C57.7487 299.011 57.2331 298.448 57.094 297.746L55.8607 290.967C55.8387 290.846 55.8329 290.724 55.8353 290.602L55.7965 290.645L51.363 297.007C50.1576 298.742 50.8503 301.154 52.8009 301.995ZM1.07122 261.909L0.394153 261.636C-0.262385 261.365 -0.715559 260.743 -0.76915 260.041L-0.909926 258.356L-2.33395 259.691C-2.576 259.914 -2.72051 260.218 -2.76242 260.538L-3.12873 264.337C-3.1866 264.922 -2.85886 265.477 -2.31845 265.704L0.00462012 266.666C0.361921 266.812 0.756837 266.805 1.1034 266.638L3.02325 265.708L2.14795 263.052C1.97272 262.535 1.57833 262.122 1.07122 261.909ZM27.6895 276.561L25.3624 275.945L24.6194 278.584C24.4229 279.253 24.7018 279.982 25.2863 280.366L27.8205 282.002C28.2037 282.265 28.6834 282.328 29.1217 282.205L31.9367 281.42L28.7071 277.23C28.4552 276.899 28.1018 276.663 27.6895 276.561ZM18.7937 270.071C18.163 270.26 17.4712 270.105 16.9816 269.66L14.5547 267.452C13.9927 266.941 13.7967 266.156 14.0439 265.439C14.4423 264.3 15.0523 262.552 15.4631 261.245C15.0968 261.254 14.7328 261.398 14.4323 261.677L11.1974 264.694C10.9123 264.956 10.7337 265.315 10.6872 265.708L10.247 270.272C10.174 270.968 10.5761 271.629 11.2164 271.901L14.0098 273.072C14.4337 273.248 14.9134 273.225 15.3358 273.026L18.6253 271.42C18.8526 271.315 19.0563 271.143 19.2097 270.94L20.1555 269.661L18.7937 270.071ZM48.4498 289.081L45.3142 287.909C44.5802 287.639 44.0868 286.941 44.0901 286.15L44.096 281.277C44.0925 281.204 44.0886 281.122 44.0689 281.05C43.3662 281.267 42.7152 281.717 42.2686 282.353L38.6284 287.57C37.4191 289.31 38.1117 291.721 40.0496 292.551L42.0881 293.44C43.5351 294.056 45.216 293.586 46.1258 292.32L48.4498 289.081ZM245.013 323.604L247.894 321.984C248.593 321.593 248.886 320.731 248.578 319.992L247.84 318.247C247.647 317.791 247.679 317.268 247.927 316.825L249.356 314.39C249.869 313.518 251.042 313.34 251.783 314.014L252.183 314.378C252.639 314.793 253.288 314.901 253.844 314.683L255.782 313.886C256.198 313.712 256.493 313.404 256.646 313.022L255.804 312.801C255.503 312.722 255.232 312.584 254.993 312.367L250.561 308.335C249.625 307.483 248.151 307.761 247.597 308.891L245.062 314.039C244.768 314.635 244.196 315.025 243.543 315.084C242.216 315.216 241.428 316.639 242.03 317.825L244.833 323.339C244.883 323.431 244.94 323.522 245.013 323.604ZM240.686 251.423L244.393 258.63C244.881 259.565 245.85 260.15 246.904 260.137L247.12 260.131L247.295 257.193C247.292 257.043 247.284 256.888 247.248 256.731L246.027 251.59C245.941 251.231 245.739 250.915 245.443 250.685L241.397 247.665L240.755 248.747C240.28 249.56 240.251 250.576 240.686 251.423ZM255.155 297.871L256.748 298.028C257.116 298.067 257.491 297.972 257.798 297.762L258.675 297.175C258.896 297.026 259.058 296.831 259.171 296.63C258.966 296.607 258.765 296.572 258.554 296.504L253.001 294.705C250.99 294.051 249.001 295.758 249.343 297.836L249.905 301.265C249.921 301.349 249.929 301.435 249.934 301.532L250.062 303.384C250.138 304.558 250.931 305.559 252.051 305.894L256.069 307.121L256.302 306.609C256.556 306.047 256.452 305.392 256.059 304.926L253.981 302.514C253.762 302.26 253.633 301.948 253.601 301.624L253.411 299.591C253.324 298.601 254.156 297.772 255.155 297.871ZM214.762 364.796L213.516 359.22L212.899 355.921C209.415 358.151 208.852 363.202 212.058 366.118L213.765 367.671C215.332 369.096 216.098 371.179 215.835 373.273L215.471 376.094C215.159 378.618 216.343 381.096 218.508 382.412L220.603 383.71C222.092 384.614 223.823 384.866 225.419 384.489L224.518 381.125C224.405 380.711 224.033 380.435 223.605 380.427L220.403 380.432C220.069 380.439 219.751 380.259 219.585 379.953L218.557 378.184C218.241 377.633 218.55 376.934 219.167 376.795L220.4 376.5C220.892 376.387 221.215 375.903 221.11 375.411L219.776 368.299C219.714 368.025 219.548 367.781 219.297 367.646L215.228 365.43C214.989 365.299 214.82 365.075 214.762 364.796ZM230.958 324.061C230.951 324.102 230.937 324.143 230.922 324.176L229.582 330.987C229.485 331.436 229.561 331.909 229.799 332.305L231.258 334.807C231.304 334.74 231.333 334.665 231.358 334.586L232.801 329.527C233.021 328.746 233.809 328.257 234.602 328.403L235.317 328.532C236.291 328.718 237.192 327.958 237.182 326.969L237.175 326.293C237.165 325.14 238.367 324.358 239.425 324.846L239.7 324.971C239.802 324.209 240.401 319.47 239.43 318.587C238.383 317.635 235.05 319.023 235.05 319.023C234.705 319.051 234.382 319.185 234.102 319.389L232.227 320.827C231.896 321.079 231.664 321.428 231.561 321.824L230.958 324.061ZM268.682 261.866L264.42 257.989C264.097 257.694 263.928 257.238 263.977 256.791L264.522 251.787C264.557 251.492 264.674 251.209 264.876 250.988L265.274 250.549L265.266 250.541C262.874 249.082 259.743 250.069 258.651 252.647L258.115 253.887C257.444 255.479 257.722 257.303 258.82 258.628L264.114 264.954C265.297 266.357 267.194 266.923 268.95 266.404L276.607 264.102C277.623 263.79 278.713 263.848 279.686 264.258L291.876 274.063C293.253 275.184 294.78 276.114 296.402 276.811L296.042 273.939C295.986 273.522 295.757 273.158 295.408 272.935L286.008 266.897C285.878 266.809 285.763 266.705 285.659 266.579L281.118 260.768C280.801 260.347 280.262 260.153 279.733 260.255L269.908 262.203C269.468 262.293 269.014 262.168 268.682 261.866ZM260.92 239.64C260.475 240.293 260.234 241.054 260.177 241.835L260.132 242.603C260.035 244.017 260.613 245.282 261.558 246.141C262.512 247.009 263.825 247.464 265.224 247.235C266.696 247.011 268.179 247.527 269.181 248.633L272.842 252.648C274.183 254.133 276.381 254.514 278.154 253.583L283.835 250.596C283.727 250.544 283.628 250.508 283.517 250.501L275.843 249.332C275.486 249.28 275.176 249.099 274.947 248.821L271.49 244.47C271.286 244.206 270.996 244.037 270.675 243.962L265.33 242.85C264.651 242.707 264.178 242.098 264.207 241.416L264.344 238.382C264.362 238.056 264.482 237.752 264.706 237.506L269.97 231.719C270.191 231.477 270.326 231.149 270.334 230.814L270.491 226.109C269.631 226.96 268.849 227.914 268.148 228.95L260.92 239.64ZM247.403 274.814C247.605 274.43 247.645 273.992 247.524 273.586L246.218 269.394C246.098 269.013 245.855 268.706 245.52 268.502L244.488 267.875C243.745 267.425 243.504 266.467 243.945 265.717L244.761 264.35L244.613 264.316C244.538 264.295 244.468 264.278 244.398 264.253L244.158 264.191C241.85 263.453 239.79 265.819 240.819 268.008L242.394 271.331C242.633 271.813 242.711 272.343 242.642 272.88L242.578 273.327C242.384 274.831 243.444 276.224 244.958 276.441L246.344 276.636C246.471 276.643 246.594 276.653 246.716 276.647C246.681 276.343 246.739 276.023 246.9 275.726L247.403 274.814ZM167.847 341.828C166.457 341.91 165.627 343.395 166.308 344.614L171.8 354.52C172.246 355.322 173.208 355.692 174.069 355.378L177.459 354.175C177.82 353.864 177.963 353.356 177.802 352.883L174.964 344.824C174.874 344.563 174.872 344.266 174.97 344.013L177.437 337.076C177.567 336.719 177.867 336.44 178.237 336.333L183.771 334.714L183.611 332.701C183.523 331.548 182.418 330.753 181.303 331.03L174.032 332.787C173.383 332.944 172.868 333.425 172.678 334.061L170.703 340.458C170.466 341.207 169.794 341.731 169.009 341.773L167.847 341.828ZM9.49835 379.431L1.75964 374.835C0.627783 374.163 0.671678 372.507 1.8411 371.905L9.99571 367.722C10.2583 367.588 10.4809 367.386 10.6448 367.146L13.2997 363.064L10.251 361.061C9.59144 360.64 8.72106 360.758 8.20286 361.345L4.1009 366.103C3.81893 366.43 3.40885 366.632 2.97329 366.641L-3.40491 366.861C-3.68174 366.866 -3.9431 366.939 -4.17659 367.085L-12.084 371.928C-12.8562 372.401 -13.0687 373.421 -12.5443 374.171L-11.6724 375.376C-11.3663 375.818 -10.8414 376.062 -10.3051 376.029L-5.45542 375.71C-5.07367 375.683 -4.71404 375.793 -4.40554 376.027L5.13301 383.272C5.44577 383.51 5.66209 383.862 5.72157 384.259L6.01336 385.948L9.84247 382.055C10.6004 381.282 10.4297 379.998 9.49835 379.431ZM193.878 394.545L195.237 393.051C195.307 392.974 195.374 392.918 195.465 392.869C195.244 392.753 194.996 392.691 194.739 392.683C193.809 392.654 193.078 391.857 193.148 390.925L193.404 387.633C193.436 387.273 193.583 386.932 193.827 386.664L196.375 383.862C196.612 383.602 196.751 383.27 196.788 382.93L198.128 369.662C198.169 369.248 198.056 368.834 197.808 368.507L194.707 364.433C194.555 364.241 194.454 364.009 194.398 363.771L193.3 358.469C193.117 358.568 192.949 358.718 192.853 358.927L190.686 363.319C190.522 363.661 190.542 364.068 190.76 364.383L193.266 368.078C193.375 368.24 193.429 368.421 193.446 368.616L194.308 382.962C194.323 383.364 194.117 383.745 193.768 383.949L192.358 384.728C189.06 386.584 188.537 391.119 191.339 393.667L192.382 394.616C192.816 395.011 193.483 394.979 193.878 394.545ZM193.653 400.292C193.367 400.033 193.205 399.707 193.148 399.359C192.788 399.327 192.439 399.189 192.162 398.937L191.779 398.588C190.638 397.55 188.821 398.488 189.007 400.011L189.05 400.408C189.066 400.493 189.067 400.587 189.067 400.672L189.784 402.142L195.033 402.248C195.024 401.813 194.84 401.373 194.491 401.055L193.653 400.292ZM211.846 407.381L217.193 412.246C217.721 412.726 218.38 413.045 219.091 413.17L221.785 413.63C222.734 413.792 223.661 413.578 224.409 413.098C224.299 412.765 223.986 412.519 223.63 412.483L220.274 412.092C220.004 412.064 219.753 411.913 219.599 411.688L217.826 409.086C217.782 409.023 217.743 408.972 217.684 408.918L213.886 405.463C213.652 405.25 213.544 404.942 213.586 404.638L214.13 400.713C214.155 400.557 214.14 400.411 214.084 400.259L211.794 393.787L210.898 391.137C210.68 390.495 211.175 389.848 211.841 389.886L211.882 389.892C212.61 389.931 213.112 389.182 212.792 388.533L210.65 384.173C210.597 384.07 210.563 383.961 210.566 383.847L210.388 381.896C209.934 381.95 209.5 382.084 209.071 382.308C207.386 383.211 206.66 385.258 207.387 387.025L209.081 391.141C209.216 391.481 209.31 391.839 209.343 392.196L210.632 404.986C210.729 405.906 211.16 406.758 211.846 407.381ZM216.296 336.431L218.446 333.119C218.51 333.014 218.592 332.925 218.681 332.843L222.743 329.473C223.049 329.214 223.213 328.811 223.17 328.414L223.167 328.349C222.892 327.445 221.929 326.826 220.938 327.069L216.691 328.068C216.329 328.159 215.988 328.354 215.736 328.631L214.729 329.738C214.33 330.176 213.75 330.403 213.161 330.35L211.781 330.207C210.476 330.094 209.441 331.308 209.803 332.57L210.334 334.501L214.714 336.836C215.27 337.132 215.954 336.953 216.296 336.431ZM249.63 291.063L251.35 292.184C251.581 292.332 251.834 292.43 252.112 292.457C252.03 292.009 252.137 291.515 252.493 291.123L252.877 290.702C253.047 290.515 253.166 290.281 253.236 290.025L254.254 286.22C254.339 285.87 254.305 285.497 254.163 285.157L253.676 284.076C253.404 283.502 253.511 282.829 253.933 282.365L254.231 282.037C254.514 281.726 254.658 281.328 254.631 280.93L250.493 280.107C249.535 279.92 248.586 280.536 248.383 281.494L247.907 283.754C247.802 284.28 247.917 284.821 248.251 285.241L249.113 286.337C249.612 286.969 249.629 287.849 249.159 288.502C248.55 289.334 248.764 290.501 249.63 291.063ZM214.294 421.155C213.774 420.845 213.675 420.133 214.063 419.707C214.09 419.677 214.121 419.643 214.16 419.617C214.537 419.306 214.609 418.765 214.333 418.366L211.894 414.778C211.785 414.632 211.729 414.464 211.724 414.281L211.713 413.959C211.585 414.006 211.452 414.049 211.333 414.12L209.972 414.795C208.348 415.614 208.049 417.808 209.403 419.039L212.221 421.603C212.515 421.87 212.883 422.073 213.263 422.177L217.425 423.349C217.365 423.116 217.233 422.902 216.99 422.759L214.294 421.155ZM213.761 433.921C213.469 433.686 213.341 433.305 213.437 432.934L213.518 432.649C213.532 432.599 213.55 432.553 213.535 432.501L213.314 432.728C213.112 432.933 212.87 433.087 212.61 433.176L208.54 434.571L213.473 435.059C213.911 435.099 214.341 434.985 214.693 434.744L214.74 434.71L213.761 433.921ZM203.109 421.228L201.074 420.582C200.806 420.501 200.563 420.358 200.357 420.156L197.278 417.16L199.073 421.781C199.223 422.19 199.532 422.525 199.905 422.732L201.355 423.498C201.184 422.806 201.01 422.158 201.01 422.158L202.355 422.416C202.597 422.458 202.852 422.409 203.065 422.277L205.027 420.949C205.063 420.927 205.103 420.901 205.134 420.867L204.305 421.187C203.929 421.335 203.502 421.352 203.109 421.228ZM205.608 429.694L205.182 429.307L201.375 429.515L205.265 431.063L205.096 430.668L205.608 429.694ZM69.5028 400.473L59.7715 395.355C59.4622 395.191 59.2102 394.946 59.0485 394.628L54.6442 385.929C54.1493 384.942 54.7212 383.766 55.7743 383.549C55.1316 383.486 54.4007 383.537 53.5345 383.745C50.9852 384.375 50.5189 384.853 47.8137 387.613C45.0922 390.374 45.1293 394.43 47.8899 396.374L52.4497 399.572C52.6134 399.675 52.7342 399.816 52.832 399.99L55.3216 404.729C55.5487 405.138 55.9799 405.382 56.4859 405.399L62.6263 405.492C64.645 405.531 66.6926 404.46 67.9027 402.736L69.5028 400.473ZM30.0188 432.792L34.6571 427.745C35.6803 426.637 36.0084 425.045 35.5129 423.614L35.4661 423.485C34.6178 421.057 36.1588 418.576 38.5202 418.11L30.7826 413.537C30.0034 413.085 28.9944 413.373 28.5926 414.183L27.9302 415.51C27.6803 415.998 27.7076 416.576 28.0063 417.034L30.5607 421.163C30.7553 421.488 30.8303 421.867 30.7744 422.237L28.8562 434.053C28.7933 434.447 28.5818 434.8 28.2712 435.038L22.273 439.674C22.4627 439.722 22.6195 439.763 22.7554 439.793C23.134 439.873 23.6675 439.954 24.2706 440.044C25.6895 440.237 27.0041 439.69 27.8794 438.728C28.5804 437.957 29 436.923 28.9458 435.777C28.8858 434.679 29.2706 433.598 30.0188 432.792ZM88.3782 358.93C88.8656 360.447 90.2242 361.52 91.8146 361.636L98.7419 362.172C99.3988 361.416 99.3872 360.137 98.3382 359.494L94.8865 357.412C94.5846 357.231 94.3396 356.961 94.1938 356.634L90.0826 347.759C89.8381 347.241 89.3515 346.861 88.7809 346.769L83.6621 345.879C84.0979 346.306 84.4365 346.832 84.6283 347.442L88.3782 358.93ZM87.7474 331.295L83.8386 319.204C83.7473 318.911 83.7319 318.585 83.7952 318.285L86.0319 308.12C86.2076 307.268 86.9825 306.681 87.8447 306.734L101.044 307.397C101.804 307.426 102.503 306.966 102.775 306.264L103.985 303.147L87.0687 303.593C85.4243 303.63 83.995 304.679 83.4614 306.232L77.0467 324.805C76.667 325.907 75.8246 326.79 74.7319 327.205L51.6894 335.95C49.7324 336.699 48.6934 338.85 49.3502 340.848L50.7936 345.266C51.3757 347.064 53.1525 348.19 55.0237 347.955L65.7973 346.598L61.8752 339.91C61.4851 339.244 61.5714 338.396 62.0981 337.817L66.2151 333.291C66.6062 332.861 67.1747 332.647 67.7446 332.722L79.3718 334.164C79.4868 334.183 79.6254 334.185 79.7388 334.171L86.2182 333.592C87.3503 333.493 88.0917 332.371 87.7474 331.295ZM201.018 332.827L199.074 333.066C198.543 333.127 198.055 333.415 197.759 333.861L197.179 334.687C197.129 334.759 197.079 334.83 197.017 334.899C196.514 335.452 195.716 335.645 194.995 335.377C193.788 334.933 192.504 335.788 192.455 337.066L192.452 337.188L196.447 339.819C196.872 340.088 197.417 340.079 197.83 339.77L200.696 337.646C200.794 337.572 200.91 337.514 201.038 337.467L203.441 336.681L203.101 334.403C202.948 333.408 202.027 332.702 201.018 332.827ZM48.6007 402.615C47.7813 400.71 45.2575 400.328 43.9178 401.895L42.3926 403.674C41.7365 404.447 41.5499 405.499 41.9007 406.456L43.6481 411.181C43.8256 411.661 44.1267 412.083 44.5246 412.398L46.9043 414.299C47.1049 414.061 47.2332 413.758 47.2754 413.446L48.2113 405.754C48.301 405.065 48.7704 404.566 49.3481 404.376L48.6007 402.615ZM130.794 408.236L123.743 408.965C122.722 409.079 121.956 408.039 122.367 407.091L124.425 402.442C124.465 402.347 124.514 402.259 124.571 402.179L126.821 399.184C127.047 398.884 127.144 398.504 127.077 398.133L124.871 386.12C124.863 386.035 124.85 385.946 124.855 385.864L125.024 375.576L125.39 367.382C125.407 366.953 125.235 366.586 124.949 366.327C124.575 365.986 124.006 365.858 123.472 366.103C122.566 366.509 121.537 365.845 121.567 364.845L121.717 357.512C121.714 357.284 121.774 357.073 121.887 356.881L125.983 349.581L122.075 349.668C120.541 349.704 119.129 350.529 118.336 351.846L115.628 356.346C115.231 357.012 115.011 357.776 114.983 358.56L114.854 363.928C114.846 364.295 114.876 364.664 114.958 365.019L122.205 397.202C122.545 398.701 122.082 400.288 120.988 401.37L119.143 403.193C117.878 404.431 117.461 406.3 118.085 407.958C118.883 410.091 121.172 411.287 123.391 410.73L126.543 409.933C127.642 409.657 128.811 409.801 129.803 410.361L131.325 411.194C131.702 411.404 132.08 411.553 132.487 411.636L132.285 409.445C132.222 408.703 131.544 408.164 130.794 408.236ZM26.1713 349.898L19.2005 347.066C18.2827 346.698 17.2446 346.975 16.6245 347.734L11.8582 353.692C10.7574 355.056 11.6116 357.093 13.3604 357.284L16.7967 357.663C16.9396 357.668 17.0716 357.703 17.2121 357.745L29.5347 361.485C29.3381 361.291 29.2004 361.049 29.1269 360.787L26.1713 349.898ZM69.2491 423.88C69.3856 422.977 69.5382 421.723 69.6915 420.4L61.0394 423.624C59.2497 424.292 58.41 426.352 59.2256 428.09C59.4829 428.62 59.5846 429.218 59.5236 429.824L58.9612 435.335C58.814 436.788 59.6498 438.179 61.0075 438.713L67.1486 441.149C68.1907 441.56 69.3616 441.419 70.2561 440.778L76.2593 436.505C73.6892 432.128 68.936 425.96 69.2491 423.88Z" fill="#DAC1AF"/>
</svg>
