<svg width="175" height="224" viewBox="0 0 175 224" fill="none" xmlns="http://www.w3.org/2000/svg">
<path d="M157.77 132.019C153.69 135.598 148.985 138.549 143.98 140.64C138.743 142.823 133.482 143.521 127.97 144.55C124.608 145.181 122.094 146.508 121.549 150.142C121.149 152.823 121.607 155.559 121.227 158.237C120.559 162.97 117.901 166.98 114.263 169.995C110.434 173.162 105.823 175.22 101.124 176.736C99.4634 177.272 97.4529 177.634 96.6158 179.352C96.0847 180.445 96.0485 181.791 95.7927 182.973C95.3032 185.22 94.4245 187.325 93.1981 189.272C90.6481 193.31 86.5991 196.466 82.1108 198.079C77.0691 199.9 72.6864 199.219 67.6141 198.057C65.673 197.614 63.7765 197.403 62.1803 198.78C61.2125 199.614 60.5674 200.912 59.8332 201.95C58.4066 203.966 56.8104 205.86 55.1085 207.651C51.4711 211.463 47.2136 214.658 42.6113 217.222C33.4316 222.336 22.6335 224.758 12.1524 223.791C-0.197441 222.648 -11.46 216.727 -21.7019 210.1C-32.0579 203.404 -42.2414 196.049 -50.6452 186.961C-58.7904 178.151 -65.1308 167.367 -67.2748 155.448C-68.3204 149.603 -68.237 143.671 -67.0134 137.862C-66.2487 134.241 -65.281 130.693 -64.7971 127.019C-64.3688 123.827 -64.0685 120.632 -63.4289 117.475C-60.9233 105.192 -54.7053 94.1437 -48.173 83.5959C-46.4155 80.7483 -44.6107 77.934 -42.8449 75.0948C-41.1597 72.3806 -39.6747 69.7638 -39.4633 66.513C-39.2492 63.3066 -39.4995 60.1754 -38.2147 57.1442C-37.2498 54.8695 -35.8093 52.8728 -34.0963 51.1042C-30.0279 46.9106 -24.683 44.5274 -19.6608 41.7104C-14.0239 38.5513 -10.1947 34.4746 -6.87432 28.974C-3.93771 24.1158 -1.22359 19.2632 2.68632 15.0919C6.44884 11.0847 10.9149 7.74484 15.7953 5.22259C36.143 -5.29466 61.5963 0.531262 75.623 18.5763C75.9595 19.0129 76.0846 19.4718 76.0707 19.9139C85.8538 22.0246 94.0463 29.1409 97.6002 38.5513C102.336 38.2705 107.039 38.7655 111.624 40.0919C116.808 41.5908 121.769 44.1492 125.973 47.5308C128.045 49.1993 129.975 51.068 131.671 53.112C133.671 55.5202 134.903 57.8089 138.379 57.8812C141.36 57.9451 144.219 57.4307 147.217 57.7894C149.995 58.1203 152.748 58.8378 155.309 59.9724C160.351 62.2165 164.541 65.8873 167.606 70.459C180.481 89.6749 174.622 117.225 157.77 132.019Z" fill="#2A1D1B"/>
<path d="M162.851 109.892C159.455 121.31 149.277 127.687 137.817 128.613C132.217 129.066 126.596 128.393 121.012 127.993C116.24 127.656 110.501 127.058 105.687 128.415C105.031 129.956 104.124 131.38 102.981 132.592C102.923 132.653 102.862 132.712 102.798 132.773C102.923 133.029 103.054 133.293 103.184 133.585C104.224 135.901 104.964 138.298 105.328 140.815C106.071 145.96 105.467 151.235 103.554 156.074C99.5719 166.135 90.5674 173.068 79.8749 174.65C74.3994 175.462 68.6903 175.034 63.4873 173.079C60.6591 172.011 58.0785 170.373 55.2587 169.316C53.5735 168.693 50.7926 167.995 49.2436 169.4C47.1719 171.268 49.8137 174.859 50.9761 176.508C52.6252 178.846 54.3744 181.063 55.2587 183.83C56.9745 189.194 55.1864 195.009 51.9633 199.422C45.2309 208.649 33.3176 212.659 22.2386 212.603C9.36874 212.528 -3.08122 207.489 -14.6191 202.236C-25.2809 197.381 -35.5229 191.082 -42.6363 181.574C-49.7665 172.053 -53.5151 160.012 -54.7999 148.287C-55.4228 142.589 -55.0696 136.763 -52.6753 131.488C-50.2782 126.199 -45.6258 122.698 -42.1052 118.24C-35.0279 109.252 -36.7103 96.5743 -35.0195 85.9458C-33.4678 76.2044 -28.9878 65.9152 -19.1769 62.1332C-14.8999 60.4842 -10.3977 60.3896 -5.90659 60.7317C-5.62016 53.5375 -4.74974 46.527 -1.60736 39.7639C4.50777 26.6243 17.6585 16.4741 32.0023 14.1548C40.1307 12.8339 48.9934 13.6765 56.118 18.087C60.6591 20.9012 64.2409 25.2144 66.004 30.181C82.3722 37.7199 95.3366 52.3529 103.079 68.7739C109.105 68.5626 115.142 68.3735 121.16 68.7684C132.956 69.5442 144.764 72.6449 153.524 80.9903C161.19 88.2929 165.976 99.3579 162.851 109.892ZM113.857 130.089C109.169 130.089 109.224 137.372 113.921 137.372C118.61 137.372 118.551 130.089 113.857 130.089ZM-44.8694 111.221C-41.5907 107.684 -40.0863 103.009 -40.5396 98.2234C-40.7898 95.5537 -44.9278 96.0237 -44.6775 98.6905C-44.3243 102.461 -45.5618 105.865 -48.1286 108.627C-49.95 110.598 -46.6797 113.179 -44.8694 111.221ZM-52.4778 120.062C-49.8193 120.062 -49.4022 115.915 -52.083 115.915C-54.7415 115.915 -55.1586 120.062 -52.4778 120.062ZM-20.6035 58.3151C-19.5718 57.186 -17.9589 56.7633 -16.5379 57.3835C-14.0935 58.4486 -12.208 54.7361 -14.6691 53.6627C-17.792 52.3 -21.3794 52.9869 -23.693 55.5203C-25.5062 57.5031 -22.4083 60.2895 -20.6035 58.3151ZM103.604 57.592C104.355 58.8796 104.636 60.3729 105.389 61.6382C107.013 64.3579 109.814 63.329 112.322 64.0715C114.889 64.8362 116.043 60.8373 113.473 60.0726C112.3 59.725 111.168 59.8279 109.981 59.6833C108.501 59.5053 108.56 58.329 108.017 57.097C106.983 54.725 105.287 52.7061 103.548 50.8178C101.733 48.8406 98.7237 51.7188 100.534 53.6905C101.655 54.9113 102.767 56.1488 103.604 57.592ZM118.735 64.4302C121.407 64.4302 121.513 60.27 118.827 60.27C116.146 60.27 116.049 64.4302 118.735 64.4302ZM70.4089 179.764C67.8477 179.444 65.8288 179.836 63.579 178.196C62.4194 177.35 61.1291 177.901 60.5201 178.827C60.2948 178.966 60.0835 179.138 59.886 179.347C58.554 180.746 59.1408 182.779 60.6091 183.788C61.4989 184.403 62.4723 184.784 63.3343 185.454C64.3076 186.207 65.2392 187 66.3321 187.581C68.212 188.579 70.5646 188.944 72.4278 187.706C74.0351 186.638 75.0334 184.6 74.4467 182.687C73.8849 180.89 72.1664 179.981 70.4089 179.764ZM82.8143 179.964C80.1503 179.964 79.8221 184.116 82.5084 184.116C85.1781 184.116 85.5062 179.964 82.8143 179.964Z" fill="#372724"/>
<path d="M-42.6002 156.972C-45.281 156.972 -44.9361 152.823 -42.2721 152.823C-39.5941 152.823 -39.9361 156.972 -42.6002 156.972ZM-36.7298 149.01C-33.2064 145.726 -33.4984 141.018 -34.5746 136.702C-35.2225 134.105 -39.3021 134.939 -38.6569 137.539C-37.9645 140.312 -37.1775 143.735 -39.5412 145.935C-41.4962 147.762 -38.6986 150.84 -36.7298 149.01ZM98.4484 118.337C98.2454 118.145 98.0146 118.015 97.7504 117.942C97.5056 117.834 97.2442 117.787 96.9689 117.809C96.7937 117.84 96.6158 117.87 96.4378 117.901C96.0735 118.015 95.762 118.218 95.5062 118.499L95.2003 118.946C95.039 119.269 94.9612 119.614 94.9778 119.978V120.181C94.9778 120.462 95.0501 120.726 95.1836 120.965C95.2837 121.232 95.4395 121.46 95.6647 121.641C95.8677 121.836 96.0957 121.964 96.3599 122.036C96.6046 122.147 96.866 122.194 97.1414 122.172C97.3193 122.142 97.4945 122.111 97.6725 122.078C98.0368 121.964 98.3483 121.761 98.6041 121.48L98.91 121.032C99.0713 120.709 99.1491 120.367 99.1352 120.003V119.8C99.1352 119.519 99.0629 119.255 98.9267 119.016C98.8266 118.749 98.6653 118.526 98.4484 118.337ZM-22.9645 88.1788C-20.2948 88.1788 -20.1196 84.0158 -22.8087 84.0158C-25.4839 84.0158 -25.6564 88.1788 -22.9645 88.1788ZM46.2347 146.919C43.5484 146.919 43.7931 151.074 46.4628 151.074C49.1491 151.074 48.9044 146.919 46.2347 146.919ZM139.466 121.755C132.364 121.232 125.203 119.352 118.198 118.09C111.282 116.841 104.249 115.078 97.2609 114.386C95.0752 114.172 91.6102 113.932 90.0168 115.851C87.895 118.412 90.5257 122.125 91.7965 124.491C94.8165 130.131 97.4473 136.41 97.2359 142.929C96.9606 151.605 89.1575 161.232 80.0724 159.683C79.7637 161.833 78.4956 163.799 76.6992 165.212C69.3048 171.029 61.3432 164.77 57.6252 157.993C55.4394 154.013 54.1713 149.555 51.599 145.779C50.2197 143.76 48.0618 141.31 45.4477 141.138C43.0645 140.988 41.4572 143.073 40.7953 145.15C39.2186 150.123 42.7781 155.423 44.0907 160.073C45.381 164.63 45.1724 169.027 42.3832 172.959C40.9928 174.914 39.2881 176.755 40.7397 179.161C41.7325 180.81 43.3871 182.042 44.594 183.529C47.1775 186.719 47.8282 190.743 46.4739 194.625C43.3093 203.666 33.5512 205.876 24.9861 205.776C14.3326 205.657 3.39819 204.077 -6.59904 200.306C-15.3783 196.991 -23.5373 191.9 -29.8443 184.897C-35.267 178.874 -42.2832 168.718 -39.3327 160.209C-36.7159 152.639 -26.6018 148.624 -28.821 139.589C-29.8443 135.417 -32.1664 131.666 -33.009 127.442C-33.8154 123.373 -32.9311 119.669 -30.3338 116.435C-28.871 114.608 -27.0607 113.07 -25.6869 111.182C-24.1157 109.016 -23.668 106.599 -23.5373 103.971C-23.3204 99.5331 -23.4233 95.0197 -20.826 91.1904C-16.7409 85.1699 -9.32151 83.0425 -3.5234 79.1826C0.0416794 76.8161 2.18017 73.8406 3.17016 69.6387C4.47717 64.0825 4.9388 58.3567 6.18741 52.7838C8.15627 43.9991 12.1941 34.9835 20.2336 30.1865C28.8988 25.0168 39.4438 27.603 47.8004 32.0914C55.0974 36.0068 62.4138 42.7087 63.732 51.2849C64.0851 53.5847 63.9489 55.8539 63.44 58.1148C62.8838 60.5925 61.7631 63.0008 61.5351 65.5508C61.104 70.3979 65.2336 73.2844 69.3465 74.711C73.7292 76.2238 78.4595 76.3906 82.7948 78.0647C86.8744 79.6359 89.5579 82.3612 92.2748 85.6648C94.5385 88.4235 97.6614 92.5892 101.591 90.0141C104.917 87.8339 106.613 83.9185 110.156 81.894C116.335 78.3678 124.803 79.6526 129.605 84.8528C129.867 84.7388 130.173 84.6832 130.52 84.6971C141.443 85.2449 154.324 91.2794 155.687 103.423C156.808 113.382 149.886 122.531 139.466 121.755ZM0.806419 172.411C-1.15966 168.963 -5.89548 169.119 -7.63353 165.634C-9.44944 161.994 -9.10183 156.73 -13.9405 155.387C-16.9383 154.555 -19.0685 156.338 -20.4367 158.66C-20.9094 159.169 -21.2681 159.808 -21.4517 160.557C-21.4934 160.723 -21.5184 160.879 -21.5407 161.029C-21.5434 161.04 -21.5434 161.046 -21.549 161.057C-21.8215 161.8 -21.6686 162.478 -21.3154 163.006C-20.4311 165.078 -17.6196 166.051 -16.2097 167.887C-14.0518 170.684 -14.0963 174.419 -11.4072 177.005C-9.10739 179.211 -5.40049 180.568 -2.24142 179.633C0.959366 178.679 2.49719 175.387 0.806419 172.411ZM11.688 180.693C11.6435 180.523 11.6018 180.351 11.5545 180.178C11.4127 179.831 11.1958 179.544 10.9038 179.311L10.4199 179.03C10.0806 178.894 9.72746 178.846 9.36316 178.888H9.09342C8.81533 178.916 8.56783 179.002 8.34258 179.155C8.08674 179.269 7.8754 179.444 7.70854 179.675C7.52501 179.892 7.40543 180.142 7.35815 180.417C7.26638 180.673 7.23857 180.938 7.28585 181.21C7.32756 181.385 7.37484 181.558 7.41655 181.73C7.55838 182.072 7.77528 182.364 8.07284 182.598C8.23413 182.692 8.39542 182.784 8.55671 182.879C8.89319 183.015 9.24915 183.059 9.60788 183.02H9.88319C10.1585 182.993 10.4088 182.904 10.634 182.753C10.8871 182.639 11.1012 182.461 11.2681 182.233C11.4488 182.011 11.5684 181.766 11.6157 181.491C11.7102 181.235 11.7297 180.971 11.688 180.693ZM69.277 60.4424C69.3521 60.612 69.4439 60.7649 69.544 60.8929C69.6413 62.959 69.366 64.9724 70.8093 66.8022C72.4222 68.8517 74.9139 69.3829 77.3026 69.9974C79.2854 70.5063 82.4723 72.7227 84.455 71.2766C86.2181 69.9919 85.9789 66.9913 85.1085 65.295C84.1158 63.3484 82.2414 62.4335 80.1808 62.0163C78.9906 61.7772 77.6308 61.8411 76.4906 61.4129C74.9194 60.8261 75.0028 59.558 74.5662 58.1898C73.9823 56.3795 72.3499 55.0419 70.3755 55.6982C67.92 56.513 68.5123 58.6876 69.277 60.4424ZM101.012 82.1443C103.579 80.4479 103.537 76.2905 100.623 74.9223C100.097 74.6749 99.519 74.5914 98.999 74.7054C98.301 74.444 97.5362 74.4385 96.7604 74.8445C95.42 75.5425 94.519 77.1804 94.5385 78.6737C94.5802 81.9301 98.2871 83.9435 101.012 82.1443ZM-17.6892 81.9663C-15.7314 79.4913 -13.3649 77.617 -10.4394 76.4018C-7.94498 75.3617 -6.09848 74.3189 -4.77757 71.8606C-3.50115 69.4941 -7.22196 67.6198 -8.49282 69.9752C-9.76646 72.3473 -12.9255 72.7811 -15.1168 74.102C-17.3137 75.4285 -19.2186 77.1971 -20.8065 79.2049C-22.4611 81.3017 -19.3549 84.0742 -17.6892 81.9663ZM42.4778 25.1253C42.6808 25.3339 42.9199 25.4701 43.1952 25.548C43.4455 25.6676 43.7097 25.7148 43.9961 25.687L44.5217 25.5925C44.8721 25.484 45.1724 25.2977 45.4227 25.0307C45.5312 24.8806 45.6368 24.7304 45.7453 24.5802C45.9177 24.2465 46.0011 23.8934 45.9845 23.5179V23.1119C45.9789 22.8366 45.9177 22.5808 45.7814 22.3472C45.6869 22.0941 45.5367 21.8689 45.3282 21.6881C45.1252 21.4796 44.886 21.3433 44.6107 21.2654C44.3604 21.1459 44.0962 21.0986 43.8098 21.1264C43.6318 21.157 43.4594 21.1876 43.2842 21.2182C42.9338 21.3294 42.6335 21.5157 42.3832 21.7799C42.2748 21.9328 42.1691 22.083 42.0606 22.2332C41.8882 22.5669 41.8048 22.9201 41.8215 23.2955V23.7015C41.827 23.9768 41.8882 24.2298 42.0245 24.4662C42.119 24.7193 42.2692 24.9445 42.4778 25.1253ZM67.4973 49.6943C70.153 49.6943 70.6369 45.5591 67.9561 45.5591C65.3087 45.5591 64.8193 49.6943 67.4973 49.6943Z" fill="#2A1D1B"/>
<path d="M-1.40436 118.162L-1.3988 115.604C-1.3988 115.581 -1.3988 115.556 -1.40436 115.534C-1.41549 114.883 -1.66576 114.26 -2.10236 113.754L-2.97556 112.737C-3.02839 112.553 -2.98668 112.35 -2.8671 112.2L-2.62794 111.905C-2.51949 111.758 -2.47778 111.577 -2.51393 111.399L-2.78368 110.181C-2.84208 109.942 -2.7364 109.689 -2.52784 109.552L-2.33039 109.422C-2.04953 109.241 -1.6602 109.308 -1.4572 109.578L-1.0206 110.173C-0.84819 110.39 -0.550636 110.479 -0.286453 110.39C-0.00558472 110.292 0.316998 110.395 0.475506 110.645L1.58785 112.342L2.84203 114.244L3.17017 114.739C3.24247 114.858 3.27863 115 3.26472 115.139L2.90877 117.887C2.86705 118.215 2.55004 118.457 2.19687 118.426L0.191856 118.276C0.0166626 118.265 -0.150188 118.318 -0.280891 118.418L-0.353195 118.474C-0.728611 118.754 -1.28479 118.593 -1.40436 118.162ZM3.39264 110.136C3.27306 110.292 3.23691 110.495 3.29531 110.676L3.93491 112.642L4.33535 113.871L5.04726 116.049C5.18352 116.482 5.73135 116.621 6.09008 116.335L6.16238 116.279C6.29309 116.174 6.45438 116.124 6.62679 116.132L8.60955 116.246C8.96272 116.268 9.26862 116.018 9.29921 115.69L9.59676 112.945C9.61345 112.803 9.57173 112.659 9.49387 112.547L9.16016 112.055L8.00054 110.359L6.71856 108.496C6.55727 108.251 6.22913 108.154 5.94826 108.257C5.68407 108.351 5.38096 108.268 5.20855 108.054L4.75248 107.478C4.53279 107.211 4.14347 107.155 3.86261 107.347L3.67073 107.478C3.46216 107.617 3.36205 107.878 3.42601 108.118L3.72635 109.33C3.76806 109.5 3.72635 109.689 3.62345 109.828L3.39264 110.136ZM-1.26532 89.266C0.631233 92.35 2.10231 98.1871 2.80587 101.374C2.95604 102.047 3.88207 102.125 4.14903 101.491C4.25749 101.224 4.51333 101.057 4.79976 101.057H6.91044C7.38597 101.057 7.72245 100.606 7.59453 100.153C6.87985 97.7644 4.88597 91.1793 3.2675 86.9134C3.12289 86.5296 2.96161 86.1292 2.78363 85.7176C0.525562 80.5313 -4.03229 73.9712 -6.73251 76.8494C-9.27979 79.5441 -5.2809 83.6375 -2.4305 87.5474C-2.00781 88.1259 -1.61293 88.6987 -1.26532 89.266ZM27.8754 86.2571C28.2175 89.2382 28.3315 91.7883 28.3676 93.4206C28.3843 94.1075 29.0072 94.5914 29.6969 94.5914C29.8971 94.5914 30.1057 94.5497 30.3031 94.4607C30.5868 94.3383 30.8982 94.2994 31.1986 94.3578L31.6157 94.4357C32.4945 94.6081 33.3343 93.9685 33.287 93.1509C33.1813 91.4601 32.995 88.5791 32.6836 85.1142C32.386 81.8411 31.9856 78.0452 31.4433 74.2465C29.9917 63.9629 23.1285 54.5997 20.8954 45.9706C18.6624 37.3388 15.2948 41.1152 15.0667 46.6047C14.8415 52.0858 17.7113 59.1464 23.2202 69.405C25.9844 74.5497 27.2748 81.0513 27.8754 86.2571ZM23.059 104.091L23.0506 103.882C23.0284 103.601 22.8893 103.343 22.653 103.159L20.9205 101.833C20.8426 101.772 20.7647 101.694 20.7091 101.61L20.406 101.176C20.0779 100.704 19.4077 100.584 18.9182 100.907C18.6429 101.085 18.4705 101.385 18.4594 101.702L18.4288 102.453C18.4177 102.759 18.262 103.045 18.0006 103.226L17.9171 103.29C17.5028 103.582 17.3721 104.11 17.5945 104.552L18.3231 105.948L18.871 107L19.8443 108.866C19.886 108.955 19.9166 109.049 19.9333 109.141L19.975 109.349C20.0779 109.933 20.6813 110.301 21.2848 110.156L22.5556 109.844C23.0506 109.725 23.3815 109.288 23.351 108.804L23.2202 106.719L23.059 104.091ZM9.48831 79.3133C10.4449 81.0625 11.2264 83.0118 11.8493 85.0002C13.5734 90.4368 14.1824 96.1681 14.391 98.8461C14.4466 99.5692 15.2336 99.9974 15.8676 99.647C16.0706 99.5386 16.2987 99.5024 16.5295 99.5441L16.8354 99.597C17.4972 99.7165 18.084 99.1687 18.0117 98.5041C17.7558 96.1376 17.1385 90.9151 16.1958 85.3589C16.0651 84.5997 15.9316 83.8405 15.7898 83.0758C14.2436 74.6943 8.74303 67.1998 6.69353 60.192C4.64681 53.1842 2.33313 56.3572 2.41655 60.8511C2.49442 65.3477 4.9388 71.0541 9.48831 79.3133ZM16.1429 107.289C16.1235 107.008 15.9816 106.749 15.7536 106.56L14.0322 105.234C13.9488 105.167 13.8737 105.095 13.8126 105.006L13.515 104.575C13.1869 104.102 12.5167 103.977 12.0272 104.299C11.7519 104.475 11.5795 104.772 11.5628 105.095L11.5322 105.837C11.5239 106.146 11.3654 106.432 11.1068 106.613L11.0233 106.671C10.6007 106.961 10.4672 107.486 10.6896 107.934L10.965 108.165C11.9077 108.955 12.5473 110.02 12.7781 111.19C12.8087 111.338 12.8281 111.482 12.8448 111.633L12.9116 112.264C12.9533 112.347 12.9839 112.445 13.0005 112.539L13.0367 112.748C13.1368 113.329 13.7458 113.704 14.3493 113.557L15.6229 113.257C16.1179 113.131 16.4572 112.695 16.4238 112.211L16.3042 110.125L16.1541 107.442L16.1429 107.289ZM-10.1836 96.6047C-8.82651 98.81 -7.77534 102.987 -7.26922 105.267C-7.16633 105.751 -6.50448 105.801 -6.3126 105.351C-6.23474 105.161 -6.0512 105.036 -5.84263 105.036H-4.3354C-3.99614 105.036 -3.75142 104.714 -3.84597 104.391C-4.35487 102.687 -5.78146 97.9729 -6.94108 94.9195C-7.25532 94.0964 -7.66967 93.1926 -8.15354 92.2972C-9.88324 89.0575 -12.4639 85.9762 -14.0963 87.7143C-16.1597 89.9112 -12.208 93.3789 -10.2559 96.4907C-10.2308 96.5269 -10.2058 96.5686 -10.1836 96.6047ZM-28.9489 131.791C-28.7848 132.078 -28.7681 132.414 -28.9044 132.731L-28.9461 132.837C-29.1519 133.346 -28.96 133.896 -28.4984 134.152L-25.9316 135.556L-25.9011 135.573L-23.9795 136.633C-23.8905 136.685 -23.8043 136.749 -23.7348 136.822L-23.579 136.983C-23.1369 137.425 -22.4027 137.414 -21.9606 136.972L-21.0401 136.04C-20.6814 135.676 -20.6508 135.114 -20.94 134.708L-22.2164 132.931L-22.475 132.556L-23.9239 130.476C-24.0907 130.231 -24.3605 130.07 -24.6719 130.034L-26.9939 129.789C-27.1024 129.778 -27.2164 129.747 -27.3165 129.705L-27.831 129.486C-28.4038 129.241 -29.0963 129.527 -29.366 130.111C-29.5218 130.437 -29.5134 130.812 -29.3466 131.104L-28.9489 131.791ZM-34.455 138.46C-34.2687 138.724 -34.2159 139.069 -34.3271 139.397L-34.3577 139.505C-34.5245 140.031 -34.2909 140.551 -33.8099 140.768L-33.4261 140.773C-32.3694 140.796 -31.371 141.113 -30.5173 141.655C-30.1725 141.866 -29.8555 142.122 -29.5635 142.408L-29.0907 142.87C-28.9962 142.912 -28.91 142.976 -28.8349 143.037L-28.6652 143.182C-28.1897 143.588 -27.4528 143.526 -27.0607 143.054L-26.2487 142.058C-25.915 141.68 -25.915 141.129 -26.2487 140.743L-27.6697 139.074L-28.3454 138.246L-29.569 136.752C-29.7581 136.524 -30.039 136.385 -30.3505 136.368L-32.6669 136.307C-32.7809 136.307 -32.8894 136.285 -32.9951 136.249L-33.5234 136.065C-34.1074 135.868 -34.7776 136.207 -35.014 136.805C-35.1419 137.144 -35.1002 137.522 -34.9083 137.803L-34.455 138.46ZM-38.3788 147.381L-37.3555 147.787C-37.2053 147.845 -37.0885 147.967 -37.044 148.129L-36.9383 148.462C-36.8855 148.629 -36.7576 148.76 -36.5907 148.807L-35.4089 148.624C-35.0612 148.571 -34.7109 148.599 -34.3827 148.688C-34.138 148.749 -33.9044 148.849 -33.6903 148.977C-33.0451 149.363 -32.4222 149.733 -31.7492 150.081C-31.371 150.178 -31.0151 149.914 -31.0568 149.566L-31.0624 149.502C-31.079 149.377 -31.0429 149.252 -30.9539 149.155C-30.6146 148.774 -30.2921 148.407 -29.9139 148.045C-29.7164 147.859 -29.7359 147.559 -29.95 147.37C-30.5312 146.844 -31.1402 146.288 -31.6881 145.726C-31.7715 145.637 -31.8855 145.581 -32.0106 145.565L-32.5307 145.498C-32.7809 145.467 -33.0257 145.434 -33.2759 145.409C-34.2854 145.284 -35.2893 145.187 -36.3043 145.103C-36.5629 145.075 -36.8132 145.259 -36.9022 145.523C-36.9912 145.773 -37.2136 145.946 -37.4639 145.954L-38.1202 145.976C-38.4261 145.982 -38.6931 146.257 -38.6986 146.599L-38.707 146.836C-38.7181 147.08 -38.5818 147.303 -38.3788 147.381ZM-22.7948 126.021C-22.8504 126.21 -22.7976 126.418 -22.6752 126.563L-21.2737 128.129L-20.7731 128.685L-18.8321 130.84C-18.5317 131.177 -17.9895 131.129 -17.7976 130.751L-17.7614 130.679C-17.6891 130.542 -17.5696 130.442 -17.4138 130.392C-16.8132 130.22 -16.2208 130.059 -15.6285 129.903C-15.3087 129.831 -15.1391 129.516 -15.2309 129.205C-15.4728 128.385 -15.6953 127.573 -15.9038 126.738C-15.9177 126.683 -15.9344 126.624 -15.9511 126.569C-15.9873 126.427 -16.0651 126.307 -16.1791 126.218L-16.6519 125.851C-17.8087 124.967 -18.985 124.091 -20.1752 123.24C-20.42 123.062 -20.7704 123.081 -21.0151 123.282C-21.2431 123.468 -21.5657 123.499 -21.816 123.36L-22.4667 122.984C-22.7726 122.806 -23.1841 122.912 -23.3983 123.207L-23.5373 123.41C-23.693 123.629 -23.693 123.91 -23.5429 124.113L-22.7893 125.131C-22.6836 125.278 -22.6474 125.47 -22.6947 125.648L-22.7948 126.021ZM-5.02228 115.612C-5.42272 115.264 -5.81205 114.911 -6.19859 114.547C-6.27089 114.477 -6.33207 114.397 -6.3849 114.308L-6.64631 113.849C-6.93274 113.354 -7.55009 113.168 -8.0284 113.443C-8.30927 113.599 -8.46778 113.86 -8.50393 114.172L-8.59291 114.9C-8.62907 115.2 -8.7987 115.462 -9.0601 115.606L-9.14353 115.659C-9.24642 115.718 -9.33541 115.796 -9.40771 115.885C-9.47723 115.965 -9.60237 116.085 -9.65243 116.196C-9.77757 116.424 -9.79981 116.674 -9.70526 116.902C-9.43552 117.559 -9.18524 118.215 -8.94609 118.88C-8.87378 119.077 -8.7987 119.274 -8.73196 119.472L-8.08123 121.449C-8.05064 121.544 -8.03396 121.641 -8.03396 121.735C-8.03952 121.808 -8.02562 121.875 -8.02006 121.95C-7.97278 122.239 -7.90882 122.511 -7.65576 122.678C-7.42495 122.848 -7.10237 122.931 -6.75476 122.884C-6.27645 122.817 -5.76477 122.756 -5.30871 122.678C-4.77756 122.584 -4.37155 122.161 -4.35487 121.677L-4.28257 119.586C-4.26032 118.64 -4.25754 117.689 -4.25198 116.741C-4.25198 116.46 -4.37155 116.19 -4.58846 115.993C-4.73585 115.868 -4.88045 115.743 -5.02228 115.612ZM39.4911 104.839L39.7497 102.097C39.7609 101.952 39.7247 101.813 39.6469 101.697L39.3076 101.21L38.579 100.167L36.8354 97.6726C36.6685 97.4279 36.3404 97.3333 36.054 97.4362C35.7898 97.5419 35.4867 97.4585 35.3059 97.2499L34.8415 96.677C34.619 96.4129 34.2242 96.36 33.9433 96.563L33.7431 96.6993C33.5373 96.8439 33.4427 97.1053 33.5039 97.3389L33.8321 98.5514C33.8738 98.721 33.8376 98.9101 33.7347 99.0547L33.5039 99.3606C33.3899 99.5191 33.3537 99.7249 33.4177 99.9084L34.099 101.858L34.5718 103.207L35.2837 105.245C35.4311 105.673 35.9761 105.807 36.3265 105.515L36.3932 105.459C36.5184 105.353 36.6797 105.303 36.8521 105.303L38.8126 105.395C39.163 105.417 39.4633 105.167 39.4911 104.839ZM-15.9761 109.572C-15.5228 110.061 -15.039 110.573 -14.5301 111.093C-14.2687 111.01 -14.0101 110.926 -13.7487 110.843C-13.4483 110.743 -13.1452 110.64 -12.8421 110.526C-12.6919 110.467 -12.5473 110.412 -12.3971 110.348C-12.3693 110.337 -12.3499 110.334 -12.3332 110.323C-12.3137 110.317 -12.297 110.306 -12.2748 110.298C-11.8604 109.708 -11.3821 109.188 -10.8649 108.715C-11.5434 107.862 -12.2553 107.036 -12.9672 106.229C-15.0139 103.918 -17.094 101.766 -18.4789 99.4663C-21.1847 94.9724 -22.3888 97.8422 -21.5768 101.043C-20.9344 103.56 -19.074 106.235 -15.9761 109.572ZM52.6446 94.6637L52.4111 94.1965C52.1524 93.682 51.4739 93.479 50.9122 93.7349C50.6007 93.8795 50.3782 94.1492 50.3143 94.4718L50.1752 95.2226C50.1168 95.5285 49.9194 95.7983 49.6218 95.9596L49.5273 96.0124C49.0601 96.271 48.8627 96.7827 49.0434 97.2443L49.7053 98.924L50.0529 99.8055L50.8148 101.755C50.8454 101.849 50.8649 101.947 50.8705 102.041L50.8927 102.255C50.94 102.837 51.4739 103.273 52.0523 103.195C52.4472 103.14 52.8532 103.093 53.2703 103.056C53.7542 103.009 54.1241 102.628 54.1602 102.15L54.3382 100.075L54.5607 97.8228L54.6191 97.2443C54.6441 96.9635 54.5495 96.6826 54.3465 96.4685L52.8282 94.9195C52.7559 94.8472 52.6919 94.7527 52.6446 94.6637ZM70.9483 135.665L74.5718 133.412C74.9778 133.159 75.1475 132.659 74.9834 132.211L73.7236 128.774C73.6653 128.618 73.6458 128.451 73.6653 128.29L74.0824 125.225C74.1436 124.778 73.8988 124.341 73.4845 124.166L72.5473 123.766C72.0162 123.54 71.4016 123.802 71.2042 124.341L69.8249 128.081L68.4678 131.761C68.4511 131.802 68.4289 131.847 68.4094 131.888L65.8009 136.68C65.5979 137.055 65.6563 137.522 65.9428 137.84L69.2798 141.519C69.7581 142.044 70.6146 141.925 70.9289 141.291C71.0179 141.107 71.054 140.904 71.0262 140.707L70.6786 138.115L70.4867 136.655C70.4339 136.266 70.6146 135.879 70.9483 135.665ZM67.8171 74.6386C68.2898 83.1008 65.0112 87.3667 64.2715 89.7999C64.1324 90.2532 64.2047 90.726 64.4745 91.1375C64.9583 91.8661 65.9678 92.2416 66.9467 92.058L68.2592 91.8133C69.0184 91.6743 69.633 91.2154 69.886 90.612C70.8232 88.3817 72.9311 82.6003 72.8477 76.0569C72.8282 74.2326 72.6308 72.3472 72.197 70.4646C69.7637 59.9167 67.7337 54.1937 64.9695 55.8483C62.2053 57.4973 66.9717 64.6331 67.7476 73.7126C67.7754 74.0296 67.7948 74.3355 67.8171 74.6386ZM64.6636 97.4473C64.5106 97.5725 64.4272 97.7644 64.4494 97.9562L64.6525 100.006L64.772 101.115L65.0279 103.554C65.0696 104.002 65.5618 104.252 65.9622 104.044L66.0401 104.002C66.1875 103.93 66.3543 103.913 66.5156 103.955L68.3677 104.469C68.6958 104.569 69.0434 104.397 69.1491 104.085L70.0751 101.485C70.1224 101.349 70.1224 101.204 70.0751 101.079L69.8666 100.529L68.9878 98.2065L68.351 96.5213C68.2481 96.2516 67.9506 96.0847 67.6447 96.1209C67.3582 96.157 67.0829 96.0124 66.9578 95.7677L66.6408 95.1114C66.4878 94.8055 66.1096 94.6693 65.7759 94.8055L65.5479 94.9001C65.3087 94.9974 65.1474 95.231 65.1502 95.4757L65.178 96.7243C65.1836 96.8967 65.1002 97.0719 64.9583 97.1915L64.6636 97.4473ZM72.6725 96.8801L72.8811 97.1665C73.5512 98.0981 73.8849 99.1965 73.8516 100.309C73.8516 100.529 73.8377 100.757 73.8015 100.973L73.7014 101.599C73.7236 101.694 73.7292 101.791 73.7181 101.886L73.7014 102.097C73.6486 102.687 74.1352 103.19 74.7414 103.201L76.0234 103.212C76.5268 103.218 76.9606 102.878 77.0635 102.406L77.5168 100.367L77.9172 98.6125L78.1452 97.5947C78.2036 97.3166 78.1452 97.0302 77.9756 96.7911L76.6686 95.0753C76.6046 94.9918 76.5601 94.9001 76.524 94.8L76.3516 94.305C76.1625 93.7655 75.5396 93.4846 74.9667 93.6765C74.6497 93.7794 74.3938 94.0297 74.2965 94.3383L74.0601 95.0558C73.9628 95.3506 73.732 95.5842 73.4261 95.701L73.326 95.7371C72.8421 95.9179 72.5724 96.3962 72.6725 96.8801ZM59.3688 95.2588C59.0824 95.3033 58.7959 95.1698 58.6625 94.9307L58.3121 94.2855C58.1508 93.9879 57.7615 93.8739 57.4277 94.0185L57.2053 94.1242C56.9606 94.2327 56.8104 94.4774 56.8299 94.7221L56.9188 95.9596C56.93 96.1431 56.8549 96.3183 56.7214 96.449L56.435 96.7132C56.2848 96.8495 56.2153 97.0413 56.2431 97.2332L56.9856 98.3539C57.361 98.924 57.5167 99.6025 57.4277 100.267L57.2887 101.396L57.1163 102.795C57.183 103.237 57.6836 103.465 58.0673 103.243L58.1424 103.201C58.2815 103.118 58.4483 103.093 58.6096 103.129L60.4617 103.571C60.7954 103.654 61.1291 103.471 61.2236 103.159L62.0301 100.523C62.0718 100.387 62.0607 100.242 62.0078 100.117L61.7854 99.5692L61.0623 97.8839L60.0974 95.6314C59.9834 95.3617 59.6775 95.206 59.3688 95.2588ZM82.4083 93.4067L82.158 94.1186C82.0551 94.4106 81.8215 94.6387 81.5073 94.7471L81.41 94.7833C80.9205 94.9557 80.6397 95.4229 80.7287 95.9123L81.2431 98.6014L81.4656 99.7722L81.6324 100.651C81.6491 100.745 81.6547 100.846 81.638 100.937L81.6185 101.151C81.549 101.735 82.019 102.255 82.6336 102.275L83.9183 102.317C84.4161 102.333 84.8638 102.005 84.9806 101.535L85.4784 99.508L86.0095 97.4001L86.1764 96.7466C86.2431 96.474 86.1931 96.1848 86.0207 95.9457L84.7609 94.1965C84.7025 94.1131 84.6525 94.0185 84.6191 93.9212L84.4634 93.4262C84.2882 92.8812 83.6736 92.578 83.0952 92.7616C82.7726 92.8589 82.5168 93.1036 82.4083 93.4067ZM77.4806 90.3367L78.3844 90.3895C78.91 90.4201 79.3688 90.2699 79.608 89.989C80.4617 88.974 82.4389 86.3378 83.1202 83.0007C83.3232 81.9968 83.4122 80.9318 83.3204 79.8277C82.8143 74.0074 82.069 70.751 80.0362 71.2293C78.1425 71.677 80.1336 75.5118 80.0418 79.9473C80.0362 80.2671 80.0195 80.5841 79.989 80.9067C79.5301 85.7343 76.7103 87.5836 75.9233 88.7905C75.7843 89.0046 75.7843 89.266 75.9178 89.5135C76.1625 89.9557 76.8049 90.2949 77.4806 90.3367ZM83.9739 109.619C84.5635 108.512 83.7348 107.186 82.4806 107.217C81.9411 107.228 81.4406 107.503 81.1486 107.956C78.0118 112.789 76.5685 113.19 77.564 120.821C78.465 127.745 83.0006 130.006 82.4333 127.381C81.866 124.758 79.5663 123.81 80.7732 117.13C81.3571 113.902 83.1369 111.207 83.9739 109.619ZM37.1941 62.0913C39.3437 67.603 40.2809 74.2354 40.6619 79.9584C40.9678 84.5636 40.9094 88.5791 40.8232 90.9457C40.7842 91.9968 41.7909 92.7338 42.7225 92.35C43.0117 92.2249 43.3343 92.2082 43.6374 92.3083L44.0545 92.439C44.9333 92.7254 45.8287 92.0386 45.8343 91.0708C45.8454 88.7098 47.1385 82.8784 46.9578 75.7927C46.8493 71.1737 46.1096 66.0235 43.9711 60.9512C38.5595 48.1063 37.3081 38.4678 35.9038 33.5262C34.505 28.5902 29.658 29.9167 30.2253 34.811C30.7926 39.7026 32.2775 49.4662 37.1941 62.0913ZM27.094 118.988C27.6029 116.274 29.1546 114.01 29.8943 112.678C30.4032 111.747 29.6802 110.634 28.5818 110.659C28.1146 110.67 27.6752 110.904 27.4221 111.285C24.8721 115.061 23.6012 115.612 24.1379 120.829C24.1796 121.221 24.2269 121.635 24.2881 122.083C25.0751 127.903 29.0406 129.803 28.5401 127.598C28.1035 125.654 26.4906 124.806 26.8437 120.79C26.8854 120.248 26.9689 119.655 27.094 118.988ZM30.4755 143.64C30.0334 143.946 29.8777 144.525 30.0973 145.014C30.1001 145.031 30.1057 145.045 30.1168 145.061L34.2687 153.193C34.3437 153.337 34.3854 153.493 34.391 153.654L34.5662 158.34C34.594 158.941 35.0807 159.413 35.6813 159.413H36.7103C37.1051 159.413 37.4694 159.199 37.6724 158.857L38.5901 157.281C38.757 156.989 39.0462 156.791 39.3799 156.738L39.6413 156.697L39.9945 156.647C40.7119 156.53 41.1291 155.776 40.8538 155.111L40.0362 153.176C39.9361 152.937 39.7553 152.739 39.5273 152.62L37.792 151.719C37.5111 151.574 37.3054 151.313 37.2247 151.007L34.6552 140.982C34.6246 140.857 34.5718 140.743 34.505 140.64L33.084 138.518C32.7336 137.992 32.0161 137.862 31.5072 138.232L30.0278 139.297C29.5134 139.667 29.4132 140.395 29.8109 140.893L30.7147 142.027C31.1151 142.534 31.0067 143.271 30.4755 143.64ZM55.7537 73.6292C56.5601 80.0002 56.257 86.2627 56.0234 89.2966C55.9567 90.1809 56.8187 90.8372 57.6586 90.5397C57.9172 90.4451 58.2036 90.4395 58.4706 90.5341L58.8349 90.6592C59.6052 90.9234 60.4144 90.3728 60.4533 89.5552C60.5757 86.6965 60.8009 80.4312 60.712 73.6653C60.6981 72.6392 60.6758 71.5991 60.6452 70.5647C60.3421 60.1865 55.1085 50.1364 53.9461 41.3127C52.7865 32.4973 49.4049 35.8872 48.6708 41.3127C47.9311 46.7437 49.8137 54.0741 53.7486 64.8639C54.7442 67.5891 55.3671 70.6203 55.7537 73.6292ZM26.079 101.224C25.9594 101.379 25.9288 101.588 25.99 101.772L26.9216 102.742C27.1246 102.956 27.297 103.195 27.4221 103.457C27.5973 103.799 27.6974 104.169 27.7169 104.552L27.8587 107.108C28.0033 107.528 28.5567 107.664 28.9044 107.372L28.9711 107.317C29.0962 107.211 29.2575 107.155 29.4299 107.161L31.4016 107.247C31.752 107.264 32.0523 107.014 32.0801 106.685L32.3276 103.941C32.3387 103.799 32.3026 103.66 32.2191 103.543L31.8827 103.056L30.8343 101.569L29.3938 99.5274C29.2269 99.2827 28.8988 99.1909 28.6124 99.2994C28.3482 99.3995 28.0451 99.3217 27.8699 99.1075L27.3999 98.5347C27.1858 98.276 26.7853 98.2232 26.5045 98.4206L26.307 98.5597C26.0984 98.7071 26.0067 98.9657 26.0734 99.2021L26.396 100.403C26.4433 100.579 26.4127 100.768 26.3015 100.918L26.079 101.224ZM-39.7387 157.306C-39.5885 157.853 -39.0935 158.184 -38.5818 158.118L-35.7509 157.759L-34.9862 157.67L-33.5929 157.514C-33.4928 157.503 -33.3844 157.509 -33.2898 157.525L-33.0674 157.556C-32.4584 157.645 -31.9105 157.264 -31.8132 156.766L-31.6408 155.704C-31.5379 155.314 -31.8021 154.914 -32.2665 154.742C-32.9367 154.491 -33.6069 154.222 -34.2743 153.935C-34.4661 153.852 -34.658 153.768 -34.8527 153.679C-35.559 153.362 -36.2403 153.026 -36.9272 152.67C-37.1886 152.542 -37.4945 152.52 -37.7809 152.628L-38.8432 153.07L-39.8583 153.56C-39.9528 153.607 -40.0613 153.643 -40.1641 153.654L-40.7064 153.732C-41.2987 153.816 -41.727 154.477 -41.6547 155.178C-41.613 155.568 -41.3683 155.89 -41.0651 156.051L-40.3588 156.421C-40.0613 156.569 -39.8416 156.85 -39.7637 157.197L-39.7387 157.306ZM46.9049 97.4112C46.3488 96.9496 45.7815 96.4852 45.1975 96.0263C45.1168 95.9596 45.0417 95.8817 44.9861 95.7927L44.6941 95.3506C44.3771 94.8723 43.6374 94.7416 43.0924 95.0614C42.8087 95.2421 42.6335 95.5397 42.6168 95.8623L42.5807 96.6103C42.5668 96.9162 42.4055 97.2026 42.1385 97.3862L42.0551 97.4418C41.6352 97.7393 41.4989 98.2649 41.7214 98.7126L41.9995 98.9351C42.3471 99.2271 42.6474 99.5608 42.9033 99.9195C43.4455 100.651 43.7792 101.505 43.8766 102.411L43.9433 103.034C43.985 103.123 44.0184 103.218 44.0323 103.309L44.0684 103.524C44.1741 104.102 44.772 104.48 45.3699 104.336L46.6296 104.038C47.0996 103.941 47.3832 103.549 47.3638 103.07C47.3276 102.383 47.297 101.694 47.2803 101.001C47.2609 100.189 47.2498 99.3661 47.2498 98.5458V98.1592C47.2498 97.8756 47.1302 97.6031 46.9049 97.4112ZM36.2431 108.955C35.6813 108.966 35.1585 109.241 34.8526 109.694C31.6101 114.5 30.1057 114.925 31.1012 122.417C31.1068 122.47 31.1151 122.517 31.1207 122.567C32.0579 129.497 36.7826 131.763 36.1958 129.138C35.8621 127.67 34.9722 126.73 34.4689 125.022C34.0656 123.671 33.9044 121.836 34.4633 118.88C35.0723 115.643 36.9244 112.945 37.7976 111.357C38.4121 110.25 37.5473 108.918 36.2431 108.955ZM-22.1997 114.308C-21.8632 114.68 -21.4878 115.073 -21.0929 115.479C-20.9316 115.426 -20.7648 115.378 -20.6035 115.323C-20.4088 115.259 -20.2225 115.198 -20.0306 115.123L-19.7498 115.014C-19.7331 115.009 -19.722 115.003 -19.7136 115C-19.6969 114.995 -19.6858 114.989 -19.6775 114.978C-19.4105 114.608 -19.1102 114.28 -18.7876 113.985C-19.1296 113.549 -19.4884 113.126 -19.8527 112.714C-21.2209 111.149 -22.6474 109.703 -23.579 108.159C-25.2809 105.334 -26.0401 107.139 -25.5256 109.152C-25.1419 110.682 -24.0323 112.308 -22.1997 114.308ZM46.7381 161.482L44.5634 158.304L43.8766 157.208C43.5595 156.697 42.8004 156.749 42.5501 157.294L41.6964 159.199C41.6352 159.341 41.5295 159.455 41.3988 159.533L40.3532 160.173L39.4578 160.718C39.3271 160.801 39.2297 160.915 39.1658 161.057L38.5067 162.517C38.3454 162.878 38.4845 163.298 38.8293 163.485L43.6986 166.185C43.8654 166.279 44.0601 166.305 44.2464 166.257L44.4911 166.196C44.9166 166.093 45.1613 165.645 45.0278 165.228L44.6691 164.141L44.658 164.105C44.4327 163.424 45.1975 162.845 45.7926 163.246C46.3321 163.604 47.0468 163.162 46.9578 162.52L46.8577 161.805C46.8438 161.691 46.802 161.583 46.7381 161.482ZM45.47 107.133C44.7553 107.15 44.1018 107.514 43.7097 108.106C39.5773 114.475 37.678 115 38.9906 125.05C39.1769 126.51 39.4939 127.817 39.8804 128.96C41.9188 134.964 46.0317 136.596 45.406 133.693C44.9861 131.755 43.846 130.512 43.2119 128.232C42.7114 126.455 42.5195 124.049 43.2147 120.195C43.985 115.935 46.3293 112.386 47.4361 110.301C48.2119 108.841 47.1191 107.086 45.47 107.133ZM50.2253 194.439L50.1947 194.447C50.1363 194.464 50.0751 194.464 50.0167 194.439L49.3577 194.155C49.2436 194.105 49.1018 194.147 49.0406 194.255L48.5456 195.128C48.529 195.156 48.5234 195.187 48.5178 195.212C48.5178 195.234 48.5178 195.253 48.5234 195.276L48.5651 195.481L48.8988 196.98C48.9211 197.08 49.0184 197.158 49.1324 197.158C49.2436 197.158 49.3354 197.225 49.366 197.32L49.4466 197.57C49.4856 197.684 49.6163 197.751 49.747 197.72L49.836 197.703C49.9333 197.678 50.0084 197.606 50.0167 197.517L50.0807 197.075C50.0918 197.011 50.1335 196.955 50.1891 196.919L50.3143 196.841C50.381 196.805 50.4227 196.741 50.4283 196.674L50.47 195.935L50.5284 194.92L50.5423 194.655C50.5534 194.494 50.3866 194.38 50.2253 194.439ZM44.7664 195.487L44.7053 194.277C44.7053 194.219 44.7108 194.16 44.7247 194.11L44.7553 193.991C44.8443 193.652 44.6051 193.323 44.2353 193.262L43.4566 193.143C43.148 193.095 42.8504 193.251 42.7475 193.515L42.2803 194.655L41.638 196.196V196.202C41.5768 196.352 41.5879 196.524 41.6713 196.674L42.2887 197.773C42.3165 197.823 42.3415 197.881 42.3526 197.937L42.4055 198.234C42.4667 198.563 42.8143 198.78 43.1702 198.718C43.3732 198.688 43.5429 198.568 43.6374 198.396L43.846 198.006C43.9294 197.845 44.0907 197.731 44.2826 197.689L44.3465 197.678C44.658 197.614 44.8665 197.361 44.8554 197.075L44.7831 195.748L44.7664 195.487ZM30.3782 192.342L30.3087 192.356C30.1835 192.386 30.0556 192.378 29.9305 192.325L28.5651 191.663C28.3204 191.549 28.0256 191.627 27.8893 191.841L26.7659 193.635C26.7075 193.724 26.688 193.835 26.7075 193.932L26.7825 194.369L26.9466 195.331L27.3332 197.523C27.3693 197.734 27.5667 197.901 27.8059 197.912C28.0312 197.923 28.2175 198.068 28.2759 198.271L28.4094 198.796C28.4789 199.046 28.7431 199.197 29.0128 199.149L29.2019 199.113C29.3993 199.077 29.5551 198.932 29.5912 198.749L29.7748 197.828C29.7998 197.698 29.8943 197.584 30.0195 197.517L30.2837 197.372C30.4199 197.297 30.5117 197.169 30.5339 197.028L30.673 195.843L30.7147 195.493L31.0289 192.828C31.0706 192.503 30.7258 192.242 30.3782 192.342ZM41.0095 181.416C40.2503 180.812 40.6647 179.592 41.6352 179.575L41.7798 179.569L43.8348 179.533C44.6302 179.519 45.1113 178.654 44.7108 177.973L44.5384 177.673C44.4188 177.478 44.2409 177.322 44.0267 177.239L35.8621 173.946C35.8371 173.935 35.8148 173.927 35.7898 173.916L33.9461 173.009C33.3955 172.739 32.7336 173.006 32.5223 173.576L31.9438 175.123C31.8715 175.32 31.7408 175.487 31.5684 175.607L30.0751 176.658L29.3048 177.203C29.1491 177.311 29.0295 177.464 28.9516 177.634L27.8754 180.106C27.6251 180.679 27.9366 181.343 28.5401 181.516C28.8738 181.61 29.2269 181.535 29.4883 181.318L30.1001 180.804C30.3727 180.579 30.7369 180.506 31.0734 180.609L40.2281 183.462C40.8955 183.668 41.5712 183.176 41.5712 182.472V182.37C41.5712 182.053 41.4322 181.755 41.1875 181.558L41.0095 181.416ZM57.6725 135.198L62.1163 135.818C63.5846 136.021 64.9166 134.922 64.9889 133.44L65.1975 129.527L65.4839 124.06C65.5117 123.54 65.6981 123.04 66.0151 122.636L71.5434 115.565C71.7826 115.253 71.9495 114.895 72.0273 114.511L72.8004 110.698C73.1619 108.907 71.5629 107.331 69.772 107.725L65.5479 108.657C65.089 108.763 64.6719 108.985 64.3354 109.308L58.9544 114.494C58.5679 114.864 58.0785 115.103 57.5529 115.175L50.9956 116.107C49.7943 116.279 48.8793 117.289 48.8265 118.504L48.643 122.667L48.3927 128.504C48.3732 128.949 48.4761 129.397 48.6847 129.794L51.5685 135.251C52.3554 136.744 54.3521 137.061 55.5646 135.885C56.1235 135.342 56.9022 135.089 57.6725 135.198ZM38.2203 193.674C38.2509 193.376 37.9505 193.151 37.6418 193.24L37.5862 193.257C37.475 193.287 37.3554 193.276 37.2525 193.232L36.0456 192.664C35.8371 192.564 35.5701 192.631 35.4561 192.826L34.4772 194.4C34.4299 194.483 34.4105 194.578 34.4272 194.667L34.4939 195.05L34.7025 196.202L34.9972 197.817C35.0306 198.006 35.2114 198.151 35.4199 198.162C35.6174 198.168 35.7842 198.296 35.8371 198.468L35.9566 198.932C36.0123 199.149 36.2514 199.28 36.4878 199.238L36.6546 199.208C36.8298 199.172 36.9661 199.041 36.9967 198.88L37.1469 198.073C37.1747 197.959 37.247 197.853 37.361 197.792L37.5946 197.667C37.7141 197.6 37.7976 197.486 37.8143 197.361L37.5167 196.533C37.475 196.424 37.45 196.316 37.4277 196.202C37.3832 195.879 37.4249 195.545 37.5529 195.239L38.2203 193.674ZM68.4928 155.531C68.5345 155.429 68.554 155.314 68.554 155.2V153.462C68.554 153.02 68.8571 152.628 69.2826 152.514L69.3883 152.489C69.7637 152.395 70.0112 152.105 70.0891 151.772C70.1586 151.491 70.1002 151.179 69.8916 150.924L62.628 142.136C62.4444 141.913 62.3721 141.627 62.4194 141.341L62.6113 140.27C62.6892 139.806 62.4361 139.355 61.9967 139.188L60.6146 138.652C60.2448 138.512 59.8276 138.604 59.5523 138.891L58.4372 140.061C58.1563 140.359 57.7142 140.448 57.336 140.281C56.5963 139.959 55.8037 140.618 55.9928 141.405L56.2514 142.481C56.3265 142.778 56.5295 143.026 56.8104 143.145L58.8126 144.027L58.8599 144.046C59.0406 144.124 59.1992 144.266 59.3021 144.436L59.3799 144.566L66.0623 155.698C66.207 155.943 66.4517 156.11 66.7298 156.152C66.7798 156.165 66.8438 156.171 66.8994 156.171H67.5779C67.9978 156.171 68.3566 155.907 68.4928 155.531ZM101.824 105.417L98.1258 104.425C97.6503 104.299 97.3249 103.866 97.3249 103.379V101.802C97.3249 100.453 97.9951 99.2021 99.113 98.4457L100.779 97.3333C101.082 97.1303 101.263 96.7911 101.263 96.4323V91.1375C101.263 90.9707 101.279 90.8038 101.304 90.6398C101.435 89.7999 101.908 89.0463 102.622 88.5625L103.376 88.048L108.279 84.6915L108.943 84.241C109.235 84.0435 109.6 83.9963 109.933 84.1214L115.745 86.2488C115.948 86.3211 116.126 86.4573 116.252 86.627L118.671 89.9779C118.827 90.1865 119.052 90.3367 119.305 90.3951L137.734 94.6637C137.853 94.6915 137.978 94.6998 138.104 94.6859L144.155 94.0102C144.422 93.9824 144.686 94.0519 144.906 94.2076L151.791 99.0964C152.233 99.4134 152.378 100.006 152.125 100.487L151.774 101.151L149.981 104.547C149.703 105.07 149.057 105.275 148.532 105.011L147.025 104.252C146.905 104.188 146.774 104.152 146.638 104.138L129.958 102.572C129.922 102.572 129.892 102.567 129.856 102.567H112.901C112.661 102.567 112.425 102.65 112.239 102.795L109.856 104.641C109.438 104.964 108.852 104.945 108.46 104.586C108.262 104.402 107.998 104.299 107.728 104.299C107.653 104.299 107.575 104.308 107.503 104.324L102.33 105.431C102.164 105.47 101.991 105.465 101.824 105.417ZM143.546 99.5608L143.885 99.9446C144.146 100.248 144.594 100.287 144.906 100.045L145.092 99.9029C145.295 99.7416 145.567 99.6999 145.807 99.7888L147.147 100.273C147.714 100.481 148.279 99.9696 148.131 99.3884C148.09 99.216 147.987 99.0714 147.845 98.9657L146.176 97.7505C145.957 97.5947 145.676 97.5614 145.431 97.6726L143.807 98.3789C143.343 98.5819 143.215 99.1798 143.546 99.5608ZM120.887 95.7149L122.803 95.9957C122.834 96.0013 122.862 96.0013 122.892 96.0013H128.752L128.543 95.6592C128.46 95.5285 128.329 95.4284 128.179 95.3867L121.507 93.6292C121.124 93.5263 120.743 93.8155 120.743 94.216C120.743 94.3634 120.69 94.5024 120.598 94.6136L120.515 94.7165C120.2 95.0808 120.409 95.6426 120.887 95.7149ZM109.511 93.4512L110.273 94.9307C110.559 95.4868 111.288 95.6259 111.76 95.2171L112.99 94.1381C113.248 93.9101 113.618 93.8433 113.946 93.9629L116.271 94.8C116.635 94.9362 117.041 94.8305 117.308 94.5441L117.489 94.3467C117.926 93.8739 117.775 93.1092 117.194 92.8339L114.805 91.6993C114.455 91.5324 114.238 91.1681 114.258 90.7844V90.7371C114.258 90.3255 114.002 89.9612 113.618 89.8278L112.322 89.3745C111.891 89.2243 111.41 89.3939 111.176 89.7916L109.544 92.5224C109.377 92.8088 109.361 93.1565 109.511 93.4512ZM153.218 113.674L152.842 112.002C152.681 111.285 152.03 110.784 151.296 110.818L147.928 110.957C147.814 110.962 147.706 110.979 147.595 111.01L143.921 112.008C143.718 112.066 143.51 112.075 143.304 112.05L121.477 108.871C121.285 108.841 121.096 108.777 120.929 108.679L117.147 106.457C116.991 106.363 116.819 106.302 116.635 106.271L112.077 105.479C111.905 105.448 111.73 105.448 111.552 105.479L107.08 106.277C106.916 106.302 106.744 106.307 106.577 106.277L104.141 105.885C104.099 105.879 104.057 105.873 104.01 105.871L99.9306 105.567C99.0212 105.506 98.2648 106.249 98.3065 107.144C98.3065 107.192 98.3121 107.239 98.3177 107.283L99.0101 112.497C99.0629 112.881 99.2604 113.24 99.5719 113.485L101.035 114.639C101.616 115.103 102.444 115.078 102.995 114.578L103.596 114.032C104.016 113.646 104.619 113.532 105.15 113.735L107.789 114.733C107.962 114.8 108.142 114.833 108.326 114.833H113.02C113.231 114.833 113.446 114.786 113.637 114.703L115.57 113.838C115.846 113.718 116.151 113.677 116.449 113.729L123.084 114.881L140.259 117.853C140.306 117.865 140.351 117.87 140.398 117.87L144.614 118.198L150.387 118.651C151.279 118.718 152.025 118.012 152.025 117.141C152.025 117.08 152.019 117.011 152.008 116.944C151.958 116.566 152.05 116.185 152.269 115.879L152.976 114.87C153.123 114.661 153.212 114.427 153.243 114.188C153.259 114.016 153.254 113.843 153.218 113.674ZM28.3788 173.421L29.7692 172.745C30.445 172.417 30.7369 171.61 30.4255 170.929L30.0501 170.098L28.5873 166.861C28.5234 166.716 28.4817 166.566 28.4733 166.416L26.7603 147.047L26.4906 144.639C26.371 143.599 25.1835 143.059 24.3187 143.657C23.9461 143.916 23.7264 144.344 23.7264 144.794V145.498C23.7264 146.241 23.1396 146.85 22.3999 146.886L20.3031 146.975C19.4216 147.011 18.7987 147.848 19.0156 148.702L19.3437 149.992C19.4994 150.606 20.0584 151.032 20.6869 151.032H21.1568C21.8687 151.032 22.4666 151.574 22.5334 152.286L23.3092 160.173L23.6235 163.371C23.6374 163.538 23.6235 163.71 23.5818 163.877L21.2792 172.125C21.1652 172.531 21.243 172.965 21.4933 173.307L23.7848 176.48C24.3409 177.25 25.495 177.244 26.0428 176.466L27.8532 173.874C27.9894 173.682 28.1702 173.526 28.3788 173.421ZM94.6998 96.4073L94.202 94.7221L93.4817 92.3194C93.4039 92.0386 93.1174 91.855 92.8116 91.8717C92.5196 91.8912 92.2609 91.7299 92.1497 91.4768L91.8855 90.7955C91.7659 90.4813 91.3961 90.3172 91.0568 90.4256L90.8232 90.5035C90.5785 90.5814 90.4033 90.8038 90.3922 91.0486L90.3199 92.286C90.3088 92.4696 90.2142 92.6364 90.0641 92.7505L89.7526 92.9785C89.5913 93.0925 89.4912 93.2816 89.4967 93.4735L90.0807 94.6693C90.356 95.2254 90.4339 95.84 90.3143 96.4379C90.3032 96.5018 90.2865 96.563 90.2726 96.627L89.6163 99.102C89.6275 99.5441 90.1002 99.8306 90.5229 99.6526L90.6008 99.6164C90.7509 99.5552 90.9233 99.5497 91.0846 99.6025L92.9061 100.256C93.2287 100.37 93.5874 100.225 93.7181 99.9195L94.836 97.3806C94.8944 97.2499 94.9028 97.1053 94.8611 96.9746L94.6998 96.4073ZM72.9895 157.909C72.9172 157.853 72.8588 157.784 72.8171 157.706L72.4 156.888C72.1469 156.391 71.3905 156.51 71.3071 157.061C71.2765 157.281 71.1152 157.461 70.8927 157.525L69.5079 157.903L68.9656 158.051L68.3093 158.232C67.9005 158.34 67.7587 158.818 68.009 159.122C68.034 159.147 68.0618 159.174 68.0868 159.199L69.6385 160.52C69.8304 160.687 69.886 160.957 69.7776 161.182L68.4928 163.71C68.351 164.01 68.5095 164.366 68.8321 164.48L69.049 164.553C69.7359 164.786 70.4923 164.489 70.8176 163.855L71.2654 163.251C71.4239 162.94 71.8327 162.84 72.1191 163.048L74.7331 164.911L74.8527 165C75.2643 165.295 75.8343 164.964 75.7676 164.469L75.3366 161.393C75.331 161.374 75.331 161.352 75.331 161.332C75.331 161.099 75.5229 160.907 75.7676 160.907C76.1958 160.907 76.371 160.381 76.0346 160.131L72.9895 157.909ZM86.2181 142.667C86.5296 142.787 86.8883 142.653 87.0468 142.356L88.1397 140.259C88.2481 140.056 88.4511 139.922 88.6847 139.906L90.6313 139.775C90.851 139.761 91.0429 139.636 91.1514 139.464C91.2153 139.361 91.2515 139.241 91.2515 139.11V137.03C91.2515 136.685 90.9845 136.399 90.6425 136.368L86.2348 136.015C86.2125 136.015 86.1931 136.01 86.1708 136.004L79.9945 134.897C79.9417 134.886 79.8833 134.87 79.8388 134.845L77.8505 133.935C77.3388 133.699 76.7937 134.158 76.9272 134.7C76.98 134.9 76.9328 135.103 76.8076 135.262C76.7214 135.381 76.5852 135.467 76.4294 135.504L75.3727 135.743C74.8638 135.86 74.6803 136.499 75.0557 136.863L77.0079 138.788C77.0635 138.843 77.1358 138.891 77.2109 138.921L84.0935 141.852L86.2181 142.667ZM91.588 146.736L89.9556 143.766C89.7721 143.426 89.341 143.307 89.0073 143.501L86.7743 144.764C86.6241 144.847 86.4517 144.878 86.2848 144.842L84.6886 144.494C84.1352 144.38 83.6847 144.92 83.8961 145.434L84.1881 146.143L84.4856 146.855C84.5357 146.975 84.5524 147.105 84.5329 147.236L83.7515 152.025C83.6847 152.447 84.0073 152.828 84.4328 152.828C84.6469 152.828 84.8444 152.734 84.9751 152.573L85.9484 151.36C86.2431 150.99 86.8049 151.018 87.0663 151.413L89.3772 154.92C89.6163 155.278 90.1225 155.334 90.4339 155.039L90.8121 154.675C90.9901 154.508 91.0624 154.258 91.0068 154.019L90.3811 151.324L90.1225 150.217C89.9973 149.686 90.5118 149.227 91.0262 149.411L91.9578 149.736C92.5724 149.95 93.1174 149.28 92.781 148.724L91.588 146.736ZM-0.203026 188.782L-1.10403 188.449C-1.4572 188.321 -1.84652 188.424 -2.06065 188.729L-2.98668 190.02L-4.28257 191.769C-4.41327 191.941 -4.46054 192.158 -4.40214 192.367L-4.06288 193.568L-3.96555 193.927C-3.93774 193.999 -3.93496 194.077 -3.93496 194.155L-3.95442 194.547C-3.97945 194.973 -3.59013 195.362 -3.1007 195.384C-2.82539 195.395 -2.56121 195.29 -2.39435 195.103L-2.00781 194.661C-1.85209 194.478 -1.61293 194.375 -1.35153 194.375H-1.26532C-0.84819 194.375 -0.514484 194.11 -0.453304 193.746L-0.495018 193.604L-0.53117 193.49C-0.8176 192.498 -0.66465 191.463 -0.14463 190.582L0.0945244 190.167C0.11121 190.098 0.130676 190.025 0.161266 189.964L0.23357 189.817C0.433792 189.416 0.230789 188.938 -0.203026 188.782ZM-10.2058 185.879L-10.2726 185.873C-10.3977 185.865 -10.5117 185.818 -10.5951 185.729L-11.5212 184.653C-11.6825 184.466 -11.9689 184.433 -12.1775 184.586C-12.7559 185.011 -13.3371 185.412 -13.9266 185.807C-14.0156 185.865 -14.0824 185.957 -14.1129 186.057L-14.2325 186.477C-14.2492 186.524 -14.2576 186.577 -14.2742 186.624C-14.5551 187.606 -14.8248 188.596 -15.0751 189.578C-15.1335 189.786 -15.0084 190.014 -14.7831 190.12C-14.5718 190.217 -14.4522 190.426 -14.4772 190.629L-14.5551 191.171C-14.5913 191.424 -14.3938 191.674 -14.1074 191.733L-13.9099 191.775C-13.7014 191.822 -13.49 191.744 -13.3844 191.585L-12.8588 190.796C-12.7809 190.682 -12.6502 190.604 -12.5 190.582L-12.1886 190.54C-12.0329 190.526 -11.891 190.437 -11.8243 190.306L-11.7881 189.313C-11.777 189.099 -11.7297 188.888 -11.6463 188.688C-11.5462 188.418 -11.3849 188.173 -11.1791 187.962L-9.80816 186.546C-9.65243 186.243 -9.86099 185.901 -10.2058 185.879ZM-20.4561 180.907L-20.331 180.804C-19.9834 180.512 -19.9583 179.998 -20.2642 179.689L-20.915 179.044C-21.1764 178.799 -21.5657 178.732 -21.8938 178.924L-23.3037 179.725C-23.9489 180.081 -24.6052 180.429 -25.267 180.771C-25.4645 180.871 -25.6035 181.049 -25.6452 181.26C-25.7398 181.713 -25.8288 182.172 -25.9066 182.634C-25.915 182.706 -25.9316 182.778 -25.9428 182.853C-25.9567 182.931 -25.9845 183.004 -26.0206 183.07L-26.2125 183.421C-26.4211 183.793 -26.2375 184.313 -25.7926 184.539C-25.5423 184.664 -25.2503 184.672 -25.0167 184.569L-24.4689 184.33C-24.2464 184.227 -23.9795 184.227 -23.7403 184.336L-23.6625 184.372C-23.3927 184.497 -23.0952 184.469 -22.8727 184.33C-22.7837 184.277 -22.7058 184.205 -22.6419 184.116L-22.6057 183.857C-22.4444 182.831 -21.8521 181.952 -21.0039 181.349L-20.6091 181.068C-20.5673 181.007 -20.5145 180.949 -20.4561 180.907ZM-14.024 125.17C-13.9628 125.248 -13.8988 125.331 -13.8627 125.412L-13.7709 125.606C-13.4984 126.135 -12.8476 126.38 -12.3638 126.146C-12.0273 125.976 -11.688 125.84 -11.3488 125.684C-10.9594 125.517 -10.7815 125.081 -10.9066 124.611C-11.0957 123.952 -11.2653 123.29 -11.4238 122.614C-11.6157 121.747 -11.7826 120.882 -11.9077 120.003C-11.9161 119.945 -11.9216 119.883 -11.9327 119.825C-11.9745 119.544 -12.1302 119.297 -12.3916 119.135C-13.0367 118.749 -13.6903 118.396 -14.3688 118.056C-14.4661 118.012 -14.5551 117.942 -14.633 117.87L-15.0139 117.492C-15.4339 117.075 -16.2014 117.116 -16.7103 117.564C-16.98 117.817 -17.1163 118.168 -17.0746 118.49L-16.9661 119.244C-16.9133 119.555 -17.0106 119.878 -17.2414 120.128L-17.3137 120.212C-17.6836 120.606 -17.6725 121.168 -17.3332 121.538L-17.0023 121.688C-16.257 122.027 -15.6285 122.525 -15.1335 123.134C-14.7637 123.571 -14.4717 124.066 -14.2631 124.591L-14.024 125.17ZM-15.5701 183.212L-15.6369 183.196C-15.7564 183.176 -15.8621 183.107 -15.9344 183.009C-16.2097 182.634 -16.4711 182.25 -16.7158 181.855C-16.8465 181.647 -17.1274 181.583 -17.3499 181.708C-17.97 182.053 -18.6096 182.4 -19.2437 182.723C-19.3438 182.77 -19.4216 182.853 -19.4633 182.945L-19.6413 183.351C-19.9834 184.138 -20.3115 184.922 -20.6341 185.718C-20.712 185.915 -20.7954 186.115 -20.8732 186.316C-20.9567 186.519 -20.8621 186.763 -20.6508 186.894C-20.4561 187.019 -20.3588 187.242 -20.4144 187.442L-20.5618 187.976C-20.623 188.221 -20.4617 188.501 -20.1808 188.585L-19.9889 188.643C-19.7804 188.71 -19.5607 188.652 -19.4383 188.507L-18.8126 187.784C-18.7236 187.681 -18.5846 187.623 -18.4316 187.623L-18.1202 187.617C-17.9589 187.617 -17.8143 187.545 -17.7253 187.431L-16.9244 186.291L-16.8243 186.152L-15.2698 183.919C-15.0751 183.638 -15.2309 183.268 -15.5701 183.212ZM-33.3955 170.098L-30.8454 169.005C-30.5229 168.866 -30.445 168.485 -30.6842 168.265L-30.7314 168.226C-30.8176 168.145 -30.8649 168.043 -30.8705 167.929C-30.8872 167.486 -30.8538 167.039 -30.8288 166.602C-30.8121 166.368 -31.0123 166.179 -31.2654 166.171C-31.8271 166.143 -32.3805 166.102 -32.9422 166.046C-33.0924 166.035 -33.2481 166.018 -33.4038 166.004C-33.4456 165.999 -33.4873 165.999 -33.5234 166.01C-33.5985 166.015 -33.6653 166.035 -33.7181 166.071L-34.1074 166.305C-35.0501 166.872 -35.9817 167.47 -36.9077 168.084C-37.0996 168.209 -37.158 168.465 -37.0524 168.693C-36.9606 168.907 -37.0051 169.147 -37.1636 169.286L-37.5946 169.655C-37.7921 169.833 -37.8032 170.156 -37.6196 170.395L-37.4945 170.551C-37.3499 170.718 -37.1302 170.79 -36.9495 170.732L-36.0067 170.445C-35.876 170.409 -35.7203 170.437 -35.5952 170.509L-35.3254 170.676C-35.1892 170.762 -35.0223 170.779 -34.8888 170.721L-33.4038 170.103L-33.3955 170.098ZM23.1646 195.164C22.9978 194.469 23.0395 193.741 23.2953 193.059L23.4622 192.617C23.4622 192.545 23.4705 192.467 23.4928 192.397L23.54 192.247C23.6652 191.822 23.3621 191.382 22.8838 191.302L21.8799 191.124C21.4878 191.057 21.104 191.249 20.9566 191.585L20.3226 193.037L19.4577 195.014C19.4383 195.061 19.4216 195.114 19.416 195.164C19.3854 195.317 19.4077 195.479 19.4855 195.629L20.2558 197.053C20.292 197.122 20.317 197.194 20.3281 197.272L20.3893 197.656C20.4644 198.079 20.901 198.365 21.3571 198.296C21.6185 198.259 21.8465 198.109 21.9661 197.895L22.2497 197.397C22.3637 197.189 22.5723 197.05 22.8198 197.003L22.9032 196.986C23.3009 196.914 23.5762 196.597 23.5706 196.227L23.4511 195.988C23.3204 195.723 23.2258 195.445 23.1646 195.164ZM-24.9166 177.442C-24.8694 177.392 -24.8082 177.339 -24.7442 177.303L-24.6052 177.214C-24.2186 176.969 -24.1213 176.469 -24.3771 176.127L-24.9222 175.404C-25.1419 175.128 -25.5201 175.02 -25.8705 175.164C-26.3682 175.367 -26.8744 175.57 -27.3833 175.768C-28.0757 176.032 -28.7737 176.288 -29.48 176.538C-29.6886 176.61 -29.8555 176.766 -29.9333 176.975C-30.1169 177.478 -30.2865 177.99 -30.4589 178.51C-30.4812 178.582 -30.5229 178.654 -30.5674 178.718L-30.8093 179.035C-31.0679 179.377 -30.965 179.925 -30.5423 180.201C-30.5117 180.22 -30.4812 180.242 -30.4478 180.251C-30.242 180.37 -29.9973 180.404 -29.7776 180.34L-29.4189 180.237L-29.2047 180.173C-28.9711 180.1 -28.707 180.142 -28.4817 180.278L-28.4094 180.326C-28.0562 180.548 -27.6085 180.476 -27.3582 180.201L-25.9789 178.629L-24.9166 177.442ZM-29.5329 174.383C-28.8933 174.185 -28.2537 173.977 -27.6224 173.766C-27.3304 173.576 -27.336 173.187 -27.6224 173.02L-27.6808 172.984C-27.7837 172.923 -27.8477 172.823 -27.8727 172.709L-28.1007 171.382C-28.1424 171.154 -28.3566 170.987 -28.6124 171.018C-29.049 171.076 -29.4856 171.121 -29.9333 171.163C-30.2031 171.196 -30.4812 171.216 -30.7565 171.241C-30.8705 171.246 -30.9734 171.293 -31.054 171.363L-31.3849 171.663C-31.6046 171.861 -31.8188 172.058 -32.0301 172.267H-32.0357C-32.6196 172.803 -33.1981 173.354 -33.7654 173.916C-33.9267 174.071 -33.9406 174.336 -33.8071 174.544C-33.6819 174.739 -33.6708 174.972 -33.8015 175.139L-34.1491 175.576C-34.3104 175.773 -34.2576 176.09 -34.0351 176.288L-33.8794 176.419C-33.7181 176.558 -33.4873 176.594 -33.3204 176.508L-32.4584 176.074C-32.3332 176.007 -32.183 176.007 -32.0357 176.06L-31.7409 176.168C-31.5879 176.229 -31.4183 176.216 -31.2932 176.138L-30.7565 175.284C-30.4812 174.853 -30.0418 174.539 -29.5329 174.383ZM17.4972 191.883C17.6224 191.457 17.3248 191.021 16.8465 190.937L15.8482 190.754C15.4561 190.687 15.0667 190.879 14.9221 191.218L14.2797 192.664L13.4066 194.636C13.401 194.655 13.3899 194.672 13.3899 194.692C13.3231 194.875 13.3398 195.073 13.426 195.248L14.1935 196.68C14.2241 196.747 14.2492 196.825 14.2658 196.897L14.327 197.283C14.3965 197.703 14.8331 197.995 15.2892 197.929C15.5506 197.892 15.7786 197.739 15.8982 197.528L16.1791 197.033C16.2987 196.825 16.5072 196.686 16.7575 196.638L16.8409 196.622C17.2358 196.549 17.5167 196.238 17.5139 195.862L17.4972 195.164L17.4611 193.818L17.4193 192.253C17.4193 192.181 17.4305 192.105 17.4499 192.039L17.4972 191.883ZM12.475 191.471C12.5167 191.14 12.1941 190.874 11.8548 190.957L11.7881 190.974C11.6685 191.004 11.5378 190.988 11.4238 190.932L10.139 190.239C9.90822 190.12 9.61901 190.192 9.48275 190.401L8.28975 192.122C8.22857 192.211 8.19798 192.314 8.20633 192.42L8.2536 192.856C8.312 193.376 8.36761 193.896 8.42601 194.416C8.49276 194.959 8.55671 195.498 8.62346 196.04C8.65126 196.257 8.84871 196.435 9.09342 196.455C9.32701 196.471 9.51334 196.622 9.56061 196.825L9.68019 197.356C9.73859 197.606 10.0083 197.767 10.2948 197.726L10.4922 197.698C10.7008 197.667 10.8676 197.528 10.9093 197.345L11.1179 196.435C11.1485 196.305 11.2403 196.191 11.371 196.124L11.6463 195.993C11.7936 195.924 11.8882 195.796 11.9077 195.654L11.5962 194.697C11.5601 194.589 11.5322 194.475 11.5183 194.358C11.4599 193.974 11.5183 193.585 11.6796 193.232L12.475 191.471ZM17.9866 152.801L12.7975 151.246C12.5834 151.182 12.3665 151.174 12.1468 151.215L9.05449 151.786C8.53447 151.886 8.00888 151.677 7.69186 151.257L4.2992 146.699C3.77362 145.987 2.71689 145.951 2.13847 146.621C1.85204 146.961 1.74358 147.406 1.84369 147.834L3.12289 153.362C3.21745 153.757 3.4705 154.091 3.83202 154.277L4.2992 154.522L6.22078 155.518C6.78252 155.812 7.07173 156.446 6.93269 157.061L5.66183 162.431C5.61177 162.67 5.4922 162.887 5.31978 163.07L4.01833 164.433C3.33146 165.156 3.61233 166.346 4.54948 166.685L5.73135 167.117C6.09008 167.247 6.48497 167.222 6.82979 167.05L14.6023 163.112L16.9244 161.936C17.3053 161.744 17.5751 161.391 17.6585 160.968L18.9488 154.394C19.0851 153.696 18.668 153.009 17.9866 152.801ZM-37.0218 165.251L-36.8299 165.061C-36.5574 164.797 -36.257 164.583 -35.9233 164.416C-35.331 164.116 -34.658 163.969 -33.9823 163.966L-33.4873 163.96C-33.415 163.932 -33.3371 163.919 -33.2648 163.913L-33.0924 163.902C-32.6335 163.86 -32.3026 163.485 -32.3332 163.084L-32.4278 162.247C-32.4472 161.919 -32.7225 161.66 -33.098 161.619C-33.6402 161.56 -34.1797 161.494 -34.7275 161.41C-34.7331 161.41 -34.7414 161.41 -34.747 161.405C-35.4867 161.302 -36.1903 161.171 -36.9217 161.021C-37.1358 160.979 -37.3666 161.026 -37.5473 161.165C-37.9895 161.51 -38.4317 161.869 -38.8432 162.236C-38.9072 162.289 -38.9739 162.331 -39.0518 162.361L-39.4272 162.517C-39.836 162.689 -40.014 163.226 -39.8221 163.699C-39.697 163.96 -39.4717 164.147 -39.2187 164.208L-38.6291 164.338C-38.3844 164.397 -38.1786 164.558 -38.0535 164.786L-38.0118 164.864C-37.8032 165.228 -37.3749 165.384 -37.0218 165.251ZM-5.68134 187.222C-5.97334 187.092 -6.25977 186.952 -6.53507 186.805C-6.86877 186.635 -7.27478 186.719 -7.5195 187L-8.57067 188.209C-9.05454 188.752 -9.54397 189.297 -10.0445 189.828C-10.089 189.881 -10.128 189.936 -10.153 190C-10.2197 190.125 -10.2475 190.27 -10.2197 190.417C-10.1363 190.946 -10.039 191.471 -9.93886 192.003C-9.92495 192.08 -9.92495 192.158 -9.9333 192.231L-9.99169 192.623C-10.0584 193.043 -9.70526 193.454 -9.21583 193.526C-8.94609 193.574 -8.67078 193.496 -8.48724 193.323L-8.06177 192.923C-7.88379 192.751 -7.63351 192.667 -7.37489 192.689L-7.28591 192.695C-6.86877 192.731 -6.51004 192.492 -6.41549 192.133L-5.91772 190.139L-5.52562 188.621C-5.50615 188.554 -5.47556 188.482 -5.43663 188.424L-5.35042 188.285C-5.11961 187.904 -5.27256 187.414 -5.68134 187.222ZM5.71466 190.281L5.64792 190.292C5.52279 190.312 5.39764 190.287 5.28919 190.223L4.07117 189.444C3.85704 189.308 3.56505 189.333 3.40932 189.536C2.97273 190.078 2.53057 190.618 2.07172 191.16C2.00499 191.243 1.96327 191.346 1.96883 191.452L1.97161 191.889C1.98274 192.492 1.99386 193.095 2.01333 193.704C2.02445 194.16 2.0467 194.625 2.0606 195.087C2.06617 195.306 2.2497 195.498 2.49442 195.545C2.71689 195.593 2.89486 195.754 2.92545 195.957L3.00332 196.496C3.03947 196.747 3.29531 196.93 3.5873 196.908L3.78474 196.897C3.99331 196.883 4.17406 196.752 4.2269 196.574L4.51889 195.682C4.5606 195.551 4.66906 195.445 4.79976 195.395L5.08619 195.281C5.23635 195.223 5.33925 195.103 5.3754 194.961L5.54781 194.177L5.7091 193.454L6.28196 190.837C6.35426 190.509 6.05949 190.217 5.71466 190.281ZM7.41656 139.516L6.05949 141.129C5.03891 142.331 5.31422 144.149 6.63513 145.003C7.2803 145.415 7.98386 145.887 8.66517 146.352C10.6285 147.692 13.2925 147.319 14.8026 145.481C15.1502 145.061 15.4783 144.655 15.7425 144.311C16.1791 143.735 16.8409 143.371 17.564 143.298L21.8326 142.887C22.9255 142.781 23.8293 142.008 24.1073 140.951L24.861 138.059L25.6479 135.061C25.8454 134.308 25.6897 133.501 25.2308 132.873L17.4972 122.256C17.2414 121.902 17.0745 121.491 17.0189 121.06L16.8993 120.103C16.663 118.329 14.7608 117.308 13.1507 118.098C12.4444 118.454 11.9327 119.102 11.7631 119.872L11.4349 121.352C11.2264 122.303 10.5033 123.056 9.55505 123.307L3.80421 124.836C3.45104 124.931 3.08118 124.945 2.71689 124.889L-2.97556 123.963C-4.00726 123.791 -5.04174 124.258 -5.59792 125.136L-7.39436 127.973C-7.70582 128.468 -7.83096 129.019 -7.7948 129.55V129.553C-7.72807 130.49 -7.14964 131.368 -6.20415 131.769L-5.17244 132.203C-4.58012 132.45 -3.91271 132.472 -3.3037 132.264L-1.10681 131.499C-0.328167 131.229 0.536686 131.343 1.218 131.805L6.89653 135.682C8.17017 136.549 8.41489 138.335 7.41656 139.516Z" fill="#F2E6D3"/>
<path d="M106.093 88.3234L103.376 88.0481L108.279 84.6916C108.29 84.8528 108.268 85.0197 108.201 85.1865L107.203 87.6587C107.019 88.1009 106.571 88.3706 106.093 88.3234ZM117.4 111.093H108.29C108.131 111.093 107.976 111.057 107.831 110.987L100.832 107.717C100.754 107.681 100.681 107.653 100.604 107.639L98.3066 107.144C98.3066 107.192 98.3122 107.239 98.3177 107.283L99.0102 112.497C99.063 112.881 99.2604 113.24 99.5719 113.485L101.035 114.639C101.616 115.103 102.445 115.078 102.995 114.578L103.596 114.033C104.016 113.646 104.619 113.532 105.15 113.735L107.789 114.733C107.962 114.8 108.143 114.833 108.326 114.833H113.02C113.232 114.833 113.446 114.786 113.638 114.703L115.57 113.838C115.846 113.718 116.151 113.677 116.449 113.729L123.084 114.881L118.02 111.291C117.839 111.16 117.62 111.093 117.4 111.093ZM147.025 104.252L148.532 105.011C149.057 105.276 149.703 105.07 149.981 104.547L151.774 101.152C151.619 100.974 151.405 100.848 151.154 100.809L150.848 100.762C150.568 100.715 150.276 100.782 150.042 100.949L148.407 102.139C148.24 102.256 148.048 102.328 147.845 102.342L141.24 102.778C141.154 102.784 141.065 102.778 140.976 102.764L131.755 101.068C131.697 101.057 131.646 101.051 131.588 101.051L118.66 100.69C118.557 100.69 118.454 100.668 118.354 100.637L114.502 99.3523C114.322 99.2939 114.127 99.2828 113.941 99.3217L107.867 100.609C107.634 100.657 107.425 100.782 107.269 100.965L106.635 101.713C106.452 101.927 106.196 102.055 105.921 102.089L100.737 102.614C99.8055 102.706 99.2076 101.647 99.7693 100.896L100.492 99.9252C100.64 99.7305 100.848 99.5915 101.082 99.5275L104.283 98.6793C104.833 98.5292 105.173 97.9786 105.053 97.4168L104.374 94.2383C104.338 94.0547 104.249 93.8851 104.121 93.7433L101.304 90.6398C101.279 90.8039 101.263 90.9708 101.263 91.1376V96.4324C101.263 96.7911 101.082 97.1304 100.779 97.3334L99.1131 98.4457C97.9951 99.2021 97.325 100.454 97.325 101.802V103.379C97.325 103.866 97.6503 104.299 98.1258 104.425L101.824 105.417C101.991 105.465 102.164 105.47 102.331 105.431L107.503 104.325C107.575 104.308 107.653 104.299 107.728 104.299C107.998 104.299 108.262 104.402 108.46 104.586C108.852 104.945 109.438 104.964 109.856 104.642L112.239 102.795C112.425 102.65 112.661 102.567 112.901 102.567H129.856C129.892 102.567 129.922 102.573 129.958 102.573L146.638 104.138C146.774 104.152 146.905 104.188 147.025 104.252ZM149.744 115.248C149.294 115.384 148.98 115.804 148.98 116.279V116.346C148.98 116.847 148.638 117.283 148.148 117.392L144.614 118.198L150.387 118.652C151.279 118.718 152.025 118.012 152.025 117.142C152.025 117.08 152.019 117.011 152.008 116.944C151.958 116.566 152.05 116.185 152.269 115.879L152.976 114.87C153.123 114.661 153.212 114.427 153.243 114.188L149.744 115.248ZM-15.9038 126.738H-18.871C-19.01 126.738 -19.1407 126.797 -19.2353 126.9C-19.5106 127.219 -20.1557 127.951 -20.7731 128.685L-18.832 130.84C-18.5317 131.177 -17.9894 131.129 -17.7976 130.751L-17.7614 130.679C-17.6891 130.543 -17.5695 130.442 -17.4138 130.392C-16.8131 130.22 -16.2208 130.059 -15.6285 129.903C-15.3087 129.831 -15.139 129.516 -15.2308 129.205C-15.4727 128.385 -15.6952 127.573 -15.9038 126.738ZM-11.4238 122.614C-11.6157 121.747 -11.7825 120.882 -11.9077 120.003L-12.3637 120.123C-12.4583 120.145 -12.5417 120.195 -12.6029 120.267L-15.0862 123.073C-15.1029 123.093 -15.1168 123.115 -15.1335 123.134C-14.7636 123.571 -14.4716 124.066 -14.2631 124.591L-14.0239 125.17C-13.9627 125.248 -13.8988 125.331 -13.8626 125.412L-13.7709 125.607C-13.4983 126.135 -12.8476 126.38 -12.3637 126.146C-12.0272 125.976 -11.688 125.84 -11.3487 125.684C-10.9594 125.518 -10.7814 125.081 -10.9066 124.611C-11.0957 123.952 -11.2653 123.29 -11.4238 122.614ZM-5.02223 115.612L-5.23358 117.158C-5.23914 117.189 -5.2447 117.214 -5.25583 117.242L-5.99554 119.536C-6.09287 119.847 -6.46272 119.972 -6.73247 119.789L-8.18965 118.779C-8.34259 118.677 -8.53447 118.665 -8.69576 118.749L-8.94604 118.88C-8.87374 119.077 -8.79866 119.274 -8.73192 119.472L-8.08119 121.449C-8.0506 121.544 -8.03392 121.641 -8.03392 121.736C-8.03948 121.808 -8.02557 121.875 -8.02001 121.95C-7.97274 122.239 -7.90878 122.511 -7.65572 122.678C-7.42491 122.848 -7.10233 122.931 -6.75472 122.884C-6.27641 122.817 -5.76473 122.756 -5.30866 122.678C-4.77752 122.584 -4.37151 122.161 -4.35482 121.677L-4.28252 119.586C-4.26027 118.64 -4.25749 117.689 -4.25193 116.741C-4.25193 116.46 -4.37151 116.19 -4.58842 115.993C-4.7358 115.868 -4.88041 115.743 -5.02223 115.612ZM-0.353149 118.474L-0.280849 118.418C-0.150146 118.318 0.0167046 118.265 0.191898 118.276L2.19691 118.426C2.55008 118.457 2.8671 118.215 2.90881 117.887L3.26476 115.139C3.27867 115 3.24252 114.858 3.17021 114.739L2.84207 114.244L1.5879 112.342C1.51559 112.403 1.46276 112.486 1.44329 112.589L1.30147 113.19C1.28478 113.271 1.28478 113.36 1.31259 113.437L1.70191 114.769C1.81037 115.134 1.47388 115.479 1.10403 115.373L0.230831 115.123C0.111256 115.086 -0.0250092 115.103 -0.133461 115.164L-0.603428 115.426C-0.664608 115.462 -0.728569 115.481 -0.800873 115.487L-1.40432 115.534C-1.39876 115.556 -1.39876 115.581 -1.39876 115.604L-1.40432 118.162C-1.28474 118.593 -0.728569 118.754 -0.353149 118.474ZM7.03563 113.073L6.6463 112.917C6.51004 112.862 6.35987 112.87 6.22917 112.945L4.64685 113.813C4.54953 113.866 4.44107 113.885 4.3354 113.871L5.0473 116.049C5.18356 116.482 5.7314 116.622 6.09013 116.335L6.16243 116.279C6.29313 116.174 6.45442 116.124 6.62683 116.132L8.6096 116.246C8.96277 116.268 9.26866 116.018 9.29925 115.69L9.59681 112.945C9.61349 112.803 9.57178 112.659 9.49392 112.548L9.16021 112.055L8.00059 110.359L7.70303 112.689C7.66132 113.006 7.33318 113.198 7.03563 113.073ZM16.0762 107.395C15.8538 107.247 15.5507 107.322 15.406 107.55L14.1352 109.594C14.1129 109.625 14.099 109.661 14.0824 109.694L13.6569 110.962C13.5735 111.213 13.3065 111.346 13.059 111.274L12.7781 111.19C12.8087 111.338 12.8282 111.482 12.8449 111.633L12.9116 112.264C12.9533 112.347 12.9839 112.445 13.0006 112.539L13.0367 112.748C13.1369 113.329 13.7459 113.704 14.3493 113.557L15.623 113.257C16.118 113.132 16.4572 112.695 16.4238 112.211L16.3043 110.125L16.1541 107.442L16.0762 107.395ZM19.8443 108.866C19.886 108.955 19.9166 109.049 19.9333 109.141L19.975 109.35C20.0779 109.934 20.6814 110.301 21.2848 110.156L22.5557 109.845C23.0507 109.725 23.3816 109.288 23.351 108.804L23.2203 106.719L23.059 104.091L21.5768 106.941C21.4878 107.108 21.3126 107.211 21.1235 107.203L19.8638 107.15C19.6052 107.139 19.3966 106.925 19.3966 106.666V106.296C19.3966 105.974 19.0935 105.746 18.7876 105.823L18.3232 105.949L18.871 107L19.8443 108.866ZM27.8588 107.108C28.0034 107.528 28.5568 107.664 28.9044 107.372L28.9711 107.317C29.0963 107.211 29.2576 107.155 29.43 107.161L31.4016 107.247C31.752 107.264 32.0523 107.014 32.0801 106.685L32.3276 103.941C32.3388 103.799 32.3026 103.66 32.2192 103.543L31.8827 103.056L30.8343 101.569C30.8093 101.619 30.7982 101.683 30.7982 101.744V103.262C30.7982 103.462 30.6786 103.638 30.4978 103.715L29.7637 104.013C29.608 104.08 29.43 104.06 29.2909 103.955L28.2481 103.184C28.0395 103.029 27.7531 103.065 27.589 103.259L27.4222 103.457C27.5974 103.799 27.6975 104.169 27.717 104.553L27.8588 107.108ZM36.3265 105.515L36.3933 105.459C36.5184 105.353 36.6797 105.303 36.8521 105.303L38.8126 105.395C39.163 105.417 39.4634 105.167 39.4912 104.839L39.7498 102.097C39.7609 101.952 39.7248 101.813 39.6469 101.697L39.3076 101.21L38.579 100.167V101.282C38.579 101.421 38.5206 101.552 38.4178 101.647L37.3777 102.567C37.1636 102.753 36.8354 102.717 36.663 102.489L36.4934 102.258C36.2375 101.916 35.7008 102.041 35.623 102.459L35.5618 102.812C35.5145 103.04 35.3171 103.207 35.0807 103.207H34.5718L35.2837 105.245C35.4311 105.673 35.9762 105.807 36.3265 105.515ZM47.2498 98.5459C47.222 98.5653 47.197 98.5876 47.1775 98.6126L46.3432 99.4858C46.2598 99.5748 46.2098 99.6944 46.2098 99.8195V100.757C46.2098 101.188 45.687 101.407 45.3811 101.099L44.1046 99.8306C43.9823 99.7055 43.7987 99.6582 43.6263 99.7055L42.9033 99.9196C43.4456 100.651 43.7793 101.505 43.8766 102.411L43.9433 103.034C43.9851 103.123 44.0184 103.218 44.0323 103.309L44.0685 103.524C44.1742 104.102 44.772 104.48 45.3699 104.336L46.6297 104.038C47.0996 103.941 47.3833 103.549 47.3638 103.07C47.3277 102.383 47.2971 101.694 47.2804 101.001C47.2609 100.189 47.2498 99.3662 47.2498 98.5459ZM50.8149 101.755C50.8455 101.85 50.8649 101.947 50.8705 102.041L50.8927 102.256C50.94 102.837 51.4739 103.273 52.0524 103.195C52.4473 103.14 52.8533 103.093 53.2704 103.056C53.7543 103.009 54.1241 102.628 54.1603 102.15L54.3382 100.075L54.5607 97.8228C54.519 97.8228 54.4717 97.834 54.43 97.8534L53.4122 98.2539C53.1758 98.3428 53.0507 98.5987 53.1202 98.8378L53.4206 99.8862C53.4901 100.123 53.3733 100.367 53.1508 100.465L52.2554 100.854C52.0051 100.965 51.7131 100.846 51.6158 100.59L50.94 98.9157C50.8288 98.6487 50.5118 98.5347 50.2559 98.671L49.8833 98.874C49.8249 98.899 49.7693 98.9213 49.7053 98.9241L50.0529 99.8056L50.8149 101.755ZM60.1197 98.5653C60.0001 98.696 59.9528 98.8796 60.0057 99.0436L60.4478 100.49C60.5396 100.782 60.3366 101.085 60.0362 101.115L57.2887 101.396L57.1163 102.795C57.1831 103.237 57.6836 103.465 58.0674 103.243L58.1425 103.201C58.2815 103.118 58.4484 103.093 58.6097 103.129L60.4617 103.571C60.7954 103.654 61.1291 103.471 61.2237 103.159L62.0301 100.523C62.0718 100.387 62.0607 100.242 62.0079 100.117L61.7854 99.5692L61.0624 97.884C60.9039 97.8534 60.7426 97.9063 60.6286 98.0258L60.1197 98.5653ZM66.0401 104.002C66.1875 103.93 66.3544 103.913 66.5157 103.955L68.3677 104.469C68.6959 104.569 69.0435 104.397 69.1492 104.085L70.0752 101.485C70.1225 101.349 70.1225 101.204 70.0752 101.079L69.8666 100.529L68.9879 98.2066L68.7571 98.1343C68.5874 98.0814 68.4039 98.1232 68.2732 98.2427L67.3944 99.0798C67.3221 99.1549 67.2693 99.2466 67.2554 99.3579L66.8911 101.61C66.8383 101.947 66.4573 102.125 66.1625 101.947L64.7721 101.115L65.0279 103.554C65.0696 104.002 65.5618 104.252 65.9623 104.044L66.0401 104.002ZM74.7415 103.201L76.0235 103.212C76.5268 103.218 76.9606 102.878 77.0635 102.406L77.5168 100.367L77.9173 98.6126L76.6575 97.8701C76.4184 97.7283 76.1069 97.8173 75.9762 98.0731L74.9862 100.034C74.9083 100.195 74.7415 100.298 74.5607 100.298L73.8516 100.309C73.8516 100.529 73.8377 100.757 73.8016 100.974L73.7014 101.599C73.7237 101.694 73.7293 101.791 73.7181 101.886L73.7014 102.097C73.6486 102.687 74.1353 103.19 74.7415 103.201ZM82.7977 99.7722H81.4656L81.6325 100.651C81.6492 100.746 81.6547 100.846 81.6381 100.937L81.6186 101.152C81.5491 101.736 82.019 102.256 82.6336 102.275L83.9184 102.317C84.4161 102.333 84.8639 102.005 84.9807 101.535L85.4784 99.508L86.0096 97.4001C85.8427 97.3584 85.6509 97.4113 85.5201 97.5725L84.6164 98.7071C84.5774 98.7544 84.5357 98.7906 84.4912 98.8156L83.048 99.6999C82.9757 99.7472 82.8867 99.7722 82.7977 99.7722ZM94.6998 96.4074L94.202 94.7222L93.2843 96.9802C93.2232 97.136 93.0869 97.2444 92.9256 97.275L92.2665 97.4001C91.969 97.4585 91.6937 97.2305 91.6937 96.9218C91.6937 96.6576 91.474 96.438 91.2043 96.438H90.3144C90.3033 96.5019 90.2866 96.5631 90.2727 96.6271L89.6164 99.102C89.6275 99.5442 90.1003 99.8306 90.5229 99.6526L90.6008 99.6165C90.751 99.5553 90.9234 99.5497 91.0847 99.6026L92.9061 100.256C93.2287 100.37 93.5875 100.225 93.7182 99.9196L94.8361 97.3807C94.8945 97.25 94.9028 97.1054 94.8611 96.9747L94.6998 96.4074ZM-33.4872 163.96C-33.4149 163.932 -33.3371 163.919 -33.2648 163.913L-33.0923 163.902C-32.6335 163.86 -32.3026 163.485 -32.3332 163.084L-32.4277 162.247C-32.4472 161.919 -32.7225 161.661 -33.0979 161.619C-33.6402 161.56 -34.1797 161.494 -34.7275 161.41C-34.7331 161.41 -34.7414 161.41 -34.747 161.405C-34.7525 161.457 -34.7692 161.51 -34.7942 161.555L-35.8927 164.021C-35.9511 164.147 -35.9594 164.286 -35.9233 164.416C-35.331 164.116 -34.658 163.969 -33.9822 163.966L-33.4872 163.96ZM-33.5929 157.514C-33.4928 157.503 -33.3843 157.509 -33.2898 157.525L-33.0673 157.556C-32.4583 157.645 -31.9105 157.264 -31.8131 156.766L-31.6407 155.704C-31.5378 155.315 -31.802 154.914 -32.2664 154.742C-32.9366 154.491 -33.6068 154.222 -34.2742 153.935C-34.4661 153.852 -34.658 153.768 -34.8526 153.679L-35.0807 156.121C-35.0862 156.157 -35.0862 156.188 -35.0862 156.224L-34.9861 157.67L-33.5929 157.514ZM-30.6841 168.268L-30.7314 168.226C-30.8176 168.145 -30.8649 168.043 -30.8704 167.929C-30.8871 167.486 -30.8537 167.039 -30.8287 166.602C-30.812 166.369 -31.0123 166.179 -31.2653 166.171C-31.8271 166.143 -32.3804 166.102 -32.9422 166.046C-32.5974 166.232 -32.4583 166.738 -32.8004 167.069L-33.8265 168.068C-34.0184 168.257 -34.0768 168.543 -33.9683 168.788L-33.3955 170.098L-30.8454 169.005C-30.5228 168.866 -30.445 168.485 -30.6841 168.268ZM-30.7564 171.241C-30.8704 171.246 -30.9733 171.293 -31.054 171.363L-31.3849 171.663C-31.6046 171.861 -31.8187 172.058 -32.0301 172.267C-31.9216 172.267 -31.8131 172.236 -31.7075 172.178L-29.9333 171.163C-30.203 171.196 -30.4811 171.216 -30.7564 171.241ZM-31.7492 150.081C-31.371 150.178 -31.015 149.914 -31.0568 149.566L-31.0623 149.503C-31.079 149.377 -31.0428 149.252 -30.9539 149.155C-30.6146 148.774 -30.292 148.407 -29.9138 148.045C-29.7164 147.859 -29.7358 147.559 -29.95 147.37C-30.5312 146.844 -31.1402 146.288 -31.688 145.726C-31.7714 145.637 -31.8855 145.582 -32.0106 145.565L-32.5306 145.498C-32.7809 145.467 -33.0256 145.434 -33.2759 145.409L-33.9461 145.971C-34.0768 146.079 -34.1546 146.238 -34.1713 146.402L-34.3827 148.688C-34.138 148.749 -33.9044 148.849 -33.6902 148.977C-33.0451 149.363 -32.4222 149.733 -31.7492 150.081ZM-26.2486 140.743L-27.6697 139.074L-28.3454 138.246L-29.3938 138.496C-29.6274 138.554 -29.8137 138.735 -29.8721 138.969L-30.5173 141.655C-30.1724 141.866 -29.8554 142.122 -29.5634 142.409L-29.0907 142.87C-28.9961 142.912 -28.9099 142.976 -28.8348 143.037L-28.6652 143.182C-28.1897 143.588 -27.4527 143.526 -27.0606 143.054L-26.2486 142.058C-25.9149 141.68 -25.9149 141.129 -26.2486 140.743ZM-20.9399 134.708L-22.2164 132.929L-22.475 132.556L-23.1174 134.016C-23.1591 134.105 -23.2091 134.177 -23.2787 134.241L-24.1268 134.995C-24.1991 135.061 -24.2825 135.109 -24.3771 135.137L-25.901 135.573L-23.9794 136.633C-23.8904 136.685 -23.8042 136.749 -23.7347 136.822L-23.579 136.983C-23.1368 137.425 -22.4027 137.414 -21.9605 136.972L-21.0401 136.04C-20.6813 135.676 -20.6507 135.114 -20.9399 134.708ZM-30.4477 180.251C-30.242 180.37 -29.9972 180.404 -29.7776 180.34L-29.4188 180.237C-29.7581 180.173 -30.1113 180.184 -30.4477 180.251ZM-25.9427 182.854C-25.9566 182.931 -25.9844 183.004 -26.0206 183.07L-26.2125 183.421C-26.421 183.793 -26.2375 184.313 -25.7926 184.539C-25.5423 184.664 -25.2503 184.672 -25.0167 184.569L-24.4689 184.33C-24.2464 184.227 -23.9794 184.227 -23.7403 184.336L-23.6624 184.372C-23.3927 184.497 -23.0951 184.469 -22.8726 184.33C-23.7458 183.768 -24.9583 183.14 -25.9066 182.634C-25.9149 182.706 -25.9316 182.778 -25.9427 182.854ZM-20.8732 186.316C-20.9566 186.519 -20.8621 186.763 -20.6507 186.894C-20.4561 187.019 -20.3587 187.242 -20.4144 187.442L-20.5617 187.976C-20.6229 188.221 -20.4616 188.501 -20.1808 188.585L-19.9889 188.643C-19.7803 188.71 -19.5606 188.652 -19.4383 188.507L-18.8126 187.784C-18.7236 187.681 -18.5845 187.623 -18.4316 187.623L-18.1201 187.617C-17.9588 187.617 -17.8142 187.545 -17.7253 187.431L-16.9244 186.291C-18.1841 186.171 -19.6246 185.99 -20.634 185.718C-20.7119 185.915 -20.7953 186.115 -20.8732 186.316ZM-14.2742 186.624C-14.5551 187.606 -14.8248 188.596 -15.0751 189.578C-15.1335 189.786 -15.0083 190.014 -14.7831 190.12C-14.5717 190.217 -14.4522 190.426 -14.4772 190.629L-14.5551 191.171C-14.5912 191.424 -14.3938 191.674 -14.1073 191.733L-13.9099 191.775C-13.7013 191.822 -13.49 191.744 -13.3843 191.585L-12.8587 190.796C-12.7809 190.682 -12.6502 190.604 -12.5 190.582L-12.1885 190.54C-12.0328 190.526 -11.891 190.437 -11.8242 190.306L-11.7881 189.313C-11.777 189.099 -11.7297 188.888 -11.6463 188.688C-12.3693 188.059 -13.0423 187.486 -13.515 187.08C-13.743 186.889 -13.9989 186.738 -14.2742 186.624ZM-10.1529 190C-10.2197 190.126 -10.2475 190.27 -10.2197 190.417C-10.1363 190.946 -10.0389 191.471 -9.93881 192.003C-9.92491 192.08 -9.92491 192.158 -9.93325 192.231L-9.99165 192.623C-10.0584 193.043 -9.70522 193.454 -9.21579 193.527C-8.94604 193.574 -8.67074 193.496 -8.4872 193.324L-8.06173 192.923C-7.88375 192.751 -7.63347 192.667 -7.37485 192.689C-7.7892 192.158 -8.91823 191.099 -10.1529 190ZM-4.06283 193.568L-3.9655 193.927C-3.93769 193.999 -3.93491 194.077 -3.93491 194.155L-3.95438 194.547C-3.97941 194.973 -3.59008 195.362 -3.10065 195.384C-2.82534 195.395 -2.56116 195.29 -2.39431 195.103L-2.00777 194.661C-1.85204 194.478 -1.61288 194.375 -1.35148 194.375H-1.26528C-0.848145 194.375 -0.514442 194.11 -0.453262 193.746L-0.494976 193.604C-1.47106 193.641 -2.81422 193.652 -4.06283 193.568ZM2.06065 195.087C2.06621 195.306 2.24974 195.498 2.49446 195.545C2.71693 195.593 2.89491 195.754 2.9255 195.957L3.00336 196.496C3.03951 196.747 3.29535 196.93 3.58735 196.908L3.78479 196.897C3.99335 196.883 4.17411 196.752 4.22694 196.574L4.51894 195.682C4.56065 195.551 4.6691 195.445 4.7998 195.395L5.08623 195.281C5.2364 195.223 5.33929 195.103 5.37544 194.961L5.54786 194.177C4.24085 194.027 2.90881 193.838 2.01337 193.704C2.02449 194.161 2.04674 194.625 2.06065 195.087ZM11.5184 194.358C10.6897 194.244 9.9611 194.202 9.60237 194.339C9.3938 194.411 8.97389 194.439 8.42606 194.416C8.4928 194.959 8.55676 195.498 8.6235 196.04C8.65131 196.257 8.84875 196.435 9.09347 196.455C9.32706 196.471 9.51338 196.622 9.56065 196.825L9.68023 197.356C9.73863 197.606 10.0084 197.767 10.2948 197.726L10.4922 197.698C10.7008 197.667 10.8677 197.528 10.9094 197.345L11.1179 196.435C11.1485 196.305 11.2403 196.191 11.371 196.124L11.6463 195.993C11.7937 195.924 11.8882 195.796 11.9077 195.654L11.5963 194.697C11.5601 194.589 11.5323 194.475 11.5184 194.358ZM15.7842 195.164C15.5618 195.164 15.3365 195.139 15.1141 195.087C14.7498 195 14.1129 194.842 13.3899 194.692C13.3232 194.875 13.3399 195.073 13.4261 195.248L14.1936 196.68C14.2242 196.747 14.2492 196.825 14.2659 196.897L14.3271 197.283C14.3966 197.703 14.8332 197.995 15.2892 197.929C15.5507 197.892 15.7787 197.74 15.8983 197.528L16.1791 197.033C16.2987 196.825 16.5073 196.686 16.7575 196.638L16.841 196.622C17.2359 196.549 17.5167 196.238 17.5139 195.862L17.4973 195.164H15.7842ZM23.1647 195.164H19.4161C19.3855 195.317 19.4077 195.479 19.4856 195.629L20.2559 197.053C20.292 197.122 20.3171 197.194 20.3282 197.272L20.3894 197.656C20.4645 198.079 20.901 198.365 21.3571 198.296C21.6185 198.26 21.8465 198.109 21.9661 197.895L22.2498 197.397C22.3638 197.189 22.5724 197.05 22.8198 197.003L22.9033 196.986C23.3009 196.914 23.5762 196.597 23.5707 196.227L23.4511 195.988C23.3204 195.723 23.2259 195.445 23.1647 195.164ZM27.3332 197.523C27.3694 197.734 27.5668 197.901 27.806 197.912C28.0312 197.923 28.2175 198.068 28.2759 198.271L28.4094 198.796C28.4789 199.047 28.7431 199.197 29.0128 199.149L29.202 199.113C29.3994 199.077 29.5551 198.933 29.5913 198.749L29.7748 197.829C29.7998 197.698 29.8944 197.584 30.0195 197.517L30.2837 197.372C30.42 197.297 30.5117 197.169 30.534 197.028L30.673 195.843L26.9467 195.331L27.3332 197.523ZM37.4278 196.202H34.7025L34.9973 197.817C35.0307 198.006 35.2114 198.151 35.42 198.162C35.6174 198.168 35.7843 198.296 35.8371 198.468L35.9567 198.933C36.0123 199.149 36.2515 199.28 36.4878 199.238L36.6547 199.208C36.8299 199.172 36.9661 199.041 36.9967 198.88L37.1469 198.073C37.1747 197.959 37.247 197.854 37.361 197.792L37.5946 197.667C37.7142 197.6 37.7976 197.486 37.8143 197.361L37.5168 196.533C37.475 196.424 37.45 196.316 37.4278 196.202ZM41.8382 196.174C41.7743 196.185 41.7075 196.191 41.638 196.196V196.202C41.5768 196.352 41.588 196.524 41.6714 196.674L42.2887 197.773C42.3165 197.823 42.3416 197.881 42.3527 197.937L42.4055 198.235C42.4667 198.563 42.8143 198.78 43.1703 198.718C43.3733 198.688 43.5429 198.568 43.6375 198.396L43.846 198.006C43.9294 197.845 44.0907 197.731 44.2826 197.689L44.3466 197.678C44.658 197.614 44.8666 197.361 44.8555 197.075L44.7832 195.748L41.8382 196.174ZM48.5234 195.276L48.5652 195.481L48.8989 196.98C48.9211 197.08 49.0184 197.158 49.1325 197.158C49.2437 197.158 49.3355 197.225 49.366 197.32L49.4467 197.57C49.4856 197.684 49.6163 197.751 49.747 197.72L49.836 197.703C49.9333 197.678 50.0084 197.606 50.0168 197.517L50.0807 197.075C50.0919 197.011 50.1336 196.955 50.1892 196.919L50.3143 196.841C50.3811 196.805 50.4228 196.741 50.4283 196.674L50.4701 195.935L50.5285 194.92L48.5179 195.212C48.5179 195.234 48.5179 195.253 48.5234 195.276ZM14.6024 162.559C14.6024 161.841 13.8488 161.374 13.2036 161.686L10.8037 162.862C10.1029 163.201 9.39936 162.648 9.39936 161.994C9.39936 161.816 9.4522 161.633 9.56622 161.457C9.58568 161.421 9.61349 161.391 9.63852 161.357L12.7559 157.728C13.1452 157.27 13.0312 156.572 12.5167 156.26L8.54007 153.877C8.32595 153.754 8.07289 153.713 7.83373 153.763C7.18857 153.905 5.8037 154.211 4.29925 154.522L6.22083 155.518C6.78257 155.812 7.07178 156.446 6.93273 157.061L5.66187 162.431C5.61182 162.67 5.49224 162.887 5.31983 163.07L4.01838 164.433C3.3315 165.156 3.61237 166.346 4.54953 166.686L5.7314 167.117C6.09013 167.247 6.48501 167.222 6.82984 167.05L14.6024 163.112V162.559ZM24.1074 140.951L24.861 138.059C24.6274 138.065 24.3938 138.148 24.1992 138.34L23.44 139.088C23.0757 139.452 22.4917 139.469 22.1135 139.124L17.2414 134.808C17.0607 134.642 16.8299 134.564 16.6018 134.564C16.2959 134.564 15.9928 134.708 15.8009 134.981C14.1713 137.311 10.7314 137.347 9.05175 135.053L8.9878 134.97C8.97389 134.942 8.95721 134.922 8.93496 134.9L3.58178 128.799C3.38434 128.576 3.09235 128.457 2.78923 128.471L-3.71523 128.893C-3.78753 128.899 -3.85983 128.899 -3.93491 128.882L-6.12346 128.518C-6.42101 128.471 -6.72413 128.56 -6.94103 128.768C-7.15516 128.966 -7.45271 129.236 -7.79476 129.55V129.553C-7.72802 130.49 -7.1496 131.368 -6.2041 131.769L-5.1724 132.203C-4.58008 132.45 -3.91267 132.472 -3.30365 132.264L-1.10677 131.499C-0.328125 131.229 0.536728 131.343 1.21804 131.805L6.89658 135.682C8.17022 136.549 8.41494 138.335 7.4166 139.516L6.05954 141.129C5.03896 142.331 5.31427 144.149 6.63518 145.003C7.28034 145.415 7.9839 145.887 8.66521 146.352C10.6285 147.692 13.2926 147.32 14.8026 145.481C15.1502 145.061 15.4783 144.655 15.7425 144.311C16.1791 143.735 16.841 143.371 17.564 143.298L21.8326 142.887C22.9255 142.781 23.8293 142.008 24.1074 140.951ZM28.3788 173.421L29.7692 172.745C30.445 172.417 30.737 171.61 30.4255 170.929L30.0501 170.098C29.9806 170.098 29.9138 170.092 29.8471 170.081L27.6447 169.672C27.2748 169.597 26.9022 169.753 26.6936 170.067L26.0262 171.043C25.5534 171.736 24.4856 171.519 24.3243 170.701L24.0323 169.238C24.024 169.177 24.0184 169.113 24.0184 169.058V161.791C24.0184 161.644 23.9823 161.499 23.9127 161.369L23.3093 160.173L23.6235 163.371C23.6374 163.538 23.6235 163.71 23.5818 163.877L21.2792 172.125C21.1652 172.531 21.2431 172.965 21.4934 173.307L23.7848 176.48C24.341 177.25 25.495 177.245 26.0429 176.466L27.8532 173.874C27.9895 173.682 28.1702 173.526 28.3788 173.421ZM41.0095 181.416C40.2504 180.812 40.6647 179.592 41.6352 179.575L41.7798 179.569L39.5301 177.879C39.0045 177.478 38.2453 177.734 38.059 178.368L38.0117 178.546C37.8922 178.946 37.5279 179.222 37.1052 179.222H32.3916C32.0218 179.222 31.688 179.008 31.5379 178.671L30.9289 177.339C30.8454 177.15 30.7008 177 30.5229 176.902L30.0751 176.658L29.3048 177.203C29.1491 177.311 29.0295 177.464 28.9517 177.634L27.8755 180.106C27.6252 180.679 27.9367 181.344 28.5401 181.516C28.8738 181.61 29.227 181.535 29.4884 181.318L30.1002 180.804C30.3727 180.579 30.737 180.506 31.0735 180.609L40.2281 183.463C40.8955 183.668 41.5713 183.176 41.5713 182.473V182.37C41.5713 182.053 41.4322 181.755 41.1875 181.558L41.0095 181.416ZM38.4845 155.568C38.3176 155.568 38.1564 155.626 38.0284 155.751C37.653 156.11 37.0273 155.912 36.9244 155.404L36.5796 153.749C36.5768 153.702 36.5601 153.66 36.5434 153.618L34.4828 148.857C34.4411 148.766 34.3799 148.682 34.3076 148.618L30.0974 145.014C30.1002 145.031 30.1057 145.045 30.1169 145.061L34.2687 153.193C34.3438 153.337 34.3855 153.493 34.3911 153.654L34.5662 158.34C34.5941 158.941 35.0807 159.414 35.6814 159.414H36.7103C37.1052 159.414 37.4695 159.199 37.6725 158.857L38.5902 157.281C38.757 156.989 39.0462 156.791 39.3799 156.738L39.6413 156.697L39.0212 155.846C38.8905 155.662 38.6875 155.568 38.4845 155.568ZM44.6692 164.141L43.0646 163.335C42.8421 163.221 42.7003 162.993 42.7003 162.742V160.832C42.7003 160.468 42.4055 160.173 42.0412 160.173H40.3532L39.4578 160.718C39.3271 160.801 39.2298 160.915 39.1658 161.057L38.5067 162.517C38.3455 162.879 38.4845 163.298 38.8293 163.485L43.6986 166.185C43.8655 166.28 44.0601 166.305 44.2465 166.257L44.4912 166.196C44.9166 166.093 45.1614 165.645 45.0279 165.228L44.6692 164.141ZM28.5401 127.598C28.1035 125.654 26.4906 124.806 26.8438 120.79L26.0067 121.485C25.8399 121.627 25.6063 121.647 25.4172 121.544L24.138 120.829C24.1797 121.221 24.227 121.635 24.2882 122.083C25.0751 127.904 29.0407 129.803 28.5401 127.598ZM31.9022 121.964L31.1013 122.417C31.1068 122.47 31.1152 122.517 31.1208 122.567C32.0579 129.497 36.7826 131.763 36.1958 129.138C35.8621 127.67 34.9723 126.73 34.4689 125.023L32.6002 122.136C32.4472 121.902 32.1413 121.825 31.9022 121.964ZM43.212 128.232C43.1341 128.368 42.9978 128.468 42.8421 128.487L39.8805 128.96C41.9189 134.964 46.0318 136.597 45.4061 133.693C44.9862 131.755 43.846 130.512 43.212 128.232ZM64.989 133.44L65.1975 129.528C65.1836 129.533 65.1725 129.544 65.1614 129.553L62.1163 132.317C61.8688 132.545 61.4628 132.472 61.3015 132.169L60.2643 130.231C60.1975 130.106 60.0835 130.011 59.9417 129.97L55.3199 128.738C55.1085 128.679 54.8833 128.757 54.7526 128.941L53.2926 131.001C53.0507 131.343 52.5251 131.277 52.3749 130.885L50.2615 125.454C50.2531 125.429 50.242 125.409 50.2309 125.381L48.6597 122.681C48.6541 122.678 48.6541 122.673 48.643 122.667L48.3955 128.504C48.3733 128.949 48.4762 129.397 48.6847 129.794L51.5685 135.251C52.3555 136.744 54.3521 137.061 55.5646 135.885C56.1236 135.342 56.9022 135.089 57.6725 135.198L62.1163 135.818C63.5846 136.021 64.9167 134.922 64.989 133.44ZM68.4929 155.531C68.5346 155.429 68.5541 155.315 68.5541 155.201V154.024C68.237 154.008 67.9311 153.768 67.9311 153.374V152.25C67.9311 152.064 67.8477 151.886 67.7059 151.761L59.38 144.566L66.0624 155.698C66.207 155.943 66.4517 156.11 66.727 156.152C66.7799 156.166 66.8438 156.171 66.8994 156.171H67.578C67.9979 156.171 68.3566 155.907 68.4929 155.531ZM72.8477 162.158C72.7198 162.133 72.603 162.061 72.5251 161.955L70.7092 159.45C70.6898 159.422 70.6731 159.402 70.6481 159.383L69.4717 158.237C69.3994 158.165 69.3049 158.118 69.2048 158.095C69.1436 158.087 69.0602 158.07 68.9656 158.051L68.3093 158.232C67.8616 158.351 67.7393 158.907 68.0869 159.199L69.6386 160.52C69.8305 160.687 69.8861 160.957 69.7776 161.182L68.4929 163.71C68.3511 164.01 68.5096 164.366 68.8321 164.48L69.049 164.553C69.7359 164.786 70.4923 164.489 70.8177 163.855L71.2654 163.251C71.4239 162.94 71.8327 162.84 72.1191 163.048L74.7332 164.911C75.2059 164.124 75.5035 163.46 75.4089 163.226C75.1753 162.648 73.4484 162.275 72.8477 162.158ZM69.2771 141.519C69.7582 142.044 70.6147 141.925 70.9289 141.291C71.0179 141.107 71.0541 140.904 71.0263 140.707L70.6786 138.115L69.0602 138.232C68.5958 138.262 68.2065 137.898 68.2065 137.431V134.995C68.2065 134.875 68.2259 134.761 68.2787 134.653L70.242 130.459C70.3199 130.292 70.3394 130.1 70.2921 129.922L69.8249 128.081L68.4678 131.761C68.4512 131.802 68.4289 131.847 68.4095 131.888L65.801 136.68C65.598 137.055 65.6564 137.523 65.9428 137.84L69.2771 141.519ZM90.4701 139.088H85.8316C85.7537 139.088 85.6814 139.08 85.6091 139.058L79.1603 137.169C79.0518 137.139 78.9517 137.086 78.8655 137.008L76.8466 135.287C76.8355 135.276 76.8244 135.264 76.8077 135.262C76.7215 135.381 76.5852 135.467 76.4295 135.504L75.3728 135.743C74.8639 135.86 74.6803 136.499 75.0557 136.863L77.0079 138.788C77.0635 138.843 77.1358 138.891 77.2109 138.921L84.0936 141.852L86.2182 142.667C86.5296 142.787 86.8883 142.653 87.0469 142.356L88.1397 140.259C88.2482 140.056 88.4512 139.922 88.6848 139.906L90.6314 139.775C90.8511 139.761 91.043 139.636 91.1514 139.464C91.0124 139.244 90.7704 139.088 90.4701 139.088ZM90.3811 151.324L87.2999 149.686C87.286 149.681 87.2693 149.669 87.2526 149.664L85.6703 148.941C85.37 148.807 85.1864 148.499 85.2031 148.17L85.2643 146.986C85.2921 146.527 84.9223 146.143 84.4634 146.143H84.1881L84.4857 146.855C84.5357 146.975 84.5524 147.105 84.5329 147.236L83.7515 152.025C83.6848 152.447 84.0074 152.828 84.4328 152.828C84.647 152.828 84.8444 152.734 84.9751 152.573L85.9484 151.36C86.2432 150.99 86.8049 151.018 87.0663 151.413L89.3772 154.92C89.6164 155.278 90.1225 155.334 90.434 155.039L90.8121 154.675C90.9901 154.508 91.0624 154.258 91.0068 154.019L90.3811 151.324ZM-20.6035 115.323C-20.4088 115.259 -20.2225 115.198 -20.0306 115.123L-19.7497 115.014C-19.733 115.009 -19.7219 115.003 -19.7136 115C-19.6969 114.995 -19.6858 114.989 -19.6774 114.978C-19.4105 114.608 -19.1101 114.28 -18.7875 113.985C-19.1296 113.549 -19.4883 113.126 -19.8526 112.714C-20.6452 113.282 -21.4349 113.818 -22.1997 114.308C-21.8632 114.68 -21.4878 115.073 -21.0929 115.479C-20.9316 115.426 -20.7647 115.378 -20.6035 115.323ZM-15.9761 109.572C-15.5228 110.061 -15.0389 110.573 -14.53 111.093C-14.2686 111.01 -14.01 110.926 -13.7486 110.843C-13.4483 110.743 -13.1452 110.64 -12.842 110.526C-12.6919 110.467 -12.5473 110.412 -12.3971 110.348C-12.3693 110.337 -12.3498 110.334 -12.3331 110.323C-12.3137 110.317 -12.297 110.306 -12.2747 110.298C-11.8604 109.708 -11.3821 109.188 -10.8648 108.715C-11.5434 107.862 -12.2553 107.036 -12.9672 106.229C-13.807 107.4 -14.8415 108.524 -15.9761 109.572ZM-7.26918 105.267C-7.16629 105.751 -6.50444 105.801 -6.31256 105.351C-6.23469 105.162 -6.05116 105.036 -5.84259 105.036H-4.33536C-3.99609 105.036 -3.75138 104.714 -3.84592 104.391C-4.35482 102.687 -5.78141 97.973 -6.94103 94.9196C-7.25527 94.0965 -7.66962 93.1927 -8.1535 92.2972C-9.1268 93.6237 -9.81924 95.0503 -10.2558 96.4908C-10.2308 96.5269 -10.2058 96.5687 -10.1835 96.6048C-8.82647 98.81 -7.7753 102.987 -7.26918 105.267ZM2.80592 101.374C2.95609 102.047 3.88211 102.125 4.14908 101.491C4.25753 101.224 4.51337 101.057 4.7998 101.057H6.91048C7.38601 101.057 7.7225 100.606 7.59458 100.153C6.87989 97.7644 4.88601 91.1793 3.26754 86.9135C3.12294 86.5297 2.96165 86.1293 2.78367 85.7177C0.806473 86.1599 -0.92601 86.7828 -2.43046 87.5475C-2.00777 88.1259 -1.61288 88.6988 -1.26528 89.2661C0.631279 92.3501 2.10236 98.1871 2.80592 101.374ZM15.8677 99.6471C16.0707 99.5386 16.2987 99.5025 16.5295 99.5442L16.8354 99.597C17.4973 99.7166 18.084 99.1688 18.0117 98.5041C17.7559 96.1376 17.1385 90.9151 16.1958 85.359C14.6719 85.1726 13.2231 85.0503 11.8493 85.0002C13.5735 90.4368 14.1825 96.1682 14.391 98.8462C14.4466 99.5692 15.2336 99.9975 15.8677 99.6471ZM29.6969 94.5915C29.8972 94.5915 30.1057 94.5497 30.3032 94.4608C30.5868 94.3384 30.8983 94.2995 31.1986 94.3579L31.6157 94.4357C32.4945 94.6081 33.3343 93.9685 33.287 93.151C33.1814 91.4602 32.9951 88.5792 32.6836 85.1142C31.2737 85.6649 29.6997 86.0653 27.8755 86.2572C28.2175 89.2383 28.3315 91.7883 28.3677 93.4207C28.3844 94.1076 29.0073 94.5915 29.6969 94.5915ZM40.8232 90.9457C40.7843 91.9969 41.791 92.7338 42.7225 92.3501C43.0118 92.2249 43.3343 92.2082 43.6375 92.3084L44.0546 92.4391C44.9333 92.7255 45.8288 92.0386 45.8343 91.0709C45.8455 88.7099 47.1386 82.8784 46.9578 75.7928C44.5023 76.9635 42.5446 78.4596 40.6619 79.9585C40.9678 84.5636 40.9094 88.5792 40.8232 90.9457ZM56.0235 89.2967C55.9567 90.181 56.8188 90.8373 57.6586 90.5397C57.9172 90.4452 58.2037 90.4396 58.4706 90.5342L58.8349 90.6593C59.6052 90.9235 60.4144 90.3729 60.4534 89.5553C60.5757 86.6966 60.801 80.4313 60.712 73.6654C58.9016 73.5347 57.2582 73.5291 55.7537 73.6292C56.5602 80.0002 56.257 86.2627 56.0235 89.2967ZM66.9467 92.0581L68.2593 91.8134C69.0185 91.6743 69.633 91.2155 69.8861 90.612C70.8232 88.3818 72.9312 82.6003 72.8477 76.0569C71.3488 75.5119 69.6803 75.028 67.8171 74.6387C68.2899 83.1009 65.0112 87.3667 64.2715 89.8C64.1325 90.2533 64.2048 90.726 64.4745 91.1376C64.9584 91.8662 65.9678 92.2416 66.9467 92.0581ZM77.4807 90.3367L78.3844 90.3896C78.91 90.4201 79.3689 90.27 79.608 89.9891C80.4617 88.9741 82.4389 86.3378 83.1203 83.0008C82.3249 82.0024 81.321 80.9624 80.0418 79.9474C80.0363 80.2672 80.0196 80.5842 79.989 80.9068C79.5302 85.7344 76.7104 87.5837 75.9234 88.7906C75.7843 89.0047 75.7843 89.2661 75.9178 89.5136C76.1625 89.9557 76.8049 90.295 77.4807 90.3367Z" fill="#DAC1AF"/>
</svg>
