<svg width="292" height="423" viewBox="0 0 292 423" fill="none" xmlns="http://www.w3.org/2000/svg">
<path d="M174.873 109.824C175.167 107.066 176.9 105.245 179.171 103.971C179.605 103.281 180.252 102.679 181.145 102.292C188.436 99.118 196.003 95.2286 203.66 93.0562C208.934 91.562 214.491 93.6445 215.299 99.5748C216.119 105.576 211.708 109.656 206.575 111.762C202.811 113.304 198.818 114.434 194.955 115.714C191.864 116.745 188.705 118.165 185.445 118.526C180.171 119.106 174.23 115.826 174.873 109.824ZM160.315 118.528C165.336 117.083 164.018 108.972 158.928 110.437C153.904 111.883 155.233 119.991 160.315 118.528ZM487.524 193.351C479.146 185.694 468.85 180.595 459.95 173.61C450.443 166.148 442.642 156.869 434.498 148.021C420.027 132.301 404.527 117.359 387.006 105.036C353.236 81.2877 310.678 68.0884 269.966 80.52C260.188 83.5069 250.801 88.0968 242.555 94.156C233.704 100.664 226.515 109.1 217.935 115.935C207.893 123.951 196.781 126.914 184.113 127.741C172.771 128.474 161.387 128.076 150.244 130.643C143.459 132.204 137.16 134.774 131.714 138.764C124.862 124.858 115.585 111.23 100.428 106.163C80.6673 99.5605 59.732 109.566 42.4801 118.677C33.6939 123.309 24.9856 128.826 19.5248 137.362C14.2835 145.555 12.4265 155.251 12.8022 164.862C13.2536 176.414 17.3748 187.542 22.0568 197.986C27.4174 209.887 33.2237 221.606 38.8406 233.402C43.9522 244.138 48.5029 255.504 55.0686 265.468C61.1094 274.646 69.6978 280.579 78.4762 286.884C87.9841 293.706 94.4583 301.13 99.0468 311.985C103.129 321.641 106.431 331.559 112.584 340.171C137.103 374.464 184.034 380.422 220.951 364.694C231.579 360.159 241.373 354.051 250.443 346.927C252.663 345.177 254.88 343.373 257.13 341.615C258.767 344.154 262.091 345.486 264.851 346.281C280.038 350.644 292.876 340.041 299.36 327.231C304.185 327.549 309.007 328.234 313.714 328.96C325.296 330.741 336.715 332.624 348.455 332.92C372.638 333.531 397.746 331.11 421.279 325.491C442.711 320.378 463.548 311.394 479.84 296.248C494.206 282.908 504.685 265.306 506.425 245.508C508.112 226.204 502.024 206.607 487.524 193.351ZM306.968 339.223C306.525 338.911 306.034 338.731 305.506 338.67C304.984 338.534 304.459 338.524 303.929 338.645C303.579 338.766 303.236 338.884 302.887 339.008C302.227 339.347 301.693 339.823 301.295 340.448C301.141 340.771 300.994 341.08 300.84 341.403C300.62 342.083 300.58 342.789 300.717 343.499L300.938 344.268C301.037 344.828 301.256 345.33 301.615 345.761C301.882 346.237 302.259 346.62 302.743 346.896C303.186 347.208 303.678 347.389 304.205 347.449C304.728 347.589 305.252 347.595 305.783 347.474C306.133 347.353 306.476 347.235 306.825 347.111C307.484 346.772 308.019 346.296 308.416 345.672C308.57 345.349 308.717 345.04 308.868 344.718C309.092 344.037 309.132 343.33 308.991 342.621L308.769 341.853C308.674 341.291 308.455 340.789 308.096 340.359C307.818 339.885 307.441 339.503 306.968 339.223ZM80.1058 306.948C75.0162 308.413 77.8504 316.119 82.9037 314.665C88.0042 313.197 85.1664 305.492 80.1058 306.948Z" fill="#372724"/>
<path d="M487.786 240.553C484.623 255.284 473.077 266.285 459.08 270.965C453.272 273.575 446.734 274.55 439.924 273.637C438.743 273.474 437.591 273.252 436.443 272.986C427.27 271.952 418.159 269.181 409.148 266.636C401.926 264.605 394.986 262.791 388.705 258.863C388.602 258.956 388.51 259.045 388.405 259.13C386.14 260.944 383.126 262.133 380.073 262.435C380.673 266.266 380.883 270.147 380.229 273.997C378.173 286.083 367.899 299.281 356.096 303.157C330.805 311.46 312.151 286.514 303.444 264.541C295.606 278.074 283.909 289.107 269.714 295.98C265.841 297.864 261.81 299.365 257.68 300.578C254.064 301.638 249.786 301.739 246.342 303.166C242.19 304.887 242.471 312.696 241.473 316.755C240.464 320.834 239.066 324.773 237.174 328.509C229.087 344.41 211.826 353.04 194.564 354.464C185.433 355.211 175.818 354.658 166.928 352.318C158.677 350.162 153.365 344.92 150.55 336.953C144.856 320.853 143.735 303.182 146.524 286.36C129.93 286.587 112.687 282.879 99.1557 272.975C82.7806 261.006 76.16 242.162 69.8271 223.718C68.2097 219.026 66.9208 213.552 64.4392 209.226C62.5067 205.853 59.2619 207.085 55.9089 207.355C48.8475 207.916 42.8913 204.664 38.6575 199.092C29.03 186.385 29.7133 167.865 34.259 153.368C39.4117 136.902 50.0846 122.458 68.0438 119.488C84.1578 116.816 100.428 124.126 110.598 136.629C122.01 150.667 125.42 168.747 130.046 185.751C132.226 193.732 134.424 202.528 139.618 209.174C145.757 217.028 154.365 216.686 161.9 210.749C169.646 204.63 175.808 196.226 181.832 188.502C187.623 181.046 193.291 173.487 199.432 166.307C211.185 152.573 224.994 140.721 242.318 134.836C242.719 134.701 243.088 134.645 243.434 134.62C244.719 133.195 246.119 131.854 247.703 130.672C252.806 126.84 259.225 124.608 265.591 124.263C272.323 123.896 278.892 125.526 284.606 129.106C291.838 133.643 297.042 138.288 306.123 137.543C312.639 137.014 318.985 135.195 325.534 135.159C332.502 135.12 338.851 137.254 344.933 140.532C358.119 147.653 370.469 156.644 381.733 166.485C383.015 167.6 384.256 168.762 385.492 169.933C393.249 169.345 400.941 172.831 405.041 179.726C406.922 182.882 407.965 187.021 406.313 190.488C406.225 190.674 406.127 190.851 406.018 191.032C408.777 193.676 411.642 196.196 414.682 198.481C420.137 202.583 428.868 211.548 435.811 211.654C443.506 211.767 449.928 206.939 457.259 205.312C467.09 203.134 479.793 207.325 484.6 216.567C488.594 223.461 489.159 234.191 487.786 240.553ZM424.323 278.609C413.333 277.576 403.834 272.055 394.565 266.456C390.075 263.745 385.101 270.291 389.629 273.023C400.14 279.376 410.894 285.591 423.371 286.773C428.63 287.258 429.597 279.109 424.323 278.609ZM434.716 278.864C429.637 280.326 432.858 287.89 437.883 286.444C442.965 284.981 439.74 277.418 434.716 278.864ZM437.84 202.473C442.923 201.011 439.928 193.362 434.886 194.813C429.807 196.275 432.798 203.925 437.84 202.473ZM252.406 310.841C247.317 312.306 250.06 320.05 255.12 318.594C260.221 317.126 257.47 309.384 252.406 310.841ZM150.776 194.929C158.114 197.527 166.588 193.487 168.652 185.874C170.387 179.502 167.586 167.877 159.134 169.403C157.195 169.757 155.262 170.541 153.372 171.093C150.069 172.055 149.408 171.806 147.21 169.172C144.68 166.14 142.113 164.092 137.97 165.029C135.621 165.556 134.565 167.642 134.787 169.886C135.318 175.48 137.812 181.404 141.924 185.516C143.397 189.598 145.667 193.109 150.776 194.929ZM176.967 167.764C177.68 167.951 178.394 167.938 179.108 167.744L180.134 167.449C180.662 167.32 181.126 167.077 181.515 166.722C181.965 166.431 182.324 166.042 182.581 165.559C182.878 165.077 183.048 164.549 183.068 163.99C183.181 163.455 183.155 162.917 182.984 162.389C182.655 161.397 182.038 160.44 181.083 159.945C180.745 159.807 180.404 159.674 180.063 159.524C179.345 159.335 178.634 159.347 177.922 159.544L176.896 159.839C176.368 159.968 175.903 160.208 175.512 160.567C175.061 160.858 174.706 161.247 174.449 161.729C174.147 162.209 173.982 162.739 173.958 163.299C173.845 163.834 173.874 164.371 174.046 164.899C174.375 165.892 174.992 166.849 175.946 167.339C176.276 167.492 176.618 167.629 176.967 167.764ZM129.043 303.513C126.664 311.801 126.138 320.219 127.766 328.697C128.766 333.877 136.896 332.691 135.894 327.492C134.532 320.429 134.712 313.402 136.7 306.467C138.154 301.425 130.507 298.424 129.043 303.513ZM138.857 336.943C138.643 336.824 138.414 336.698 138.199 336.579C137.719 336.289 137.207 336.146 136.658 336.135C136.105 336.027 135.566 336.077 135.03 336.262C134.494 336.405 134.043 336.664 133.661 337.041C133.227 337.347 132.879 337.733 132.646 338.22C132.515 338.556 132.385 338.88 132.257 339.215C132.084 339.948 132.113 340.678 132.331 341.396C132.475 341.716 132.622 342.039 132.779 342.366C133.169 342.969 133.667 343.445 134.299 343.786L134.962 344.152C135.438 344.443 135.949 344.582 136.499 344.597C137.052 344.705 137.595 344.654 138.13 344.469C138.665 344.323 139.114 344.068 139.496 343.691C139.934 343.385 140.281 342.994 140.515 342.511C140.642 342.176 140.771 341.848 140.899 341.513C141.073 340.78 141.047 340.05 140.829 339.335C140.682 339.012 140.538 338.693 140.377 338.362C139.991 337.759 139.482 337.285 138.857 336.943ZM62.9626 227.444C62.4977 225.27 59.7783 224.141 57.8121 224.77C55.5207 225.496 54.6727 227.746 55.1375 229.92C55.8472 233.272 56.8711 236.503 58.2161 239.648C59.0807 241.684 61.1139 243.034 63.3655 242.319C65.324 241.705 66.9161 239.217 66.0375 237.174C64.6951 234.023 63.6654 230.787 62.9626 227.444ZM314.916 115.299C316.879 108.348 307.916 102.449 301.448 101.81C298.146 99.7614 294.546 99.2036 291.516 102.49C286.255 108.188 291.979 116.825 297.493 119.725C302.993 122.617 312.824 122.692 314.916 115.299ZM349.497 128.69C351.585 129.628 353.783 130.405 355.852 131.281C362.197 133.985 367.365 136.136 371.691 141.729C374.716 145.64 377.957 149.696 383.086 150.771C387.282 151.656 392.231 149.839 394.359 145.98C400.296 135.173 383.229 129.105 377.071 124.417C372.599 121.017 368.164 117.528 362.8 115.625C356.874 113.527 351.277 115.468 345.365 114.332C343.316 113.936 341.77 114.95 340.937 116.364C340.911 116.383 340.893 116.388 340.866 116.404C335.757 119.519 339.545 125.262 343.421 127.287C345.422 128.348 347.458 128.657 349.497 128.69ZM406.745 155.165C411.816 153.705 409.764 145.755 404.663 147.223C399.599 148.68 401.644 156.633 406.745 155.165ZM300.943 295.431L300.284 295.063C299.813 294.763 299.306 294.599 298.762 294.563C298.21 294.432 297.673 294.461 297.122 294.619C296.592 294.74 296.116 294.983 295.717 295.342C295.266 295.632 294.916 296.012 294.645 296.486C294.503 296.813 294.36 297.133 294.222 297.46C294.025 298.192 294.008 298.911 294.199 299.645C294.333 299.971 294.472 300.304 294.6 300.628C294.96 301.251 295.443 301.744 296.063 302.111C296.278 302.23 296.507 302.356 296.722 302.475C297.194 302.779 297.7 302.943 298.244 302.979C298.795 303.107 299.334 303.082 299.885 302.923C300.415 302.802 300.891 302.559 301.289 302.197C301.739 301.906 302.09 301.531 302.362 301.056C302.502 300.725 302.643 300.41 302.784 300.079C302.982 299.35 302.999 298.631 302.806 297.894C302.67 297.572 302.534 297.234 302.405 296.91C302.049 296.298 301.562 295.795 300.943 295.431ZM383.133 296.827C379.715 295.75 376.085 295.877 372.794 297.358C369.046 299.037 365.687 302.724 368.366 306.836C371.926 312.304 380.903 309.386 384.024 304.229C384.175 304.088 384.331 303.96 384.482 303.819C386.618 301.732 386.261 297.819 383.133 296.827Z" fill="#241C1A"/>
<path d="M477.178 232.756C477.942 234.267 478.622 235.771 478.65 237.502C478.686 239.894 477.519 241.961 475.511 243.265C474.964 243.627 474.341 243.987 473.685 244.313C470.611 249.971 466.076 255.625 461.212 258.925C453.889 263.882 445.208 262.483 437.014 261.085C421.152 258.345 404.543 254.988 391.354 245.167C384.823 240.299 379.704 233.902 374.701 227.554C369.771 221.295 364.156 213.035 356.625 209.703C346.512 205.222 348.396 227.51 349.401 232.637C351.343 242.575 356.871 249.494 362.54 257.531C367.17 264.111 369.671 271.505 367.098 279.421C364.956 286.04 359.513 291.12 352.709 292.685C345.287 294.405 338.318 291.712 333.162 286.319C327.16 280.015 321.678 271.799 318.162 263.85C316.227 259.473 315.073 254.863 314.881 250.078C314.71 245.994 315.485 240.817 313.408 237.089C310.031 231.046 305.903 235.81 301.906 238.37C298.155 240.776 293.705 241.095 289.816 243.102C285.512 245.334 284.698 250.416 283.277 254.617C282.117 258.048 280.524 261.336 278.361 264.255C274.079 270.025 267.628 274.178 260.355 274.603C252.898 275.042 246.71 271.696 242.313 265.818C240.166 262.966 237.709 257.95 233.361 259.221C230.003 260.211 227.667 264.491 226.657 267.556C224.084 275.39 226.012 284.531 226.62 292.548C227.13 299.341 227.123 306.028 225.362 312.537C225.871 313.556 226.45 314.532 227.117 315.47C228.322 317.176 229.935 318.58 230.787 320.502C234.892 329.829 221.809 336.35 214.785 337.967C210.777 338.893 205.588 340.379 201.581 338.937C199.767 338.281 198.388 337.089 197.576 335.305C197.327 334.768 197.25 334.021 197.196 333.236C195.452 335.127 194.063 338.129 192.758 339.608C190.453 342.183 187.431 343.971 183.952 344.309C176.447 345.048 171.096 340.257 168.878 333.449C162.929 315.181 159.981 295.323 158.15 276.126C149.326 278.174 140.4 279.197 131.687 275.616C122.753 271.931 115.774 264.499 110.866 256.353C105.354 247.184 101.812 236.883 97.9018 226.966C95.6347 221.244 93.3805 215.526 91.1134 209.804C89.4154 205.5 87.9358 200.85 85.2739 197.016C79.0891 188.115 69.0282 194.579 60.3426 193.887C52.1426 193.233 45.5525 186.961 43.3586 179.188C38.7873 163.087 50.2175 143.146 66.5489 139.239C80.3108 135.937 95.157 144.791 96.4584 158.3C100.175 160.52 103.081 163.825 105.211 167.953C109.073 175.438 108.854 183.992 108.564 192.193C108.201 201.993 108.899 211.276 112.612 220.468C118.838 235.869 133.582 254.023 152.115 247.618C169.489 241.616 179.544 221.945 190.46 208.413C202.042 194.046 214.829 180.348 229.874 169.557C244.413 159.147 261.205 151.453 278.985 148.855C297.041 146.222 314.485 149.959 330.999 157.296C347.351 164.55 363.44 173.575 377.529 184.653C384.751 190.338 390.957 196.831 397.311 203.426C403.505 209.878 411.269 211.977 418.581 216.637C425.996 221.344 428.266 229.641 434.24 235.556C438.165 239.459 442.871 240.518 446.844 236.062C449.382 233.219 451.007 229.698 453.503 226.821C457.713 221.998 464.511 218.11 470.811 221.368C475.218 223.656 477.13 228.146 477.178 232.756ZM116.396 216.431C120.092 222.629 124.303 228.573 129.251 233.845C133.471 238.334 138.245 239.182 144.242 239.164C149.529 239.149 148.837 230.964 143.565 230.974C137.62 230.997 135.486 228.86 131.835 224.344C128.635 220.386 125.782 216.187 123.176 211.81C120.474 207.249 113.702 211.899 116.396 216.431ZM155.547 234.787C155.987 235.088 156.486 235.267 157.025 235.312C157.377 235.309 157.728 235.314 158.073 235.312C158.804 235.22 159.47 234.942 160.059 234.493C160.316 234.239 160.569 233.974 160.84 233.715C161.269 233.133 161.531 232.488 161.623 231.771C161.664 231.574 161.693 231.374 161.732 231.182C161.825 230.645 161.78 230.12 161.604 229.617C161.508 229.068 161.281 228.579 160.915 228.151C160.589 227.688 160.166 227.338 159.665 227.11C159.225 226.808 158.724 226.635 158.187 226.585C157.836 226.592 157.48 226.584 157.14 226.588C156.409 226.681 155.743 226.959 155.153 227.403C154.897 227.661 154.64 227.928 154.373 228.185C153.944 228.768 153.681 229.409 153.584 230.12C153.545 230.312 153.516 230.512 153.478 230.708C153.385 231.245 153.429 231.766 153.606 232.272C153.702 232.822 153.925 233.311 154.295 233.738C154.637 234.217 155.046 234.559 155.547 234.787ZM76.7991 200.534C71.9483 198.492 69.7475 206.407 74.564 208.44C77.2746 209.579 78.7756 214.862 79.9901 217.268C81.6328 220.521 83.5836 223.739 84.4781 227.297C85.7731 232.424 93.7536 230.488 92.4586 225.361C91.0952 219.956 88.0612 215.02 85.5598 210.079C83.3851 205.783 81.3568 202.445 76.7991 200.534ZM234.216 273.404C234.157 273.484 234.129 273.578 234.077 273.656C233.97 273.762 233.854 273.85 233.749 273.963C232.294 275.547 231.358 277.685 231.737 279.86C232.211 282.543 234.596 284.666 237.348 284.569C240.284 284.462 242.482 281.926 242.739 279.065C242.969 276.416 241.855 274.248 239.95 272.5C238.379 271.052 235.34 271.703 234.216 273.404ZM299.764 245.043C296.386 245.513 293.333 247.087 291.326 249.906C289.92 251.892 289.719 255.271 288.165 257.116C285.274 259.4 283.257 263.003 285.454 266.559C287.49 269.84 292.139 269.844 294.757 267.32C297.041 265.124 296.425 261.757 298.544 259.695C301.491 256.829 303.289 253.717 304.296 249.717C304.937 247.154 302.191 244.706 299.764 245.043ZM278.198 269.703C273.127 271.163 275.308 279.081 280.408 277.613C285.472 276.155 283.288 268.238 278.198 269.703ZM362.372 224.064C362.195 223.519 361.894 223.071 361.477 222.701C361.143 222.275 360.711 221.96 360.189 221.745C359.706 221.511 359.192 221.404 358.654 221.429C358.126 221.369 357.603 221.445 357.097 221.653L356.126 222.18C355.527 222.62 355.078 223.176 354.777 223.848L354.481 224.852C354.365 225.568 354.437 226.266 354.686 226.94L354.76 227.197C354.937 227.743 355.238 228.19 355.655 228.561C355.99 228.99 356.421 229.302 356.946 229.516C357.43 229.75 357.94 229.858 358.478 229.833C359.009 229.892 359.529 229.817 360.038 229.607L361.006 229.082C361.609 228.641 362.058 228.088 362.355 227.414C362.45 227.076 362.556 226.736 362.654 226.409C362.767 225.694 362.696 225 362.446 224.322L362.372 224.064ZM440.676 232.008C445.701 230.562 444.515 222.432 439.444 223.892C434.428 225.327 435.605 233.467 440.676 232.008ZM217.371 172.814C224.648 165.008 233.204 159.115 243.108 155.134C248.022 153.166 244.441 145.769 239.557 147.732C229.039 151.953 219.698 158.327 211.979 166.625C208.412 170.45 213.763 176.683 217.371 172.814ZM253.066 148.68C258.109 147.229 256.456 139.183 251.356 140.65C246.302 142.105 247.966 150.148 253.066 148.68Z" fill="#2A1D1B"/>
<path d="M84.9349 185.227L82.662 182.635C82.2621 182.173 82.3058 181.466 82.7537 181.058L83.8901 180.029L86.512 177.641C86.7091 177.467 86.9571 177.36 87.2073 177.343L88.2849 177.268L96.109 176.712C96.6385 176.67 97.1179 176.999 97.2598 177.492C97.4021 177.945 97.8333 178.257 98.3338 178.25L99.6634 178.233C100.281 178.224 100.778 178.681 100.785 179.264L100.795 179.67C100.802 180.103 100.525 180.517 100.117 180.697L98.0243 181.621C97.7095 181.755 97.482 182.001 97.3805 182.317L97.1678 182.955C97.0726 183.292 96.8083 183.561 96.4795 183.687L94.0611 183.562C92.8158 183.505 91.591 183.846 90.5701 184.567L88.609 185.964L86.7271 187.294C85.9566 187.591 85.1617 187.011 85.2052 186.194L85.2106 186.035C85.224 185.741 85.1307 185.458 84.9349 185.227ZM85.2133 170.333L89.4957 167.032C90.0136 166.636 90.2253 165.966 90.049 165.354L89.2435 162.555C88.9305 161.467 87.6152 161.057 86.7403 161.768L80.2699 167.014C80.2291 167.049 80.1727 167.085 80.1209 167.124L68.1015 174.693C68.0301 174.745 67.9535 174.779 67.8696 174.814L61.7277 177.383L60.9257 177.72C59.7986 178.182 59.6213 179.72 60.616 180.435C60.8593 180.612 61.1466 180.71 61.4502 180.729L70.279 181.222C70.6397 181.248 71.0022 181.143 71.2909 180.919L76.9359 176.774C77.2106 176.569 77.4147 176.283 77.511 175.949L77.6891 175.341L78.0639 174.079C78.192 173.637 78.5131 173.266 78.9386 173.081L84.8733 170.529C84.997 170.482 85.1161 170.404 85.2133 170.333ZM138.589 257.642L138.379 257.063C138.288 256.79 138.319 256.448 138.461 256.164L139.52 254.128C139.73 253.738 139.737 253.284 139.548 252.997L139.368 252.739C139.1 252.368 138.538 252.381 138.071 252.763L137.052 253.598C136.668 253.901 136.182 253.958 135.852 253.7C135.508 253.402 134.976 253.438 134.559 253.774C132.89 255.137 131.17 256.445 129.418 257.707C129.058 257.971 128.684 258.24 128.311 258.496L127.435 259.121C127.215 259.259 127.068 259.486 126.992 259.739C126.551 261.397 126.183 263.093 125.888 264.822C125.766 265.435 126.223 266.123 126.919 266.319C128.19 266.723 129.5 267.049 130.796 267.351C131.135 267.422 131.448 267.611 131.682 267.865L131.806 268.01C132.427 268.75 133.614 268.687 133.934 267.943C134.584 266.559 135.252 265.17 135.923 263.791C136.215 263.197 136.51 262.598 136.808 261.998L138.515 258.613C138.683 258.298 138.698 257.94 138.589 257.642ZM60.016 174.041C57.1442 176.351 53.0205 176.234 50.2814 173.769C49.3871 172.966 48.7339 171.992 48.3256 170.956C48.2309 170.736 48.159 170.513 48.0932 170.285C47.3723 167.78 47.9726 164.969 49.9356 162.952L53.6392 159.154C55.4859 157.264 56.205 154.525 55.5244 151.97L54.5599 148.4C53.6407 144.948 55.2876 141.314 58.4971 139.727L64.7655 136.643C66.8232 135.623 69.232 135.605 71.3117 136.584L82.0033 141.668C83.7096 142.468 85.0486 143.888 85.75 145.63L87.5056 149.984L87.6477 150.328C88.3886 152.152 88.3765 154.196 87.6204 156.015L86.7313 158.163C85.9891 159.935 84.6156 161.355 82.8627 162.138L65.6003 169.862C65.0096 170.115 64.4569 170.458 63.9551 170.87L60.016 174.041ZM67.4069 154.795L68.104 154.885C68.544 154.927 68.9625 155.085 69.3288 155.321L69.5799 155.485C70.7741 156.252 72.3468 156.042 73.2827 154.984L73.507 154.727C74.3255 153.82 74.4742 152.482 73.8809 151.416L72.9456 149.762C72.3013 148.601 70.9323 148.045 69.6491 148.415L66.9557 149.19C66.2451 149.394 65.6445 149.858 65.2716 150.499C64.2268 152.283 65.3479 154.555 67.4069 154.795ZM157.194 267.376C158.016 268.38 158.924 269.379 159.811 270.321C160.381 270.922 161.466 271.05 162.364 270.611C162.451 270.574 162.533 270.53 162.607 270.486C163.395 269.992 164.204 269.504 164.917 268.965C166.004 268.216 166.167 266.898 165.399 266.114L165.126 265.831C165.003 265.706 164.893 265.557 164.809 265.4L163.12 261.946L160.81 257.452C160.385 256.644 159.523 256.241 158.766 256.404L158.615 256.428C158.132 256.535 157.626 256.371 157.223 256.008C156.889 255.708 156.563 255.393 156.249 255.079C156.233 255.064 156.219 255.045 156.192 255.033C155.797 254.656 155.331 254.48 154.921 254.543C154.181 254.619 153.814 255.458 154.028 256.488L154.225 257.405C154.266 257.585 154.281 257.773 154.275 257.944C154.209 259.16 154.073 260.436 153.844 261.644C153.755 262.152 153.847 262.691 154.111 263.129C155.04 264.613 156.077 266.022 157.194 267.376ZM90.4451 197.867L90.7815 197.672C90.9384 197.576 91.1097 197.503 91.2765 197.455L92.7411 197.088L95.0012 196.512L99.8948 195.253C100.764 195.015 101.364 194.234 101.317 193.36L101.307 193.178C101.276 192.634 101.499 192.099 101.927 191.732L102.958 190.827C103.404 190.439 103.633 189.871 103.592 189.318C103.511 188.328 102.6 187.617 101.555 187.737L100.606 187.849C100.431 187.868 100.226 187.865 100.054 187.828L96.2468 187.106C95.7289 187.012 95.195 187.134 94.7794 187.422L90.5427 190.459L90.5266 190.472L87.4071 192.739C86.6832 193.266 86.4441 194.222 86.826 195.03L87.814 197.085C88.3009 198.068 89.5135 198.422 90.4451 197.867ZM117.126 244.02L121.541 241.576C122.33 241.125 122.71 240.223 122.464 239.41L122.415 239.24C122.261 238.731 122.36 238.188 122.696 237.718L123.489 236.615C123.832 236.143 123.955 235.562 123.786 235.057C123.504 234.145 122.486 233.689 121.495 234.037L120.595 234.362C120.42 234.421 120.226 234.457 120.048 234.465L116.198 234.603C115.67 234.626 115.179 234.842 114.829 235.221C113.646 236.5 112.481 237.797 111.319 239.105L110.237 240.354L108.793 242.018C108.208 242.7 108.191 243.718 108.778 244.46L110.281 246.3C111.019 247.187 112.285 247.25 113.055 246.475L113.327 246.193C113.453 246.07 113.6 245.953 113.755 245.865L114.265 245.593L117.126 244.02ZM128.719 251.706L129.325 251.519C130.035 250.93 130.264 250.021 129.929 249.265L129.854 249.114C129.646 248.652 129.668 248.1 129.93 247.608L130.581 246.416C130.862 245.907 130.911 245.328 130.693 244.869C130.326 244.044 129.279 243.749 128.349 244.228L127.494 244.667C127.325 244.747 127.15 244.809 126.968 244.842C125.726 245.058 124.458 245.262 123.178 245.45C122.668 245.534 122.201 245.806 121.883 246.231C121.769 246.377 121.662 246.538 121.551 246.699C120.645 247.941 119.75 249.211 118.873 250.5C118.143 251.566 117.427 252.636 116.735 253.722C116.247 254.483 116.374 255.526 117.085 256.208C117.697 256.778 118.272 257.358 118.91 257.912C119.804 258.715 121.101 258.609 121.729 257.71L121.944 257.393C122.043 257.246 122.174 257.114 122.313 256.996L122.935 256.008C123.601 254.941 124.465 254.041 125.461 253.315C126.442 252.604 127.55 252.062 128.719 251.706ZM106.911 236.707L108.928 234.548L110.127 233.261C110.978 232.357 112.127 231.779 113.358 231.597L115.755 231.237C116.053 231.045 116.249 230.73 116.288 230.389L116.364 229.727C116.405 229.417 116.585 229.118 116.865 228.931L118.745 227.633C119.118 227.376 119.321 226.921 119.233 226.507L119.155 226.125C119.036 225.563 118.468 225.224 117.869 225.341L116.572 225.62C116.075 225.708 115.597 225.493 115.39 225.073C115.155 224.627 114.629 224.394 114.112 224.534C111.911 225.125 109.702 225.686 107.475 226.229L106.517 226.473L105.473 226.731C105.224 226.794 104.999 226.941 104.832 227.15C103.795 228.485 102.774 229.835 101.76 231.206C101.384 231.687 101.482 232.397 101.969 232.791L104.714 234.98C104.952 235.179 105.103 235.445 105.157 235.74L105.181 235.894C105.313 236.719 106.216 237.154 106.911 236.707ZM95.0957 210.507L95.4305 210.292C95.5697 210.19 95.7411 210.117 95.9083 210.057L96.8396 209.365C97.177 209.119 97.5268 208.888 97.8959 208.684C99.6826 207.691 101.748 207.257 103.787 207.44L104.424 207.5C105.293 207.218 105.852 206.418 105.772 205.542L105.753 205.367C105.704 204.827 105.902 204.287 106.317 203.901L107.316 202.954C107.742 202.553 107.954 201.978 107.88 201.434C107.77 200.453 106.835 199.768 105.791 199.931L104.853 200.083C104.67 200.116 104.478 200.116 104.288 200.085L100.471 199.519C99.9475 199.446 99.4192 199.574 99.0063 199.886L96.1675 202.092L94.8746 203.096L91.8553 205.481C91.148 206.037 90.939 207.016 91.3577 207.802L92.4435 209.829C92.9671 210.789 94.1864 211.098 95.0957 210.507ZM100.426 223.72L106.266 220.661L109.639 218.909C109.957 218.743 110.178 218.436 110.242 218.096L110.363 217.441C110.425 217.137 110.627 216.843 110.901 216.678L112.882 215.499C113.274 215.268 113.498 214.831 113.444 214.411L113.382 214.02C113.314 213.443 112.763 213.056 112.148 213.139L110.835 213.325C110.337 213.382 109.869 213.132 109.68 212.695C109.483 212.23 108.966 211.959 108.441 212.071L100.745 213.536L99.6798 213.737C99.4358 213.775 99.1952 213.908 99.0282 214.105L97.3753 216.013L95.6915 217.95C95.2965 218.405 95.3409 219.119 95.8002 219.528L98.3026 221.799L98.3764 221.864C98.5959 222.068 98.7255 222.341 98.7608 222.641L98.7745 222.798C98.8362 223.612 99.6942 224.111 100.426 223.72ZM174.649 270.564L173.935 270.825C173.172 271.107 172.408 271.209 171.716 271.11C168.958 270.73 165.733 273.409 165.446 276.302L164.778 283.187C164.743 283.582 164.765 283.96 164.844 284.315L165.578 287.561L167.102 294.385C167.611 296.672 170.364 297.289 172.902 295.675L174.357 294.754C174.43 294.709 174.501 294.669 174.574 294.625C174.85 294.463 175.137 294.314 175.429 294.21L176.583 293.76C179.684 292.546 181.498 288.907 180.067 286.787L177.966 283.686C177.474 282.972 177.348 282.015 177.586 280.989L179.232 274.16C179.929 271.278 177.614 269.467 174.649 270.564ZM287.242 175.581C288.665 175.179 290.084 174.912 291.515 174.65C291.893 174.584 292.252 174.685 292.55 174.905L292.705 175.033C293.515 175.664 294.709 175.163 294.985 174.048C294.994 172.742 294.981 171.43 294.954 170.123C294.953 169.26 294.941 168.4 294.915 167.532C294.865 165.803 295.376 164.086 296.41 162.701L298.461 159.995C298.578 159.514 298.451 158.993 298.118 158.61L297.475 157.865C297.168 157.506 297.02 157.034 297.093 156.577L297.556 153.398C297.644 152.776 297.318 152.124 296.739 151.788L296.187 151.465C295.398 150.989 294.377 151.259 293.929 152.008L292.964 153.621C292.591 154.219 291.859 154.539 291.149 154.379C290.395 154.199 289.613 154.565 289.304 155.239C287.757 158.55 286.267 161.872 284.831 165.202L284.322 166.404L284.249 166.586C284.104 166.903 284.071 167.277 284.155 167.638C284.696 169.927 285.178 172.203 285.621 174.478C285.778 175.284 286.485 175.775 287.242 175.581ZM276.795 184.715C275.508 184.073 273.642 184.834 272.997 186.26C272.542 187.243 272.828 188.24 273.7 188.703C276.794 190.356 283.817 194.572 285.261 199.358C287.112 205.53 286.852 212.195 289.225 211.905C291.597 211.607 290.876 199.053 287.155 193.066C284.688 189.089 279.795 186.203 276.795 184.715ZM263.817 168.29C264.377 169.676 264.923 171.057 265.441 172.447C266.081 174.151 266.698 175.845 267.28 177.566C267.698 178.761 268.753 179.493 269.852 179.303C270.787 179.143 271.719 178.958 272.695 178.869C274.065 178.722 275.035 177.277 274.777 175.738L274.683 175.192C274.635 174.947 274.622 174.683 274.645 174.434L274.257 172.826C274.199 172.584 274.156 172.353 274.106 172.112C273.473 168.875 273.882 165.511 275.455 162.613L275.888 161.813C276.016 160.528 275.215 159.338 273.936 158.972L273.675 158.886C272.872 158.658 272.219 158.096 271.884 157.34C271.616 156.735 271.331 156.129 271.048 155.54C270.674 154.772 269.918 154.22 269.039 154.057C267.462 153.773 265.928 154.717 265.685 156.22L265.456 157.577C265.415 157.844 265.332 158.103 265.209 158.343C264.345 160.02 263.526 161.701 262.737 163.38C262.418 164.057 262.419 164.838 262.703 165.525C263.087 166.451 263.458 167.369 263.817 168.29ZM305.787 175.794C306.718 175.985 307.616 176.284 308.537 176.51C308.701 176.561 308.866 176.576 309.025 176.582C310.173 176.628 311.295 175.74 311.604 174.442L311.72 173.918C311.77 173.68 311.861 173.438 311.976 173.212L314.505 168.48L317.876 162.301C318.474 161.187 318.197 159.814 317.165 159.012L316.96 158.859C316.322 158.348 315.935 157.604 315.919 156.796L315.847 154.842C315.811 154.009 315.37 153.185 314.635 152.745C313.338 151.922 311.594 152.243 310.819 153.479L310.098 154.616C309.956 154.83 309.773 155.04 309.584 155.204C308.179 156.378 306.798 157.553 305.455 158.752C304.912 159.238 304.61 159.933 304.593 160.664C304.59 161.501 304.573 162.326 304.545 163.159C304.507 164.771 304.441 166.368 304.379 167.968C304.304 169.752 304.204 171.52 304.084 173.297C304.001 174.526 304.707 175.571 305.787 175.794ZM253.568 186.8C254.148 187.41 255.034 187.446 255.573 186.863C256.578 185.785 257.628 184.756 258.699 183.69C258.976 183.426 259.336 183.271 259.716 183.323L259.913 183.341C260.62 183.424 261.183 182.964 261.356 182.313L261.365 182.303C261.455 181.986 261.449 181.627 261.322 181.267C260.13 179.388 258.912 177.529 257.651 175.67C256.652 174.207 256.137 172.455 256.26 170.689L256.527 167.236C256.37 166.759 255.964 166.386 255.459 166.24L254.498 165.944C254.022 165.802 253.64 165.484 253.451 165.048L252.082 162.078C251.819 161.49 251.168 161.124 250.476 161.174L249.829 161.219C249.283 161.258 248.814 161.523 248.512 161.92C248.293 162.195 248.161 162.555 248.169 162.925L248.241 164.84C248.246 165.565 247.799 166.235 247.092 166.493C246.348 166.759 245.876 167.507 245.996 168.249C246.504 171.95 247.08 175.615 247.726 179.308L247.992 180.833C248.059 181.174 248.245 181.518 248.51 181.771C250.225 183.393 251.924 185.095 253.568 186.8ZM326.852 182.646L329.527 183.701C330.793 184.2 332.341 183.413 332.854 182.006L333.037 181.494C333.12 181.266 333.234 181.033 333.38 180.83L333.821 179.282C334.314 177.57 335.1 175.966 336.16 174.562C337.157 173.238 338.376 172.087 339.815 171.194L340.576 170.716C341.323 169.668 341.206 168.293 340.284 167.396L340.102 167.213C339.522 166.642 339.234 165.861 339.316 165.069L339.487 163.139C339.557 162.306 339.217 161.466 338.576 160.901C337.448 159.848 335.682 159.983 334.735 161.111L333.879 162.147C333.701 162.347 333.51 162.532 333.284 162.671C331.739 163.661 330.215 164.665 328.721 165.68C328.116 166.102 327.714 166.751 327.609 167.464C327.259 169.873 326.869 172.27 326.452 174.655L326.133 176.368L325.489 179.874C325.255 181.064 325.818 182.217 326.852 182.646ZM186.13 241.078L186.766 241.951C186.914 242.163 187.131 242.317 187.377 242.395L188.379 242.684L192.259 243.809C192.828 243.974 193.441 243.649 193.629 243.073L194.633 239.812C194.736 239.528 194.916 239.307 195.174 239.166L195.314 239.094C196.019 238.722 196.104 237.748 195.455 237.24L191.148 235.339C190.012 234.842 189.074 233.97 188.492 232.877L187.352 230.729C187.073 230.51 186.702 230.437 186.362 230.523L185.701 230.681C185.383 230.761 185.043 230.686 184.773 230.497L182.887 229.183C182.527 228.926 182.031 228.908 181.658 229.141L181.614 229.165L181.305 229.36C180.811 229.687 180.673 230.354 181.001 230.868L181.711 231.999C181.965 232.428 181.926 232.961 181.602 233.322C181.266 233.709 181.23 234.296 181.555 234.713L186.13 241.078ZM184.928 300.457C185.119 299.782 184.95 299.116 184.445 298.629L183.008 297.237C182.147 296.398 180.539 296.295 179.229 296.982L175.782 298.819L173.773 299.887C173.142 300.218 172.417 300.372 171.718 300.33C170.414 300.246 169.21 300.848 168.567 301.696C168.127 302.282 167.949 302.973 168.207 303.637L170.483 309.58L171.36 311.891C171.402 311.997 171.43 312.094 171.443 312.208L172.532 318.486C172.799 320.085 175.097 320.715 176.917 319.689L180.587 317.628C181.131 317.322 181.751 317.144 182.377 317.124L185.522 317.032C187.706 316.968 189.377 315.098 188.618 313.565L188.141 312.616L184.204 304.693C184.002 304.292 183.968 303.831 184.093 303.378L184.928 300.457ZM177.943 250.834L178.527 251.745C178.653 251.964 178.861 252.128 179.111 252.217C180.714 252.768 182.322 253.31 183.949 253.835C184.528 254.033 185.161 253.71 185.381 253.136C185.587 252.583 185.79 252.033 185.986 251.486C186.181 250.939 186.377 250.392 186.572 249.854C186.674 249.569 186.878 249.349 187.137 249.212L187.288 249.137C188.014 248.767 188.135 247.783 187.494 247.26L182.455 243.011L179.558 240.555C179.293 240.329 178.924 240.235 178.581 240.311L177.926 240.448C177.62 240.505 177.28 240.43 177.01 240.241L175.172 238.858C174.815 238.588 174.329 238.535 173.962 238.747L173.955 238.749L173.606 238.955C173.106 239.249 172.957 239.892 173.262 240.432L173.932 241.574C174.177 242.018 174.126 242.535 173.795 242.873C173.44 243.235 173.391 243.814 173.689 244.25C175.129 246.431 176.537 248.62 177.943 250.834ZM190.745 224.625C190.868 224.794 190.965 224.978 191.04 225.172C191.042 225.18 191.042 225.18 191.042 225.18L192.482 229.283C192.68 229.835 193.099 230.28 193.628 230.524L198.983 232.912L202.932 234.672C203.839 235.082 204.892 234.799 205.45 233.998L206.855 231.937C207.279 231.325 207.311 230.546 206.989 229.905C206.824 229.524 206.528 229.205 206.153 228.98L205.769 228.749C205.602 228.659 205.438 228.526 205.298 228.382L202.336 225.25L198.458 221.134C197.756 220.398 196.641 220.247 195.803 220.787L195.633 220.891C195.1 221.237 194.456 221.304 193.853 221.105L192.399 220.605C191.768 220.39 191.069 220.485 190.548 220.859C189.603 221.516 189.402 222.822 190.102 223.766L190.745 224.625ZM233.976 189.962L238.267 193.371C239.257 194.165 240.575 194.19 241.444 193.418C241.785 193.116 242.127 192.817 242.471 192.526C242.874 192.182 243.284 191.832 243.685 191.481C244.756 190.565 244.797 188.81 243.754 187.67L243.38 187.255C243.212 187.08 243.06 186.853 242.93 186.635L241.749 185.491C239.191 183.067 237.507 179.78 237.252 176.246L237.192 175.344C236.605 174.191 235.267 173.591 234.02 174.004L233.762 174.079C232.98 174.335 232.133 174.214 231.463 173.767L229.794 172.689C229.085 172.23 228.156 172.124 227.355 172.453C225.912 173.017 225.179 174.614 225.747 176.001L225.882 176.323L226.259 177.263C226.362 177.512 226.431 177.778 226.451 178.039C226.601 179.896 226.783 181.756 226.984 183.601C227.069 184.346 227.467 185.021 228.053 185.46C230.051 186.946 232.023 188.451 233.976 189.962ZM198.354 209.929C198.512 210.151 198.637 210.394 198.718 210.649L200.505 215.956C200.762 216.671 201.295 217.255 201.971 217.559L208.813 220.697L213.842 223.03C215.017 223.579 216.364 223.242 217.074 222.229L218.885 219.686L218.902 219.662C219.776 218.429 219.39 216.679 218.059 215.846L217.577 215.549C217.361 215.426 217.162 215.252 216.979 215.069L215.507 214.264C212.36 212.563 209.913 209.774 208.7 206.418L208.389 205.557C207.5 204.596 206.083 204.376 204.972 205.045L204.753 205.183C204.068 205.615 203.225 205.697 202.45 205.422L200.584 204.762C199.775 204.472 198.875 204.578 198.188 205.055C196.957 205.892 196.652 207.589 197.541 208.821L198.354 209.929ZM235.485 233.256C233.34 229.292 230.326 225.846 228.252 223.711C227.055 222.485 225.036 222.713 224.137 224.157C223.517 225.156 223.631 226.45 224.424 227.309C225.711 228.701 227.724 231.015 229.593 233.691C231.879 236.955 233.958 240.757 234.305 244.158C234.437 245.435 234.508 246.718 234.554 247.953C234.778 254.487 234.098 260.064 236.166 260.498C237.453 260.767 238.446 256.733 238.727 251.612C238.971 246.961 238.606 241.425 237.304 237.392C236.844 235.973 236.221 234.583 235.485 233.256ZM350.784 182.643L352.97 179.325C353.166 179.013 353.213 178.615 353.081 178.268L352.839 177.576C352.728 177.259 352.745 176.881 352.908 176.587L354.059 174.462C354.283 174.056 354.229 173.526 353.904 173.148L353.607 172.81C353.17 172.304 352.421 172.221 351.902 172.614L350.809 173.497C350.391 173.818 349.819 173.833 349.379 173.532C348.912 173.207 348.278 173.241 347.881 173.634C345.913 175.523 343.955 177.476 342.033 179.419L341.253 180.228C341.22 180.261 341.196 180.288 341.173 180.318C341.029 180.485 340.931 180.705 340.9 180.938C340.673 182.672 340.422 184.365 340.123 186.108C340.015 186.728 340.389 187.291 340.977 187.369L344.314 187.861C344.605 187.903 344.834 188.073 344.991 188.318L345.083 188.448C345.503 189.128 346.489 189.104 346.952 188.382L350.2 183.518L350.784 182.643ZM149.602 261.349C149.546 261.004 149.359 260.693 149.127 260.517L148.69 260.183C148.479 260.009 148.348 259.705 148.308 259.375C148.227 258.617 148.15 257.858 148.092 257.097C148.046 256.651 147.885 256.27 147.691 256.153C147.622 256.133 147.565 256.083 147.508 256.037C147.263 255.852 146.961 256.182 146.788 256.766C146.658 257.176 146.534 257.589 146.383 257.993C146.218 258.457 145.869 258.73 145.529 258.667C145.171 258.609 144.763 258.868 144.556 259.363C143.733 261.264 142.812 263.111 141.792 264.912C141.53 265.38 141.259 265.843 140.977 266.309L140.41 267.23C140.281 267.451 140.215 267.713 140.271 267.976C140.608 269.704 141.099 271.412 141.753 273.124C141.967 273.757 142.847 274.143 143.644 274.02C144.375 273.927 145.204 273.755 145.987 273.581C146.059 273.572 146.127 273.552 146.196 273.533C146.911 273.382 147.586 273.164 148.256 272.928C148.638 272.81 149.063 272.802 149.446 272.876L149.659 272.909C150.747 273.087 151.785 272.383 151.57 271.57C150.705 270.186 149.938 268.75 149.3 267.309C148.789 266.176 148.796 264.89 149.104 263.695C149.306 262.911 149.472 262.125 149.602 261.349ZM384.188 213.805C385.138 212.986 386.227 212.351 387.418 211.934L388.022 211.728C388.705 211.127 388.882 210.146 388.425 209.379L388.338 209.223C388.064 208.749 388.016 208.174 388.224 207.643L388.722 206.357C388.925 205.808 388.877 205.194 388.557 204.709C388.006 203.843 386.84 203.609 385.973 204.2L385.193 204.747C385.029 204.849 384.86 204.929 384.685 204.987L380.975 206.133C380.474 206.286 380.057 206.653 379.824 207.112L378.344 210.137L377.52 211.803L375.82 215.252C375.418 216.039 375.627 216.995 376.321 217.51L378.106 218.845C378.959 219.475 380.183 219.241 380.774 218.321L380.989 217.992C381.074 217.838 381.205 217.706 381.331 217.583L381.905 216.566C382.496 215.509 383.273 214.567 384.188 213.805ZM374.732 205.909L378.479 202.546C379.158 201.934 379.322 200.949 378.845 200.176L378.746 200.023C378.447 199.544 378.386 198.965 378.584 198.425L379.037 197.133C379.237 196.573 379.154 195.945 378.823 195.464C378.239 194.595 377.066 194.379 376.209 194.999L375.433 195.564C375.283 195.67 375.106 195.764 374.928 195.815L371.238 197.07C370.739 197.257 370.342 197.626 370.125 198.097L369.283 199.96L367.977 202.856L366.371 206.329C365.993 207.132 366.221 208.072 366.909 208.568L368.679 209.822C369.535 210.408 370.739 210.147 371.319 209.23L371.532 208.891C371.621 208.751 371.74 208.607 371.874 208.486L374.47 206.145L374.732 205.909ZM364.987 191.415L367.215 190.184C367.442 189.895 367.514 189.502 367.411 189.147L367.213 188.458C367.123 188.119 367.181 187.76 367.376 187.469L368.692 185.469C368.951 185.072 368.947 184.54 368.671 184.14L368.406 183.777C368.037 183.232 367.301 183.09 366.772 183.447L365.609 184.221C365.165 184.506 364.581 184.481 364.176 184.151C363.733 183.799 363.104 183.796 362.671 184.148C361.02 185.475 359.384 186.801 357.764 188.155C357.278 188.538 356.794 188.944 356.323 189.339L355.457 190.055C355.253 190.232 355.108 190.466 355.044 190.732C354.643 192.449 354.233 194.148 353.801 195.839C353.645 196.441 353.985 197.038 354.568 197.169L357.876 198.01C358.155 198.091 358.393 198.278 358.539 198.526L358.61 198.663C358.996 199.376 359.993 199.419 360.522 198.733L362.165 194.908L362.454 194.236C362.956 193.047 363.841 192.043 364.987 191.415ZM414.131 229.053L413.471 229.734C413.338 229.859 413.18 229.979 413.032 230.064C411.919 230.683 410.789 231.287 409.629 231.864C409.167 232.115 408.807 232.529 408.649 233.014C408.621 233.108 408.585 233.201 408.557 233.295C408.065 234.846 407.6 236.421 407.145 238.004C406.801 239.249 406.465 240.496 406.154 241.763C405.932 242.628 406.355 243.605 407.283 244.009L409.588 245.046C410.684 245.543 411.886 245.012 412.186 243.968L412.299 243.582C412.339 243.422 412.415 243.251 412.511 243.093L414.639 239.875L415.31 238.826L417.37 235.63C417.849 234.841 417.755 233.926 417.206 233.314L417.097 233.197C416.739 232.809 416.596 232.273 416.693 231.723L416.931 230.395C417.032 229.82 416.888 229.277 416.537 228.918C415.933 228.291 414.872 228.287 414.131 229.053ZM395.012 223.098L397.425 220.162C397.657 219.891 397.744 219.525 397.658 219.184L397.513 218.531C397.447 218.232 397.52 217.889 397.711 217.623L399.066 215.757C399.337 215.404 399.373 214.903 399.148 214.528L398.944 214.19C398.637 213.682 397.988 213.539 397.449 213.851L396.307 214.533C395.87 214.788 395.341 214.736 394.992 214.409C394.626 214.067 394.037 214.024 393.596 214.32L388.429 217.86L387.125 218.746L386.233 219.356C386.028 219.501 385.866 219.717 385.788 219.963L384.24 224.801C384.056 225.376 384.373 225.999 384.952 226.197L388.223 227.305C388.496 227.407 388.723 227.597 388.872 227.856L388.943 227.993C389.327 228.726 390.32 228.837 390.836 228.186L393.444 225.002L395.012 223.098ZM470.318 243.264C470.253 243.189 470.204 243.085 470.167 242.998L469.753 242.489C469.654 242.376 469.567 242.252 469.488 242.125C468.793 241.089 468.475 239.834 468.525 238.591L468.54 238.233C468.366 237.75 467.906 237.446 467.44 237.494L467.347 237.509C467.056 237.538 466.771 237.432 466.552 237.204L466.026 236.629C465.805 236.383 465.503 236.258 465.209 236.275C464.699 236.328 464.353 236.832 464.438 237.428L464.517 237.962C464.527 238.065 464.534 238.17 464.515 238.281C464.42 239.003 464.289 239.692 464.152 240.403C464.099 240.697 464.163 241 464.33 241.239C464.893 242.05 465.469 242.866 466.072 243.666C466.503 244.233 466.948 244.811 467.404 245.387C467.719 245.786 468.307 245.892 468.801 245.644C469.211 245.432 469.633 245.236 470.045 244.988C470.622 244.661 470.802 243.949 470.444 243.444L470.318 243.264ZM429.375 238.252C429.161 238.097 429.01 237.831 428.977 237.565L428.739 235.593C428.691 235.21 428.435 234.879 428.095 234.773L427.782 234.683C427.313 234.539 426.831 234.827 426.68 235.341L426.367 236.448C426.238 236.858 425.883 237.141 425.486 237.137C425.067 237.128 424.66 237.461 424.579 237.889C424.331 239.059 424.038 240.235 423.723 241.405C423.46 242.388 423.176 243.364 422.871 244.351L422.594 245.243C422.526 245.443 422.538 245.676 422.63 245.885C422.925 246.569 423.237 247.245 423.571 247.93C423.895 248.606 424.289 249.305 424.58 249.947C424.802 250.417 425.397 250.631 425.899 250.412L428.701 249.197C428.95 249.094 429.206 249.095 429.452 249.173L429.584 249.222C430.274 249.463 430.973 248.959 430.906 248.252L430.691 245.241L430.501 242.603L430.275 239.335C430.252 239.035 430.087 238.749 429.847 238.583L429.375 238.252ZM476.581 238.376L474.981 236.486L474.077 235.391C473.992 235.286 473.869 235.228 473.749 235.219L473.512 235.213C473.406 235.212 473.285 235.16 473.203 235.066L472.65 234.401C472.539 234.276 472.372 234.214 472.24 234.244L472.113 234.281C471.932 234.321 471.846 234.538 471.915 234.754L472.062 235.222C472.113 235.399 472.047 235.579 471.91 235.662C471.755 235.75 471.694 235.948 471.759 236.133C472.071 237.068 472.341 238.007 472.6 238.945L472.714 239.34C472.728 239.43 472.786 239.512 472.878 239.572C473.171 239.786 473.465 239.988 473.781 240.187C474.008 240.346 474.242 240.49 474.488 240.635C474.684 240.759 474.972 240.696 475.129 240.49C475.419 240.12 475.694 239.711 475.961 239.332C476.026 239.231 476.134 239.156 476.247 239.112L476.309 239.094C476.396 239.069 476.467 239.017 476.525 238.958C476.692 238.804 476.735 238.544 476.581 238.376ZM458.603 238.977L458.47 238.965C458.036 238.941 457.64 238.713 457.382 238.336L456.767 237.426C456.504 237.03 456.095 236.795 455.674 236.778C454.936 236.779 454.293 237.368 454.293 238.224L454.282 239.004C454.283 239.145 454.264 239.312 454.215 239.44C453.913 240.425 453.589 241.414 453.245 242.412C453.113 242.815 453.148 243.264 453.33 243.636C453.504 243.982 453.678 244.328 453.863 244.668C454.33 245.581 454.815 246.49 455.302 247.405L456.832 250.156C457.195 250.79 457.997 251.124 458.724 250.84L460.587 250.179C461.475 249.856 461.875 248.897 461.485 248.103L461.35 247.812C461.28 247.691 461.238 247.546 461.208 247.401L460.845 245.17L460.707 244.323L460.007 240.293C459.872 239.566 459.286 239.017 458.603 238.977ZM446.387 244.417L446.869 242.205C446.811 241.881 446.599 241.593 446.319 241.438L445.772 241.136C445.506 240.988 445.315 240.733 445.245 240.42L444.754 238.332C444.652 237.91 444.345 237.582 443.96 237.512L443.602 237.454C443.091 237.358 442.616 237.738 442.522 238.311L442.312 239.545C442.222 240.01 441.877 240.365 441.437 240.405C440.977 240.431 440.602 240.806 440.539 241.295C440.301 243.17 440.038 245.039 439.765 246.912C439.689 247.467 439.6 248.015 439.517 248.573L439.355 249.581C439.325 249.802 439.367 250.057 439.49 250.268C440.289 251.664 441.115 253.047 441.96 254.429C442.253 254.929 442.925 255.109 443.456 254.799L446.398 253.116C446.65 252.981 446.948 252.938 447.22 252.997L447.381 253.038C448.157 253.211 448.862 252.58 448.708 251.812C448.034 250.479 447.381 249.139 446.743 247.808C446.407 247.092 446.242 246.327 446.255 245.554C446.251 245.171 446.303 244.794 446.387 244.417ZM405.259 230.743C405.44 230.593 405.623 230.454 405.824 230.333L407.857 229.01C408.064 228.719 408.119 228.35 408.014 228.027L407.822 227.399C407.725 227.105 407.778 226.772 407.955 226.485L409.154 224.527C409.398 224.147 409.405 223.654 409.167 223.318L408.949 222.996C408.63 222.531 407.979 222.451 407.482 222.81L406.401 223.581C405.992 223.867 405.471 223.868 405.106 223.569C404.719 223.26 404.149 223.244 403.731 223.58C401.68 225.183 399.606 226.773 397.516 228.348L396.791 228.898L396.659 228.999C396.457 229.155 396.306 229.367 396.238 229.622C395.817 231.27 395.404 232.916 395.01 234.588C394.847 235.181 395.249 235.803 395.855 235.97L399.293 236.923C399.585 237.008 399.838 237.194 400.019 237.441L400.109 237.576C400.58 238.284 401.617 238.327 402.061 237.634C402.545 236.125 403.036 234.637 403.558 233.152C403.888 232.213 404.482 231.383 405.259 230.743ZM216.389 296.474L210.683 299.847C209.987 300.251 209.155 300.318 208.412 300.042L203.615 298.227C201.804 297.543 199.905 298.989 200.063 300.917L200.09 301.228L200.333 303.968C200.353 304.229 200.416 304.49 200.52 304.727L204.421 314.313C205.036 315.823 206.861 316.409 208.247 315.551L211.493 313.529C211.872 313.291 212.303 313.155 212.743 313.126L215.079 313.007C216.711 312.922 217.852 311.389 217.507 309.82C217.501 309.759 217.487 309.712 217.469 309.65L217.362 309.277C217.302 309.07 217.267 308.865 217.254 308.644L217.106 304.597C217.087 303.943 217.31 303.302 217.73 302.796L219.731 300.434C220.298 299.769 220.495 298.86 220.251 298.012C219.774 296.355 217.869 295.6 216.389 296.474ZM225.306 209.658C226.096 209.988 226.963 209.632 227.267 208.862L228.036 206.964L229.021 204.522C229.182 204.154 229.475 203.877 229.84 203.741L230.047 203.669C231.08 203.289 231.336 201.956 230.506 201.115L224.778 197.649C223.253 196.742 222.056 195.367 221.423 193.712L220.187 190.468C219.841 190.109 219.321 189.94 218.819 190.01L217.839 190.139C217.367 190.201 216.884 190.053 216.527 189.739L214.059 187.588C213.583 187.16 212.854 187.068 212.278 187.375L211.728 187.659C210.94 188.07 210.608 189.029 210.997 189.824L211.829 191.527C211.995 191.888 212.023 192.284 211.929 192.653C211.855 192.953 211.696 193.222 211.461 193.439C210.905 193.964 210.776 194.81 211.176 195.464L216.973 205.022L217.79 206.333C217.982 206.632 218.265 206.88 218.614 207.015L225.306 209.658ZM363.15 266.634L358.511 265.395C357.975 265.251 357.534 264.863 357.326 264.358C356.774 263.002 354.896 262.859 354.148 264.119L353.062 265.95C352.802 266.386 352.742 266.926 352.895 267.415L353.489 269.223C353.608 269.593 353.598 269.969 353.481 270.312C353.344 270.791 352.988 271.192 352.494 271.409L349.476 272.694C349.418 272.71 349.374 272.735 349.312 272.753L346.951 273.495C346.693 273.569 346.464 273.698 346.284 273.879L343.872 276.081C343.008 276.871 343.121 278.26 344.103 278.888L346.663 280.541C347.255 280.936 347.561 281.629 347.453 282.332L346.345 289.025C346.144 290.249 347.225 291.304 348.449 291.058L350.926 290.568C351.15 290.527 351.358 290.444 351.551 290.326L356.643 287.054L362.964 282.994C363.549 282.613 363.857 281.936 363.768 281.247L362.785 274.312C362.748 274.032 362.775 273.757 362.861 273.497L364.374 268.92C364.703 267.95 364.135 266.904 363.15 266.634ZM220.698 234.673C219.804 232.902 217.26 232.97 216.459 234.783L212.227 244.287C211.85 245.133 211.005 245.687 210.075 245.688L198.802 245.717C198.162 245.717 197.546 245.992 197.104 246.461L180.006 264.56C179.234 265.37 179.151 266.611 179.788 267.527L182.123 270.839C183.022 272.107 184.877 272.17 185.868 270.978C186.195 270.586 186.601 270.331 187.025 270.209L187.036 270.206C188.419 269.816 190.022 270.788 190.039 272.47L190.099 286.345C190.105 287.144 190.513 287.894 191.188 288.316L206.315 296.288C207.088 296.78 208.082 296.784 208.849 296.297L219.969 289.23C220.991 288.582 221.357 287.26 220.8 286.172L220.248 282.998L219.995 281.521C219.838 281.205 219.748 280.854 219.743 280.494L219.484 263.01C219.48 262.329 219.773 261.667 220.281 261.211L228.552 253.94C229.352 253.23 229.582 252.065 229.094 251.106L220.698 234.673ZM191.277 322.327C190.933 322.018 190.752 321.579 190.782 321.123C190.876 319.922 189.547 319.139 188.532 319.796L187.061 320.742C186.711 320.972 186.464 321.341 186.405 321.763L186.173 323.305C186.134 323.603 186.008 323.875 185.812 324.081C185.526 324.398 185.101 324.583 184.641 324.555L181.959 324.4C181.905 324.392 181.86 324.386 181.817 324.386L179.8 324.06C179.614 324.039 179.4 324.046 179.222 324.097C179.202 324.095 179.191 324.098 179.173 324.103L176.584 324.848C175.747 325.089 175.323 325.988 175.622 326.77C175.647 326.857 175.688 326.931 175.733 327.005L177.016 329.156C177.309 329.656 177.285 330.283 176.938 330.756L176.382 331.524L173.68 335.282C173.087 336.115 173.496 337.277 174.482 337.551L176.488 338.097C176.665 338.152 176.848 338.162 177.034 338.139L188.124 336.914C188.682 336.848 189.172 336.464 189.346 335.923L191.17 330.452C191.235 330.241 191.363 330.043 191.516 329.881L194.308 327.06C194.905 326.46 194.869 325.489 194.238 324.933L191.277 322.327ZM177.36 258.04L177.085 257.754C176.955 257.642 176.846 257.481 176.761 257.337L175.886 256.56C174.018 254.899 172.907 252.593 172.597 250.151L172.514 249.523C172.071 248.72 171.169 248.34 170.363 248.583L170.197 248.631C169.682 248.78 169.129 248.672 168.68 248.342L167.592 247.532C167.322 247.331 167.019 247.206 166.709 247.166C166.482 247.126 166.261 247.138 166.055 247.197C165.169 247.46 164.733 248.441 165.071 249.424L165.374 250.329C165.436 250.504 165.466 250.688 165.477 250.877C165.527 252.154 165.549 253.419 165.538 254.69C165.54 255.216 165.741 255.723 166.102 256.09C167.326 257.328 168.595 258.545 169.883 259.72C170.828 260.591 171.791 261.456 172.764 262.31C173.448 262.902 174.499 262.91 175.255 262.319C175.371 262.231 175.483 262.144 175.597 262.048C176.133 261.647 176.653 261.23 177.163 260.808C178.067 260.089 178.132 258.799 177.36 258.04ZM224.429 321.433C224.413 321.418 224.397 321.391 224.38 321.373L220.332 316.881C220.012 316.522 219.486 316.438 219.078 316.685L217.33 317.702C217.314 317.715 217.292 317.721 217.274 317.726L213.628 319.545C213.537 319.595 213.441 319.63 213.327 319.643L212.817 319.727L208.597 320.365C208.155 320.425 207.807 320.773 207.743 321.219L207.07 326.013L207.072 326.048C207.034 326.283 206.912 326.498 206.744 326.653L204.191 328.926C204.058 329.051 203.954 329.206 203.895 329.384L202.675 333.421C202.446 334.182 203.154 334.897 203.915 334.677L207.417 333.67C207.595 333.618 207.758 333.517 207.88 333.383L208.312 332.918C208.821 332.355 209.742 332.541 209.996 333.245C210.165 333.711 210.66 333.985 211.143 333.889L215.672 332.946C215.874 332.912 216.055 332.805 216.197 332.658L219.045 329.636C219.202 329.473 219.413 329.361 219.639 329.328L224.86 328.606C225.046 328.584 225.216 328.504 225.352 328.39L227.319 326.796C227.745 326.449 227.822 325.83 227.484 325.406L224.429 321.433ZM342.764 264.812L343.814 264.777C346.471 264.695 348.498 262.424 347.579 260.565L342.206 249.766C341.967 249.277 341.915 248.715 342.076 248.17L343.095 244.619C343.331 243.801 343.116 242.988 342.509 242.393L340.762 240.698C339.707 239.679 337.746 239.548 336.162 240.389L329.514 243.912C328.757 244.322 327.874 244.513 327.022 244.46C324.359 244.289 322.001 246.502 322.756 248.487L325.282 255.108L326.583 258.521C326.642 258.646 326.668 258.776 326.696 258.917L328.007 266.551C328.341 268.492 331.137 269.258 333.353 268.011L337.812 265.499C338.474 265.128 339.238 264.92 339.989 264.896L342.764 264.812ZM252.794 233.263C252.167 231.383 251.253 229.573 250.138 227.853C245.664 220.886 238.085 215.42 234.264 212.944C233.005 212.133 231.323 212.562 230.611 213.878C230.008 215.001 230.309 216.39 231.33 217.153C235.216 220.03 244.219 227.378 246.79 235.301C246.953 235.8 247.084 236.296 247.194 236.786C247.882 239.953 247.643 243.503 247.025 246.959C245.588 255.223 242.042 262.979 244.04 263.837C245.943 264.655 251.122 256.107 253.028 246.664C253.968 242.087 254.136 237.297 252.794 233.263ZM335.079 231.578C335.951 231.893 336.897 231.922 337.785 231.667L342.868 230.204C344.833 229.638 346.161 227.804 346.074 225.756L345.995 223.695L345.931 222.068C345.871 220.551 345.047 219.174 343.736 218.41L339.308 215.829C335.635 213.68 336.795 208.094 341.016 207.581L341.4 207.538C341.636 207.513 341.867 207.454 342.091 207.39C342.577 207.25 343.037 207.035 343.445 206.745C345.237 205.472 345.746 203.19 344.938 201.35C344.668 200.713 344.231 200.12 343.637 199.652L343.291 199.378L340.162 196.895C339.83 196.626 339.458 196.411 339.069 196.248L323.64 190.008C322.334 189.477 320.859 189.591 319.663 190.332L311.751 195.137C310.322 196.008 308.512 195.995 307.096 195.111L305.233 193.959C303.087 192.626 300.251 193.356 299.008 195.57L294.732 203.242C294.365 203.89 294.175 204.608 294.169 205.324C294.149 206.59 294.668 207.849 295.674 208.738L298.117 210.884C299.939 212.495 300.14 215.268 298.555 217.113L296.331 219.708L293.273 223.269C292.555 224.116 292.174 225.207 292.208 226.32L292.342 229.826C292.436 232.499 294.842 234.476 297.482 234.061L307.756 232.416C308.708 232.271 309.571 231.819 310.231 231.138C310.449 230.903 310.656 230.651 310.83 230.369L312.677 227.392C313.767 225.614 315.96 224.846 317.933 225.538L335.079 231.578ZM246.88 201.313C246.045 200.647 245.045 200.475 244.146 200.734C243.436 200.939 242.795 201.413 242.373 202.143C241.58 203.545 241.868 205.394 243.061 206.495C247.388 210.47 257.159 220.25 260.363 230.347C260.73 231.513 261.013 232.672 261.187 233.838C261.886 238.379 261.252 243.378 260.166 248.142C257.841 258.369 253.449 267.535 255.742 268.818C258.253 270.231 266.394 256.975 268.523 243.26C269.238 238.654 269.279 234.006 268.209 229.839C267.998 229.025 267.754 228.219 267.471 227.426C263.383 215.704 252.146 205.576 246.88 201.313ZM283.832 216.106C279.402 204.396 266.85 194.894 261.186 191.076C260.431 190.567 259.574 190.441 258.824 190.657C258.063 190.876 257.409 191.429 257.051 192.258C256.439 193.663 256.888 195.402 258.123 196.35C262.969 200.082 274.524 209.828 277.579 220.183C277.646 220.419 277.717 220.665 277.774 220.904C278.965 225.558 278.734 230.881 278.049 235.894C276.776 245.379 273.903 253.809 276.078 254.808C277.821 255.586 281.405 249.366 283.645 241.043C285.729 233.362 286.671 223.898 283.969 216.471C283.921 216.348 283.876 216.231 283.832 216.106Z" fill="#F2E6D3"/>
<path d="M125.461 253.315C124.465 254.041 123.602 254.941 122.935 256.008L122.313 256.996C122.174 257.114 122.043 257.246 121.944 257.393L121.729 257.71C121.101 258.609 119.805 258.715 118.91 257.912C118.272 257.358 117.697 256.778 117.085 256.208C116.374 255.526 116.247 254.483 116.735 253.722C117.427 252.636 118.144 251.566 118.873 250.5C119.75 249.212 120.645 247.941 121.551 246.699C121.684 246.873 121.76 247.098 121.725 247.344L120.915 252.916C120.807 253.661 121.677 254.16 122.262 253.67L123.455 252.687C123.742 252.455 124.14 252.435 124.446 252.637L125.461 253.315ZM162.364 270.611C162.304 270.294 162.155 269.995 161.941 269.727L157.009 263.736C156.715 263.381 156.545 262.939 156.531 262.484L156.264 255.46C156.254 255.314 156.232 255.171 156.193 255.033C155.798 254.656 155.331 254.48 154.921 254.543C154.181 254.619 153.815 255.458 154.028 256.488L154.226 257.405C154.266 257.585 154.281 257.773 154.275 257.944C154.209 259.16 154.073 260.436 153.844 261.644C153.755 262.152 153.847 262.691 154.111 263.129C155.04 264.613 156.078 266.022 157.194 267.376C158.016 268.38 158.924 269.379 159.811 270.321C160.381 270.922 161.466 271.05 162.364 270.611ZM184.641 324.555L181.959 324.4C181.906 324.392 181.861 324.386 181.818 324.386L179.8 324.06C179.614 324.039 179.4 324.046 179.222 324.097C179.976 324.52 180.785 325.068 181.174 325.341C181.333 325.456 181.523 325.519 181.718 325.526L184.505 325.705C185.018 325.742 185.475 325.406 185.6 324.911L185.812 324.081C185.526 324.398 185.101 324.584 184.641 324.555ZM188.141 312.616L183.548 313.145C183.434 313.158 183.307 313.194 183.203 313.244L177.919 315.887C177.226 316.236 176.414 315.744 176.391 314.969L176.303 310.052C176.288 309.417 175.736 308.944 175.109 309.03C174.019 309.171 172.307 309.385 170.483 309.58L171.36 311.891C171.402 311.997 171.43 312.095 171.443 312.208L172.532 318.486C172.8 320.085 175.097 320.715 176.917 319.689L180.587 317.628C181.131 317.322 181.751 317.144 182.377 317.124L185.522 317.032C187.706 316.968 189.378 315.098 188.619 313.565L188.141 312.616ZM133.238 263.111L132.01 265.227C131.743 265.677 131.133 265.778 130.735 265.433L129.371 264.225C129.184 264.054 129.084 263.816 129.096 263.558L129.418 257.707C129.058 257.971 128.684 258.24 128.311 258.496L127.435 259.121C127.215 259.259 127.069 259.486 126.992 259.739C126.551 261.397 126.183 263.093 125.888 264.822C125.766 265.435 126.223 266.123 126.92 266.319C128.19 266.723 129.5 267.049 130.796 267.351C131.135 267.422 131.448 267.611 131.682 267.865L131.806 268.01C132.428 268.75 133.615 268.687 133.934 267.943C134.584 266.559 135.252 265.17 135.923 263.791L134.395 262.821C134.002 262.574 133.474 262.702 133.238 263.111ZM141.792 264.912C141.53 265.38 141.259 265.843 140.977 266.309L140.41 267.23C140.281 267.451 140.216 267.713 140.271 267.976C140.608 269.705 141.099 271.412 141.753 273.124C141.967 273.757 142.847 274.143 143.644 274.02C144.375 273.927 145.205 273.755 145.987 273.581C146.059 273.572 146.128 273.552 146.196 273.533C145.503 271.683 144.391 269.715 144.391 269.715L141.792 264.912ZM182.957 328.278L175.82 326.788C175.752 326.772 175.686 326.771 175.621 326.766C175.647 326.857 175.689 326.931 175.733 327.005L177.016 329.156C177.309 329.656 177.285 330.283 176.938 330.756L176.382 331.524L179.552 330.848C179.65 330.82 179.746 330.815 179.844 330.827L182.329 330.991C182.742 331.021 183.133 330.81 183.326 330.445L183.677 329.81C184.013 329.191 183.65 328.42 182.957 328.278ZM212.333 284.644C211.941 284.726 211.604 284.96 211.378 285.292L209.483 288.283C209.096 288.877 208.347 289.124 207.684 288.867L203.599 287.288C203.408 287.225 203.252 287.121 203.103 286.983L194.766 279.063C194.325 278.648 194.184 278.006 194.416 277.436L198.107 268.139C198.424 267.345 198.002 266.438 197.188 266.174L193.575 264.98C193.056 264.8 192.474 264.932 192.073 265.326L187.036 270.206C188.419 269.816 190.022 270.788 190.039 272.47L190.099 286.345C190.105 287.144 190.513 287.894 191.188 288.316L206.315 296.288C207.088 296.78 208.083 296.784 208.849 296.297L219.969 289.23C220.992 288.582 221.357 287.26 220.8 286.172L220.248 282.998L212.333 284.644ZM173.367 258.718C173.213 258.526 173.024 258.345 172.813 258.214L168.053 255.219C167.49 254.855 167.136 254.254 167.092 253.584C167.002 252.083 166.837 249.288 166.709 247.166C166.482 247.126 166.262 247.138 166.055 247.197C165.169 247.46 164.733 248.441 165.071 249.424L165.374 250.329C165.436 250.504 165.466 250.688 165.477 250.877C165.527 252.154 165.549 253.419 165.538 254.69C165.54 255.216 165.741 255.723 166.102 256.09C167.326 257.328 168.595 258.545 169.883 259.72C170.828 260.591 171.792 261.456 172.764 262.31C173.448 262.902 174.499 262.91 175.255 262.319C175.371 262.231 175.483 262.144 175.597 262.048C175.554 261.75 175.424 261.447 175.22 261.187L173.367 258.718ZM205.971 229.684L205.234 229.715L199.179 229.868C198.73 229.88 198.288 229.748 197.927 229.502L194.274 226.942C194.21 226.898 194.141 226.851 194.07 226.821L191.122 225.224L191.042 225.18L192.482 229.283C192.68 229.835 193.099 230.28 193.628 230.524L198.983 232.912L202.932 234.672C203.839 235.082 204.892 234.799 205.451 233.998L206.855 231.937C207.28 231.325 207.311 230.546 206.989 229.905C206.684 229.745 206.342 229.663 205.971 229.684ZM212.067 307.873C211.766 307.767 211.458 307.761 211.161 307.847C210.834 307.941 210.535 308.156 210.332 308.458C209.476 309.753 207.451 309.032 207.608 307.492L207.656 307.03C207.705 306.49 207.463 305.951 207.01 305.646L200.899 301.489C200.659 301.323 200.377 301.231 200.09 301.228L200.333 303.968C200.353 304.229 200.416 304.49 200.52 304.727L204.421 314.313C205.036 315.823 206.862 316.409 208.247 315.551L211.493 313.529C211.872 313.291 212.304 313.155 212.743 313.126L215.08 313.007C216.712 312.922 217.852 311.389 217.507 309.82C217.464 309.781 217.416 309.764 217.368 309.746L212.067 307.873ZM212.817 319.727L208.597 320.365C208.155 320.425 207.807 320.773 207.743 321.219L207.07 326.013C207.168 326.052 207.275 326.084 207.388 326.106L209.881 326.531C210.445 326.636 211.008 326.399 211.346 325.936L213.954 322.313C214.449 321.617 214.267 320.644 213.547 320.188L212.817 319.727ZM185.381 253.136C185.587 252.583 185.79 252.033 185.986 251.486C185.792 251.032 185.446 250.649 184.973 250.424L178.24 247.105C177.805 246.889 177.469 246.538 177.266 246.094L174.021 238.911C174.004 238.853 173.979 238.805 173.962 238.747L173.955 238.749L173.606 238.956C173.106 239.249 172.957 239.892 173.262 240.432L173.932 241.574C174.177 242.018 174.126 242.535 173.796 242.873C173.44 243.235 173.391 243.814 173.689 244.25C175.129 246.431 176.537 248.62 177.943 250.834L178.527 251.745C178.653 251.964 178.861 252.128 179.111 252.217C180.714 252.768 182.322 253.31 183.949 253.835C184.528 254.033 185.162 253.71 185.381 253.136ZM171.718 300.33C170.414 300.246 169.21 300.848 168.567 301.696L173.491 304.145C174.039 304.411 174.703 304.169 174.936 303.6L176.097 300.734C176.195 300.513 176.199 300.269 176.133 300.04L175.782 298.819L173.773 299.887C173.142 300.218 172.417 300.372 171.718 300.33ZM215.948 219.315L215.383 219.725C214.813 220.156 214.071 220.252 213.41 220.002L207.195 217.638C206.742 217.47 206.357 217.141 206.116 216.712L203.248 211.575C202.857 210.886 202.111 210.473 201.32 210.509C200.611 210.54 199.688 210.594 198.719 210.649L200.505 215.956C200.762 216.671 201.295 217.255 201.971 217.559L208.813 220.697L213.842 223.03C215.017 223.579 216.364 223.242 217.074 222.229L218.885 219.686L218.473 219.358C217.734 218.769 216.706 218.755 215.948 219.315ZM63.9552 170.87C64.457 170.458 65.0097 170.115 65.6005 169.862L82.8628 162.138C84.6158 161.355 85.9892 159.935 86.7314 158.163L87.6205 156.015C88.3766 154.196 88.3887 152.152 87.6479 150.328L87.5057 149.984L81.591 152.891C81.108 153.136 80.7804 153.607 80.7343 154.143L80.4313 157.7C80.395 158.201 80.1078 158.649 79.6663 158.901L73.3699 162.488C73.344 162.507 73.315 162.515 73.2881 162.531L64.6685 166.774C64.6395 166.783 64.61 166.803 64.581 166.811L59.1759 169.894C58.8726 170.067 58.509 170.141 58.1586 170.069L55.5602 169.619C55.1119 169.548 54.6448 169.671 54.3008 169.962L51.6346 172.237C51.0298 172.741 50.137 172.707 49.5592 172.159L48.3258 170.956C48.734 171.992 49.3872 172.966 50.2816 173.769C53.0206 176.234 57.1443 176.351 60.0161 174.041L63.9552 170.87ZM75.9231 174.141C75.6683 174.183 75.4332 174.294 75.219 174.45L70.1722 178.478C69.8101 178.774 69.315 178.881 68.8588 178.769L64.681 177.769C64.5105 177.736 64.3332 177.72 64.169 177.736L62.993 177.851C62.475 177.906 62.031 177.7 61.7278 177.383L60.9259 177.72C59.7987 178.182 59.6214 179.72 60.6161 180.435C60.8594 180.612 61.1467 180.71 61.4504 180.729L70.2791 181.222C70.6398 181.248 71.0023 181.143 71.291 180.919L76.936 176.774C77.2108 176.57 77.4149 176.283 77.5111 175.949L77.6892 175.341C77.6918 175.308 77.6803 175.269 77.6719 175.24C77.4706 174.54 76.7783 173.989 75.9231 174.141ZM114.277 243.219C114.271 242.899 114.09 242.609 113.806 242.467L110.707 240.988C110.446 240.859 110.272 240.623 110.238 240.354L108.793 242.018C108.208 242.7 108.191 243.718 108.778 244.46L110.281 246.3C111.019 247.187 112.285 247.25 113.055 246.475L113.327 246.193C113.453 246.07 113.6 245.953 113.755 245.865L114.266 245.593L114.277 243.219ZM305.788 175.794C306.718 175.985 307.617 176.284 308.537 176.51C308.701 176.561 308.866 176.576 309.025 176.582C308.563 175.521 308.049 174.268 307.698 173.376C307.414 172.649 307.548 171.817 308.049 171.214L309.816 169.073C310.566 168.162 310.457 166.815 309.562 166.049L306.657 163.552C306.002 162.995 305.209 162.913 304.545 163.159C304.507 164.771 304.441 166.368 304.379 167.968C304.304 169.752 304.204 171.52 304.084 173.297C304.002 174.526 304.707 175.571 305.788 175.794ZM186.13 241.078L186.766 241.951C186.914 242.164 187.131 242.317 187.377 242.395L188.379 242.684C188.71 242.322 188.909 241.825 188.889 241.265L188.876 240.853C188.869 240.309 188.633 239.789 188.238 239.412L184.696 236.011C184.492 235.822 184.325 235.584 184.219 235.324L181.614 229.165L181.305 229.36C180.811 229.687 180.673 230.354 181.002 230.868L181.712 231.999C181.965 232.428 181.926 232.961 181.602 233.322C181.266 233.709 181.231 234.296 181.555 234.713L186.13 241.078ZM165.578 287.561L167.102 294.385C167.611 296.672 170.364 297.289 172.903 295.675L174.357 294.754C174.43 294.709 174.501 294.669 174.575 294.625L173.789 291.895C173.304 290.209 172.179 288.865 170.746 288.072C169.322 287.285 167.594 287.036 165.897 287.525C165.789 287.556 165.684 287.562 165.578 287.561ZM100.749 216.824C101.13 216.169 100.525 215.405 99.8038 215.613L98.0457 216.119C97.81 216.186 97.5612 216.14 97.3755 216.013L95.6916 217.95C95.2966 218.405 95.341 219.119 95.8004 219.528L98.3028 221.799L98.3496 221.103C98.3691 220.979 98.3958 220.854 98.4577 220.742L100.749 216.824ZM106.911 236.707L108.928 234.549L108.638 231.276C108.627 231.13 108.656 230.972 108.726 230.834L109.755 228.776C109.942 228.416 109.835 227.976 109.512 227.739L107.475 226.229L106.517 226.473L105.473 226.731C105.224 226.794 105 226.941 104.832 227.15C103.795 228.485 102.774 229.835 101.76 231.206C101.384 231.687 101.482 232.397 101.969 232.791L104.715 234.98C104.952 235.179 105.104 235.445 105.157 235.74L105.182 235.894C105.313 236.719 106.216 237.154 106.911 236.707ZM90.4452 197.867L90.7817 197.672C90.9385 197.576 91.1099 197.503 91.2766 197.455L92.7412 197.088L93.7532 193.881C93.8547 193.565 93.7545 193.217 93.5007 193.003L90.6814 190.6C90.6357 190.55 90.5813 190.511 90.5428 190.459L90.5268 190.472L87.4072 192.739C86.6833 193.266 86.4443 194.222 86.8261 195.03L87.8141 197.085C88.301 198.068 89.5136 198.422 90.4452 197.867ZM95.0958 210.507L95.4306 210.292C95.5698 210.19 95.7412 210.117 95.9084 210.057L96.8398 209.365C97.1771 209.119 97.527 208.888 97.896 208.684L98.0941 207.968C98.1075 207.932 98.1085 207.908 98.1142 207.887L98.8989 203.453C98.9845 203.001 98.6883 202.572 98.2369 202.49L96.1676 202.092L94.8747 203.096L91.8554 205.481C91.1482 206.037 90.9392 207.016 91.3578 207.802L92.4436 209.829C92.9673 210.789 94.1866 211.098 95.0958 210.507ZM85.2107 186.035L85.2053 186.194C85.1619 187.011 85.9568 187.591 86.7272 187.294L88.6092 185.964L87.8481 184.165C87.6805 183.774 87.2517 183.579 86.8565 183.693C86.2258 183.875 85.6526 183.302 85.8255 182.675L86.2644 181.076C86.4084 180.54 86.01 180.015 85.4592 180.025L83.8902 180.029L82.7539 181.058C82.3059 181.466 82.2622 182.173 82.6621 182.635L84.9351 185.227C85.1309 185.458 85.2242 185.741 85.2107 186.035ZM287.242 175.581C288.665 175.18 290.084 174.912 291.515 174.65C291.893 174.584 292.252 174.685 292.551 174.905L292.705 175.033C293.515 175.664 294.709 175.163 294.985 174.048C294.994 172.742 294.981 171.43 294.954 170.123C294.624 169.931 294.231 169.833 293.821 169.853L289.207 170.081C288.509 170.11 287.849 169.821 287.415 169.282L285.7 167.181C285.335 166.733 284.845 166.477 284.322 166.404L284.249 166.586C284.104 166.903 284.071 167.277 284.155 167.638C284.696 169.927 285.178 172.203 285.621 174.478C285.779 175.284 286.485 175.775 287.242 175.581ZM384.188 213.805L382.786 212.807L380.237 210.958C380.085 210.841 379.931 210.756 379.755 210.689L378.344 210.137L377.52 211.803L375.82 215.252C375.418 216.039 375.627 216.995 376.321 217.51L378.106 218.845C378.959 219.475 380.183 219.241 380.774 218.321L380.989 217.992C381.074 217.838 381.205 217.706 381.331 217.583L381.906 216.566C382.496 215.509 383.273 214.567 384.188 213.805ZM393.227 225.052C392.575 225.24 391.877 225.123 391.331 224.711L390.367 223.995C389.863 223.618 389.543 223.027 389.508 222.386L389.35 219.601C389.321 219.131 389.136 218.681 388.828 218.319L388.429 217.86L387.126 218.746L386.233 219.356C386.028 219.501 385.866 219.717 385.788 219.963L384.244 224.8C384.056 225.376 384.373 225.999 384.952 226.197L388.223 227.305C388.496 227.407 388.723 227.597 388.872 227.856L388.943 227.993C389.327 228.726 390.32 228.837 390.836 228.186L393.444 225.002C393.372 225.011 393.296 225.033 393.227 225.052ZM331.403 173.442L328.656 176.038C327.924 176.728 326.905 176.786 326.133 176.368L325.489 179.874C325.255 181.064 325.818 182.217 326.852 182.646L329.527 183.701C330.793 184.2 332.341 183.413 332.854 182.006L333.037 181.494C333.12 181.266 333.234 181.033 333.38 180.83L333.821 179.282C334.314 177.57 335.1 175.966 336.16 174.562L334.068 173.197C333.228 172.65 332.124 172.756 331.403 173.442ZM348.806 182.423C348.049 181.828 346.983 181.806 346.2 182.384L345.23 183.091C344.106 183.906 342.504 183.468 341.965 182.182L341.173 180.318C341.029 180.485 340.932 180.705 340.9 180.938C340.673 182.672 340.423 184.365 340.123 186.108C340.015 186.728 340.389 187.291 340.977 187.369L344.314 187.861C344.605 187.903 344.834 188.073 344.991 188.318L345.083 188.448C345.503 189.128 346.489 189.104 346.952 188.382L350.2 183.518L348.806 182.423ZM357.764 188.155C357.278 188.538 356.794 188.944 356.323 189.339L355.457 190.055C355.253 190.232 355.108 190.466 355.044 190.732C354.643 192.449 354.233 194.149 353.801 195.839C353.645 196.441 353.985 197.038 354.569 197.169L357.877 198.011C358.155 198.091 358.393 198.278 358.539 198.526L358.61 198.663C358.996 199.376 359.993 199.419 360.522 198.733L362.165 194.908L357.886 188.32C357.851 188.267 357.81 188.205 357.764 188.155ZM405.259 230.743L405.151 230.668C404.227 230.047 402.977 230.234 402.273 231.1L401.634 231.881C400.619 233.115 398.672 232.882 397.991 231.445L396.791 228.898L396.659 228.999C396.457 229.155 396.306 229.367 396.238 229.622C395.817 231.27 395.404 232.916 395.01 234.588C394.847 235.181 395.25 235.803 395.855 235.97L399.293 236.923C399.585 237.008 399.838 237.194 400.019 237.441L400.109 237.576C400.58 238.284 401.617 238.327 402.061 237.634C402.545 236.125 403.036 234.637 403.558 233.152C403.889 232.213 404.482 231.383 405.259 230.743ZM373.282 203.68C373.151 203.416 372.98 203.19 372.763 202.994L369.435 200.077C369.378 200.031 369.338 199.999 369.283 199.96L367.977 202.856L366.371 206.329C365.993 207.132 366.221 208.072 366.909 208.569L368.679 209.822C369.535 210.408 370.739 210.147 371.319 209.23L371.532 208.891C371.62 208.747 371.741 208.607 371.875 208.486L374.471 206.145L373.282 203.68ZM460.354 244.841C459.718 244.266 458.939 243.485 458.231 242.771C457.257 241.759 455.597 241.939 454.851 243.123C454.539 243.609 454.213 244.139 453.863 244.668C454.33 245.581 454.815 246.49 455.302 247.405L456.832 250.156C457.195 250.79 457.998 251.124 458.725 250.84L460.587 250.179C461.476 249.856 461.875 248.897 461.485 248.103L461.347 247.813C461.28 247.691 461.238 247.546 461.209 247.401L460.845 245.17C460.67 245.079 460.5 244.979 460.354 244.841ZM470.318 243.264C470.253 243.189 470.204 243.085 470.167 242.998L469.753 242.489C469.654 242.376 469.567 242.252 469.488 242.125L466.073 243.666C466.503 244.233 466.948 244.811 467.404 245.387C467.719 245.786 468.307 245.892 468.801 245.644C469.211 245.432 469.633 245.236 470.045 244.988C470.622 244.661 470.802 243.949 470.444 243.444L470.318 243.264ZM413.202 238.742L411.959 239.099C410.686 239.466 409.381 238.613 409.208 237.304L408.778 233.982C408.746 233.732 408.674 233.509 408.557 233.295C408.065 234.846 407.6 236.421 407.145 238.004C406.801 239.249 406.465 240.496 406.154 241.763C405.932 242.628 406.355 243.605 407.284 244.009L409.588 245.046C410.685 245.543 411.886 245.012 412.186 243.968L412.299 243.582C412.339 243.422 412.415 243.251 412.511 243.093L414.639 239.875L415.311 238.826L414.058 238.676C413.77 238.641 413.478 238.662 413.202 238.742ZM473.782 240.187C474.008 240.346 474.242 240.49 474.488 240.635C474.684 240.759 474.972 240.696 475.129 240.49C475.419 240.12 475.694 239.711 475.961 239.332C476.027 239.231 476.135 239.156 476.248 239.112L476.309 239.094C476.396 239.069 476.468 239.017 476.525 238.958L473.782 240.187ZM446.255 245.554L445.73 245.705C444.726 245.994 444.071 246.952 444.177 247.989L444.44 250.649L442.813 247.71C442.255 246.698 441.011 246.306 439.971 246.809L439.765 246.912C439.689 247.467 439.6 248.015 439.517 248.573L439.356 249.581C439.325 249.802 439.367 250.057 439.491 250.268C440.289 251.664 441.115 253.047 441.96 254.429C442.253 254.929 442.925 255.109 443.456 254.799L446.398 253.116C446.65 252.981 446.948 252.938 447.22 252.997L447.381 253.038C448.157 253.211 448.862 252.58 448.708 251.812C448.034 250.479 447.381 249.139 446.743 247.808C446.407 247.092 446.242 246.327 446.255 245.554ZM425.652 244.917L425.053 242.836C424.872 242.205 424.401 241.689 423.795 241.436L423.723 241.405C423.46 242.388 423.176 243.364 422.871 244.351L422.594 245.243C422.526 245.443 422.538 245.676 422.63 245.885C422.925 246.569 423.237 247.245 423.571 247.93C423.896 248.606 424.289 249.305 424.58 249.947C424.802 250.417 425.397 250.631 425.899 250.412L428.702 249.197C428.951 249.094 429.206 249.095 429.452 249.173L429.584 249.222C430.274 249.463 430.973 248.959 430.907 248.252L430.691 245.241L428.708 246.247C427.496 246.863 426.03 246.229 425.652 244.917ZM237.765 189.499L236.442 184.903C236.275 184.323 235.821 183.865 235.227 183.694L230.5 182.342C229.884 182.166 229.447 181.684 229.285 181.122C229.161 180.69 229.203 180.207 229.439 179.774C229.977 178.819 229.521 177.603 228.486 177.242L225.883 176.323L226.259 177.263C226.362 177.512 226.431 177.778 226.451 178.04C226.601 179.896 226.783 181.756 226.984 183.601C227.069 184.346 227.467 185.021 228.053 185.461C230.051 186.946 232.023 188.451 233.977 189.962L238.267 193.371C239.257 194.165 240.575 194.19 241.444 193.418C241.785 193.116 242.127 192.817 242.471 192.526L238.663 190.587C238.225 190.36 237.902 189.974 237.765 189.499ZM260.363 230.347C260.73 231.513 261.013 232.672 261.187 233.839C261.886 238.379 261.252 243.378 260.166 248.142L260.631 248.244C261.222 248.36 261.835 248.227 262.323 247.875L268.523 243.26C269.239 238.654 269.279 234.006 268.209 229.839C267.998 229.025 267.755 228.219 267.471 227.426L260.363 230.347ZM257.978 179.698C257.608 179.572 257.211 179.557 256.845 179.663C256.45 179.776 256.094 180.028 255.855 180.383C255.126 181.449 253.55 181.431 252.847 180.366L250.75 177.197C250.618 176.999 250.525 176.783 250.477 176.549L249.342 170.929C249.195 170.159 249.55 169.386 250.227 168.998L250.587 168.789C251.486 168.283 251.771 167.121 251.224 166.254L248.512 161.92C248.293 162.195 248.161 162.555 248.169 162.925L248.241 164.84C248.246 165.565 247.799 166.235 247.092 166.493C246.349 166.762 245.877 167.507 245.996 168.249C246.504 171.95 247.08 175.616 247.726 179.308L247.993 180.833C248.06 181.174 248.245 181.518 248.51 181.771C250.225 183.393 251.924 185.095 253.569 186.8C254.149 187.41 255.034 187.446 255.573 186.863C256.578 185.785 257.628 184.756 258.699 183.69C258.976 183.426 259.336 183.271 259.716 183.323L259.913 183.341C260.62 183.424 261.183 182.964 261.357 182.313L261.365 182.303C261.394 181.544 260.953 180.788 260.164 180.501L257.978 179.698ZM227.267 208.862L228.036 206.964C227.454 206.127 226.489 205.53 225.343 205.475L224.886 205.457C224.344 205.429 223.812 205.283 223.338 205.015L220.53 203.429C219.61 202.893 218.97 201.978 218.816 200.924L218.016 195.431C217.755 193.637 216.15 192.356 214.346 192.483L211.929 192.653C211.855 192.953 211.697 193.222 211.461 193.439C210.905 193.964 210.776 194.81 211.176 195.464L216.973 205.022L217.79 206.333C217.982 206.632 218.265 206.88 218.614 207.015L225.306 209.658C226.096 209.988 226.963 209.632 227.267 208.862ZM234.588 233.153L229.806 233.654C229.734 233.663 229.662 233.672 229.593 233.691C231.879 236.955 233.958 240.757 234.305 244.158C234.437 245.435 234.508 246.718 234.554 247.953C235.845 249.14 237.499 250.619 238.727 251.612C238.971 246.961 238.606 241.425 237.304 237.392C236.845 235.973 236.221 234.583 235.485 233.256C235.198 233.158 234.9 233.118 234.588 233.153ZM283.832 216.106C283.141 215.858 282.316 215.966 281.704 216.515L277.579 220.183C277.647 220.419 277.718 220.665 277.774 220.904C278.965 225.558 278.734 230.881 278.05 235.894C278.845 235.685 279.746 235.951 280.264 236.646L283.645 241.043C285.729 233.362 286.671 223.898 283.969 216.471C283.921 216.348 283.876 216.231 283.832 216.106ZM250.13 227.867L246.79 235.301C246.953 235.8 247.084 236.296 247.194 236.786C247.882 239.953 247.644 243.503 247.025 246.959C247.42 246.696 247.768 246.458 248.043 246.269C248.51 245.954 249.097 245.84 249.653 245.955L253.028 246.664C253.968 242.087 254.136 237.297 252.794 233.263C252.167 231.383 251.253 229.573 250.138 227.853L250.13 227.867ZM342.764 264.812L342.334 261.572C342.045 259.339 339.834 257.891 337.673 258.513L336.013 258.991C334.23 259.504 332.335 258.609 331.606 256.895L331.329 256.217C330.245 253.68 327.014 253.295 325.282 255.108L326.583 258.522C326.642 258.646 326.668 258.776 326.697 258.917L328.007 266.551C328.342 268.492 331.137 269.258 333.353 268.011L337.812 265.5C338.474 265.128 339.239 264.92 339.989 264.896L342.764 264.812ZM330.889 224.329L325.538 217.057C324.623 215.817 323.04 215.279 321.557 215.706L314.445 217.753C313.064 218.15 312.039 219.309 311.819 220.726L310.231 231.138C310.449 230.903 310.656 230.651 310.83 230.369L312.677 227.392C313.767 225.614 315.96 224.846 317.934 225.538L335.079 231.578C335.952 231.896 336.897 231.922 337.786 231.667L342.868 230.204C344.833 229.638 346.161 227.804 346.074 225.756L345.995 223.695L334.509 225.764C333.124 226.013 331.727 225.454 330.889 224.329ZM271.731 172.846L271.384 173.237C270.394 174.354 268.594 174.154 267.868 172.859L266.536 170.455C266.439 170.267 266.306 170.106 266.159 169.963C265.934 169.741 265.547 169.362 265.073 168.902C264.698 168.527 264.26 168.343 263.817 168.29C264.377 169.676 264.924 171.057 265.441 172.447C266.081 174.151 266.698 175.845 267.28 177.566C267.698 178.761 268.753 179.493 269.852 179.303C270.788 179.143 271.719 178.958 272.695 178.869C274.066 178.722 275.039 177.276 274.777 175.738L274.683 175.192C274.636 174.947 274.623 174.683 274.645 174.434L274.257 172.826C274.199 172.584 274.156 172.353 274.105 172.108L273.349 172.114C272.728 172.112 272.141 172.375 271.731 172.846ZM352.494 271.409L349.476 272.694C349.418 272.71 349.374 272.735 349.312 272.753L346.951 273.495C346.693 273.569 346.464 273.698 346.284 273.879L343.872 276.081C343.008 276.871 343.121 278.26 344.103 278.888L346.663 280.541C347.255 280.936 347.561 281.629 347.453 282.332L346.345 289.025C346.144 290.249 347.225 291.304 348.449 291.058L350.927 290.568C351.15 290.527 351.358 290.444 351.552 290.326L356.643 287.054L351.767 284.541C350.271 283.762 349.49 282.087 349.864 280.452L349.953 280.066C350.12 279.311 350.525 278.629 351.105 278.121L353.143 276.337C353.92 275.654 354.375 274.671 354.395 273.637L354.405 272.814C354.428 271.814 354.063 270.957 353.481 270.312C353.344 270.791 352.989 271.192 352.494 271.409ZM320.828 265.328C320.869 265.359 320.868 265.273 320.822 265.114C320.788 265.229 320.801 265.3 320.828 265.328ZM299.059 205.059C298.049 204.25 296.825 204.092 295.76 204.399C295.158 204.572 294.609 204.887 294.169 205.324C294.149 206.59 294.668 207.849 295.674 208.738L298.117 210.884C299.939 212.495 300.14 215.268 298.555 217.113L296.331 219.708L297.134 219.936C298.949 220.458 300.867 219.513 301.572 217.76L303.791 212.187C304.393 210.679 303.94 208.953 302.678 207.939L299.059 205.059Z" fill="#DAC1AF"/>
</svg>
