<svg width="1440" height="307" viewBox="0 0 1440 307" fill="none" xmlns="http://www.w3.org/2000/svg">
<mask id="mask0_71_569" style="mask-type:alpha" maskUnits="userSpaceOnUse" x="-43" y="93" width="1549" height="195">
<mask id="mask1_71_569" style="mask-type:luminance" maskUnits="userSpaceOnUse" x="-43" y="0" width="1549" height="307">
<path d="M-30.9547 0L1505.28 82.6686L1493.26 306.111L-42.9787 223.442L-30.9547 0Z" fill="white"/>
</mask>
<g mask="url(#mask1_71_569)">
<path fill-rule="evenodd" clip-rule="evenodd" d="M-104.015 120.244C-74.8391 123.719 -31.5433 120.105 4.40441 124.805C55.6586 131.508 92.597 147.959 143.018 155.549C170.493 159.684 454.3 173.051 487.881 172.687C579.635 171.685 604.795 151.128 697.74 152.52C749.826 153.301 821.574 175.947 869.043 183.122C949.918 195.352 1049.62 163.014 1129.21 158.509C1200.52 154.468 1306.32 162.596 1378.17 165.467C1529.03 171.493 1553.96 181.723 1624.46 172.022C1668.85 165.913 1706.44 79.0932 1714.33 96.0482C1723.06 114.758 1703.52 136.555 1691.71 153.592C1680.67 169.457 1671.38 275.276 1644.23 285.172C1596.67 302.49 1260.88 213.975 1166.18 222.111C1064.77 230.825 915.389 296.225 725.494 258.105C546.509 222.175 487.511 239.111 283.581 234.324C74.2239 229.407 13.134 220.616 -135.263 185.641C-214.078 167.064 -280.494 232.327 -307.851 197.197C-325.441 174.592 -104.015 120.244 -104.015 120.244Z" fill="#27A6D3"/>
</g>
<mask id="mask2_71_569" style="mask-type:luminance" maskUnits="userSpaceOnUse" x="1193" y="158" width="308" height="35">
<path d="M1194.78 158.288L1500.33 174.731L1499.35 192.951L1193.8 176.509L1194.78 158.288Z" fill="white"/>
</mask>
<g mask="url(#mask2_71_569)">
<mask id="mask3_71_569" style="mask-type:luminance" maskUnits="userSpaceOnUse" x="-309" y="93" width="2026" height="195">
<path fill-rule="evenodd" clip-rule="evenodd" d="M-104.015 120.244C-74.8391 123.719 -31.5433 120.105 4.41483 124.805C55.6586 131.508 92.597 147.959 143.018 155.549C170.493 159.684 454.3 173.051 487.881 172.687C579.635 171.685 604.795 151.128 697.74 152.52C749.826 153.301 821.574 175.947 869.043 183.122C949.918 195.352 1049.62 163.014 1129.21 158.509C1200.52 154.468 1306.32 162.596 1378.17 165.467C1529.03 171.493 1553.96 181.723 1624.46 172.022C1668.85 165.913 1706.44 79.0932 1714.33 96.0482C1723.06 114.758 1703.52 136.555 1691.71 153.592C1680.67 169.457 1671.38 275.276 1644.23 285.172C1596.67 302.49 1260.88 213.975 1166.18 222.111C1064.77 230.825 915.389 296.225 725.494 258.105C546.509 222.175 487.511 239.111 283.581 234.324C74.2239 229.407 13.134 220.616 -135.263 185.641C-214.078 167.064 -280.494 232.327 -307.851 197.197C-325.441 174.592 -104.015 120.244 -104.015 120.244Z" fill="white"/>
</mask>
<g mask="url(#mask3_71_569)">
<path fill-rule="evenodd" clip-rule="evenodd" d="M1547.3 178.258C1550.42 178.655 1540.84 178.064 1537.64 178.031C1531.52 177.972 1525.39 177.837 1519.23 177.656C1499.37 177.072 1479.64 175.86 1459.78 174.626C1400.23 170.937 1338.1 165.317 1278.91 165.693C1260.14 165.81 1242.36 165.379 1223.41 164.134C1217.64 163.752 1211.84 163.425 1206.05 163.114C1205.38 163.078 1196.35 162.573 1196.55 162.79C1198.67 165.147 1223.42 166.821 1228.17 167.261C1260.49 170.247 1292.7 170.5 1325.17 172.582C1361.28 174.897 1397.32 178.024 1433.5 179.55C1444.39 180.008 1467.34 179.384 1476.07 183.249C1481.34 185.58 1454.96 184.3 1454.14 184.244C1453.46 184.197 1445.1 183.901 1446.84 184.362C1457.22 187.1 1478.05 187.128 1489.51 187.745C1513.73 189.048 1538.7 191.071 1560.84 195.914C1569.7 197.856 1547.3 178.258 1547.3 178.258Z" fill="#53BDE3"/>
</g>
</g>
<mask id="mask4_71_569" style="mask-type:luminance" maskUnits="userSpaceOnUse" x="1376" y="238" width="121" height="37">
<path d="M1378.13 238.363L1496.56 244.736L1494.96 274.465L1376.53 268.091L1378.13 238.363Z" fill="white"/>
</mask>
<g mask="url(#mask4_71_569)">
<mask id="mask5_71_569" style="mask-type:luminance" maskUnits="userSpaceOnUse" x="-309" y="93" width="2026" height="195">
<path fill-rule="evenodd" clip-rule="evenodd" d="M-104.015 120.244C-74.8391 123.719 -31.5433 120.105 4.41483 124.805C55.6586 131.508 92.597 147.959 143.018 155.549C170.493 159.684 454.3 173.051 487.881 172.687C579.635 171.685 604.795 151.128 697.74 152.52C749.826 153.301 821.574 175.947 869.043 183.122C949.918 195.352 1049.62 163.014 1129.21 158.509C1200.52 154.468 1306.32 162.596 1378.17 165.467C1529.03 171.493 1553.96 181.723 1624.46 172.022C1668.85 165.913 1706.44 79.0932 1714.33 96.0482C1723.06 114.758 1703.52 136.555 1691.71 153.592C1680.67 169.457 1671.38 275.276 1644.23 285.172C1596.67 302.49 1260.88 213.975 1166.18 222.111C1064.77 230.825 915.389 296.225 725.494 258.105C546.509 222.175 487.511 239.111 283.581 234.324C74.2239 229.407 13.134 220.616 -135.263 185.641C-214.078 167.064 -280.494 232.327 -307.851 197.197C-325.441 174.592 -104.015 120.244 -104.015 120.244Z" fill="white"/>
</mask>
<g mask="url(#mask5_71_569)">
<path fill-rule="evenodd" clip-rule="evenodd" d="M1518.26 262.276C1519.26 263.761 1510.53 260.872 1506.85 260.039C1498.67 258.186 1490.63 256.251 1482.22 254.544C1456.86 249.384 1431.54 245.757 1404.77 242.238C1401.19 241.772 1382.6 238.468 1379.34 239.443C1378.75 239.628 1391.1 243.265 1391.88 243.465C1408.09 247.684 1426.93 250.663 1444.38 253.999C1487.41 262.239 1529.97 272.453 1575.16 278.532C1588.43 280.317 1518.26 262.276 1518.26 262.276Z" fill="#53BDE3"/>
</g>
</g>
<mask id="mask6_71_569" style="mask-type:luminance" maskUnits="userSpaceOnUse" x="594" y="189" width="539" height="92">
<path d="M597.968 189.648L1132.57 218.416L1129.22 280.75L594.614 251.982L597.968 189.648Z" fill="white"/>
</mask>
<g mask="url(#mask6_71_569)">
<mask id="mask7_71_569" style="mask-type:luminance" maskUnits="userSpaceOnUse" x="-309" y="93" width="2026" height="195">
<path fill-rule="evenodd" clip-rule="evenodd" d="M-104.015 120.244C-74.8392 123.719 -31.5433 120.105 4.41477 124.805C55.6585 131.508 92.597 147.959 143.018 155.549C170.493 159.683 454.3 173.051 487.881 172.687C579.635 171.685 604.795 151.128 697.74 152.52C749.826 153.301 821.574 175.947 869.043 183.122C949.918 195.352 1049.62 163.014 1129.21 158.509C1200.52 154.468 1306.32 162.596 1378.17 165.467C1529.03 171.492 1553.96 181.723 1624.46 172.022C1668.85 165.913 1706.44 79.0931 1714.33 96.0481C1723.06 114.758 1703.52 136.555 1691.71 153.592C1680.67 169.457 1671.38 275.276 1644.23 285.172C1596.67 302.49 1260.88 213.975 1166.18 222.111C1064.77 230.825 915.389 296.225 725.494 258.105C546.509 222.175 487.511 239.111 283.581 234.324C74.2239 229.407 13.134 220.616 -135.263 185.641C-214.078 167.064 -280.494 232.327 -307.851 197.197C-325.441 174.592 -104.015 120.244 -104.015 120.244Z" fill="white"/>
</mask>
<g mask="url(#mask7_71_569)">
<path fill-rule="evenodd" clip-rule="evenodd" d="M1130.54 218.942C1130.61 219.333 1110.64 222.286 1109.37 222.54C1085.7 227.112 1063.72 232.568 1040.77 237.513C998.936 246.532 954.177 253.208 907.597 259.068C886.163 261.761 863.79 264.979 839.657 264.515C799.027 263.733 755.567 255.23 717.906 248.706C692.528 244.312 668.546 239.299 641.685 236.587C628.572 235.265 615.165 234.563 601.937 233.618C601.426 233.579 596.225 233.329 596.245 232.955C596.305 231.835 622.272 232.86 624.416 232.908C653.491 233.582 679.603 236.787 707.451 240.791C788.306 252.412 844.843 264.857 924.731 252.991C963.736 247.2 1000.04 240.43 1036.34 232.961C1061.51 227.775 1085.84 221.3 1116.17 219.829C1119.08 219.689 1130.54 218.942 1130.54 218.942Z" fill="#53BDE3"/>
</g>
</g>
<mask id="mask8_71_569" style="mask-type:luminance" maskUnits="userSpaceOnUse" x="383" y="149" width="554" height="68">
<path d="M385.676 149.372L936.315 179.003L934.303 216.403L383.663 186.772L385.676 149.372Z" fill="white"/>
</mask>
<g mask="url(#mask8_71_569)">
<mask id="mask9_71_569" style="mask-type:luminance" maskUnits="userSpaceOnUse" x="-309" y="93" width="2026" height="195">
<path fill-rule="evenodd" clip-rule="evenodd" d="M-104.015 120.244C-74.8391 123.719 -31.5433 120.105 4.41483 124.805C55.6586 131.508 92.597 147.959 143.018 155.549C170.493 159.684 454.3 173.051 487.881 172.687C579.635 171.685 604.795 151.128 697.74 152.52C749.826 153.301 821.574 175.947 869.043 183.122C949.918 195.352 1049.62 163.014 1129.21 158.509C1200.52 154.468 1306.32 162.596 1378.17 165.467C1529.03 171.493 1553.96 181.723 1624.46 172.022C1668.85 165.913 1706.44 79.0932 1714.33 96.0482C1723.06 114.758 1703.52 136.555 1691.71 153.592C1680.67 169.457 1671.38 275.276 1644.23 285.172C1596.67 302.49 1260.88 213.975 1166.18 222.111C1064.77 230.825 915.389 296.225 725.494 258.105C546.509 222.175 487.511 239.111 283.581 234.324C74.2239 229.407 13.134 220.616 -135.263 185.641C-214.078 167.064 -280.494 232.327 -307.851 197.197C-325.441 174.592 -104.015 120.244 -104.015 120.244Z" fill="white"/>
</mask>
<g mask="url(#mask9_71_569)">
<path fill-rule="evenodd" clip-rule="evenodd" d="M849.545 189.553C848.84 190.98 842.418 187.723 838.724 186.9C829.98 184.957 821.049 183.173 812.163 181.346C785.152 175.779 758.244 171.611 728.766 169.085C633.359 160.916 589.79 178.753 507.302 183.665C481.721 185.189 454.503 184.84 427.995 184.15C415.112 183.809 401.785 183.363 389.068 183.636C388.271 183.654 384.629 183.615 384.891 184.186C385.704 186.006 399.974 186.658 403.062 186.876C425.115 188.431 447.417 189.068 469.293 189.058C517.558 189.037 557.462 182.87 604.023 181.247C649.157 179.671 697.146 183.027 743.098 183.171C761.986 183.229 785.338 182.833 803.86 185.997C832.664 190.921 852.97 198.881 885.026 201.56C890.103 201.984 932.288 205.189 933.47 204.445C934.24 203.957 907.705 199.655 905.828 199.329C903.95 199.002 849.545 189.553 849.545 189.553Z" fill="#53BDE3"/>
</g>
</g>
<mask id="mask10_71_569" style="mask-type:luminance" maskUnits="userSpaceOnUse" x="489" y="205" width="199" height="25">
<path d="M489.861 205.951L687.664 216.596L686.993 229.062L489.19 218.418L489.861 205.951Z" fill="white"/>
</mask>
<g mask="url(#mask10_71_569)">
<mask id="mask11_71_569" style="mask-type:luminance" maskUnits="userSpaceOnUse" x="-309" y="93" width="2026" height="195">
<path fill-rule="evenodd" clip-rule="evenodd" d="M-104.015 120.244C-74.8391 123.719 -31.5432 120.105 4.41489 124.805C55.6587 131.508 92.5971 147.959 143.018 155.549C170.493 159.684 454.3 173.051 487.881 172.687C579.635 171.685 604.795 151.128 697.74 152.52C749.826 153.301 821.574 175.947 869.043 183.122C949.918 195.352 1049.62 163.014 1129.21 158.509C1200.52 154.468 1306.32 162.596 1378.17 165.467C1529.03 171.493 1553.96 181.723 1624.46 172.022C1668.85 165.913 1706.44 79.0932 1714.33 96.0482C1723.06 114.758 1703.52 136.555 1691.71 153.592C1680.67 169.457 1671.38 275.276 1644.23 285.172C1596.67 302.49 1260.88 213.975 1166.18 222.111C1064.77 230.825 915.389 296.225 725.494 258.105C546.509 222.175 487.511 239.111 283.581 234.324C74.224 229.407 13.1341 220.616 -135.263 185.641C-214.078 167.064 -280.494 232.327 -307.851 197.197C-325.441 174.592 -104.015 120.244 -104.015 120.244Z" fill="white"/>
</mask>
<g mask="url(#mask11_71_569)">
<path fill-rule="evenodd" clip-rule="evenodd" d="M612.162 215.632C597.811 207.752 539.137 214.381 520.28 215.316C517.151 215.471 490.311 215.289 490.236 216.682C490.173 217.862 506.145 218.985 507.971 219.109C527.719 220.484 548.838 220.918 568.29 220.608C593.235 220.207 614.739 219.114 639.829 222.429C646.598 223.327 678.3 228.117 684.135 226.895C684.347 226.853 684.519 226.769 684.555 226.681C685.583 224.32 656.438 220.077 652.465 219.375C648.493 218.669 612.162 215.632 612.162 215.632Z" fill="#53BDE3"/>
</g>
</g>
<mask id="mask12_71_569" style="mask-type:luminance" maskUnits="userSpaceOnUse" x="988" y="177" width="259" height="48">
<path d="M990.033 177.085L1246.64 190.894L1244.84 224.458L988.227 210.649L990.033 177.085Z" fill="white"/>
</mask>
<g mask="url(#mask12_71_569)">
<mask id="mask13_71_569" style="mask-type:luminance" maskUnits="userSpaceOnUse" x="-309" y="93" width="2026" height="195">
<path fill-rule="evenodd" clip-rule="evenodd" d="M-104.015 120.244C-74.8393 123.719 -31.5434 120.105 4.41471 124.805C55.6585 131.508 92.5969 147.959 143.018 155.549C170.493 159.684 454.3 173.051 487.881 172.687C579.635 171.685 604.795 151.128 697.74 152.52C749.826 153.301 821.574 175.947 869.043 183.122C949.918 195.352 1049.62 163.014 1129.21 158.509C1200.52 154.468 1306.32 162.596 1378.17 165.467C1529.03 171.493 1553.96 181.723 1624.46 172.022C1668.85 165.913 1706.44 79.0932 1714.33 96.0482C1723.06 114.758 1703.52 136.555 1691.71 153.592C1680.67 169.457 1671.38 275.276 1644.23 285.172C1596.67 302.49 1260.88 213.975 1166.18 222.111C1064.77 230.825 915.389 296.225 725.494 258.105C546.509 222.175 487.511 239.111 283.581 234.324C74.2238 229.407 13.1339 220.616 -135.263 185.641C-214.078 167.064 -280.494 232.327 -307.851 197.197C-325.441 174.592 -104.015 120.244 -104.015 120.244Z" fill="white"/>
</mask>
<g mask="url(#mask13_71_569)">
<path fill-rule="evenodd" clip-rule="evenodd" d="M1131.33 187.22C1130.7 185.778 1097.25 189.455 1095.58 189.711C1071.4 193.481 1051.19 199.555 1027.74 203.763C1024.94 204.262 988.915 209.345 990.5 210.245C993.671 212.028 1012.2 209.673 1015.33 209.301C1037.23 206.7 1055.8 201.793 1079.07 200.318C1117.22 197.893 1160.98 195.657 1200.91 197.05C1208.49 197.316 1239.96 200.339 1244.36 197.529C1250.67 193.488 1196.02 188.729 1191.14 188.354C1186.26 187.975 1131.33 187.22 1131.33 187.22Z" fill="#53BDE3"/>
</g>
</g>
<mask id="mask14_71_569" style="mask-type:luminance" maskUnits="userSpaceOnUse" x="-41" y="125" width="245" height="57">
<path d="M-37.715 125.626L203.963 138.632L201.64 181.786L-40.0372 168.78L-37.715 125.626Z" fill="white"/>
</mask>
<g mask="url(#mask14_71_569)">
<mask id="mask15_71_569" style="mask-type:luminance" maskUnits="userSpaceOnUse" x="-309" y="93" width="2026" height="195">
<path fill-rule="evenodd" clip-rule="evenodd" d="M-104.015 120.244C-74.8391 123.719 -31.5433 120.105 4.41483 124.805C55.6586 131.508 92.597 147.959 143.018 155.549C170.493 159.684 454.3 173.051 487.881 172.687C579.635 171.685 604.795 151.129 697.74 152.52C749.826 153.301 821.574 175.947 869.043 183.122C949.918 195.352 1049.62 163.014 1129.21 158.509C1200.52 154.468 1306.32 162.597 1378.17 165.467C1529.03 171.493 1553.96 181.723 1624.46 172.022C1668.85 165.913 1706.44 79.0932 1714.33 96.0482C1723.06 114.758 1703.52 136.555 1691.71 153.592C1680.67 169.457 1671.38 275.276 1644.23 285.172C1596.67 302.49 1260.88 213.975 1166.18 222.111C1064.77 230.825 915.389 296.226 725.494 258.105C546.509 222.175 487.511 239.111 283.581 234.324C74.2239 229.407 13.134 220.616 -135.263 185.641C-214.078 167.064 -280.494 232.327 -307.851 197.197C-325.441 174.592 -104.015 120.244 -104.015 120.244Z" fill="white"/>
</mask>
<g mask="url(#mask15_71_569)">
<path fill-rule="evenodd" clip-rule="evenodd" d="M-60.9532 125.657C-62.6496 126.047 -56.6742 125.729 -54.5676 125.696C-50.1444 125.619 -45.7176 125.669 -41.2235 125.832C-27.6683 126.325 -13.6568 127.098 -0.603927 129.141C43.7568 136.097 76.6011 150.401 123.465 156.187C140.202 158.256 157.718 158.906 174.734 159.683C180.689 159.95 186.621 160.236 192.568 160.657C195.541 160.866 202.848 160.512 201.46 161.395C200.907 161.748 191.101 161.454 189.801 161.466C177.73 161.617 165.485 161.495 153.278 161.229C130.644 160.736 105.709 159.421 84.1591 155.507C57.86 150.73 31.1871 142.198 0.772383 141.511C-9.42496 141.278 14.3718 145.854 12.0186 146.771C4.55273 149.683 -13.5391 146.121 -21.1556 148.521C-36.6119 153.389 -24.8522 160.784 -47.6509 164.516C-81.6908 170.093 -113.071 161.864 -122.084 148.575C-126.693 141.79 -60.9532 125.657 -60.9532 125.657Z" fill="#53BDE3"/>
</g>
</g>
<mask id="mask16_71_569" style="mask-type:luminance" maskUnits="userSpaceOnUse" x="-43" y="182" width="317" height="45">
<path d="M-40.7596 182.206L273.089 199.095L271.593 226.905L-42.2562 210.016L-40.7596 182.206Z" fill="white"/>
</mask>
<g mask="url(#mask16_71_569)">
<mask id="mask17_71_569" style="mask-type:luminance" maskUnits="userSpaceOnUse" x="-309" y="93" width="2026" height="195">
<path fill-rule="evenodd" clip-rule="evenodd" d="M-104.015 120.244C-74.8391 123.719 -31.5433 120.105 4.41483 124.805C55.6586 131.508 92.597 147.959 143.018 155.549C170.493 159.684 454.3 173.051 487.881 172.687C579.635 171.685 604.795 151.128 697.74 152.52C749.826 153.301 821.574 175.947 869.043 183.122C949.918 195.352 1049.62 163.014 1129.21 158.509C1200.52 154.468 1306.32 162.596 1378.17 165.467C1529.03 171.493 1553.96 181.723 1624.46 172.022C1668.85 165.913 1706.44 79.0932 1714.33 96.0482C1723.06 114.758 1703.52 136.555 1691.71 153.592C1680.67 169.457 1671.38 275.276 1644.23 285.172C1596.67 302.49 1260.88 213.975 1166.18 222.111C1064.77 230.825 915.389 296.225 725.494 258.105C546.509 222.175 487.511 239.111 283.581 234.324C74.2239 229.407 13.134 220.616 -135.263 185.641C-214.078 167.064 -280.494 232.327 -307.851 197.197C-325.441 174.592 -104.015 120.244 -104.015 120.244Z" fill="white"/>
</mask>
<g mask="url(#mask17_71_569)">
<path fill-rule="evenodd" clip-rule="evenodd" d="M-64.5344 181.31C-67.6841 180.1 -57.6906 183.538 -54.0805 184.559C-46.8493 186.593 -39.2205 188.439 -31.4269 190.139C-7.96336 195.264 18.6424 201.737 44.7952 203.979C71.813 206.297 99.0593 207.29 126.193 209.986C149.587 212.312 170.742 215.975 194.757 217.65C213.734 218.976 232.859 219.291 251.714 219.378C253.41 219.386 269.362 218.922 270.073 219.734C271.207 221.031 252.309 222.325 250.458 222.488C227.418 224.464 204.768 223.486 180.522 221.621C144.742 218.869 108.379 217.217 72.8079 213.691C48.2153 211.256 24.469 207.299 0.0626525 204.517C-31.6293 200.907 -65.0943 199.11 -90.4921 189.842C-96.1203 187.793 -64.5344 181.31 -64.5344 181.31Z" fill="#53BDE3"/>
</g>
</g>
<mask id="mask18_71_569" style="mask-type:luminance" maskUnits="userSpaceOnUse" x="277" y="207" width="79" height="13">
<path d="M278.022 207.055L355.54 211.226L355.075 219.857L277.558 215.685L278.022 207.055Z" fill="white"/>
</mask>
<g mask="url(#mask18_71_569)">
<mask id="mask19_71_569" style="mask-type:luminance" maskUnits="userSpaceOnUse" x="-309" y="93" width="2026" height="195">
<path fill-rule="evenodd" clip-rule="evenodd" d="M-104.015 120.244C-74.8391 123.719 -31.5433 120.105 4.41483 124.805C55.6586 131.508 92.597 147.959 143.018 155.549C170.493 159.684 454.3 173.051 487.881 172.687C579.635 171.685 604.795 151.128 697.74 152.52C749.826 153.301 821.574 175.947 869.043 183.122C949.918 195.352 1049.62 163.014 1129.21 158.509C1200.52 154.468 1306.32 162.596 1378.17 165.467C1529.03 171.493 1553.96 181.723 1624.46 172.022C1668.85 165.913 1706.44 79.0932 1714.33 96.0482C1723.06 114.758 1703.52 136.555 1691.71 153.592C1680.67 169.457 1671.38 275.276 1644.23 285.172C1596.67 302.49 1260.88 213.975 1166.18 222.111C1064.77 230.825 915.389 296.225 725.494 258.105C546.509 222.175 487.511 239.111 283.581 234.324C74.2239 229.407 13.134 220.616 -135.263 185.641C-214.078 167.064 -280.494 232.327 -307.851 197.197C-325.441 174.592 -104.015 120.244 -104.015 120.244Z" fill="white"/>
</mask>
<g mask="url(#mask19_71_569)">
<path fill-rule="evenodd" clip-rule="evenodd" d="M280.736 209.165C279.904 209.057 285.606 208.173 286.206 208.126C290.539 207.784 295.097 208.308 299.501 208.774C313.589 210.265 326.997 212.335 340.777 213.907C342.64 214.119 354.388 214.338 354.199 215.515C353.866 217.616 339.869 216.765 336.471 216.673C323.745 216.334 290.171 217.728 279.66 213.988C277.595 213.253 280.736 209.165 280.736 209.165Z" fill="#53BDE3"/>
</g>
</g>
<mask id="mask20_71_569" style="mask-type:luminance" maskUnits="userSpaceOnUse" x="113" y="174" width="161" height="20">
<path d="M113.586 174.162L273.967 182.792L273.399 193.341L113.018 184.711L113.586 174.162Z" fill="white"/>
</mask>
<g mask="url(#mask20_71_569)">
<mask id="mask21_71_569" style="mask-type:luminance" maskUnits="userSpaceOnUse" x="-309" y="93" width="2026" height="195">
<path fill-rule="evenodd" clip-rule="evenodd" d="M-104.015 120.244C-74.8391 123.719 -31.5433 120.105 4.41483 124.805C55.6586 131.508 92.597 147.959 143.018 155.549C170.493 159.684 454.3 173.051 487.881 172.687C579.635 171.685 604.795 151.128 697.74 152.52C749.826 153.301 821.574 175.947 869.043 183.122C949.918 195.352 1049.62 163.014 1129.21 158.509C1200.52 154.468 1306.32 162.596 1378.17 165.467C1529.03 171.493 1553.96 181.723 1624.46 172.022C1668.85 165.913 1706.44 79.0932 1714.33 96.0482C1723.06 114.758 1703.52 136.555 1691.71 153.592C1680.67 169.457 1671.38 275.276 1644.23 285.172C1596.67 302.49 1260.88 213.975 1166.18 222.111C1064.77 230.825 915.389 296.225 725.494 258.105C546.509 222.175 487.511 239.111 283.581 234.324C74.2239 229.407 13.134 220.616 -135.263 185.641C-214.078 167.064 -280.494 232.327 -307.851 197.197C-325.441 174.592 -104.015 120.244 -104.015 120.244Z" fill="white"/>
</mask>
<g mask="url(#mask21_71_569)">
<path fill-rule="evenodd" clip-rule="evenodd" d="M183.207 180.873C184.519 181.21 185.076 180.011 186.506 179.889C191.219 179.485 196.706 179.687 201.68 179.883C219.329 180.585 235.94 183.057 253.089 185.069C257.928 185.637 268.816 186.46 271.156 188.506C276.277 192.989 247.155 191.035 242.553 190.742C211.152 188.737 180.212 187.688 148.787 186.312C139.876 185.923 120.495 185.883 114.545 182.411C109.926 179.713 125.386 180.026 128.481 180.118C144.708 180.574 160.359 182.596 176.526 182.436C178.202 182.418 183.207 180.873 183.207 180.873Z" fill="#53BDE3"/>
</g>
</g>
</mask>
<g mask="url(#mask0_71_569)">
<mask id="mask22_71_569" style="mask-type:luminance" maskUnits="userSpaceOnUse" x="-43" y="0" width="1549" height="307">
<path d="M-30.9547 0L1505.28 82.6686L1493.26 306.111L-42.9787 223.442L-30.9547 0Z" fill="white"/>
</mask>
<g mask="url(#mask22_71_569)">
<path fill-rule="evenodd" clip-rule="evenodd" d="M-104.015 120.244C-74.8391 123.719 -31.5433 120.105 4.40441 124.805C55.6586 131.508 92.597 147.959 143.018 155.549C170.493 159.684 454.3 173.051 487.881 172.687C579.635 171.685 604.795 151.128 697.74 152.52C749.826 153.301 821.574 175.947 869.043 183.122C949.918 195.352 1049.62 163.014 1129.21 158.509C1200.52 154.468 1306.32 162.596 1378.17 165.467C1529.03 171.493 1553.96 181.723 1624.46 172.022C1668.85 165.913 1706.44 79.0932 1714.33 96.0482C1723.06 114.758 1703.52 136.555 1691.71 153.592C1680.67 169.457 1671.38 275.276 1644.23 285.172C1596.67 302.49 1260.88 213.975 1166.18 222.111C1064.77 230.825 915.389 296.225 725.494 258.105C546.509 222.175 487.511 239.111 283.581 234.324C74.2239 229.407 13.134 220.616 -135.263 185.641C-214.078 167.064 -280.494 232.327 -307.851 197.197C-325.441 174.592 -104.015 120.244 -104.015 120.244Z" fill="#27A6D3"/>
</g>
<mask id="mask23_71_569" style="mask-type:luminance" maskUnits="userSpaceOnUse" x="1193" y="158" width="308" height="35">
<path d="M1194.78 158.288L1500.33 174.731L1499.35 192.951L1193.8 176.509L1194.78 158.288Z" fill="white"/>
</mask>
<g mask="url(#mask23_71_569)">
<mask id="mask24_71_569" style="mask-type:luminance" maskUnits="userSpaceOnUse" x="-309" y="93" width="2026" height="195">
<path fill-rule="evenodd" clip-rule="evenodd" d="M-104.015 120.244C-74.8391 123.719 -31.5433 120.105 4.41483 124.805C55.6586 131.508 92.597 147.959 143.018 155.549C170.493 159.684 454.3 173.051 487.881 172.687C579.635 171.685 604.795 151.128 697.74 152.52C749.826 153.301 821.574 175.947 869.043 183.122C949.918 195.352 1049.62 163.014 1129.21 158.509C1200.52 154.468 1306.32 162.596 1378.17 165.467C1529.03 171.493 1553.96 181.723 1624.46 172.022C1668.85 165.913 1706.44 79.0932 1714.33 96.0482C1723.06 114.758 1703.52 136.555 1691.71 153.592C1680.67 169.457 1671.38 275.276 1644.23 285.172C1596.67 302.49 1260.88 213.975 1166.18 222.111C1064.77 230.825 915.389 296.225 725.494 258.105C546.509 222.175 487.511 239.111 283.581 234.324C74.2239 229.407 13.134 220.616 -135.263 185.641C-214.078 167.064 -280.494 232.327 -307.851 197.197C-325.441 174.592 -104.015 120.244 -104.015 120.244Z" fill="white"/>
</mask>
<g mask="url(#mask24_71_569)">
<path fill-rule="evenodd" clip-rule="evenodd" d="M1547.3 178.258C1550.42 178.655 1540.84 178.064 1537.64 178.031C1531.52 177.972 1525.39 177.837 1519.23 177.656C1499.37 177.072 1479.64 175.86 1459.78 174.626C1400.23 170.937 1338.1 165.317 1278.91 165.693C1260.14 165.81 1242.36 165.379 1223.41 164.134C1217.64 163.752 1211.84 163.425 1206.05 163.114C1205.38 163.078 1196.35 162.573 1196.55 162.79C1198.67 165.147 1223.42 166.821 1228.17 167.261C1260.49 170.247 1292.7 170.5 1325.17 172.582C1361.28 174.897 1397.32 178.024 1433.5 179.55C1444.39 180.008 1467.34 179.384 1476.07 183.249C1481.34 185.58 1454.96 184.3 1454.14 184.244C1453.46 184.197 1445.1 183.901 1446.84 184.362C1457.22 187.1 1478.05 187.128 1489.51 187.745C1513.73 189.048 1538.7 191.071 1560.84 195.914C1569.7 197.856 1547.3 178.258 1547.3 178.258Z" fill="#53BDE3"/>
</g>
</g>
<mask id="mask25_71_569" style="mask-type:luminance" maskUnits="userSpaceOnUse" x="1376" y="238" width="121" height="37">
<path d="M1378.13 238.363L1496.56 244.736L1494.96 274.465L1376.53 268.091L1378.13 238.363Z" fill="white"/>
</mask>
<g mask="url(#mask25_71_569)">
<mask id="mask26_71_569" style="mask-type:luminance" maskUnits="userSpaceOnUse" x="-309" y="93" width="2026" height="195">
<path fill-rule="evenodd" clip-rule="evenodd" d="M-104.015 120.244C-74.8391 123.719 -31.5433 120.105 4.41483 124.805C55.6586 131.508 92.597 147.959 143.018 155.549C170.493 159.684 454.3 173.051 487.881 172.687C579.635 171.685 604.795 151.128 697.74 152.52C749.826 153.301 821.574 175.947 869.043 183.122C949.918 195.352 1049.62 163.014 1129.21 158.509C1200.52 154.468 1306.32 162.596 1378.17 165.467C1529.03 171.493 1553.96 181.723 1624.46 172.022C1668.85 165.913 1706.44 79.0932 1714.33 96.0482C1723.06 114.758 1703.52 136.555 1691.71 153.592C1680.67 169.457 1671.38 275.276 1644.23 285.172C1596.67 302.49 1260.88 213.975 1166.18 222.111C1064.77 230.825 915.389 296.225 725.494 258.105C546.509 222.175 487.511 239.111 283.581 234.324C74.2239 229.407 13.134 220.616 -135.263 185.641C-214.078 167.064 -280.494 232.327 -307.851 197.197C-325.441 174.592 -104.015 120.244 -104.015 120.244Z" fill="white"/>
</mask>
<g mask="url(#mask26_71_569)">
<path fill-rule="evenodd" clip-rule="evenodd" d="M1518.26 262.276C1519.26 263.761 1510.53 260.872 1506.85 260.039C1498.67 258.186 1490.63 256.251 1482.22 254.544C1456.86 249.384 1431.54 245.757 1404.77 242.238C1401.19 241.772 1382.6 238.468 1379.34 239.443C1378.75 239.628 1391.1 243.265 1391.88 243.465C1408.09 247.684 1426.93 250.663 1444.38 253.999C1487.41 262.239 1529.97 272.453 1575.16 278.532C1588.43 280.317 1518.26 262.276 1518.26 262.276Z" fill="#53BDE3"/>
</g>
</g>
<mask id="mask27_71_569" style="mask-type:luminance" maskUnits="userSpaceOnUse" x="594" y="189" width="539" height="92">
<path d="M597.968 189.648L1132.57 218.416L1129.22 280.75L594.614 251.982L597.968 189.648Z" fill="white"/>
</mask>
<g mask="url(#mask27_71_569)">
<mask id="mask28_71_569" style="mask-type:luminance" maskUnits="userSpaceOnUse" x="-309" y="93" width="2026" height="195">
<path fill-rule="evenodd" clip-rule="evenodd" d="M-104.015 120.244C-74.8392 123.719 -31.5433 120.105 4.41477 124.805C55.6585 131.508 92.597 147.959 143.018 155.549C170.493 159.683 454.3 173.051 487.881 172.687C579.635 171.685 604.795 151.128 697.74 152.52C749.826 153.301 821.574 175.947 869.043 183.122C949.918 195.352 1049.62 163.014 1129.21 158.509C1200.52 154.468 1306.32 162.596 1378.17 165.467C1529.03 171.492 1553.96 181.723 1624.46 172.022C1668.85 165.913 1706.44 79.0931 1714.33 96.0481C1723.06 114.758 1703.52 136.555 1691.71 153.592C1680.67 169.457 1671.38 275.276 1644.23 285.172C1596.67 302.49 1260.88 213.975 1166.18 222.111C1064.77 230.825 915.389 296.225 725.494 258.105C546.509 222.175 487.511 239.111 283.581 234.324C74.2239 229.407 13.134 220.616 -135.263 185.641C-214.078 167.064 -280.494 232.327 -307.851 197.197C-325.441 174.592 -104.015 120.244 -104.015 120.244Z" fill="white"/>
</mask>
<g mask="url(#mask28_71_569)">
<path fill-rule="evenodd" clip-rule="evenodd" d="M1130.54 218.942C1130.61 219.333 1110.64 222.286 1109.37 222.54C1085.7 227.112 1063.72 232.568 1040.77 237.513C998.936 246.532 954.177 253.208 907.597 259.068C886.163 261.761 863.79 264.979 839.657 264.515C799.027 263.733 755.567 255.23 717.906 248.706C692.528 244.312 668.546 239.299 641.685 236.587C628.572 235.265 615.165 234.563 601.937 233.618C601.426 233.579 596.225 233.329 596.245 232.955C596.305 231.835 622.272 232.86 624.416 232.908C653.491 233.582 679.603 236.787 707.451 240.791C788.306 252.412 844.843 264.857 924.731 252.991C963.736 247.2 1000.04 240.43 1036.34 232.961C1061.51 227.775 1085.84 221.3 1116.17 219.829C1119.08 219.689 1130.54 218.942 1130.54 218.942Z" fill="#53BDE3"/>
</g>
</g>
<mask id="mask29_71_569" style="mask-type:luminance" maskUnits="userSpaceOnUse" x="383" y="149" width="554" height="68">
<path d="M385.676 149.372L936.315 179.003L934.303 216.403L383.663 186.772L385.676 149.372Z" fill="white"/>
</mask>
<g mask="url(#mask29_71_569)">
<mask id="mask30_71_569" style="mask-type:luminance" maskUnits="userSpaceOnUse" x="-309" y="93" width="2026" height="195">
<path fill-rule="evenodd" clip-rule="evenodd" d="M-104.015 120.244C-74.8391 123.719 -31.5433 120.105 4.41483 124.805C55.6586 131.508 92.597 147.959 143.018 155.549C170.493 159.684 454.3 173.051 487.881 172.687C579.635 171.685 604.795 151.128 697.74 152.52C749.826 153.301 821.574 175.947 869.043 183.122C949.918 195.352 1049.62 163.014 1129.21 158.509C1200.52 154.468 1306.32 162.596 1378.17 165.467C1529.03 171.493 1553.96 181.723 1624.46 172.022C1668.85 165.913 1706.44 79.0932 1714.33 96.0482C1723.06 114.758 1703.52 136.555 1691.71 153.592C1680.67 169.457 1671.38 275.276 1644.23 285.172C1596.67 302.49 1260.88 213.975 1166.18 222.111C1064.77 230.825 915.389 296.225 725.494 258.105C546.509 222.175 487.511 239.111 283.581 234.324C74.2239 229.407 13.134 220.616 -135.263 185.641C-214.078 167.064 -280.494 232.327 -307.851 197.197C-325.441 174.592 -104.015 120.244 -104.015 120.244Z" fill="white"/>
</mask>
<g mask="url(#mask30_71_569)">
<path fill-rule="evenodd" clip-rule="evenodd" d="M849.545 189.553C848.84 190.98 842.418 187.723 838.724 186.9C829.98 184.957 821.049 183.173 812.163 181.346C785.152 175.779 758.244 171.611 728.766 169.085C633.359 160.916 589.79 178.753 507.302 183.665C481.721 185.189 454.503 184.84 427.995 184.15C415.112 183.809 401.785 183.363 389.068 183.636C388.271 183.654 384.629 183.615 384.891 184.186C385.704 186.006 399.974 186.658 403.062 186.876C425.115 188.431 447.417 189.068 469.293 189.058C517.558 189.037 557.462 182.87 604.023 181.247C649.157 179.671 697.146 183.027 743.098 183.171C761.986 183.229 785.338 182.833 803.86 185.997C832.664 190.921 852.97 198.881 885.026 201.56C890.103 201.984 932.288 205.189 933.47 204.445C934.24 203.957 907.705 199.655 905.828 199.329C903.95 199.002 849.545 189.553 849.545 189.553Z" fill="#53BDE3"/>
</g>
</g>
<mask id="mask31_71_569" style="mask-type:luminance" maskUnits="userSpaceOnUse" x="489" y="205" width="199" height="25">
<path d="M489.861 205.951L687.664 216.596L686.993 229.062L489.19 218.418L489.861 205.951Z" fill="white"/>
</mask>
<g mask="url(#mask31_71_569)">
<mask id="mask32_71_569" style="mask-type:luminance" maskUnits="userSpaceOnUse" x="-309" y="93" width="2026" height="195">
<path fill-rule="evenodd" clip-rule="evenodd" d="M-104.015 120.244C-74.8391 123.719 -31.5432 120.105 4.41489 124.805C55.6587 131.508 92.5971 147.959 143.018 155.549C170.493 159.684 454.3 173.051 487.881 172.687C579.635 171.685 604.795 151.128 697.74 152.52C749.826 153.301 821.574 175.947 869.043 183.122C949.918 195.352 1049.62 163.014 1129.21 158.509C1200.52 154.468 1306.32 162.596 1378.17 165.467C1529.03 171.493 1553.96 181.723 1624.46 172.022C1668.85 165.913 1706.44 79.0932 1714.33 96.0482C1723.06 114.758 1703.52 136.555 1691.71 153.592C1680.67 169.457 1671.38 275.276 1644.23 285.172C1596.67 302.49 1260.88 213.975 1166.18 222.111C1064.77 230.825 915.389 296.225 725.494 258.105C546.509 222.175 487.511 239.111 283.581 234.324C74.224 229.407 13.1341 220.616 -135.263 185.641C-214.078 167.064 -280.494 232.327 -307.851 197.197C-325.441 174.592 -104.015 120.244 -104.015 120.244Z" fill="white"/>
</mask>
<g mask="url(#mask32_71_569)">
<path fill-rule="evenodd" clip-rule="evenodd" d="M612.162 215.632C597.811 207.752 539.137 214.381 520.28 215.316C517.151 215.471 490.311 215.289 490.236 216.682C490.173 217.862 506.145 218.985 507.971 219.109C527.719 220.484 548.838 220.918 568.29 220.608C593.235 220.207 614.739 219.114 639.829 222.429C646.598 223.327 678.3 228.117 684.135 226.895C684.347 226.853 684.519 226.769 684.555 226.681C685.583 224.32 656.438 220.077 652.465 219.375C648.493 218.669 612.162 215.632 612.162 215.632Z" fill="#53BDE3"/>
</g>
</g>
<mask id="mask33_71_569" style="mask-type:luminance" maskUnits="userSpaceOnUse" x="988" y="177" width="259" height="48">
<path d="M990.033 177.085L1246.64 190.894L1244.84 224.458L988.227 210.649L990.033 177.085Z" fill="white"/>
</mask>
<g mask="url(#mask33_71_569)">
<mask id="mask34_71_569" style="mask-type:luminance" maskUnits="userSpaceOnUse" x="-309" y="93" width="2026" height="195">
<path fill-rule="evenodd" clip-rule="evenodd" d="M-104.015 120.244C-74.8393 123.719 -31.5434 120.105 4.41471 124.805C55.6585 131.508 92.5969 147.959 143.018 155.549C170.493 159.684 454.3 173.051 487.881 172.687C579.635 171.685 604.795 151.128 697.74 152.52C749.826 153.301 821.574 175.947 869.043 183.122C949.918 195.352 1049.62 163.014 1129.21 158.509C1200.52 154.468 1306.32 162.596 1378.17 165.467C1529.03 171.493 1553.96 181.723 1624.46 172.022C1668.85 165.913 1706.44 79.0932 1714.33 96.0482C1723.06 114.758 1703.52 136.555 1691.71 153.592C1680.67 169.457 1671.38 275.276 1644.23 285.172C1596.67 302.49 1260.88 213.975 1166.18 222.111C1064.77 230.825 915.389 296.225 725.494 258.105C546.509 222.175 487.511 239.111 283.581 234.324C74.2238 229.407 13.1339 220.616 -135.263 185.641C-214.078 167.064 -280.494 232.327 -307.851 197.197C-325.441 174.592 -104.015 120.244 -104.015 120.244Z" fill="white"/>
</mask>
<g mask="url(#mask34_71_569)">
<path fill-rule="evenodd" clip-rule="evenodd" d="M1131.33 187.22C1130.7 185.778 1097.25 189.455 1095.58 189.711C1071.4 193.481 1051.19 199.555 1027.74 203.763C1024.94 204.262 988.915 209.345 990.5 210.245C993.671 212.028 1012.2 209.673 1015.33 209.301C1037.23 206.7 1055.8 201.793 1079.07 200.318C1117.22 197.893 1160.98 195.657 1200.91 197.05C1208.49 197.316 1239.96 200.339 1244.36 197.529C1250.67 193.488 1196.02 188.729 1191.14 188.354C1186.26 187.975 1131.33 187.22 1131.33 187.22Z" fill="#53BDE3"/>
</g>
</g>
<mask id="mask35_71_569" style="mask-type:luminance" maskUnits="userSpaceOnUse" x="-41" y="125" width="245" height="57">
<path d="M-37.715 125.626L203.963 138.632L201.64 181.786L-40.0372 168.78L-37.715 125.626Z" fill="white"/>
</mask>
<g mask="url(#mask35_71_569)">
<mask id="mask36_71_569" style="mask-type:luminance" maskUnits="userSpaceOnUse" x="-309" y="93" width="2026" height="195">
<path fill-rule="evenodd" clip-rule="evenodd" d="M-104.015 120.244C-74.8391 123.719 -31.5433 120.105 4.41483 124.805C55.6586 131.508 92.597 147.959 143.018 155.549C170.493 159.684 454.3 173.051 487.881 172.687C579.635 171.685 604.795 151.129 697.74 152.52C749.826 153.301 821.574 175.947 869.043 183.122C949.918 195.352 1049.62 163.014 1129.21 158.509C1200.52 154.468 1306.32 162.597 1378.17 165.467C1529.03 171.493 1553.96 181.723 1624.46 172.022C1668.85 165.913 1706.44 79.0932 1714.33 96.0482C1723.06 114.758 1703.52 136.555 1691.71 153.592C1680.67 169.457 1671.38 275.276 1644.23 285.172C1596.67 302.49 1260.88 213.975 1166.18 222.111C1064.77 230.825 915.389 296.226 725.494 258.105C546.509 222.175 487.511 239.111 283.581 234.324C74.2239 229.407 13.134 220.616 -135.263 185.641C-214.078 167.064 -280.494 232.327 -307.851 197.197C-325.441 174.592 -104.015 120.244 -104.015 120.244Z" fill="white"/>
</mask>
<g mask="url(#mask36_71_569)">
<path fill-rule="evenodd" clip-rule="evenodd" d="M-60.9532 125.657C-62.6496 126.047 -56.6742 125.729 -54.5676 125.696C-50.1444 125.619 -45.7176 125.669 -41.2235 125.832C-27.6683 126.325 -13.6568 127.098 -0.603927 129.141C43.7568 136.097 76.6011 150.401 123.465 156.187C140.202 158.256 157.718 158.906 174.734 159.683C180.689 159.95 186.621 160.236 192.568 160.657C195.541 160.866 202.848 160.512 201.46 161.395C200.907 161.748 191.101 161.454 189.801 161.466C177.73 161.617 165.485 161.495 153.278 161.229C130.644 160.736 105.709 159.421 84.1591 155.507C57.86 150.73 31.1871 142.198 0.772383 141.511C-9.42496 141.278 14.3718 145.854 12.0186 146.771C4.55273 149.683 -13.5391 146.121 -21.1556 148.521C-36.6119 153.389 -24.8522 160.784 -47.6509 164.516C-81.6908 170.093 -113.071 161.864 -122.084 148.575C-126.693 141.79 -60.9532 125.657 -60.9532 125.657Z" fill="#53BDE3"/>
</g>
</g>
<mask id="mask37_71_569" style="mask-type:luminance" maskUnits="userSpaceOnUse" x="-43" y="182" width="317" height="45">
<path d="M-40.7596 182.206L273.089 199.095L271.593 226.905L-42.2562 210.016L-40.7596 182.206Z" fill="white"/>
</mask>
<g mask="url(#mask37_71_569)">
<mask id="mask38_71_569" style="mask-type:luminance" maskUnits="userSpaceOnUse" x="-309" y="93" width="2026" height="195">
<path fill-rule="evenodd" clip-rule="evenodd" d="M-104.015 120.244C-74.8391 123.719 -31.5433 120.105 4.41483 124.805C55.6586 131.508 92.597 147.959 143.018 155.549C170.493 159.684 454.3 173.051 487.881 172.687C579.635 171.685 604.795 151.128 697.74 152.52C749.826 153.301 821.574 175.947 869.043 183.122C949.918 195.352 1049.62 163.014 1129.21 158.509C1200.52 154.468 1306.32 162.596 1378.17 165.467C1529.03 171.493 1553.96 181.723 1624.46 172.022C1668.85 165.913 1706.44 79.0932 1714.33 96.0482C1723.06 114.758 1703.52 136.555 1691.71 153.592C1680.67 169.457 1671.38 275.276 1644.23 285.172C1596.67 302.49 1260.88 213.975 1166.18 222.111C1064.77 230.825 915.389 296.225 725.494 258.105C546.509 222.175 487.511 239.111 283.581 234.324C74.2239 229.407 13.134 220.616 -135.263 185.641C-214.078 167.064 -280.494 232.327 -307.851 197.197C-325.441 174.592 -104.015 120.244 -104.015 120.244Z" fill="white"/>
</mask>
<g mask="url(#mask38_71_569)">
<path fill-rule="evenodd" clip-rule="evenodd" d="M-64.5344 181.31C-67.6841 180.1 -57.6906 183.538 -54.0805 184.559C-46.8493 186.593 -39.2205 188.439 -31.4269 190.139C-7.96336 195.264 18.6424 201.737 44.7952 203.979C71.813 206.297 99.0593 207.29 126.193 209.986C149.587 212.312 170.742 215.975 194.757 217.65C213.734 218.976 232.859 219.291 251.714 219.378C253.41 219.386 269.362 218.922 270.073 219.734C271.207 221.031 252.309 222.325 250.458 222.488C227.418 224.464 204.768 223.486 180.522 221.621C144.742 218.869 108.379 217.217 72.8079 213.691C48.2153 211.256 24.469 207.299 0.0626525 204.517C-31.6293 200.907 -65.0943 199.11 -90.4921 189.842C-96.1203 187.793 -64.5344 181.31 -64.5344 181.31Z" fill="#53BDE3"/>
</g>
</g>
<mask id="mask39_71_569" style="mask-type:luminance" maskUnits="userSpaceOnUse" x="277" y="207" width="79" height="13">
<path d="M278.022 207.055L355.54 211.226L355.075 219.857L277.558 215.685L278.022 207.055Z" fill="white"/>
</mask>
<g mask="url(#mask39_71_569)">
<mask id="mask40_71_569" style="mask-type:luminance" maskUnits="userSpaceOnUse" x="-309" y="93" width="2026" height="195">
<path fill-rule="evenodd" clip-rule="evenodd" d="M-104.015 120.244C-74.8391 123.719 -31.5433 120.105 4.41483 124.805C55.6586 131.508 92.597 147.959 143.018 155.549C170.493 159.684 454.3 173.051 487.881 172.687C579.635 171.685 604.795 151.128 697.74 152.52C749.826 153.301 821.574 175.947 869.043 183.122C949.918 195.352 1049.62 163.014 1129.21 158.509C1200.52 154.468 1306.32 162.596 1378.17 165.467C1529.03 171.493 1553.96 181.723 1624.46 172.022C1668.85 165.913 1706.44 79.0932 1714.33 96.0482C1723.06 114.758 1703.52 136.555 1691.71 153.592C1680.67 169.457 1671.38 275.276 1644.23 285.172C1596.67 302.49 1260.88 213.975 1166.18 222.111C1064.77 230.825 915.389 296.225 725.494 258.105C546.509 222.175 487.511 239.111 283.581 234.324C74.2239 229.407 13.134 220.616 -135.263 185.641C-214.078 167.064 -280.494 232.327 -307.851 197.197C-325.441 174.592 -104.015 120.244 -104.015 120.244Z" fill="white"/>
</mask>
<g mask="url(#mask40_71_569)">
<path fill-rule="evenodd" clip-rule="evenodd" d="M280.736 209.165C279.904 209.057 285.606 208.173 286.206 208.126C290.539 207.784 295.097 208.308 299.501 208.774C313.589 210.265 326.997 212.335 340.777 213.907C342.64 214.119 354.388 214.338 354.199 215.515C353.866 217.616 339.869 216.765 336.471 216.673C323.745 216.334 290.171 217.728 279.66 213.988C277.595 213.253 280.736 209.165 280.736 209.165Z" fill="#53BDE3"/>
</g>
</g>
<mask id="mask41_71_569" style="mask-type:luminance" maskUnits="userSpaceOnUse" x="113" y="174" width="161" height="20">
<path d="M113.586 174.162L273.967 182.792L273.399 193.341L113.018 184.711L113.586 174.162Z" fill="white"/>
</mask>
<g mask="url(#mask41_71_569)">
<mask id="mask42_71_569" style="mask-type:luminance" maskUnits="userSpaceOnUse" x="-309" y="93" width="2026" height="195">
<path fill-rule="evenodd" clip-rule="evenodd" d="M-104.015 120.244C-74.8391 123.719 -31.5433 120.105 4.41483 124.805C55.6586 131.508 92.597 147.959 143.018 155.549C170.493 159.684 454.3 173.051 487.881 172.687C579.635 171.685 604.795 151.128 697.74 152.52C749.826 153.301 821.574 175.947 869.043 183.122C949.918 195.352 1049.62 163.014 1129.21 158.509C1200.52 154.468 1306.32 162.596 1378.17 165.467C1529.03 171.493 1553.96 181.723 1624.46 172.022C1668.85 165.913 1706.44 79.0932 1714.33 96.0482C1723.06 114.758 1703.52 136.555 1691.71 153.592C1680.67 169.457 1671.38 275.276 1644.23 285.172C1596.67 302.49 1260.88 213.975 1166.18 222.111C1064.77 230.825 915.389 296.225 725.494 258.105C546.509 222.175 487.511 239.111 283.581 234.324C74.2239 229.407 13.134 220.616 -135.263 185.641C-214.078 167.064 -280.494 232.327 -307.851 197.197C-325.441 174.592 -104.015 120.244 -104.015 120.244Z" fill="white"/>
</mask>
<g mask="url(#mask42_71_569)">
<path fill-rule="evenodd" clip-rule="evenodd" d="M183.207 180.873C184.519 181.21 185.076 180.011 186.506 179.889C191.219 179.485 196.706 179.687 201.68 179.883C219.329 180.585 235.94 183.057 253.089 185.069C257.928 185.637 268.816 186.46 271.156 188.506C276.277 192.989 247.155 191.035 242.553 190.742C211.152 188.737 180.212 187.688 148.787 186.312C139.876 185.923 120.495 185.883 114.545 182.411C109.926 179.713 125.386 180.026 128.481 180.118C144.708 180.574 160.359 182.596 176.526 182.436C178.202 182.418 183.207 180.873 183.207 180.873Z" fill="#53BDE3"/>
</g>
</g>
<g style="mix-blend-mode:difference">
<rect x="-32.9598" y="37.2601" width="1538.46" height="203.146" transform="rotate(3.08025 -32.9598 37.2601)" fill="#032629"/>
</g>
</g>
</svg>
