<svg width="1440" height="505" viewBox="0 0 1440 505" fill="none" xmlns="http://www.w3.org/2000/svg">
<mask id="mask0_318_16" style="mask-type:alpha" maskUnits="userSpaceOnUse" x="0" y="0" width="1440" height="505">
<rect width="1440" height="505" fill="#D9D9D9"/>
</mask>
<g mask="url(#mask0_318_16)">
<mask id="mask1_318_16" style="mask-type:alpha" maskUnits="userSpaceOnUse" x="-124" y="-180" width="1688" height="832">
<rect x="-30.6151" y="-180" width="1614.88" height="578.815" transform="rotate(9.28458 -30.6151 -180)" fill="#D9D9D9"/>
</mask>
<g mask="url(#mask1_318_16)">
<mask id="mask2_318_16" style="mask-type:alpha" maskUnits="userSpaceOnUse" x="-455" y="-74" width="2514" height="644">
<path fill-rule="evenodd" clip-rule="evenodd" d="M-169.336 -14.4613C-135.444 -2.43706 -80.9568 -13.7603 -39.3976 2.44581C19.8564 25.5602 57.0055 80.8677 114.82 106.918C146.325 121.11 485.779 170.12 526.875 169.447C639.165 167.586 679.65 99.6242 792.247 105.742C855.345 109.177 931.952 185.642 986.368 210.267C1079.07 252.239 1216.03 146.287 1315.17 132.582C1403.99 120.287 1529.05 149.017 1615.23 159.718C1796.18 182.176 1821.66 216.6 1912.22 185.468C1969.23 165.863 2056.53 -122.28 2058.05 -65.7641C2059.75 -3.40021 2025.52 68.7812 2002.97 125.251C1981.94 177.838 1920.04 529.622 1882.22 562.098C1816 618.934 1449.11 319.164 1329.82 344.704C1202.07 372.057 988.782 587.17 775.6 457.342C574.664 334.976 494.675 390.354 248.456 371.164C-4.31475 351.453 -74.5563 321.235 -238.674 202.536C-325.838 139.486 -437.966 355.473 -454.511 238.199C-465.142 162.738 -169.336 -14.4613 -169.336 -14.4613Z" fill="#27A6D3"/>
</mask>
<g mask="url(#mask2_318_16)">
<mask id="mask3_318_16" style="mask-type:luminance" maskUnits="userSpaceOnUse" x="-145" y="-414" width="1955" height="1044">
<path d="M-22.8311 -413.197L1809.7 -113.615L1688.24 629.316L-144.285 329.734L-22.8311 -413.197Z" fill="white"/>
</mask>
<g mask="url(#mask3_318_16)">
<path fill-rule="evenodd" clip-rule="evenodd" d="M-169.336 -14.4613C-135.444 -2.43706 -80.9568 -13.7603 -39.3976 2.44581C19.8564 25.5602 57.0055 80.8677 114.82 106.918C146.325 121.11 485.779 170.12 526.875 169.447C639.165 167.586 679.65 99.6242 792.247 105.742C855.345 109.177 931.952 185.642 986.368 210.267C1079.07 252.239 1216.03 146.287 1315.17 132.582C1403.99 120.287 1529.05 149.017 1615.23 159.718C1796.18 182.176 1821.66 216.6 1912.22 185.468C1969.23 165.863 2056.53 -122.28 2058.05 -65.7641C2059.75 -3.40021 2025.52 68.7812 2002.97 125.251C1981.94 177.838 1920.04 529.622 1882.22 562.098C1816 618.934 1449.11 319.164 1329.82 344.704C1202.07 372.057 988.782 587.17 775.6 457.342C574.664 334.976 494.675 390.354 248.456 371.164C-4.31475 351.453 -74.5563 321.235 -238.674 202.536C-325.838 139.486 -437.966 355.473 -454.511 238.199C-465.142 162.738 -169.336 -14.4613 -169.336 -14.4613Z" fill="#27A6D3"/>
</g>
<mask id="mask4_318_16" style="mask-type:luminance" maskUnits="userSpaceOnUse" x="1385" y="132" width="375" height="122">
<path d="M1395.18 132.9L1759.66 192.485L1749.75 253.068L1385.28 193.483L1395.18 132.9Z" fill="white"/>
</mask>
<g mask="url(#mask4_318_16)">
<mask id="mask5_318_16" style="mask-type:luminance" maskUnits="userSpaceOnUse" x="-455" y="-74" width="2514" height="644">
<path fill-rule="evenodd" clip-rule="evenodd" d="M-169.336 -14.4613C-135.444 -2.43706 -80.9568 -13.7603 -39.3852 2.44785C19.8564 25.5602 57.0055 80.8677 114.82 106.918C146.325 121.11 485.779 170.12 526.875 169.447C639.165 167.586 679.65 99.6242 792.247 105.742C855.345 109.177 931.952 185.642 986.368 210.267C1079.07 252.239 1216.03 146.287 1315.17 132.582C1403.99 120.287 1529.05 149.017 1615.23 159.718C1796.18 182.176 1821.66 216.6 1912.22 185.468C1969.23 165.863 2056.53 -122.28 2058.05 -65.7641C2059.75 -3.40021 2025.52 68.7812 2002.97 125.251C1981.94 177.838 1920.04 529.622 1882.22 562.098C1816 618.934 1449.11 319.164 1329.82 344.704C1202.07 372.057 988.782 587.17 775.6 457.342C574.664 334.976 494.675 390.354 248.456 371.164C-4.31475 351.453 -74.5563 321.235 -238.674 202.536C-325.838 139.486 -437.966 355.473 -454.511 238.199C-465.142 162.738 -169.336 -14.4613 -169.336 -14.4613Z" fill="white"/>
</mask>
<g mask="url(#mask5_318_16)">
<path fill-rule="evenodd" clip-rule="evenodd" d="M1815.21 204.969C1818.83 206.34 1807.43 204.222 1803.55 204.059C1796.11 203.765 1788.71 203.219 1781.29 202.518C1757.36 200.256 1733.91 195.91 1710.29 191.487C1639.49 178.262 1566.46 158.574 1494.16 158.877C1471.23 158.965 1449.77 157.247 1427.27 152.802C1420.42 151.439 1413.51 150.258 1406.61 149.129C1405.81 148.999 1395.05 147.176 1395.18 147.901C1396.64 155.775 1426 161.738 1431.58 163.277C1469.53 173.726 1508.67 175.086 1547.24 182.529C1590.13 190.808 1632.56 201.785 1675.92 207.441C1688.97 209.139 1717.24 207.431 1726.02 220.428C1731.33 228.264 1699.8 223.584 1698.82 223.386C1698.02 223.216 1687.97 222.098 1689.87 223.66C1701.22 232.933 1726.58 233.358 1740.26 235.594C1769.14 240.316 1798.6 247.447 1823.27 263.909C1833.13 270.509 1815.21 204.969 1815.21 204.969Z" fill="#53BDE3"/>
</g>
</g>
<mask id="mask6_318_16" style="mask-type:luminance" maskUnits="userSpaceOnUse" x="619" y="227" width="672" height="313">
<path d="M652.919 227.624L1290.63 331.876L1256.75 539.132L619.037 434.879L652.919 227.624Z" fill="white"/>
</mask>
<g mask="url(#mask6_318_16)">
<mask id="mask7_318_16" style="mask-type:luminance" maskUnits="userSpaceOnUse" x="-455" y="-74" width="2514" height="644">
<path fill-rule="evenodd" clip-rule="evenodd" d="M-169.336 -14.4616C-135.444 -2.4373 -80.957 -13.7606 -39.3853 2.44761C19.8563 25.56 57.0054 80.8674 114.82 106.918C146.325 121.11 485.779 170.12 526.875 169.447C639.165 167.586 679.65 99.6239 792.247 105.742C855.344 109.177 931.952 185.641 986.368 210.267C1079.07 252.239 1216.03 146.287 1315.17 132.582C1403.99 120.287 1529.05 149.017 1615.23 159.717C1796.18 182.176 1821.66 216.599 1912.22 185.468C1969.23 165.862 2056.53 -122.28 2058.05 -65.7644C2059.75 -3.40045 2025.52 68.781 2002.97 125.251C1981.94 177.838 1920.04 529.622 1882.22 562.098C1815.99 618.934 1449.11 319.164 1329.82 344.704C1202.07 372.056 988.782 587.17 775.6 457.341C574.664 334.975 494.675 390.354 248.456 371.164C-4.31487 351.453 -74.5564 321.235 -238.674 202.535C-325.838 139.486 -437.966 355.473 -454.511 238.199C-465.142 162.737 -169.336 -14.4616 -169.336 -14.4616Z" fill="white"/>
</mask>
<g mask="url(#mask7_318_16)">
<path fill-rule="evenodd" clip-rule="evenodd" d="M1287.91 333.593C1287.81 334.894 1262.06 344.393 1260.39 345.22C1229.36 360.046 1199.97 377.837 1169.64 393.916C1114.34 423.241 1056.61 444.724 997.048 463.466C969.642 472.081 940.84 482.424 911.654 480.491C862.516 477.241 813.62 448.262 770.845 425.962C742.02 410.942 715.192 393.883 683.756 384.435C668.408 379.829 652.406 377.276 636.739 373.922C636.134 373.785 629.915 372.871 630.119 371.625C630.728 367.901 661.881 371.728 664.471 371.921C699.579 374.63 729.866 385.707 761.888 399.471C854.863 439.416 917.809 481.715 1020.83 443.53C1071.13 424.898 1118.61 402.965 1166.41 378.707C1199.56 361.862 1232.3 340.718 1269.97 336.312C1273.58 335.892 1287.91 333.593 1287.91 333.593Z" fill="#53BDE3"/>
</g>
</g>
<mask id="mask8_318_16" style="mask-type:luminance" maskUnits="userSpaceOnUse" x="393" y="90" width="678" height="233">
<path d="M413.473 90.2668L1070.31 197.647L1049.98 322L393.144 214.62L413.473 90.2668Z" fill="white"/>
</mask>
<g mask="url(#mask8_318_16)">
<mask id="mask9_318_16" style="mask-type:luminance" maskUnits="userSpaceOnUse" x="-455" y="-74" width="2514" height="644">
<path fill-rule="evenodd" clip-rule="evenodd" d="M-169.336 -14.4613C-135.444 -2.43706 -80.9568 -13.7603 -39.3852 2.44785C19.8564 25.5602 57.0055 80.8677 114.82 106.918C146.325 121.11 485.779 170.12 526.875 169.447C639.165 167.586 679.65 99.6242 792.247 105.742C855.345 109.177 931.952 185.642 986.368 210.267C1079.07 252.239 1216.03 146.287 1315.17 132.582C1403.99 120.287 1529.05 149.017 1615.23 159.718C1796.18 182.176 1821.66 216.6 1912.22 185.468C1969.23 165.863 2056.53 -122.28 2058.05 -65.7641C2059.75 -3.40021 2025.52 68.7812 2002.97 125.251C1981.94 177.838 1920.04 529.622 1882.22 562.098C1816 618.934 1449.11 319.164 1329.82 344.704C1202.07 372.057 988.782 587.17 775.6 457.342C574.664 334.976 494.675 390.354 248.456 371.164C-4.31475 351.453 -74.5563 321.235 -238.674 202.536C-325.838 139.486 -437.966 355.473 -454.511 238.199C-465.142 162.738 -169.336 -14.4613 -169.336 -14.4613Z" fill="white"/>
</mask>
<g mask="url(#mask9_318_16)">
<path fill-rule="evenodd" clip-rule="evenodd" d="M959.534 231.341C957.992 236.077 951.723 225.141 947.615 222.347C937.888 215.743 927.858 209.666 917.903 203.448C887.649 184.499 856.852 170.206 822.137 161.333C709.78 132.632 648.161 191.257 545.294 206.27C513.393 210.927 480.393 209.33 448.419 206.61C432.883 205.272 416.856 203.573 401.229 204.279C400.249 204.323 395.829 204.138 395.877 206.038C395.997 212.107 413.074 214.502 416.733 215.279C442.863 220.804 469.736 223.279 496.398 223.597C555.224 224.3 606.798 204.432 664.313 199.78C720.066 195.262 776.941 207.194 832.869 208.409C855.858 208.906 884.504 207.963 905.562 218.784C938.309 235.621 959.248 262.421 997.031 271.846C1003.02 273.336 1052.89 284.673 1054.69 282.217C1055.86 280.606 1025.58 265.873 1023.45 264.757C1021.31 263.641 959.534 231.341 959.534 231.341Z" fill="#53BDE3"/>
</g>
</g>
<mask id="mask10_318_16" style="mask-type:luminance" maskUnits="userSpaceOnUse" x="506" y="280" width="244" height="81">
<path d="M513.388 280.11L749.341 318.684L742.564 360.135L506.612 321.561L513.388 280.11Z" fill="white"/>
</mask>
<g mask="url(#mask10_318_16)">
<mask id="mask11_318_16" style="mask-type:luminance" maskUnits="userSpaceOnUse" x="-455" y="-74" width="2514" height="644">
<path fill-rule="evenodd" clip-rule="evenodd" d="M-169.336 -14.4618C-135.444 -2.43755 -80.9568 -13.7608 -39.3852 2.44736C19.8564 25.5597 57.0055 80.8672 114.82 106.918C146.325 121.109 485.779 170.12 526.875 169.447C639.165 167.586 679.65 99.6237 792.247 105.742C855.345 109.177 931.952 185.641 986.368 210.267C1079.07 252.239 1216.03 146.286 1315.17 132.582C1403.99 120.287 1529.05 149.017 1615.23 159.717C1796.18 182.176 1821.66 216.599 1912.22 185.468C1969.23 165.862 2056.53 -122.28 2058.05 -65.7646C2059.75 -3.4007 2025.52 68.7808 2002.97 125.251C1981.94 177.838 1920.04 529.621 1882.22 562.098C1816 618.933 1449.11 319.164 1329.82 344.704C1202.07 372.056 988.782 587.17 775.6 457.341C574.664 334.975 494.675 390.353 248.456 371.164C-4.31475 351.453 -74.5563 321.235 -238.674 202.535C-325.838 139.486 -437.966 355.472 -454.511 238.199C-465.142 162.737 -169.336 -14.4618 -169.336 -14.4618Z" fill="white"/>
</mask>
<g mask="url(#mask11_318_16)">
<path fill-rule="evenodd" clip-rule="evenodd" d="M657.796 314.267C644.074 287.829 569.407 308.935 545.98 311.742C542.093 312.207 509.474 311.171 508.716 315.804C508.075 319.728 527.001 323.717 529.167 324.16C552.576 329.049 578.104 330.831 601.956 330.114C632.544 329.18 659.272 325.89 688.262 337.317C696.081 340.411 732.423 356.852 740.118 352.879C740.396 352.746 740.646 352.467 740.732 352.174C743.113 344.34 709.626 329.761 705.12 327.362C700.616 324.95 657.796 314.267 657.796 314.267Z" fill="#53BDE3"/>
</g>
</g>
<mask id="mask12_318_16" style="mask-type:luminance" maskUnits="userSpaceOnUse" x="1118" y="192" width="325" height="162">
<path d="M1136.69 192.129L1442.79 242.17L1424.55 353.77L1118.45 303.728L1136.69 192.129Z" fill="white"/>
</mask>
<g mask="url(#mask12_318_16)">
<mask id="mask13_318_16" style="mask-type:luminance" maskUnits="userSpaceOnUse" x="-455" y="-74" width="2514" height="644">
<path fill-rule="evenodd" clip-rule="evenodd" d="M-169.336 -14.4616C-135.444 -2.4373 -80.9572 -13.7606 -39.3855 2.44761C19.8561 25.56 57.0052 80.8674 114.82 106.918C146.325 121.11 485.779 170.12 526.875 169.447C639.165 167.586 679.65 99.6239 792.247 105.742C855.344 109.177 931.952 185.641 986.368 210.267C1079.07 252.239 1216.03 146.287 1315.16 132.582C1403.99 120.287 1529.05 149.017 1615.23 159.717C1796.18 182.176 1821.66 216.599 1912.22 185.468C1969.23 165.862 2056.53 -122.28 2058.05 -65.7644C2059.75 -3.40045 2025.52 68.781 2002.97 125.251C1981.94 177.838 1920.04 529.622 1882.22 562.098C1815.99 618.934 1449.11 319.164 1329.82 344.704C1202.07 372.056 988.782 587.17 775.6 457.341C574.663 334.975 494.674 390.354 248.456 371.164C-4.31506 351.453 -74.5566 321.235 -238.674 202.535C-325.838 139.486 -437.966 355.473 -454.511 238.199C-465.142 162.737 -169.336 -14.4616 -169.336 -14.4616Z" fill="white"/>
</mask>
<g mask="url(#mask13_318_16)">
<path fill-rule="evenodd" clip-rule="evenodd" d="M1304.02 228.103C1303.95 223.296 1261.43 234.989 1259.27 235.813C1228 247.965 1200.48 267.84 1169.89 281.459C1166.24 283.074 1119.91 299.401 1121.41 302.422C1124.42 308.4 1148.12 300.868 1152.11 299.679C1180.04 291.38 1205.02 275.36 1234.08 270.827C1281.74 263.374 1336.13 256.638 1384.11 261.913C1393.23 262.918 1430.13 273.477 1436.84 264.202C1446.46 250.864 1382.14 234.16 1376.37 232.834C1370.61 231.495 1304.02 228.103 1304.02 228.103Z" fill="#53BDE3"/>
</g>
</g>
<mask id="mask14_318_16" style="mask-type:luminance" maskUnits="userSpaceOnUse" x="-115" y="4" width="313" height="192">
<path d="M-91.1166 4.50244L197.173 51.632L173.716 195.117L-114.573 147.987L-91.1166 4.50244Z" fill="white"/>
</mask>
<g mask="url(#mask14_318_16)">
<mask id="mask15_318_16" style="mask-type:luminance" maskUnits="userSpaceOnUse" x="-455" y="-74" width="2514" height="644">
<path fill-rule="evenodd" clip-rule="evenodd" d="M-169.336 -14.4616C-135.444 -2.4373 -80.9568 -13.7606 -39.3852 2.44761C19.8564 25.56 57.0055 80.8674 114.82 106.918C146.325 121.11 485.779 170.12 526.875 169.447C639.165 167.586 679.65 99.6239 792.247 105.742C855.345 109.177 931.952 185.641 986.368 210.267C1079.07 252.239 1216.03 146.287 1315.17 132.582C1403.99 120.287 1529.05 149.017 1615.23 159.717C1796.18 182.176 1821.66 216.599 1912.22 185.468C1969.23 165.862 2056.53 -122.28 2058.05 -65.7644C2059.75 -3.40045 2025.52 68.781 2002.97 125.251C1981.94 177.838 1920.04 529.622 1882.22 562.098C1816 618.934 1449.11 319.164 1329.82 344.704C1202.07 372.056 988.782 587.17 775.6 457.341C574.664 334.975 494.675 390.354 248.456 371.164C-4.31475 351.453 -74.5563 321.235 -238.674 202.535C-325.838 139.486 -437.966 355.473 -454.511 238.199C-465.142 162.737 -169.336 -14.4616 -169.336 -14.4616Z" fill="white"/>
</mask>
<g mask="url(#mask15_318_16)">
<path fill-rule="evenodd" clip-rule="evenodd" d="M-119.449 4.23152C-121.702 5.50001 -114.269 4.5412 -111.686 4.46472C-106.259 4.27775 -100.889 4.51629 -95.4903 5.13029C-79.2075 6.98654 -62.5028 9.78138 -47.5734 16.7874C3.15947 40.6316 36.3461 88.7309 90.6876 108.728C110.095 115.877 131.129 118.319 151.494 121.175C158.622 122.161 165.715 123.205 172.759 124.702C176.282 125.444 185.356 124.383 183.243 127.299C182.4 128.465 170.591 127.327 169.002 127.349C154.219 127.656 139.356 127.055 124.609 125.974C97.2623 123.972 67.5049 119.196 43.1154 105.836C13.3512 89.5243 -15.074 60.7206 -51.8091 57.9505C-64.124 57.0115 -37.3124 72.6098 -40.6187 75.6244C-51.1083 85.1887 -71.4523 73.0519 -81.8809 80.9125C-103.042 96.8527 -92.2469 121.636 -121.813 133.683C-165.959 151.684 -200.266 123.812 -204.898 79.4725C-207.271 56.8331 -119.449 4.23152 -119.449 4.23152Z" fill="#53BDE3"/>
</g>
</g>
<mask id="mask16_318_16" style="mask-type:luminance" maskUnits="userSpaceOnUse" x="-137" y="192" width="390" height="155">
<path d="M-121.871 192.627L252.509 253.831L237.393 346.298L-136.988 285.095L-121.871 192.627Z" fill="white"/>
</mask>
<g mask="url(#mask16_318_16)">
<mask id="mask17_318_16" style="mask-type:luminance" maskUnits="userSpaceOnUse" x="-455" y="-74" width="2514" height="644">
<path fill-rule="evenodd" clip-rule="evenodd" d="M-169.336 -14.4613C-135.444 -2.43706 -80.957 -13.7603 -39.3854 2.44785C19.8562 25.5602 57.0053 80.8677 114.82 106.918C146.325 121.11 485.779 170.12 526.875 169.447C639.165 167.586 679.65 99.6242 792.247 105.742C855.344 109.177 931.952 185.642 986.368 210.267C1079.07 252.239 1216.03 146.287 1315.16 132.582C1403.99 120.287 1529.05 149.017 1615.23 159.718C1796.18 182.176 1821.66 216.6 1912.22 185.468C1969.23 165.863 2056.53 -122.28 2058.05 -65.7641C2059.75 -3.40021 2025.52 68.7812 2002.97 125.251C1981.94 177.838 1920.04 529.622 1882.22 562.098C1815.99 618.934 1449.11 319.164 1329.82 344.704C1202.07 372.057 988.782 587.17 775.6 457.342C574.664 334.976 494.675 390.354 248.456 371.164C-4.31493 351.453 -74.5564 321.235 -238.674 202.536C-325.838 139.486 -437.966 355.473 -454.511 238.199C-465.142 162.738 -169.336 -14.4613 -169.336 -14.4613Z" fill="white"/>
</mask>
<g mask="url(#mask17_318_16)">
<path fill-rule="evenodd" clip-rule="evenodd" d="M-150.415 189.265C-153.674 185.19 -143.14 196.784 -139.228 200.237C-131.389 207.12 -122.975 213.38 -114.29 219.161C-88.1475 236.581 -58.8202 258.537 -28.022 266.411C3.79375 274.553 36.5212 278.292 68.2972 287.694C95.6935 295.805 119.721 308.327 148.186 314.284C170.677 318.997 193.832 320.353 216.767 320.944C218.829 320.999 238.491 319.712 238.968 322.425C239.73 326.757 216.084 330.755 213.749 331.269C184.729 337.471 157.596 333.854 128.941 327.264C86.6545 317.538 43.1328 311.459 1.4716 299.162C-27.3326 290.668 -54.3784 277.128 -82.7899 267.483C-119.684 254.968 -159.605 248.455 -186.125 217.226C-192.003 210.318 -150.415 189.265 -150.415 189.265Z" fill="#53BDE3"/>
</g>
</g>
<mask id="mask18_318_16" style="mask-type:luminance" maskUnits="userSpaceOnUse" x="250" y="280" width="98" height="45">
<path d="M254.716 280.382L347.184 295.498L342.493 324.195L250.025 309.079L254.716 280.382Z" fill="white"/>
</mask>
<g mask="url(#mask18_318_16)">
<mask id="mask19_318_16" style="mask-type:luminance" maskUnits="userSpaceOnUse" x="-455" y="-74" width="2514" height="644">
<path fill-rule="evenodd" clip-rule="evenodd" d="M-169.336 -14.4613C-135.444 -2.43706 -80.9568 -13.7603 -39.3852 2.44785C19.8564 25.5602 57.0055 80.8677 114.82 106.918C146.325 121.11 485.779 170.12 526.875 169.447C639.165 167.586 679.65 99.6242 792.247 105.742C855.345 109.177 931.952 185.642 986.368 210.267C1079.07 252.239 1216.03 146.287 1315.17 132.582C1403.99 120.287 1529.05 149.017 1615.23 159.718C1796.18 182.176 1821.66 216.6 1912.22 185.468C1969.23 165.863 2056.53 -122.28 2058.05 -65.7641C2059.75 -3.40021 2025.52 68.7812 2002.97 125.251C1981.94 177.838 1920.04 529.622 1882.22 562.098C1816 618.934 1449.11 319.164 1329.82 344.704C1202.07 372.057 988.782 587.17 775.6 457.342C574.664 334.976 494.675 390.354 248.456 371.164C-4.31475 351.453 -74.5563 321.235 -238.674 202.536C-325.838 139.486 -437.966 355.473 -454.511 238.199C-465.142 162.738 -169.336 -14.4613 -169.336 -14.4613Z" fill="white"/>
</mask>
<g mask="url(#mask19_318_16)">
<path fill-rule="evenodd" clip-rule="evenodd" d="M257.014 287.445C256.052 287.07 263.424 284.221 264.176 284.076C269.619 283.009 274.924 284.823 280.069 286.444C296.523 291.627 311.872 298.728 327.913 304.176C330.081 304.914 344.293 305.831 343.5 309.742C342.09 316.724 325.44 313.67 321.343 313.307C305.998 311.975 264.419 316.073 253.398 303.465C251.232 300.989 257.014 287.445 257.014 287.445Z" fill="#53BDE3"/>
</g>
</g>
<mask id="mask20_318_16" style="mask-type:luminance" maskUnits="userSpaceOnUse" x="64" y="168" width="198" height="67">
<path d="M70.058 168.349L261.371 199.625L255.637 234.699L64.3241 203.423L70.058 168.349Z" fill="white"/>
</mask>
<g mask="url(#mask20_318_16)">
<mask id="mask21_318_16" style="mask-type:luminance" maskUnits="userSpaceOnUse" x="-455" y="-74" width="2514" height="644">
<path fill-rule="evenodd" clip-rule="evenodd" d="M-169.336 -14.4611C-135.444 -2.43682 -80.9568 -13.7601 -39.3852 2.4481C19.8564 25.5605 57.0055 80.8679 114.82 106.918C146.325 121.11 485.779 170.12 526.875 169.447C639.165 167.586 679.65 99.6244 792.247 105.742C855.345 109.178 931.952 185.642 986.368 210.267C1079.07 252.24 1216.03 146.287 1315.17 132.583C1403.99 120.288 1529.05 149.018 1615.23 159.718C1796.18 182.177 1821.66 216.6 1912.22 185.468C1969.23 165.863 2056.53 -122.28 2058.05 -65.7639C2059.75 -3.39996 2025.52 68.7815 2002.97 125.251C1981.94 177.839 1920.04 529.622 1882.22 562.099C1816 618.934 1449.11 319.165 1329.82 344.704C1202.07 372.057 988.782 587.17 775.6 457.342C574.664 334.976 494.675 390.354 248.456 371.164C-4.31475 351.453 -74.5563 321.236 -238.674 202.536C-325.838 139.487 -437.966 355.473 -454.511 238.199C-465.142 162.738 -169.336 -14.4611 -169.336 -14.4611Z" fill="white"/>
</mask>
<g mask="url(#mask21_318_16)">
<path fill-rule="evenodd" clip-rule="evenodd" d="M151.69 191.785C153.127 192.928 154.379 188.95 156.18 188.567C162.117 187.3 168.707 188.057 174.674 188.79C195.845 191.407 214.906 199.894 234.842 206.862C240.467 208.83 253.342 211.74 255.216 218.582C259.312 233.574 224.759 226.608 219.291 225.561C181.984 218.387 144.783 214.403 107.146 209.324C96.4729 207.887 72.8746 207.443 67.2841 195.8C62.9446 186.753 81.6345 188.043 85.3619 188.397C104.919 190.175 123.024 197.15 142.801 196.879C144.853 196.844 151.69 191.785 151.69 191.785Z" fill="#53BDE3"/>
</g>
</g>
<g style="mix-blend-mode:difference">
<rect x="-43.0841" y="-289.31" width="1856.86" height="683.427" transform="rotate(9.28458 -43.0841 -289.31)" fill="#032629"/>
</g>
</g>
</g>
</g>
</svg>
