<svg width="1448" height="230" viewBox="0 0 1448 230" fill="none" xmlns="http://www.w3.org/2000/svg">
<mask id="mask0_275_121" style="mask-type:alpha" maskUnits="userSpaceOnUse" x="0" y="0" width="1448" height="230">
<rect width="1448" height="230" transform="matrix(-1 0 0 1 1448 0)" fill="#D9D9D9"/>
</mask>
<g mask="url(#mask0_275_121)">
<mask id="mask1_275_121" style="mask-type:alpha" maskUnits="userSpaceOnUse" x="-420" y="-92" width="2184" height="299">
<path fill-rule="evenodd" clip-rule="evenodd" d="M1546.81 73.8107C1515.08 76.3533 1468.5 68.4196 1429.38 72.1106C1373.6 77.3763 1332.72 96.684 1277.8 103.193C1247.86 106.739 940.386 104.196 904.117 101.298C805.019 93.3691 779.025 64.1218 678.502 59.3024C622.169 56.6043 543.316 81.6792 491.6 87.8476C403.491 98.364 297.626 48.0337 211.882 36.3037C135.055 25.7873 20.2388 29.037 -57.5728 27.7081C-220.948 24.9147 -248.48 36.7801 -324.108 18.7664C-371.727 7.42251 -407.294 -111.172 -416.812 -89.1056C-427.336 -64.758 -407.487 -34.2569 -395.707 -10.6665C-384.707 11.3041 -380.814 153.228 -352.048 168.388C-301.667 194.922 66.3644 100.887 168.223 118.549C277.313 137.466 434.939 235.498 642.369 198.252C837.882 163.147 900.654 189.992 1121.31 198.252C1347.84 206.727 1414.37 199.381 1576.77 163.353C1663.03 144.216 1731.01 236.105 1762.61 191.176C1782.94 162.265 1546.81 73.8107 1546.81 73.8107Z" fill="#27A6D3"/>
</mask>
<g mask="url(#mask1_275_121)">
<mask id="mask2_275_121" style="mask-type:luminance" maskUnits="userSpaceOnUse" x="-191" y="-92" width="1666" height="300">
<path d="M1474.85 -91.9492L-190.122 -91.9492V207.184L1474.85 207.184V-91.9492Z" fill="white"/>
</mask>
<g mask="url(#mask2_275_121)">
<path fill-rule="evenodd" clip-rule="evenodd" d="M1546.81 73.8107C1515.08 76.3533 1468.5 68.4196 1429.38 72.1106C1373.6 77.3763 1332.72 96.684 1277.8 103.193C1247.86 106.739 940.386 104.196 904.117 101.298C805.019 93.3691 779.025 64.1218 678.502 59.3024C622.169 56.6043 543.316 81.6792 491.6 87.8476C403.491 98.364 297.626 48.0337 211.882 36.3037C135.055 25.7873 20.2388 29.037 -57.5728 27.7081C-220.948 24.9147 -248.48 36.7801 -324.108 18.7664C-371.727 7.42251 -407.294 -111.172 -416.812 -89.1056C-427.336 -64.758 -407.487 -34.2569 -395.707 -10.6665C-384.707 11.3041 -380.814 153.228 -352.048 168.388C-301.667 194.922 66.3644 100.887 168.223 118.549C277.313 137.466 434.939 235.498 642.369 198.252C837.882 163.147 900.654 189.992 1121.31 198.252C1347.84 206.727 1414.37 199.381 1576.77 163.353C1663.03 144.216 1731.01 236.105 1762.61 191.176C1782.94 162.265 1546.81 73.8107 1546.81 73.8107Z" fill="#27A6D3"/>
</g>
<mask id="mask3_275_121" style="mask-type:luminance" maskUnits="userSpaceOnUse" x="-191" y="31" width="333" height="25">
<path d="M141.03 31.2987L-190.122 31.2987V55.6915L141.03 55.6915V31.2987Z" fill="white"/>
</mask>
<g mask="url(#mask3_275_121)">
<mask id="mask4_275_121" style="mask-type:luminance" maskUnits="userSpaceOnUse" x="-420" y="-92" width="2184" height="299">
<path fill-rule="evenodd" clip-rule="evenodd" d="M1546.81 73.8107C1515.08 76.3533 1468.5 68.4196 1429.37 72.1107C1373.6 77.3764 1332.72 96.684 1277.8 103.193C1247.86 106.739 940.386 104.196 904.117 101.298C805.019 93.3691 779.025 64.1218 678.502 59.3024C622.169 56.6044 543.316 81.6792 491.6 87.8476C403.491 98.364 297.626 48.0338 211.882 36.3038C135.055 25.7874 20.2388 29.0371 -57.5728 27.7081C-220.948 24.9148 -248.48 36.7802 -324.108 18.7664C-371.727 7.42257 -407.294 -111.171 -416.812 -89.1056C-427.336 -64.7579 -407.487 -34.2569 -395.707 -10.6664C-384.707 11.3042 -380.814 153.228 -352.048 168.388C-301.667 194.922 66.3644 100.887 168.223 118.549C277.313 137.466 434.939 235.498 642.369 198.252C837.882 163.147 900.654 189.993 1121.31 198.252C1347.84 206.728 1414.37 199.381 1576.77 163.353C1663.03 144.216 1731.01 236.105 1762.61 191.176C1782.94 162.265 1546.81 73.8107 1546.81 73.8107Z" fill="white"/>
</mask>
<g mask="url(#mask4_275_121)">
<path fill-rule="evenodd" clip-rule="evenodd" d="M-241.09 32.6326C-244.485 32.9385 -234.097 32.8382 -230.634 33.0238C-224.014 33.3849 -217.383 33.6457 -210.717 33.8463C-189.216 34.4932 -167.828 34.2926 -146.293 34.0719C-81.7216 33.425 -14.2533 30.3859 49.6843 35.1401C69.9633 36.6446 89.2011 37.3467 109.752 37.0458C116.01 36.9505 122.302 36.9305 128.571 36.9305C129.295 36.9305 139.084 36.9054 138.857 37.1812C136.424 40.1751 109.582 40.6315 104.422 40.8772C69.3296 42.5422 34.4977 40.5663 -0.707581 41.0126C-39.8623 41.5091 -78.9944 43.0939 -118.183 42.5322C-129.975 42.3617 -154.746 39.8793 -164.399 44.4128C-170.227 47.146 -141.653 47.3315 -140.759 47.3165C-140.024 47.3014 -130.971 47.507 -132.872 47.9985C-144.256 50.9072 -166.764 49.4478 -179.19 49.4478C-205.432 49.4478 -232.535 50.3555 -256.741 55.2301C-266.428 57.1859 -241.09 32.6326 -241.09 32.6326Z" fill="#53BDE3"/>
</g>
</g>
<mask id="mask5_275_121" style="mask-type:luminance" maskUnits="userSpaceOnUse" x="204" y="116" width="581" height="84">
<path d="M784.163 116.032L204.764 116.032V199.481L784.163 199.481V116.032Z" fill="white"/>
</mask>
<g mask="url(#mask5_275_121)">
<mask id="mask6_275_121" style="mask-type:luminance" maskUnits="userSpaceOnUse" x="-420" y="-92" width="2184" height="299">
<path fill-rule="evenodd" clip-rule="evenodd" d="M1546.81 73.8105C1515.08 76.3531 1468.5 68.4194 1429.37 72.1104C1373.6 77.3761 1332.73 96.6838 1277.8 103.193C1247.86 106.739 940.386 104.196 904.117 101.298C805.019 93.3689 779.026 64.1216 678.502 59.3022C622.169 56.6041 543.317 81.679 491.601 87.8474C403.491 98.3638 297.626 48.0336 211.882 36.3035C135.055 25.7871 20.239 29.0368 -57.5725 27.7079C-220.947 24.9145 -248.48 36.78 -324.107 18.7662C-371.727 7.42233 -407.294 -111.172 -416.811 -89.1058C-427.335 -64.7581 -407.487 -34.2571 -395.706 -10.6667C-384.707 11.3039 -380.814 153.228 -352.048 168.388C-301.667 194.922 66.3646 100.886 168.223 118.549C277.313 137.466 434.939 235.498 642.369 198.252C837.882 163.147 900.654 189.992 1121.31 198.252C1347.84 206.727 1414.37 199.38 1576.77 163.353C1663.03 144.216 1731.01 236.105 1762.61 191.176C1782.94 162.265 1546.81 73.8105 1546.81 73.8105Z" fill="white"/>
</mask>
<g mask="url(#mask6_275_121)">
<path fill-rule="evenodd" clip-rule="evenodd" d="M206.925 116.879C206.824 117.396 228.234 122.772 229.592 123.203C254.907 131.006 278.343 139.868 302.854 148.117C347.543 163.162 395.524 175.288 445.52 186.457C468.526 191.592 492.517 197.495 518.624 198.608C562.577 200.484 610.038 192.254 651.116 186.251C678.796 182.209 705.005 177.239 734.19 175.549C748.437 174.727 762.968 174.752 777.317 174.441C777.871 174.426 783.507 174.466 783.507 173.964C783.507 172.465 755.386 171.968 753.066 171.878C721.606 170.69 693.202 173.092 662.874 176.437C574.821 186.141 513 198.693 427.357 177.114C385.543 166.582 346.706 154.938 307.913 142.36C281.014 133.629 255.099 123.238 222.406 119.096C219.272 118.699 206.925 116.879 206.925 116.879Z" fill="#53BDE3"/>
</g>
</g>
<mask id="mask7_275_121" style="mask-type:luminance" maskUnits="userSpaceOnUse" x="419" y="77" width="597" height="51">
<path d="M1015.92 77.5167L419.141 77.5167V127.586L1015.92 127.586V77.5167Z" fill="white"/>
</mask>
<g mask="url(#mask7_275_121)">
<mask id="mask8_275_121" style="mask-type:luminance" maskUnits="userSpaceOnUse" x="-420" y="-92" width="2184" height="299">
<path fill-rule="evenodd" clip-rule="evenodd" d="M1546.81 73.8105C1515.08 76.3531 1468.5 68.4194 1429.37 72.1104C1373.6 77.3761 1332.72 96.6838 1277.8 103.193C1247.86 106.739 940.386 104.196 904.117 101.298C805.019 93.3689 779.025 64.1216 678.502 59.3022C622.169 56.6041 543.316 81.679 491.6 87.8474C403.491 98.3638 297.626 48.0336 211.882 36.3035C135.055 25.7871 20.2388 29.0368 -57.5728 27.7079C-220.948 24.9145 -248.48 36.78 -324.108 18.7662C-371.727 7.42233 -407.294 -111.172 -416.812 -89.1058C-427.336 -64.7581 -407.487 -34.2571 -395.707 -10.6667C-384.707 11.3039 -380.814 153.228 -352.048 168.388C-301.667 194.922 66.3644 100.886 168.223 118.549C277.313 137.466 434.939 235.498 642.369 198.252C837.882 163.147 900.654 189.992 1121.31 198.252C1347.84 206.727 1414.37 199.38 1576.77 163.353C1663.03 144.216 1731.01 236.105 1762.61 191.176C1782.94 162.265 1546.81 73.8105 1546.81 73.8105Z" fill="white"/>
</mask>
<g mask="url(#mask8_275_121)">
<path fill-rule="evenodd" clip-rule="evenodd" d="M512.298 97.832C512.977 99.7879 520.106 95.9013 524.146 95.0688C533.709 93.1029 543.463 91.3627 553.173 89.5624C582.686 84.071 612.007 80.4401 644.009 79.1864C747.588 75.1343 793.635 102.075 882.491 114.557C910.046 118.429 939.48 119.918 968.167 120.901C982.109 121.372 996.538 121.733 1010.26 123.012C1011.12 123.092 1015.06 123.303 1014.75 124.045C1013.76 126.417 998.303 126.262 994.953 126.332C971.03 126.824 946.893 126.071 923.253 124.487C871.095 120.991 828.331 109.893 778.109 104.382C729.425 99.0356 677.37 100.069 627.702 96.9594C607.288 95.6806 582.075 93.474 561.875 96.3677C530.461 100.871 508.054 110.038 473.256 111.312C467.745 111.513 421.971 112.762 420.737 111.683C419.934 110.976 448.858 107.14 450.906 106.839C452.955 106.538 512.298 97.832 512.298 97.832Z" fill="#53BDE3"/>
</g>
</g>
<mask id="mask9_275_121" style="mask-type:luminance" maskUnits="userSpaceOnUse" x="685" y="145" width="216" height="18">
<path d="M900.042 145.56H685.665V162.25H900.042V145.56Z" fill="white"/>
</mask>
<g mask="url(#mask9_275_121)">
<mask id="mask10_275_121" style="mask-type:luminance" maskUnits="userSpaceOnUse" x="-420" y="-92" width="2184" height="299">
<path fill-rule="evenodd" clip-rule="evenodd" d="M1546.81 73.8105C1515.08 76.3531 1468.5 68.4194 1429.37 72.1104C1373.6 77.3761 1332.72 96.6838 1277.79 103.193C1247.86 106.739 940.385 104.196 904.116 101.298C805.019 93.3689 779.025 64.1216 678.502 59.3022C622.169 56.6041 543.316 81.679 491.6 87.8474C403.491 98.3638 297.626 48.0336 211.882 36.3035C135.055 25.7871 20.2385 29.0368 -57.573 27.7079C-220.948 24.9145 -248.48 36.78 -324.108 18.7662C-371.727 7.42233 -407.295 -111.172 -416.812 -89.1058C-427.336 -64.7581 -407.487 -34.2571 -395.707 -10.6667C-384.707 11.3039 -380.814 153.228 -352.048 168.388C-301.667 194.922 66.3641 100.886 168.223 118.549C277.313 137.466 434.939 235.498 642.368 198.252C837.882 163.147 900.654 189.992 1121.31 198.252C1347.84 206.727 1414.37 199.38 1576.77 163.353C1663.03 144.216 1731.01 236.105 1762.61 191.176C1782.94 162.265 1546.81 73.8105 1546.81 73.8105Z" fill="white"/>
</mask>
<g mask="url(#mask10_275_121)">
<path fill-rule="evenodd" clip-rule="evenodd" d="M767.313 149.697C783.28 140.208 846.301 153.272 866.625 155.875C869.997 156.307 899.013 157.992 899.013 159.857C899.013 161.437 881.687 161.788 879.707 161.823C858.285 162.239 835.437 161.301 814.434 159.491C787.501 157.164 764.325 154.16 737.019 156.783C729.652 157.495 695.114 161.612 688.879 159.561C688.652 159.491 688.471 159.366 688.437 159.245C687.464 156.021 719.207 152.45 723.541 151.798C727.875 151.141 767.313 149.697 767.313 149.697Z" fill="#53BDE3"/>
</g>
</g>
<mask id="mask11_275_121" style="mask-type:luminance" maskUnits="userSpaceOnUse" x="83" y="71" width="279" height="46">
<path d="M361.202 71.0975L83.0901 71.0975V116.032L361.202 116.032V71.0975Z" fill="white"/>
</mask>
<g mask="url(#mask11_275_121)">
<mask id="mask12_275_121" style="mask-type:luminance" maskUnits="userSpaceOnUse" x="-420" y="-92" width="2184" height="299">
<path fill-rule="evenodd" clip-rule="evenodd" d="M1546.81 73.8107C1515.08 76.3533 1468.5 68.4196 1429.37 72.1106C1373.6 77.3764 1332.72 96.684 1277.8 103.193C1247.86 106.739 940.386 104.196 904.117 101.298C805.019 93.3691 779.025 64.1218 678.502 59.3024C622.169 56.6044 543.316 81.6792 491.6 87.8476C403.491 98.364 297.626 48.0338 211.882 36.3037C135.055 25.7874 20.2388 29.0371 -57.5728 27.7081C-220.948 24.9147 -248.48 36.7802 -324.108 18.7664C-371.727 7.42254 -407.294 -111.171 -416.812 -89.1056C-427.336 -64.7579 -407.487 -34.2569 -395.707 -10.6665C-384.707 11.3041 -380.814 153.228 -352.048 168.388C-301.667 194.922 66.3644 100.887 168.223 118.549C277.313 137.466 434.939 235.498 642.369 198.252C837.882 163.147 900.654 189.993 1121.31 198.252C1347.84 206.727 1414.37 199.381 1576.77 163.353C1663.03 144.216 1731.01 236.105 1762.61 191.176C1782.94 162.265 1546.81 73.8107 1546.81 73.8107Z" fill="white"/>
</mask>
<g mask="url(#mask12_275_121)">
<path fill-rule="evenodd" clip-rule="evenodd" d="M207.921 74.4775C208.679 72.5969 244.62 79.9087 246.408 80.3701C272.323 87.1403 293.801 96.6988 318.901 104.001C321.9 104.868 360.534 114.241 358.768 115.329C355.238 117.481 335.355 113.007 331.994 112.285C308.478 107.24 288.697 99.3567 263.632 95.7159C222.542 89.738 175.386 83.6097 132.158 82.6017C123.942 82.4112 89.7666 84.1865 85.1721 80.1193C78.586 74.2719 137.918 71.8446 143.214 71.6942C148.51 71.5387 207.921 74.4775 207.921 74.4775Z" fill="#53BDE3"/>
</g>
</g>
<mask id="mask13_275_121" style="mask-type:luminance" maskUnits="userSpaceOnUse" x="1212" y="76" width="263" height="59">
<path d="M1474.85 76.2329L1212.92 76.2329V134.005H1474.85V76.2329Z" fill="white"/>
</mask>
<g mask="url(#mask13_275_121)">
<mask id="mask14_275_121" style="mask-type:luminance" maskUnits="userSpaceOnUse" x="-420" y="-92" width="2184" height="299">
<path fill-rule="evenodd" clip-rule="evenodd" d="M1546.81 73.8107C1515.08 76.3533 1468.5 68.4196 1429.37 72.1106C1373.6 77.3764 1332.72 96.684 1277.8 103.193C1247.86 106.739 940.386 104.196 904.117 101.298C805.019 93.3691 779.025 64.1218 678.502 59.3024C622.169 56.6044 543.316 81.6792 491.6 87.8476C403.491 98.364 297.626 48.0338 211.882 36.3037C135.055 25.7874 20.2388 29.0371 -57.5728 27.7081C-220.948 24.9147 -248.48 36.7802 -324.108 18.7664C-371.727 7.42254 -407.294 -111.171 -416.812 -89.1056C-427.336 -64.7579 -407.487 -34.2569 -395.707 -10.6665C-384.707 11.3041 -380.814 153.228 -352.048 168.388C-301.667 194.922 66.3644 100.887 168.223 118.549C277.313 137.466 434.939 235.498 642.369 198.252C837.882 163.147 900.654 189.993 1121.31 198.252C1347.84 206.727 1414.37 199.381 1576.77 163.353C1663.03 144.216 1731.01 236.105 1762.61 191.176C1782.94 162.265 1546.81 73.8107 1546.81 73.8107Z" fill="white"/>
</mask>
<g mask="url(#mask14_275_121)">
<path fill-rule="evenodd" clip-rule="evenodd" d="M1499.96 77.943C1501.77 78.5849 1495.33 77.7323 1493.06 77.5368C1488.28 77.1155 1483.49 76.8648 1478.63 76.7594C1463.95 76.4435 1448.76 76.4686 1434.54 78.2589C1386.19 84.3571 1349.87 101.092 1298.89 105.45C1280.68 107.01 1261.71 106.619 1243.28 106.433C1236.83 106.363 1230.4 106.318 1223.95 106.453C1220.73 106.518 1212.85 105.52 1214.3 106.799C1214.88 107.311 1225.49 107.622 1226.89 107.732C1239.93 108.8 1253.17 109.517 1266.38 110.039C1290.87 111.007 1317.89 111.042 1341.4 107.366C1370.1 102.877 1399.42 93.4041 1432.33 94.6729C1443.37 95.0942 1417.38 99.4923 1419.87 100.886C1427.77 105.31 1447.53 101.854 1455.62 105.606C1472.04 113.213 1458.9 122.24 1483.32 128.86C1519.78 138.749 1554.18 130.018 1564.69 112.927C1570.06 104.201 1499.96 77.943 1499.96 77.943Z" fill="#53BDE3"/>
</g>
</g>
<mask id="mask15_275_121" style="mask-type:luminance" maskUnits="userSpaceOnUse" x="1134" y="151" width="341" height="39">
<path d="M1474.85 151.979H1134.7V189.21H1474.85V151.979Z" fill="white"/>
</mask>
<g mask="url(#mask15_275_121)">
<mask id="mask16_275_121" style="mask-type:luminance" maskUnits="userSpaceOnUse" x="-420" y="-92" width="2184" height="299">
<path fill-rule="evenodd" clip-rule="evenodd" d="M1546.81 73.8107C1515.08 76.3533 1468.5 68.4196 1429.37 72.1106C1373.6 77.3764 1332.72 96.684 1277.8 103.193C1247.86 106.739 940.386 104.196 904.117 101.298C805.019 93.3691 779.025 64.1218 678.502 59.3024C622.169 56.6044 543.316 81.6792 491.6 87.8476C403.491 98.364 297.626 48.0338 211.882 36.3037C135.055 25.7874 20.2388 29.0371 -57.5728 27.7081C-220.948 24.9147 -248.48 36.7802 -324.108 18.7664C-371.727 7.42254 -407.294 -111.171 -416.812 -89.1056C-427.336 -64.7579 -407.487 -34.2569 -395.707 -10.6665C-384.707 11.3041 -380.814 153.228 -352.048 168.388C-301.667 194.922 66.3644 100.887 168.223 118.549C277.313 137.466 434.939 235.498 642.369 198.252C837.882 163.147 900.654 189.993 1121.31 198.252C1347.84 206.727 1414.37 199.381 1576.77 163.353C1663.03 144.216 1731.01 236.105 1762.61 191.176C1782.94 162.265 1546.81 73.8107 1546.81 73.8107Z" fill="white"/>
</mask>
<g mask="url(#mask16_275_121)">
<path fill-rule="evenodd" clip-rule="evenodd" d="M1500.59 152.49C1504.07 151.101 1493.07 154.973 1489.11 156.076C1481.17 158.273 1472.82 160.188 1464.3 161.898C1438.65 167.054 1409.52 173.784 1381.13 174.897C1351.79 176.051 1322.29 175.419 1292.81 177.069C1267.4 178.493 1244.32 181.863 1218.27 182.375C1197.69 182.781 1177 181.828 1156.62 180.589C1154.79 180.479 1137.57 178.714 1136.76 179.747C1135.46 181.397 1155.8 184.481 1157.8 184.832C1182.58 189.125 1207.11 189.446 1233.42 188.698C1272.25 187.595 1311.64 188.001 1350.29 185.85C1377.01 184.366 1402.9 180.79 1429.43 178.829C1463.89 176.286 1500.16 176.291 1528.15 165.745C1534.35 163.413 1500.59 152.49 1500.59 152.49Z" fill="#53BDE3"/>
</g>
</g>
<mask id="mask17_275_121" style="mask-type:luminance" maskUnits="userSpaceOnUse" x="1044" y="162" width="85" height="12">
<path d="M1128.91 162.25H1044.89V173.804H1128.91V162.25Z" fill="white"/>
</mask>
<g mask="url(#mask17_275_121)">
<mask id="mask18_275_121" style="mask-type:luminance" maskUnits="userSpaceOnUse" x="-420" y="-92" width="2184" height="299">
<path fill-rule="evenodd" clip-rule="evenodd" d="M1546.81 73.8105C1515.08 76.3531 1468.5 68.4194 1429.37 72.1104C1373.6 77.3761 1332.72 96.6838 1277.79 103.193C1247.86 106.739 940.385 104.196 904.116 101.298C805.019 93.3689 779.025 64.1216 678.502 59.3022C622.169 56.6041 543.316 81.679 491.6 87.8474C403.491 98.3638 297.626 48.0336 211.882 36.3035C135.055 25.7871 20.2385 29.0368 -57.573 27.7079C-220.948 24.9145 -248.48 36.78 -324.108 18.7662C-371.727 7.42233 -407.295 -111.172 -416.812 -89.1058C-427.336 -64.7581 -407.487 -34.2571 -395.707 -10.6667C-384.707 11.3039 -380.814 153.228 -352.048 168.388C-301.667 194.922 66.3641 100.886 168.223 118.549C277.313 137.466 434.939 235.498 642.368 198.252C837.882 163.147 900.654 189.992 1121.31 198.252C1347.84 206.727 1414.37 199.38 1576.77 163.353C1663.03 144.216 1731.01 236.105 1762.61 191.176C1782.94 162.265 1546.81 73.8105 1546.81 73.8105Z" fill="white"/>
</mask>
<g mask="url(#mask18_275_121)">
<path fill-rule="evenodd" clip-rule="evenodd" d="M1125.85 164.872C1126.76 164.787 1120.64 163.197 1120 163.092C1115.34 162.325 1110.38 162.696 1105.59 163.002C1090.28 163.98 1075.67 165.78 1060.69 166.888C1058.66 167.039 1045.96 166.487 1046.09 168.072C1046.33 170.9 1061.5 170.77 1065.18 170.89C1078.95 171.352 1115.16 175.624 1126.73 171.387C1129.01 170.554 1125.85 164.872 1125.85 164.872Z" fill="#53BDE3"/>
</g>
</g>
<mask id="mask19_275_121" style="mask-type:luminance" maskUnits="userSpaceOnUse" x="1134" y="130" width="175" height="15">
<path d="M1308.52 130.154H1134.7V144.276H1308.52V130.154Z" fill="white"/>
</mask>
<g mask="url(#mask19_275_121)">
<mask id="mask20_275_121" style="mask-type:luminance" maskUnits="userSpaceOnUse" x="-420" y="-92" width="2184" height="299">
<path fill-rule="evenodd" clip-rule="evenodd" d="M1546.81 73.8107C1515.08 76.3533 1468.5 68.4196 1429.37 72.1106C1373.6 77.3764 1332.72 96.684 1277.8 103.193C1247.86 106.739 940.386 104.196 904.117 101.298C805.019 93.3691 779.025 64.1218 678.502 59.3024C622.169 56.6044 543.316 81.6792 491.6 87.8476C403.491 98.364 297.626 48.0338 211.882 36.3037C135.055 25.7874 20.2388 29.0371 -57.5728 27.7081C-220.948 24.9147 -248.48 36.7802 -324.108 18.7664C-371.727 7.42254 -407.294 -111.171 -416.812 -89.1056C-427.336 -64.7579 -407.487 -34.2569 -395.707 -10.6665C-384.707 11.3041 -380.814 153.228 -352.048 168.388C-301.667 194.922 66.3644 100.887 168.223 118.549C277.313 137.466 434.939 235.498 642.369 198.252C837.882 163.147 900.654 189.993 1121.31 198.252C1347.84 206.727 1414.37 199.381 1576.77 163.353C1663.03 144.216 1731.01 236.105 1762.61 191.176C1782.94 162.265 1546.81 73.8107 1546.81 73.8107Z" fill="white"/>
</mask>
<g mask="url(#mask20_275_121)">
<path fill-rule="evenodd" clip-rule="evenodd" d="M1232.89 134.111C1231.45 134.467 1230.92 132.827 1229.38 132.561C1224.31 131.683 1218.37 131.558 1212.99 131.463C1193.87 131.132 1175.78 133.238 1157.13 134.692C1151.87 135.104 1140.05 135.419 1137.4 137.982C1131.61 143.599 1163.19 143.082 1168.18 143.022C1202.24 142.601 1235.73 143.423 1269.77 143.845C1279.42 143.965 1300.37 145.304 1307 141.096C1312.15 137.827 1295.43 137.135 1292.08 137.034C1274.51 136.478 1257.48 138.052 1240.02 136.678C1238.21 136.533 1232.89 134.111 1232.89 134.111Z" fill="#53BDE3"/>
</g>
</g>
<g style="mix-blend-mode:difference">
<rect width="1664.97" height="271.569" transform="matrix(-1 0 0 1 1474.85 -42.0672)" fill="#032629"/>
</g>
</g>
</g>
</svg>
