<svg width="1448" height="519" viewBox="0 0 1448 519" fill="none" xmlns="http://www.w3.org/2000/svg">
<mask id="mask0_275_17" style="mask-type:alpha" maskUnits="userSpaceOnUse" x="0" y="0" width="1448" height="519">
<rect width="1448" height="519" fill="#D9D9D9"/>
</mask>
<g mask="url(#mask0_275_17)">
<mask id="mask1_275_17" style="mask-type:alpha" maskUnits="userSpaceOnUse" x="-316" y="-208" width="2184" height="675">
<path fill-rule="evenodd" clip-rule="evenodd" d="M-98.8084 166.555C-67.0773 172.293 -20.499 154.39 18.6218 162.719C74.4003 174.601 115.275 218.169 170.205 232.858C200.137 240.859 507.614 235.121 543.883 228.581C642.981 210.689 668.975 144.692 769.498 133.817C825.831 127.729 904.684 184.311 956.4 198.23C1044.51 221.96 1150.37 108.389 1236.12 81.9201C1312.95 58.1897 1427.76 65.5227 1505.57 62.5238C1668.95 56.2206 1696.48 82.9952 1772.11 42.3467C1819.73 16.749 1855.29 -250.861 1864.81 -201.069C1875.34 -146.128 1855.49 -77.3015 1843.71 -24.0692C1832.71 25.5079 1828.81 345.762 1800.05 379.971C1749.67 439.846 1381.64 227.653 1279.78 267.509C1170.69 310.194 1013.06 531.407 805.631 447.36C610.118 368.146 547.346 428.722 326.688 447.36C100.156 466.485 33.6273 449.907 -128.774 368.61C-215.028 325.426 -283.005 532.776 -314.612 431.393C-334.936 366.154 -98.8084 166.555 -98.8084 166.555Z" fill="#27A6D3"/>
</mask>
<g mask="url(#mask1_275_17)">
<mask id="mask2_275_17" style="mask-type:luminance" maskUnits="userSpaceOnUse" x="-27" y="-208" width="1666" height="676">
<path d="M-26.8475 -207.485L1638.12 -207.485V467.515L-26.8475 467.515L-26.8475 -207.485Z" fill="white"/>
</mask>
<g mask="url(#mask2_275_17)">
<path fill-rule="evenodd" clip-rule="evenodd" d="M-98.8085 166.556C-67.0774 172.293 -20.4991 154.391 18.6216 162.719C74.4001 174.602 115.275 218.17 170.205 232.858C200.137 240.859 507.614 235.122 543.883 228.581C642.981 210.69 668.975 144.692 769.498 133.817C825.831 127.729 904.684 184.311 956.4 198.23C1044.51 221.961 1150.37 108.389 1236.12 81.9204C1312.95 58.1899 1427.76 65.5229 1505.57 62.5241C1668.95 56.2209 1696.48 82.9955 1772.11 42.347C1819.73 16.7493 1855.29 -250.861 1864.81 -201.069C1875.34 -146.128 1855.49 -77.3012 1843.71 -24.0689C1832.71 25.5082 1828.81 345.762 1800.05 379.971C1749.67 439.846 1381.64 227.653 1279.78 267.509C1170.69 310.195 1013.06 531.407 805.631 447.361C610.118 368.146 547.346 428.722 326.688 447.361C100.156 466.485 33.6272 449.907 -128.774 368.61C-215.028 325.426 -283.005 532.777 -314.612 431.393C-334.936 366.154 -98.8085 166.556 -98.8085 166.556Z" fill="#27A6D3"/>
</g>
<mask id="mask3_275_17" style="mask-type:luminance" maskUnits="userSpaceOnUse" x="1306" y="70" width="333" height="56">
<path d="M1306.97 70.6262L1638.12 70.6262V125.669L1306.97 125.669V70.6262Z" fill="white"/>
</mask>
<g mask="url(#mask3_275_17)">
<mask id="mask4_275_17" style="mask-type:luminance" maskUnits="userSpaceOnUse" x="-316" y="-208" width="2184" height="675">
<path fill-rule="evenodd" clip-rule="evenodd" d="M-98.8085 166.556C-67.0774 172.293 -20.4991 154.391 18.633 162.719C74.4001 174.602 115.275 218.17 170.205 232.858C200.137 240.859 507.614 235.122 543.883 228.581C642.981 210.69 668.975 144.692 769.498 133.817C825.831 127.729 904.684 184.311 956.4 198.23C1044.51 221.961 1150.37 108.389 1236.12 81.9204C1312.95 58.1899 1427.76 65.5229 1505.57 62.5241C1668.95 56.2209 1696.48 82.9955 1772.11 42.347C1819.73 16.7493 1855.29 -250.861 1864.81 -201.069C1875.34 -146.128 1855.49 -77.3012 1843.71 -24.0689C1832.71 25.5082 1828.81 345.762 1800.05 379.971C1749.67 439.846 1381.64 227.653 1279.78 267.509C1170.69 310.195 1013.06 531.407 805.631 447.361C610.118 368.146 547.346 428.722 326.688 447.361C100.156 466.485 33.6272 449.907 -128.774 368.61C-215.028 325.426 -283.005 532.777 -314.612 431.393C-334.936 366.154 -98.8085 166.556 -98.8085 166.556Z" fill="white"/>
</mask>
<g mask="url(#mask4_275_17)">
<path fill-rule="evenodd" clip-rule="evenodd" d="M1689.09 73.6366C1692.49 74.3269 1682.1 74.1006 1678.63 74.5193C1672.01 75.3341 1665.38 75.9225 1658.72 76.3752C1637.22 77.835 1615.83 77.3823 1594.29 76.8844C1529.72 75.4246 1462.25 68.5668 1398.32 79.2948C1378.04 82.6897 1358.8 84.274 1338.25 83.595C1331.99 83.38 1325.7 83.3347 1319.43 83.3347C1318.7 83.3347 1308.92 83.2782 1309.14 83.9006C1311.58 90.6564 1338.42 91.6862 1343.58 92.2407C1378.67 95.9978 1413.5 91.5391 1448.71 92.5463C1487.86 93.6666 1526.99 97.2426 1566.18 95.9751C1577.97 95.5904 1602.75 89.9888 1612.4 100.219C1618.23 106.386 1589.65 106.805 1588.76 106.771C1588.02 106.737 1578.97 107.201 1580.87 108.31C1592.26 114.874 1614.76 111.58 1627.19 111.58C1653.43 111.58 1680.54 113.629 1704.74 124.628C1714.43 129.042 1689.09 73.6366 1689.09 73.6366Z" fill="#53BDE3"/>
</g>
</g>
<mask id="mask5_275_17" style="mask-type:luminance" maskUnits="userSpaceOnUse" x="663" y="261" width="581" height="190">
<path d="M663.837 261.828L1243.24 261.828V450.133H663.837V261.828Z" fill="white"/>
</mask>
<g mask="url(#mask5_275_17)">
<mask id="mask6_275_17" style="mask-type:luminance" maskUnits="userSpaceOnUse" x="-316" y="-208" width="2184" height="675">
<path fill-rule="evenodd" clip-rule="evenodd" d="M-98.8087 166.556C-67.0775 172.293 -20.4992 154.391 18.6328 162.719C74.4 174.602 115.275 218.17 170.205 232.858C200.136 240.859 507.614 235.122 543.883 228.581C642.981 210.69 668.974 144.692 769.498 133.817C825.831 127.729 904.683 184.311 956.399 198.23C1044.51 221.961 1150.37 108.389 1236.12 81.9204C1312.94 58.1899 1427.76 65.5229 1505.57 62.5241C1668.95 56.2209 1696.48 82.9955 1772.11 42.347C1819.73 16.7493 1855.29 -250.861 1864.81 -201.069C1875.34 -146.128 1855.49 -77.3012 1843.71 -24.0689C1832.71 25.5082 1828.81 345.762 1800.05 379.971C1749.67 439.846 1381.64 227.653 1279.78 267.509C1170.69 310.195 1013.06 531.407 805.631 447.361C610.118 368.146 547.346 428.722 326.688 447.361C100.156 466.485 33.6271 449.907 -128.774 368.61C-215.028 325.426 -283.006 532.777 -314.612 431.393C-334.936 366.154 -98.8087 166.556 -98.8087 166.556Z" fill="white"/>
</mask>
<g mask="url(#mask6_275_17)">
<path fill-rule="evenodd" clip-rule="evenodd" d="M1241.07 263.74C1241.18 264.906 1219.77 277.037 1218.41 278.01C1193.09 295.619 1169.66 315.615 1145.15 334.23C1100.46 368.179 1052.48 395.542 1002.48 420.744C979.474 432.332 955.483 445.651 929.376 448.164C885.423 452.396 837.962 433.826 796.884 420.28C769.204 411.159 742.995 399.945 713.81 396.131C699.563 394.275 685.032 394.332 670.683 393.63C670.129 393.596 664.493 393.687 664.493 392.555C664.493 389.171 692.614 388.051 694.934 387.847C726.394 385.165 754.798 390.586 785.126 398.134C873.179 420.031 935 448.356 1020.64 399.662C1062.46 375.897 1101.29 349.621 1140.09 321.239C1166.99 301.537 1192.9 278.09 1225.59 268.742C1228.73 267.848 1241.07 263.74 1241.07 263.74Z" fill="#53BDE3"/>
</g>
</g>
<mask id="mask7_275_17" style="mask-type:luminance" maskUnits="userSpaceOnUse" x="432" y="174" width="597" height="114">
<path d="M432.077 174.918L1028.86 174.918V287.901H432.077V174.918Z" fill="white"/>
</mask>
<g mask="url(#mask7_275_17)">
<mask id="mask8_275_17" style="mask-type:luminance" maskUnits="userSpaceOnUse" x="-316" y="-208" width="2184" height="675">
<path fill-rule="evenodd" clip-rule="evenodd" d="M-98.8085 166.556C-67.0774 172.293 -20.4991 154.391 18.633 162.719C74.4001 174.602 115.275 218.17 170.205 232.858C200.137 240.859 507.614 235.122 543.883 228.581C642.981 210.69 668.975 144.692 769.498 133.817C825.831 127.729 904.684 184.311 956.4 198.23C1044.51 221.961 1150.37 108.389 1236.12 81.9204C1312.95 58.1899 1427.76 65.5229 1505.57 62.5241C1668.95 56.2209 1696.48 82.9955 1772.11 42.347C1819.73 16.7493 1855.29 -250.861 1864.81 -201.069C1875.34 -146.128 1855.49 -77.3012 1843.71 -24.0689C1832.71 25.5082 1828.81 345.762 1800.05 379.971C1749.67 439.846 1381.64 227.653 1279.78 267.509C1170.69 310.195 1013.06 531.407 805.631 447.361C610.118 368.146 547.346 428.722 326.688 447.361C100.156 466.485 33.6272 449.907 -128.774 368.61C-215.028 325.426 -283.005 532.777 -314.612 431.393C-334.936 366.154 -98.8085 166.556 -98.8085 166.556Z" fill="white"/>
</mask>
<g mask="url(#mask8_275_17)">
<path fill-rule="evenodd" clip-rule="evenodd" d="M935.702 220.761C935.023 225.174 927.894 216.404 923.854 214.526C914.291 210.09 904.537 206.163 894.827 202.1C865.314 189.709 835.993 181.516 803.991 178.687C700.412 169.543 654.365 230.335 565.509 258.501C537.954 267.237 508.52 270.598 479.833 272.816C465.891 273.88 451.462 274.695 437.736 277.58C436.876 277.762 432.937 278.237 433.254 279.912C434.239 285.264 449.697 284.914 453.047 285.072C476.97 286.181 501.107 284.483 524.747 280.908C576.905 273.02 619.669 247.977 669.891 235.54C718.574 223.477 770.63 225.808 820.297 218.792C840.712 215.906 865.925 210.927 886.125 217.457C917.539 227.619 939.946 248.305 974.743 251.179C980.255 251.632 1026.03 254.45 1027.26 252.017C1028.07 250.421 999.142 241.764 997.093 241.085C995.045 240.406 935.702 220.761 935.702 220.761Z" fill="#53BDE3"/>
</g>
</g>
<mask id="mask9_275_17" style="mask-type:luminance" maskUnits="userSpaceOnUse" x="547" y="328" width="216" height="39">
<path d="M547.957 328.459H762.335V366.12H547.957V328.459Z" fill="white"/>
</mask>
<g mask="url(#mask9_275_17)">
<mask id="mask10_275_17" style="mask-type:luminance" maskUnits="userSpaceOnUse" x="-316" y="-208" width="2184" height="675">
<path fill-rule="evenodd" clip-rule="evenodd" d="M-98.8084 166.556C-67.0773 172.293 -20.499 154.391 18.6331 162.719C74.4003 174.602 115.275 218.17 170.205 232.858C200.137 240.859 507.614 235.122 543.883 228.581C642.981 210.69 668.975 144.692 769.498 133.817C825.831 127.729 904.684 184.311 956.4 198.23C1044.51 221.961 1150.37 108.389 1236.12 81.9204C1312.95 58.1899 1427.76 65.5229 1505.57 62.5241C1668.95 56.2209 1696.48 82.9955 1772.11 42.347C1819.73 16.7493 1855.29 -250.861 1864.81 -201.069C1875.34 -146.128 1855.49 -77.3012 1843.71 -24.0689C1832.71 25.5082 1828.81 345.762 1800.05 379.971C1749.67 439.846 1381.64 227.653 1279.78 267.509C1170.69 310.195 1013.06 531.407 805.631 447.361C610.118 368.146 547.346 428.722 326.688 447.361C100.156 466.485 33.6273 449.907 -128.774 368.61C-215.028 325.426 -283.005 532.777 -314.612 431.393C-334.936 366.154 -98.8084 166.556 -98.8084 166.556Z" fill="white"/>
</mask>
<g mask="url(#mask10_275_17)">
<path fill-rule="evenodd" clip-rule="evenodd" d="M680.687 337.795C664.72 316.384 601.699 345.863 581.375 351.736C578.002 352.71 548.987 356.512 548.987 360.722C548.987 364.286 566.312 365.078 568.293 365.158C589.715 366.097 612.563 363.981 633.566 359.896C660.499 354.645 683.675 347.866 710.981 353.785C718.348 355.392 752.886 364.682 759.121 360.054C759.347 359.896 759.528 359.613 759.562 359.341C760.536 352.065 728.793 344.007 724.459 342.536C720.125 341.054 680.687 337.795 680.687 337.795Z" fill="#53BDE3"/>
</g>
</g>
<mask id="mask11_275_17" style="mask-type:luminance" maskUnits="userSpaceOnUse" x="1086" y="160" width="279" height="102">
<path d="M1086.8 160.433L1364.91 160.433V261.828H1086.8V160.433Z" fill="white"/>
</mask>
<g mask="url(#mask11_275_17)">
<mask id="mask12_275_17" style="mask-type:luminance" maskUnits="userSpaceOnUse" x="-316" y="-208" width="2184" height="675">
<path fill-rule="evenodd" clip-rule="evenodd" d="M-98.8087 166.556C-67.0775 172.293 -20.4992 154.391 18.6328 162.719C74.4 174.602 115.275 218.17 170.205 232.858C200.136 240.859 507.614 235.122 543.883 228.581C642.981 210.69 668.974 144.692 769.498 133.817C825.831 127.729 904.683 184.311 956.399 198.23C1044.51 221.961 1150.37 108.389 1236.12 81.9204C1312.94 58.1899 1427.76 65.5229 1505.57 62.5241C1668.95 56.2209 1696.48 82.9955 1772.11 42.347C1819.73 16.7493 1855.29 -250.861 1864.81 -201.069C1875.34 -146.128 1855.49 -77.3012 1843.71 -24.0689C1832.71 25.5082 1828.81 345.762 1800.05 379.971C1749.67 439.846 1381.64 227.653 1279.78 267.509C1170.69 310.195 1013.06 531.407 805.631 447.361C610.118 368.146 547.346 428.722 326.688 447.361C100.156 466.485 33.6271 449.907 -128.774 368.61C-215.028 325.426 -283.006 532.777 -314.612 431.393C-334.936 366.154 -98.8087 166.556 -98.8087 166.556Z" fill="white"/>
</mask>
<g mask="url(#mask12_275_17)">
<path fill-rule="evenodd" clip-rule="evenodd" d="M1240.08 168.06C1239.32 163.817 1203.38 180.316 1201.59 181.357C1175.68 196.634 1154.2 218.203 1129.1 234.68C1126.1 236.638 1087.47 257.788 1089.23 260.244C1092.76 265.098 1112.64 255.004 1116.01 253.375C1139.52 241.99 1159.3 224.201 1184.37 215.985C1225.46 202.496 1272.61 188.668 1315.84 186.393C1324.06 185.963 1358.23 189.969 1362.83 180.791C1369.41 167.596 1310.08 162.119 1304.79 161.78C1299.49 161.429 1240.08 168.06 1240.08 168.06Z" fill="#53BDE3"/>
</g>
</g>
<mask id="mask13_275_17" style="mask-type:luminance" maskUnits="userSpaceOnUse" x="-27" y="172" width="263" height="131">
<path d="M-26.8475 172.021L235.082 172.021V302.386H-26.8475L-26.8475 172.021Z" fill="white"/>
</mask>
<g mask="url(#mask13_275_17)">
<mask id="mask14_275_17" style="mask-type:luminance" maskUnits="userSpaceOnUse" x="-316" y="-208" width="2184" height="675">
<path fill-rule="evenodd" clip-rule="evenodd" d="M-98.8085 166.556C-67.0774 172.293 -20.4991 154.391 18.633 162.719C74.4001 174.602 115.275 218.17 170.205 232.858C200.137 240.859 507.614 235.122 543.883 228.581C642.981 210.69 668.975 144.692 769.498 133.817C825.831 127.729 904.684 184.311 956.4 198.23C1044.51 221.961 1150.37 108.389 1236.12 81.9204C1312.95 58.1899 1427.76 65.5229 1505.57 62.5241C1668.95 56.2209 1696.48 82.9955 1772.11 42.347C1819.73 16.7493 1855.29 -250.861 1864.81 -201.069C1875.34 -146.128 1855.49 -77.3012 1843.71 -24.0689C1832.71 25.5082 1828.81 345.762 1800.05 379.971C1749.67 439.846 1381.64 227.653 1279.78 267.509C1170.69 310.195 1013.06 531.407 805.631 447.361C610.118 368.146 547.346 428.722 326.688 447.361C100.156 466.485 33.6272 449.907 -128.774 368.61C-215.028 325.426 -283.005 532.777 -314.612 431.393C-334.936 366.154 -98.8085 166.556 -98.8085 166.556Z" fill="white"/>
</mask>
<g mask="url(#mask14_275_17)">
<path fill-rule="evenodd" clip-rule="evenodd" d="M-51.9585 175.88C-53.7691 177.329 -47.3301 175.405 -45.0555 174.964C-40.28 174.013 -35.4932 173.447 -30.6271 173.21C-15.9498 172.497 -0.763176 172.553 13.4615 176.593C61.8051 190.354 98.1307 228.117 149.111 237.951C167.319 241.47 186.285 240.587 204.72 240.169C211.17 240.01 217.598 239.908 224.048 240.214C227.273 240.361 235.15 238.109 233.701 240.995C233.124 242.149 222.509 242.851 221.106 243.1C208.069 245.51 194.829 247.128 181.623 248.305C157.134 250.489 130.111 250.568 106.595 242.273C77.897 232.145 48.5763 210.769 15.6682 213.632C4.63474 214.582 30.6172 224.507 28.1276 227.653C20.2287 237.634 0.470314 229.837 -7.6209 238.301C-24.041 255.468 -10.9027 275.838 -35.3234 290.776C-71.7848 313.091 -106.175 293.39 -116.688 254.823C-122.064 235.133 -51.9585 175.88 -51.9585 175.88Z" fill="#53BDE3"/>
</g>
</g>
<mask id="mask15_275_17" style="mask-type:luminance" maskUnits="userSpaceOnUse" x="-27" y="342" width="341" height="85">
<path d="M-26.8475 342.944H313.301V426.957H-26.8475L-26.8475 342.944Z" fill="white"/>
</mask>
<g mask="url(#mask15_275_17)">
<mask id="mask16_275_17" style="mask-type:luminance" maskUnits="userSpaceOnUse" x="-316" y="-208" width="2184" height="675">
<path fill-rule="evenodd" clip-rule="evenodd" d="M-98.8085 166.556C-67.0774 172.293 -20.4991 154.391 18.633 162.719C74.4001 174.602 115.275 218.17 170.205 232.858C200.137 240.859 507.614 235.122 543.883 228.581C642.981 210.69 668.975 144.692 769.498 133.817C825.831 127.729 904.684 184.311 956.4 198.23C1044.51 221.961 1150.37 108.389 1236.12 81.9204C1312.95 58.1899 1427.76 65.5229 1505.57 62.5241C1668.95 56.2209 1696.48 82.9955 1772.11 42.347C1819.73 16.7493 1855.29 -250.861 1864.81 -201.069C1875.34 -146.128 1855.49 -77.3012 1843.71 -24.0689C1832.71 25.5082 1828.81 345.762 1800.05 379.971C1749.67 439.846 1381.64 227.653 1279.78 267.509C1170.69 310.195 1013.06 531.407 805.631 447.361C610.118 368.146 547.346 428.722 326.688 447.361C100.156 466.485 33.6272 449.907 -128.774 368.61C-215.028 325.426 -283.005 532.777 -314.612 431.393C-334.936 366.154 -98.8085 166.556 -98.8085 166.556Z" fill="white"/>
</mask>
<g mask="url(#mask16_275_17)">
<path fill-rule="evenodd" clip-rule="evenodd" d="M-52.5923 344.098C-56.0664 340.964 -45.0669 349.7 -41.1062 352.189C-33.1734 357.146 -24.8219 361.469 -16.3006 365.328C9.35361 376.961 38.482 392.148 66.8748 394.66C96.2069 397.263 125.709 395.837 155.188 399.56C180.605 402.774 203.679 410.378 229.729 411.533C250.314 412.449 271 410.299 291.381 407.504C293.214 407.255 310.426 403.272 311.241 405.603C312.542 409.326 292.195 416.285 290.204 417.078C265.421 426.764 240.887 427.489 214.576 425.803C175.75 423.313 136.357 424.23 97.712 419.375C70.994 416.025 45.1021 407.957 18.5651 403.532C-15.8933 397.794 -52.1623 397.806 -80.1477 374.007C-86.3491 368.745 -52.5923 344.098 -52.5923 344.098Z" fill="#53BDE3"/>
</g>
</g>
<mask id="mask17_275_17" style="mask-type:luminance" maskUnits="userSpaceOnUse" x="319" y="366" width="85" height="27">
<path d="M319.094 366.12H403.107V392.193H319.094V366.12Z" fill="white"/>
</mask>
<g mask="url(#mask17_275_17)">
<mask id="mask18_275_17" style="mask-type:luminance" maskUnits="userSpaceOnUse" x="-316" y="-208" width="2184" height="675">
<path fill-rule="evenodd" clip-rule="evenodd" d="M-98.8084 166.556C-67.0773 172.293 -20.499 154.391 18.6331 162.719C74.4003 174.602 115.275 218.17 170.205 232.858C200.137 240.859 507.614 235.122 543.883 228.581C642.981 210.69 668.975 144.692 769.498 133.817C825.831 127.729 904.684 184.311 956.4 198.23C1044.51 221.961 1150.37 108.389 1236.12 81.9204C1312.95 58.1899 1427.76 65.5229 1505.57 62.5241C1668.95 56.2209 1696.48 82.9955 1772.11 42.347C1819.73 16.7493 1855.29 -250.861 1864.81 -201.069C1875.34 -146.128 1855.49 -77.3012 1843.71 -24.0689C1832.71 25.5082 1828.81 345.762 1800.05 379.971C1749.67 439.846 1381.64 227.653 1279.78 267.509C1170.69 310.195 1013.06 531.407 805.631 447.361C610.118 368.146 547.346 428.722 326.688 447.361C100.156 466.485 33.6273 449.907 -128.774 368.61C-215.028 325.426 -283.005 532.777 -314.612 431.393C-334.936 366.154 -98.8084 166.556 -98.8084 166.556Z" fill="white"/>
</mask>
<g mask="url(#mask18_275_17)">
<path fill-rule="evenodd" clip-rule="evenodd" d="M322.15 372.038C321.245 371.846 327.356 368.259 328.001 368.021C332.663 366.29 337.62 367.127 342.406 367.817C357.717 370.024 372.327 374.087 387.31 376.587C389.335 376.927 402.044 375.682 401.908 379.258C401.67 385.641 386.495 385.346 382.817 385.618C369.045 386.659 332.844 396.301 321.267 386.738C318.993 384.86 322.15 372.038 322.15 372.038Z" fill="#53BDE3"/>
</g>
</g>
<mask id="mask19_275_17" style="mask-type:luminance" maskUnits="userSpaceOnUse" x="139" y="293" width="175" height="33">
<path d="M139.481 293.695H313.301V325.562H139.481V293.695Z" fill="white"/>
</mask>
<g mask="url(#mask19_275_17)">
<mask id="mask20_275_17" style="mask-type:luminance" maskUnits="userSpaceOnUse" x="-316" y="-208" width="2184" height="675">
<path fill-rule="evenodd" clip-rule="evenodd" d="M-98.8085 166.556C-67.0774 172.293 -20.4991 154.391 18.633 162.719C74.4001 174.602 115.275 218.17 170.205 232.858C200.137 240.859 507.614 235.122 543.883 228.581C642.981 210.69 668.975 144.692 769.498 133.817C825.831 127.729 904.684 184.311 956.4 198.23C1044.51 221.961 1150.37 108.389 1236.12 81.9204C1312.95 58.1899 1427.76 65.5229 1505.57 62.5241C1668.95 56.2209 1696.48 82.9955 1772.11 42.347C1819.73 16.7493 1855.29 -250.861 1864.81 -201.069C1875.34 -146.128 1855.49 -77.3012 1843.71 -24.0689C1832.71 25.5082 1828.81 345.762 1800.05 379.971C1749.67 439.846 1381.64 227.653 1279.78 267.509C1170.69 310.195 1013.06 531.407 805.631 447.361C610.118 368.146 547.346 428.722 326.688 447.361C100.156 466.485 33.6272 449.907 -128.774 368.61C-215.028 325.426 -283.005 532.777 -314.612 431.393C-334.936 366.154 -98.8085 166.556 -98.8085 166.556Z" fill="white"/>
</mask>
<g mask="url(#mask20_275_17)">
<path fill-rule="evenodd" clip-rule="evenodd" d="M215.108 302.624C216.545 303.427 217.077 299.727 218.616 299.127C223.686 297.147 229.627 296.864 235.014 296.649C254.127 295.902 272.222 300.655 290.872 303.936C296.134 304.864 307.948 305.577 310.596 311.36C316.39 324.034 284.806 322.869 279.815 322.733C245.764 321.782 212.268 323.638 178.228 324.589C168.575 324.86 147.629 327.882 140.997 318.388C135.848 311.009 152.574 309.448 155.924 309.221C173.487 307.965 190.518 311.518 207.979 308.418C209.79 308.09 215.108 302.624 215.108 302.624Z" fill="#53BDE3"/>
</g>
</g>
<g style="mix-blend-mode:difference">
<rect x="-26.8474" y="-94.9255" width="1664.97" height="612.801" fill="#032629"/>
</g>
</g>
</g>
</svg>
